<svg xmlns="http://www.w3.org/2000/svg" fill="none" viewBox="0 0 33 43"><path fill="#FFDF74" d="M4.02 11.986v28.498c0 .971.787 1.758 1.757 1.758h24.961c.971 0 1.758-.787 1.758-1.758V6.031c0-.97-.787-1.758-1.758-1.758H11.886l-7.713 7.713H4.02z"/><path fill="#FFC34C" d="M9.293 40.484V11.986h.154l7.712-7.713h-5.273l-7.713 7.713H4.02v28.498c0 .971.787 1.758 1.757 1.758h5.274c-.971 0-1.758-.787-1.758-1.758z"/><path fill="#FFF4C1" d="M28.98 8.47V36.97c0 .97-.787 1.758-1.757 1.758H2.262c-.971 0-1.758-.787-1.758-1.758V2.516c0-.971.787-1.758 1.758-1.758h18.852l7.713 7.712h.153z"/><path fill="#FCF9DE" d="M28.98 8.47L21.268.758l-.14 6.995a.703.703 0 0 0 .703.717h7.15z"/><path fill="#F87064" d="M26.476 30.729h-7.867a.703.703 0 1 1 0-1.407h7.867a.703.703 0 0 1 0 1.407zM25.18 36.353h-5.274a.703.703 0 0 1-.703-.703v-2.46c0-.389.314-.704.703-.704h5.273c.389 0 .703.315.703.704v2.46a.703.703 0 0 1-.703.703z"/><path fill="#FCE575" d="M5.426 36.969V2.516c0-.971.787-1.758 1.758-1.758H2.262C1.29.758.504 1.545.504 2.516v34.453c0 .97.787 1.758 1.758 1.758h4.922c-.971 0-1.758-.787-1.758-1.758z"/><path fill="#F87064" d="M15.973 6.12H3.009a.703.703 0 0 1 0-1.407h12.964a.703.703 0 0 1 0 1.406zM18.741 13.15H3.01a.703.703 0 0 1 0-1.406H18.74a.703.703 0 0 1 0 1.406zM26.564 16.666H3.009a.703.703 0 0 1 0-1.406h23.555a.703.703 0 0 1 0 1.406zM26.564 20.182H3.009a.703.703 0 0 1 0-1.407h23.555a.703.703 0 0 1 0 1.407zM26.564 23.697H3.009a.703.703 0 0 1 0-1.406h23.555a.703.703 0 0 1 0 1.406z"/><path fill="#F87064" d="M3.009 22.291a.703.703 0 0 0 0 1.406h2.417v-1.406H3.009zM3.009 18.775a.703.703 0 0 0 0 1.407h2.417v-1.407H3.009zM3.009 15.26a.703.703 0 0 0 0 1.406h2.417V15.26H3.009zM3.009 11.744a.703.703 0 0 0 0 1.406h2.417v-1.406H3.009zM3.009 4.713a.703.703 0 0 0 0 1.406h2.417V4.713H3.009z"/><path fill="#FCE575" d="M7.855 37.935a1.582 1.582 0 1 0 0-3.164 1.582 1.582 0 0 0 0 3.164zM30.738 38.753a.527.527 0 0 1-.527-.527V24.573a.527.527 0 0 1 1.055 0v13.653a.527.527 0 0 1-.528.527z"/></svg>