<svg xmlns="http://www.w3.org/2000/svg" fill="none" viewBox="0 0 130 132"><path fill="#fff" fill-opacity=".2" d="M65.092 72.199c-1.655 0-2.942 1.276-2.942 2.917 0 1.64 1.287 2.917 2.942 2.917 1.655 0 2.942-1.276 2.942-2.917-.184-1.64-1.471-2.917-2.942-2.917zm0 17.867c-1.655 0-2.942 1.277-2.942 2.917 0 1.641 1.287 2.917 2.942 2.917 1.655 0 2.942-1.276 2.942-2.917-.184-1.64-1.471-2.917-2.942-2.917zm0 36.1c-1.655 0-2.942 1.276-2.942 2.917 0 1.641 1.287 2.917 2.942 2.917 1.655 0 2.942-1.276 2.942-2.917-.184-1.641-1.471-2.917-2.942-2.917zm0-18.05c-1.655 0-2.942 1.276-2.942 2.917 0 1.641 1.287 2.917 2.942 2.917 1.655 0 2.942-1.276 2.942-2.917-.184-1.641-1.471-2.917-2.942-2.917zM85.686 18.05c-1.655 0-2.942 1.276-2.942 2.917 0 1.64 1.287 2.917 2.942 2.917 1.655 0 2.942-1.276 2.942-2.917 0-1.641-1.287-2.917-2.942-2.917zm-20.594 36.1c-1.655 0-2.942 1.275-2.942 2.916s1.287 2.917 2.942 2.917c1.655 0 2.942-1.276 2.942-2.917-.184-1.64-1.471-2.917-2.942-2.917zM44.314 95.9c1.655 0 2.942-1.276 2.942-2.917 0-1.64-1.287-2.917-2.942-2.917-1.655 0-2.942 1.277-2.942 2.917 0 1.641 1.287 2.917 2.942 2.917zm0 18.05c1.655 0 2.942-1.276 2.942-2.917 0-1.641-1.287-2.917-2.942-2.917-1.655 0-2.942 1.276-2.942 2.917 0 1.641 1.287 2.917 2.942 2.917zM65.092 0c-1.655 0-2.942 1.276-2.942 2.917 0 1.641 1.287 2.917 2.942 2.917 1.655 0 2.942-1.276 2.942-2.917C67.85 1.277 66.563 0 65.092 0zm0 18.05c-1.655 0-2.942 1.276-2.942 2.917 0 1.64 1.287 2.917 2.942 2.917 1.655 0 2.942-1.276 2.942-2.917-.184-1.641-1.471-2.917-2.942-2.917zm0 18.05c-1.655 0-2.942 1.276-2.942 2.917 0 1.64 1.287 2.917 2.942 2.917 1.655 0 2.942-1.276 2.942-2.917-.184-1.641-1.471-2.918-2.942-2.918zm61.966 41.75c1.655 0 2.942-1.275 2.942-2.916s-1.287-2.917-2.942-2.917c-1.655 0-2.942 1.276-2.942 2.917 0 1.64 1.471 2.917 2.942 2.917zm0-18.049c1.655 0 2.942-1.276 2.942-2.917 0-1.64-1.287-2.917-2.942-2.917-1.655 0-2.942 1.276-2.942 2.917 0 1.64 1.471 2.917 2.942 2.917zm-1.103-18.232c.368.182.735.182 1.103.182s.735-.182 1.103-.182c.368-.182.736-.365.92-.73.551-.546.735-1.093.735-1.822 0-1.641-1.287-2.918-2.942-2.918-1.655 0-2.942 1.277-2.942 2.918.184 1.093.92 2.187 2.023 2.552zm-79.618 85.508s-.184-.182-.368-.182c-.552-.365-1.103-.729-1.655-.729-1.655 0-2.942 1.276-2.942 2.917 0 .729.368 1.458.92 2.005.551.547 1.286.912 2.022.912h.368c.735-.182 1.287-.365 1.655-.912l.183-.182c.184-.182.184-.365.368-.547.184-.365.184-.729.184-1.094.184-.911-.184-1.641-.735-2.188.183 0 .183 0 0 0zm-2.023-49.226c1.655 0 2.942-1.276 2.942-2.917 0-1.641-1.287-2.917-2.942-2.917-1.655 0-2.942 1.276-2.942 2.917 0 1.64 1.287 2.917 2.942 2.917zm41.372 30.265c-1.655 0-2.942 1.276-2.942 2.917 0 1.641 1.287 2.917 2.942 2.917 1.655 0 2.942-1.276 2.942-2.917 0-1.641-1.287-2.917-2.942-2.917zm0-53.967c-1.655 0-2.942 1.276-2.942 2.917 0 1.641 1.287 2.917 2.942 2.917 1.655 0 2.942-1.276 2.942-2.917 0-1.64-1.287-2.917-2.942-2.917zm0 18.05c-1.655 0-2.942 1.276-2.942 2.917 0 1.64 1.287 2.917 2.942 2.917 1.655 0 2.942-1.276 2.942-2.917 0-1.64-1.287-2.917-2.942-2.917zm0 17.867c-1.655 0-2.942 1.277-2.942 2.917 0 1.641 1.287 2.917 2.942 2.917 1.655 0 2.942-1.276 2.942-2.917 0-1.64-1.287-2.917-2.942-2.917zm0-53.967c-1.655 0-2.942 1.277-2.942 2.918 0 1.64 1.287 2.917 2.942 2.917 1.655 0 2.942-1.276 2.942-2.917 0-1.641-1.287-2.918-2.942-2.918zm20.778-18.05c-1.655 0-2.942 1.277-2.942 2.918 0 1.64 1.287 2.917 2.942 2.917 1.655 0 2.942-1.276 2.942-2.917-.184-1.641-1.471-2.917-2.942-2.917zM85.686 5.835c1.655 0 2.942-1.276 2.942-2.917 0-.547-.184-.911-.368-1.276v-.182a2.207 2.207 0 0 0-.92-.912C86.79.182 86.239 0 85.687 0c-1.655 0-2.942 1.276-2.942 2.917 0 1.641 1.471 2.917 2.942 2.917zm20.778 84.232c-1.655 0-2.942 1.277-2.942 2.917 0 1.641 1.287 2.917 2.942 2.917 1.655 0 2.942-1.276 2.942-2.917-.184-1.64-1.471-2.917-2.942-2.917zm0 18.05c-1.655 0-2.942 1.276-2.942 2.917 0 1.641 1.287 2.917 2.942 2.917 1.655 0 2.942-1.276 2.942-2.917-.184-1.641-1.471-2.917-2.942-2.917zm0-72.017c-1.655 0-2.942 1.277-2.942 2.918 0 1.64 1.287 2.917 2.942 2.917 1.655 0 2.942-1.276 2.942-2.917-.184-1.641-1.471-2.918-2.942-2.918zm0 36.1c-1.655 0-2.942 1.276-2.942 2.917 0 1.64 1.287 2.917 2.942 2.917 1.655 0 2.942-1.276 2.942-2.917-.184-1.64-1.471-2.917-2.942-2.917zM2.942 36.099c-.368 0-.736 0-.92.183-.183 0-.551.182-.735.364C.552 37.193 0 37.923 0 39.016v.365c0 .73.368 1.276.92 1.823l.183.183c.184.182.368.364.552.364.368.183.735.183 1.103.183 1.287 0 2.207-.73 2.758-1.823.184-.365.184-.73.184-1.094 0-.365 0-.73-.184-1.094-.367-1.094-1.287-1.824-2.574-1.824zm103.522 18.05c-1.655 0-2.942 1.276-2.942 2.917 0 1.641 1.287 2.917 2.942 2.917 1.655 0 2.942-1.276 2.942-2.917-.184-1.64-1.471-2.917-2.942-2.917zM2.942 90.066c-.368 0-.735 0-1.103.183-.184 0-.368.182-.368.182-.184 0-.184.182-.368.182l-.551.547v.183c-.184.182-.184.546-.368.729 0 .182-.184.547-.184.73 0 1.093.735 2.005 1.655 2.552.368.182.735.364 1.287.364 1.655 0 2.942-1.276 2.942-2.917 0-.365 0-.73-.184-1.094-.552-.911-1.47-1.64-2.758-1.64zm0-35.917C1.287 54.15 0 55.425 0 57.066c0 1.641 1.287 2.917 2.942 2.917 1.655 0 2.942-1.276 2.942-2.917 0-1.64-1.287-2.917-2.942-2.917zm0 18.05C1.287 72.199 0 73.475 0 75.116c0 1.64 1.287 2.917 2.942 2.917 1.655 0 2.942-1.276 2.942-2.917 0-1.64-1.287-2.917-2.942-2.917zm20.778-18.05c-1.655 0-2.942 1.276-2.942 2.917 0 1.641 1.287 2.917 2.942 2.917 1.655 0 2.942-1.276 2.942-2.917-.184-1.64-1.471-2.917-2.942-2.917zM44.314 5.834c1.655 0 2.942-1.276 2.942-2.917 0-1.64-1.287-2.917-2.942-2.917-1.655 0-2.942 1.276-2.942 2.917 0 1.641 1.287 2.917 2.942 2.917zm0 35.917c1.655 0 2.942-1.276 2.942-2.917 0-1.64-1.287-2.917-2.942-2.917-1.655 0-2.942 1.276-2.942 2.917 0 1.641 1.287 2.917 2.942 2.917zm0-17.867c1.655 0 2.942-1.276 2.942-2.917 0-1.641-1.287-2.917-2.942-2.917-1.655 0-2.942 1.276-2.942 2.917 0 1.64 1.287 2.917 2.942 2.917zM23.72 90.066c-1.655 0-2.942 1.277-2.942 2.917 0 1.641 1.287 2.917 2.942 2.917 1.655 0 2.942-1.276 2.942-2.917-.184-1.64-1.471-2.917-2.942-2.917zm0-17.867c-1.655 0-2.942 1.276-2.942 2.917 0 1.64 1.287 2.917 2.942 2.917 1.655 0 2.942-1.276 2.942-2.917-.184-1.64-1.471-2.917-2.942-2.917zm0-54.15c-1.655 0-2.942 1.277-2.942 2.918 0 1.64 1.287 2.917 2.942 2.917 1.655 0 2.942-1.276 2.942-2.917-.184-1.641-1.471-2.917-2.942-2.917zm20.594 41.752c1.655 0 2.942-1.276 2.942-2.917 0-1.64-1.287-2.917-2.942-2.917-1.655 0-2.942 1.276-2.942 2.917 0 1.64 1.287 2.917 2.942 2.917zM23.72 108.116c-1.655 0-2.942 1.276-2.942 2.917 0 1.641 1.287 2.917 2.942 2.917 1.655 0 2.942-1.276 2.942-2.917-.184-1.641-1.471-2.917-2.942-2.917zm0-72.017c-1.655 0-2.942 1.277-2.942 2.918 0 1.64 1.287 2.917 2.942 2.917 1.655 0 2.942-1.276 2.942-2.917-.184-1.641-1.471-2.918-2.942-2.918zM128.16 90.431c-.368-.182-.551-.182-.919-.182h-.184c-1.655 0-2.942 1.276-2.942 2.917 0 .364 0 .729.184 1.094.184.182.184.364.368.547l.184.182c.551.547 1.103.73 1.838.911h.184c1.655 0 2.942-1.276 2.942-2.917.184-1.094-.552-2.187-1.655-2.552zm-42.475 35.735c-.736 0-1.287.182-1.839.729-.184 0-.184.182-.367.182-.552.547-.736 1.094-.736 1.824v.182c0 .364 0 .729.184.911 0 .183 0 .183.184.365s.184.365.368.547l.183.182c.184.183.552.365.736.547.368.183.735.183 1.103.183 1.287 0 2.39-.912 2.758-2.006.184-.182.184-.547.184-.911.184-1.459-1.103-2.735-2.758-2.735z"/></svg>