<svg xmlns="http://www.w3.org/2000/svg" fill="none" viewBox="0 0 927 748"><path fill="#fff" fill-opacity=".1" d="M19.6 10.5c.3.4.5.9.5 1.4.1.5.1 1 0 1.4-.2.7-.5 1.4-1 1.9-.2.2-.4.3-.6.5-.9.6-1.9.7-2.8.5-.9-.2-1.8-.8-2.3-1.6-1.1-1.7-.6-4 1.1-5.2.6-.4 1.4-.6 2.1-.6.5 0 1 .1 1.4.3.6.3 1.1.8 1.6 1.4zM103.1 3.6c0 1.2-.6 2.4-1.7 3.1-.2.1-.4.3-.7.3-.9.4-1.9.3-2.8-.1-.7-.3-1.2-.8-1.7-1.4-.4-.6-.6-1.4-.6-2.1 0-1.2.6-2.4 1.7-3.1.2-.1.4-.3.7-.3.5-.2.9-.3 1.4-.2.5 0 1 .1 1.4.3.7.3 1.2.8 1.7 1.4.4.7.6 1.4.6 2.1zM122 11.2c-1.1-1.7-.6-4 1.1-5.2 1.7-1.1 4-.6 5.2 1.1 1.1 1.7.6 4-1.1 5.2-1.8 1.1-4.1.6-5.2-1.1zM122.2 32.3c.2.2.3.4.5.6.3.4.5.9.5 1.4.2 1 0 1.9-.6 2.7-.3.4-.6.8-1.1 1-.2.1-.4.3-.7.3-.9.4-1.9.3-2.8-.1-.7-.3-1.2-.8-1.7-1.4-.4-.6-.6-1.4-.6-2.1 0-1.2.6-2.4 1.7-3.1.4-.3.9-.5 1.4-.5.7-.1 1.5 0 2.1.2.5.4.9.7 1.3 1zM38.6 47.1c-1.5 1-3.5.7-4.7-.5-.2-.2-.3-.4-.5-.6-.1-.2-.3-.4-.3-.7-.6-1.6-.1-3.5 1.5-4.5.4-.3.9-.5 1.4-.5 1.4-.2 2.9.4 3.8 1.7 1.1 1.6.5 3.9-1.2 5.1zM70 26.9c-1.7 1.1-4 .6-5.2-1.1-1.1-1.7-.6-4 1.1-5.2 1.7-1.1 4-.6 5.2 1.1 1.1 1.8.6 4.1-1.1 5.2zM44.2 21.3c-1.7 1.1-4 .6-5.2-1.1-1.1-1.7-.6-4 1.1-5.2 1.7-1.1 4-.6 5.2 1.1 1.1 1.8.6 4.1-1.1 5.2zM64.4 52.6c-1.7 1.1-4 .6-5.2-1.1-1.1-1.7-.6-4 1.1-5.2 1.7-1.1 4-.6 5.2 1.1 1.1 1.8.6 4.1-1.1 5.2zM75.6 1.1c-1.7 1.1-4 .6-5.2-1.1-1.1-1.7-.6-4 1.1-5.2 1.7-1.1 4-.6 5.2 1.1 1.1 1.8.6 4.1-1.1 5.2zM95.8 32.5c-1.7 1.1-4 .6-5.2-1.1-1.1-1.7-.6-4 1.1-5.2 1.7-1.1 4-.6 5.2 1.1 1.1 1.7.6 4.1-1.1 5.2zM59.9 73.3c.8 1.3.8 2.9-.1 4.1-.3.4-.6.8-1.1 1-.2.1-.4.3-.7.3-.9.4-1.9.3-2.8-.1-.7-.3-1.2-.8-1.7-1.4-.3-.4-.5-.9-.5-1.4 0-.2-.1-.5-.1-.7 0-.2 0-.5.1-.7.1-.5.3-.9.6-1.3s.6-.8 1.1-1c1.1-.7 2.4-.8 3.5-.3.7.3 1.3.8 1.7 1.5zM7.3 67.2c-1.7 1.1-4 .6-5.2-1.1-1.1-1.7-.6-4 1.1-5.2 1.7-1.1 4-.6 5.2 1.1 1.1 1.8.6 4.1-1.1 5.2zM1.7 93c-1.7 1.1-4 .6-5.2-1.1-1.1-1.7-.6-4 1.1-5.2 1.7-1.1 4-.6 5.2 1.1 1.1 1.8.6 4.1-1.1 5.2zM12.8 41.5c-1.7 1.1-4 .6-5.2-1.1-1.1-1.7-.6-4 1.1-5.2 1.7-1.1 4-.6 5.2 1.1 1.2 1.7.7 4-1.1 5.2zM33 72.8c-1.7 1.1-4 .6-5.2-1.1-1.1-1.7-.6-4 1.1-5.2 1.7-1.1 4-.6 5.2 1.1 1.2 1.8.7 4.1-1.1 5.2zM28.1 92.8c.2.2.3.4.5.6 1.1 1.7.6 4-1.1 5.2-1.7 1.1-4 .6-5.2-1.1-1.1-1.7-.6-4 1.1-5.2 1.1-.7 2.4-.8 3.5-.3.4.2.8.5 1.2.8zM143.4 66.4c0 1-.4 1.9-1.1 2.6-.2.2-.4.3-.6.5-1.7 1.1-4 .6-5.2-1.1-.6-.9-.7-1.9-.5-2.8.2-.9.8-1.8 1.6-2.3 1.7-1.1 4-.6 5.2 1.1.4.5.6 1.3.6 2zM167.9 48.1c-1.1-1.7-.6-4 1.1-5.2 1.7-1.1 4-.6 5.2 1.1 1.1 1.7.6 4-1.1 5.2-1.8 1.2-4.1.7-5.2-1.1zM147.7 16.8c-.3-.4-.5-.9-.5-1.4-.1-.5-.1-1 0-1.4.1-.5.3-.9.6-1.3s.6-.8 1.1-1c.4-.3.9-.5 1.4-.5 1.4-.2 2.9.4 3.8 1.7.8 1.3.8 2.9-.1 4.1-.3.4-.6.8-1.1 1-1.7 1-4.1.5-5.2-1.2zM142.1 42.5c-1.1-1.7-.6-4 1.1-5.2 1.7-1.1 4-.6 5.2 1.1 1.1 1.7.6 4-1.1 5.2-1.7 1.2-4 .7-5.2-1.1zM162.3 73.9c-1.1-1.7-.6-4 1.1-5.2 1.7-1.1 4-.6 5.2 1.1 1.1 1.7.6 4-1.1 5.2-1.8 1.1-4.1.6-5.2-1.1zM163 95.6c.3.4.5.9.5 1.4 0 .2.1.5.1.7 0 .7-.2 1.4-.6 2-.3.4-.6.8-1.1 1-.2.1-.4.3-.7.3-.9.4-1.9.3-2.8-.1-.7-.3-1.2-.8-1.7-1.4-.1-.2-.3-.4-.3-.7-.2-.5-.3-.9-.2-1.4 0-.7.2-1.4.6-2 .3-.4.6-.8 1.1-1 .2-.1.4-.3.7-.3.5-.2.9-.3 1.4-.2.5 0 1 .1 1.4.3.6.3 1.2.8 1.6 1.4zM80.1 104.6c.6.9.7 1.9.5 2.8-.2.9-.8 1.8-1.6 2.3-.9.6-1.9.7-2.8.5-.9-.2-1.8-.8-2.3-1.6-1.1-1.7-.6-4 1.1-5.2.6-.4 1.4-.6 2.1-.6.5 0 1 .1 1.4.3.6.4 1.2.9 1.6 1.5zM110.3 89.6c-1.7 1.1-4 .6-5.2-1.1-1.1-1.7-.6-4 1.1-5.2 1.7-1.1 4-.6 5.2 1.1 1.2 1.8.7 4.1-1.1 5.2zM91.8 54.5c.2 1-.1 1.9-.6 2.7-.3.4-.6.8-1.1 1-.9.6-1.9.7-2.8.5-.9-.2-1.8-.8-2.3-1.6-.4-.6-.6-1.4-.6-2.1 0-1 .4-1.9 1.1-2.6.2-.2.4-.3.6-.5 1.7-1.1 4-.6 5.2 1.1.3.5.4 1 .5 1.5zM84.6 84c-1.7 1.1-4 .6-5.2-1.1-1.1-1.7-.6-4 1.1-5.2 1.7-1.1 4-.6 5.2 1.1 1.1 1.8.6 4.1-1.1 5.2zM104.7 115.4c-1.7 1.1-4 .6-5.2-1.1-1.1-1.7-.6-4 1.1-5.2 1.7-1.1 4-.6 5.2 1.1 1.2 1.8.7 4.1-1.1 5.2zM115.9 63.8c-1.7 1.1-4 .6-5.2-1.1-1.1-1.7-.6-4 1.1-5.2 1.7-1.1 4-.6 5.2 1.1 1.2 1.8.7 4.1-1.1 5.2zM136.1 95.2c-1.7 1.1-4 .6-5.2-1.1-1.1-1.7-.6-4 1.1-5.2 1.7-1.1 4-.6 5.2 1.1 1.1 1.8.6 4.1-1.1 5.2zM131.6 115.8c.4.6.6 1.4.6 2.1 0 1-.4 1.9-1.1 2.6-.2.2-.4.3-.6.5-.9.6-1.9.7-2.8.5-.9-.2-1.8-.8-2.3-1.6-1.1-1.7-.6-4 1.1-5.2.2-.1.4-.3.7-.3.9-.4 1.9-.3 2.8.1.6.2 1.2.7 1.6 1.3zM16.2 150.1c-.2.1-.4.3-.7.3-.9.4-1.9.3-2.8-.1-.7-.3-1.2-.8-1.7-1.4-.4-.6-.6-1.4-.6-2.1 0-1.2.6-2.4 1.7-3.1 1.7-1.1 4-.6 5.2 1.1 1.2 1.9.7 4.2-1.1 5.3zM47.6 130c-1.7 1.1-4 .6-5.2-1.1-1.1-1.7-.6-4 1.1-5.2 1.7-1.1 4-.6 5.2 1.1 1.1 1.7.6 4-1.1 5.2zM21.8 124.4c-1.7 1.1-4 .6-5.2-1.1-1.1-1.7-.6-4 1.1-5.2 1.7-1.1 4-.6 5.2 1.1 1.2 1.7.7 4-1.1 5.2zM42 155.7c-1.7 1.1-4 .6-5.2-1.1-1.1-1.7-.6-4 1.1-5.2 1.7-1.1 4-.6 5.2 1.1 1.1 1.8.6 4.1-1.1 5.2zM53.2 104.2c-1.7 1.1-4 .6-5.2-1.1-1.1-1.7-.6-4 1.1-5.2 1.7-1.1 4-.6 5.2 1.1 1.1 1.8.6 4.1-1.1 5.2zM73.4 135.5c-1.7 1.1-4 .6-5.2-1.1-1.1-1.7-.6-4 1.1-5.2 1.7-1.1 4-.6 5.2 1.1 1.1 1.8.6 4.1-1.1 5.2zM37.5 176.3c.3.4.5.9.5 1.4 0 .2.1.5.1.7 0 1-.4 1.9-1.1 2.6-.2.2-.4.3-.6.5-.9.6-1.9.7-2.8.5-.9-.2-1.8-.8-2.3-1.6-1.1-1.7-.6-4 1.1-5.2.6-.4 1.4-.6 2.1-.6.5 0 1 .1 1.4.3.6.3 1.2.8 1.6 1.4zM10.6 175.9c-1.7 1.1-4 .6-5.2-1.1-1.1-1.7-.6-4 1.1-5.2 1.7-1.1 4-.6 5.2 1.1 1.2 1.8.7 4.1-1.1 5.2zM182.1 132.2c-.2.1-.4.3-.7.3-.9.4-1.9.3-2.8-.1-.7-.3-1.2-.8-1.7-1.4-.4-.6-.6-1.4-.6-2.1 0-1.2.6-2.4 1.7-3.1 1.7-1.1 4-.6 5.2 1.1 1.1 1.8.6 4.1-1.1 5.3zM208.3 110.9c-1.1-1.7-.6-4 1.1-5.2.4-.3.9-.5 1.4-.5 1.1 2.1 2.2 4.2 3.3 6.2-.2.2-.4.4-.7.6-1.7 1.1-4 .6-5.1-1.1zM188.1 79.5c-1.1-1.7-.6-4 1.1-5.2.9-.6 1.9-.7 2.8-.5.9.2 1.8.8 2.3 1.6 1.1 1.7.6 4-1.1 5.2-1.7 1.1-4 .6-5.1-1.1zM182.5 105.3c-1.1-1.7-.6-4 1.1-5.2 1.7-1.1 4-.6 5.2 1.1 1.1 1.7.6 4-1.1 5.2-1.8 1.1-4.1.6-5.2-1.1zM202.7 136.6c-1.1-1.7-.6-4 1.1-5.2 1.7-1.1 4-.6 5.2 1.1 1.1 1.7.6 4-1.1 5.2-1.8 1.2-4.1.7-5.2-1.1zM119.3 172.5c-.2.1-.4.3-.7.3-.9.4-1.9.3-2.8-.1-.7-.3-1.2-.8-1.7-1.4-.4-.6-.6-1.4-.6-2.1 0-1.2.6-2.4 1.7-3.1 1.7-1.1 4-.6 5.2 1.1 1.2 1.9.7 4.2-1.1 5.3zM100.3 136c1.1 1.7.6 4-1.1 5.2-1.5 1-3.5.7-4.7-.5-.2-.2-.3-.4-.5-.6-.1-.2-.3-.4-.3-.7-.3-.7-.3-1.4-.2-2.1.2-.9.8-1.8 1.6-2.3.4-.3.9-.5 1.4-.5.5-.1 1-.1 1.4 0 1 .1 1.8.6 2.4 1.5zM150.7 152.3c-1.7 1.1-4 .6-5.2-1.1-1.1-1.7-.6-4 1.1-5.2 1.7-1.1 4-.6 5.2 1.1 1.1 1.8.6 4.1-1.1 5.2zM124.9 146.7c-1.7 1.1-4 .6-5.2-1.1-1.1-1.7-.6-4 1.1-5.2 1.7-1.1 4-.6 5.2 1.1 1.2 1.8.6 4.1-1.1 5.2zM145.1 178.1c-1.7 1.1-4 .6-5.2-1.1-1.1-1.7-.6-4 1.1-5.2 1.7-1.1 4-.6 5.2 1.1 1.1 1.8.6 4.1-1.1 5.2zM156.3 126.6c-1.7 1.1-4 .6-5.2-1.1-1.1-1.7-.6-4 1.1-5.2 1.7-1.1 4-.6 5.2 1.1 1.1 1.7.6 4-1.1 5.2zM176.5 157.9c-1.7 1.1-4 .6-5.2-1.1-1.1-1.7-.6-4 1.1-5.2 1.7-1.1 4-.6 5.2 1.1 1.1 1.8.6 4.1-1.1 5.2zM140.1 198.1c.2.2.3.4.5.6.3.4.5.9.5 1.4.2 1 0 1.9-.6 2.7-.3.4-.6.8-1.1 1-.2.1-.4.3-.7.3-1.6.6-3.5.1-4.5-1.5-1.1-1.7-.6-4 1.1-5.2.4-.3.9-.5 1.4-.5.7-.1 1.5 0 2.1.2.6.4 1 .7 1.3 1zM88 192.7c-1.7 1.1-4 .6-5.2-1.1-1.1-1.7-.6-4 1.1-5.2 1.7-1.1 4-.6 5.2 1.1 1.1 1.8.6 4.1-1.1 5.2zM68.8 160.3c-.3.4-.6.8-1.1 1-.2.1-.4.3-.7.3-.5.2-.9.3-1.4.2-1.2 0-2.4-.6-3.1-1.7-.1-.2-.3-.4-.3-.7-.4-1.2-.3-2.4.4-3.4.3-.4.6-.8 1.1-1 1.7-1.1 4-.6 5.2 1.1.8 1.4.8 3-.1 4.2zM62.2 187.1c-1.7 1.1-4 .6-5.2-1.1-1.1-1.7-.6-4 1.1-5.2 1.7-1.1 4-.6 5.2 1.1 1.1 1.8.6 4.1-1.1 5.2zM78.3 212.2c1.7-1.1 4-.6 5.2 1.1 1.1 1.7.6 4-1.1 5.2-1.7 1.1-4 .6-5.2-1.1-1.1-1.8-.6-4.1 1.1-5.2zM93.6 166.9c-1.7 1.1-4 .6-5.2-1.1-1.1-1.7-.6-4 1.1-5.2 1.7-1.1 4-.6 5.2 1.1 1.1 1.8.6 4.1-1.1 5.2zM113.7 198.3c-1.7 1.1-4 .6-5.2-1.1-1.1-1.7-.6-4 1.1-5.2 1.7-1.1 4-.6 5.2 1.1 1.2 1.8.7 4.1-1.1 5.2zM102.4 220.8c0-1 .4-1.9 1.1-2.6.2-.2.4-.3.6-.5 1.7-1.1 4-.6 5.2 1.1.3.4.5.9.5 1.4.2 1-.1 1.9-.6 2.7-.3.4-.6.8-1.1 1-.9.6-1.9.7-2.8.5-.9-.2-1.8-.8-2.3-1.6-.4-.5-.6-1.2-.6-2zM21.2 226.8c1.7-1.1 4-.6 5.2 1.1 1.1 1.7.6 4-1.1 5.2-1.7 1.1-4 .6-5.2-1.1-1.1-1.8-.6-4.1 1.1-5.2zM-.1 200.6c-.3-.4-.5-.9-.5-1.4-.1-.5-.1-1 0-1.4.1-.5.3-.9.6-1.3s.6-.8 1.1-1c.4-.3.9-.5 1.4-.5.5-.1 1-.1 1.4 0 .9.2 1.8.8 2.3 1.6 1.1 1.7.6 4-1.1 5.2-.4.3-.9.5-1.4.5-.5.1-1 .1-1.4 0-.5-.1-.9-.3-1.3-.6-.5-.4-.8-.7-1.1-1.1zM-4.6 221.2c1.7-1.1 4-.6 5.2 1.1 1.1 1.7.6 4-1.1 5.2-1.7 1.1-4 .6-5.2-1.1-1.1-1.8-.6-4.1 1.1-5.2zM15.6 252.5c1.7-1.1 4-.6 5.2 1.1 1.1 1.7.6 4-1.1 5.2-1.7 1.1-4 .6-5.2-1.1-1.1-1.7-.6-4.1 1.1-5.2zM26.8 201c1.7-1.1 4-.6 5.2 1.1 1.1 1.7.6 4-1.1 5.2-1.7 1.1-4 .6-5.2-1.1-1.1-1.8-.6-4.1 1.1-5.2zM47 232.4c1.7-1.1 4-.6 5.2 1.1 1.1 1.7.6 4-1.1 5.2-1.7 1.1-4 .6-5.2-1.1-1.2-1.8-.7-4.1 1.1-5.2zM41.4 258.1c1.1-.7 2.4-.8 3.5-.3.4.2.8.5 1.2.8.2.2.3.4.5.6 1.1 1.7.6 4-1.1 5.2-1.7 1.1-4 .6-5.2-1.1-1.2-1.7-.7-4.1 1.1-5.2zM51.4 211.7c-.1-.2-.3-.4-.3-.7-.2-.5-.3-.9-.2-1.4 0-1.2.6-2.4 1.7-3.1.2-.1.4-.3.7-.3.5-.2.9-.3 1.4-.2.5 0 1 .1 1.4.3.7.3 1.2.8 1.7 1.4.4.6.6 1.4.6 2.1 0 1.2-.6 2.4-1.7 3.1-1.5 1-3.5.7-4.7-.5-.3-.2-.4-.4-.6-.7zM224.1 191.8c0 1.2-.6 2.4-1.7 3.1-1.5 1-3.5.7-4.7-.5-.2-.2-.3-.4-.5-.6-.1-.2-.3-.4-.3-.7-.2-.5-.3-.9-.3-1.4 0-1.2.6-2.4 1.7-3.1.2-.1.4-.3.7-.3.5-.2.9-.3 1.4-.2.5 0 1 .1 1.4.3.7.3 1.2.8 1.7 1.4.4.6.6 1.3.6 2zM203.9 159.7c0 .2.1.5.1.7 0 .7-.2 1.4-.6 2-.1.2-.3.4-.5.6-.2.2-.4.3-.6.5-.9.6-1.9.7-2.8.5-.9-.2-1.8-.8-2.3-1.6-.7-1.1-.8-2.4-.3-3.5.2-.4.5-.8.8-1.2.2-.2.4-.3.6-.5.6-.4 1.4-.6 2.1-.6.5 0 1 .1 1.4.3.7.3 1.2.8 1.7 1.4.1.5.3 1 .4 1.4zM248.6 173.6c-1-1.6-.7-3.6.7-4.8 1.5 2 3 3.9 4.6 5.8 0 0-.1 0-.1.1-1.8 1.1-4.1.6-5.2-1.1zM228.4 142.2c-.1-.2-.3-.4-.3-.7-.4-1.2-.3-2.4.4-3.4l.3-.3c.6 1 1.2 2 1.8 3.1l1.8 3c-1.5.3-3.1-.3-4-1.7zM222.8 168c-1.1-1.7-.6-4 1.1-5.2 1.7-1.1 4-.6 5.2 1.1 1.1 1.7.6 4-1.1 5.2-1.7 1.1-4 .6-5.2-1.1zM243 199.4c-1.1-1.7-.6-4 1.1-5.2 1.7-1.1 4-.6 5.2 1.1 1.1 1.7.6 4-1.1 5.2-1.8 1.1-4.1.6-5.2-1.1zM191 215.1c-1.7 1.1-4 .6-5.2-1.1-1.1-1.7-.6-4 1.1-5.2 1.7-1.1 4-.6 5.2 1.1 1.2 1.7.7 4-1.1 5.2zM171.9 182.7c-.3.4-.6.8-1.1 1-1.7 1.1-4 .6-5.2-1.1-.3-.4-.5-.9-.5-1.4-.1-.5-.1-1 0-1.4.1-.5.3-.9.6-1.3s.6-.8 1.1-1c.4-.3.9-.5 1.4-.5 1.4-.2 2.9.4 3.8 1.7.8 1.1.7 2.8-.1 4zM165.3 209.5c-1.7 1.1-4 .6-5.2-1.1-1.1-1.7-.6-4 1.1-5.2 1.7-1.1 4-.6 5.2 1.1 1.1 1.7.6 4.1-1.1 5.2zM181.4 234.6c1.7-1.1 4-.6 5.2 1.1 1.1 1.7.6 4-1.1 5.2-1.7 1.1-4 .6-5.2-1.1-1.1-1.8-.6-4.1 1.1-5.2zM196.6 189.3c-1.7 1.1-4 .6-5.2-1.1-1.1-1.7-.6-4 1.1-5.2 1.7-1.1 4-.6 5.2 1.1 1.2 1.8.7 4.1-1.1 5.2zM212.8 214.4c1.7-1.1 4-.6 5.2 1.1 1.1 1.7.6 4-1.1 5.2-1.7 1.1-4 .6-5.2-1.1-1.2-1.8-.7-4.1 1.1-5.2zM207.2 240.2c.9-.6 1.9-.7 2.8-.5.9.2 1.8.8 2.3 1.6 1.1 1.7.6 4-1.1 5.2-1.7 1.1-4 .6-5.2-1.1-1.1-1.8-.6-4.1 1.2-5.2zM124.3 249.1c1.7-1.1 4-.6 5.2 1.1 1.1 1.7.6 4-1.1 5.2-1.7 1.1-4 .6-5.2-1.1-1.2-1.7-.7-4 1.1-5.2zM98.5 243.5c1.7-1.1 4-.6 5.2 1.1 1.1 1.7.6 4-1.1 5.2-1.7 1.1-4 .6-5.2-1.1-1.1-1.7-.6-4 1.1-5.2zM118.7 274.9c1.7-1.1 4-.6 5.2 1.1 1.1 1.7.6 4-1.1 5.2-1.7 1.1-4 .6-5.2-1.1-1.2-1.8-.7-4.1 1.1-5.2zM129.9 223.4c1.7-1.1 4-.6 5.2 1.1 1.1 1.7.6 4-1.1 5.2-1.7 1.1-4 .6-5.2-1.1-1.2-1.8-.7-4.1 1.1-5.2zM150 254.7c1.7-1.1 4-.6 5.2 1.1 1.1 1.7.6 4-1.1 5.2-1.7 1.1-4 .6-5.2-1.1-1.1-1.7-.6-4.1 1.1-5.2zM144.5 280.5c.2-.1.4-.3.7-.3 1.6-.6 3.5-.1 4.5 1.5.4.7.6 1.4.6 2.1 0 1-.4 1.9-1.1 2.6-.2.2-.4.3-.6.5-.9.6-1.9.7-2.8.5-.9-.2-1.8-.8-2.3-1.6-1.3-1.9-.8-4.2 1-5.3zM154 231.3c.2-.9.8-1.8 1.6-2.3.4-.3.9-.5 1.4-.5 1.4-.2 2.9.4 3.8 1.7 1.1 1.7.6 4-1.1 5.2-1.7 1.1-4 .6-5.2-1.1-.5-1-.7-2.1-.5-3zM61.5 289.5c1.7-1.1 4-.6 5.2 1.1 1.1 1.7.6 4-1.1 5.2-1.7 1.1-4 .6-5.2-1.1-1.1-1.8-.6-4.1 1.1-5.2zM35.8 283.9c1.7-1.1 4-.6 5.2 1.1 1.1 1.7.6 4-1.1 5.2-1.7 1.1-4 .6-5.2-1.1-1.2-1.8-.7-4.1 1.1-5.2zM56 315.3c1.7-1.1 4-.6 5.2 1.1 1.1 1.7.6 4-1.1 5.2-1.7 1.1-4 .6-5.2-1.1-1.2-1.8-.7-4.1 1.1-5.2zM67.1 263.7c1.7-1.1 4-.6 5.2 1.1 1.1 1.7.6 4-1.1 5.2-1.7 1.1-4 .6-5.2-1.1-1.1-1.8-.6-4.1 1.1-5.2zM87.3 295.1c1.7-1.1 4-.6 5.2 1.1 1.1 1.7.6 4-1.1 5.2-1.7 1.1-4 .6-5.2-1.1-1.1-1.8-.6-4.1 1.1-5.2zM80.3 325.3c-.4-1.2-.3-2.4.4-3.4.3-.4.6-.8 1.1-1 1.7-1.1 4-.6 5.2 1.1.3.4.5.9.5 1.4.2 1-.1 1.9-.6 2.7-.3.4-.6.8-1.1 1-.2.1-.4.3-.7.3-.5.2-.9.3-1.4.2-1.2 0-2.4-.6-3.1-1.7-.1-.1-.3-.3-.3-.6zM92.9 269.3c.6-.4 1.4-.6 2.1-.6.5 0 1 .1 1.4.3.7.3 1.2.8 1.7 1.4.6.9.7 1.9.5 2.8-.1.2-.1.5-.2.7-.2.4-.5.8-.8 1.2-.2.2-.4.3-.6.5-1.7 1.1-4 .6-5.2-1.1-1.1-1.8-.6-4.1 1.1-5.2zM71.6 243.1c-.3-.4-.5-.9-.5-1.4 0-.2-.1-.5-.1-.7 0-.2 0-.5.1-.7.1-.5.3-.9.6-1.3s.6-.8 1.1-1c1.1-.7 2.4-.8 3.5-.3.7.3 1.2.8 1.7 1.4.8 1.3.8 2.9-.1 4.1-.3.4-.6.8-1.1 1-.2.1-.4.3-.7.3-.9.4-1.9.3-2.8-.1-.7-.2-1.3-.6-1.7-1.3zM-1.2 329.8c1.7-1.1 4-.6 5.2 1.1 1.1 1.7.6 4-1.1 5.2-1.7 1.1-4 .6-5.2-1.1-1.1-1.7-.6-4 1.1-5.2zM4.4 304.1c1.7-1.1 4-.6 5.2 1.1 1.1 1.7.6 4-1.1 5.2-1.7 1.1-4 .6-5.2-1.1-1.1-1.8-.6-4.1 1.1-5.2zM24.6 335.4c1.7-1.1 4-.6 5.2 1.1 1.1 1.7.6 4-1.1 5.2-1.7 1.1-4 .6-5.2-1.1-1.1-1.7-.6-4 1.1-5.2zM21.8 360.7c.9.2 1.8.8 2.3 1.6 1.1 1.7.6 4-1.1 5.2-.4.3-.9.5-1.4.5-.5.1-1 .1-1.4 0-.5-.1-.9-.3-1.3-.6s-.8-.6-1-1.1c-.3-.4-.5-.9-.5-1.4-.1-.5-.1-1 0-1.4.1-.5.3-.9.6-1.3s.6-.8 1.1-1c.4-.3.9-.5 1.4-.5.4-.1.8-.1 1.3 0zM30.2 309.7c.4-.3.9-.5 1.4-.5 1.4-.2 2.9.4 3.8 1.7 1.1 1.7.6 4-1.1 5.2-.2.1-.4.3-.7.3-1.6.6-3.5.1-4.5-1.5-1.2-1.8-.7-4.1 1.1-5.2zM8.9 283.5c-.4-.6-.6-1.4-.6-2.1 0-1 .4-1.9 1.1-2.6.2-.2.4-.3.6-.5 1.7-1.1 4-.6 5.2 1.1.3.4.5.9.5 1.4.2 1 0 1.9-.6 2.7-.3.4-.6.8-1.1 1-.2.1-.4.3-.7.3-.9.4-1.9.3-2.8-.1-.6-.1-1.2-.6-1.6-1.2zM49.2 346.2c-.6-.9-.7-1.9-.5-2.8.2-.9.8-1.8 1.6-2.3 1.7-1.1 4-.6 5.2 1.1.3.4.5.9.5 1.4 0 .2.1.5.1.7 0 1-.4 1.9-1.1 2.6-.2.2-.4.3-.6.5-.9.6-1.9.7-2.8.5-.9-.3-1.8-.8-2.4-1.7zM290.1 231.2c1.7-1.1 4-.6 5.2 1.1 1.1 1.7.6 4-1.1 5.2-1.7 1.1-4 .6-5.2-1.1-1.1-1.8-.6-4.1 1.1-5.2zM270.5 206.4c-.7-.3-1.2-.8-1.7-1.4-.4-.6-.6-1.4-.6-2.1 0-1 .4-1.9 1.1-2.6.2-.2.4-.3.6-.5 1.7-1.1 4-.6 5.2 1.1.3.4.5.9.5 1.4.2 1 0 1.9-.6 2.7-.3.4-.6.8-1.1 1-.2.1-.4.3-.7.3-.9.5-1.9.4-2.7.1zM264.3 225.6c1.7-1.1 4-.6 5.2 1.1 1.1 1.7.6 4-1.1 5.2-1.7 1.1-4 .6-5.2-1.1-1.1-1.8-.6-4.1 1.1-5.2zM284.5 256.9c1.7-1.1 4-.6 5.2 1.1 1.1 1.7.6 4-1.1 5.2-1.7 1.1-4 .6-5.2-1.1-1.1-1.7-.6-4.1 1.1-5.2zM315.9 236.8c1.7-1.1 4-.6 5.2 1.1 1.1 1.7.6 4-1.1 5.2-1.7 1.1-4 .6-5.2-1.1-1.2-1.8-.7-4.1 1.1-5.2zM310.3 262.5c.4-.3.9-.5 1.4-.5 1.4-.2 2.9.4 3.8 1.7.3.4.5.9.5 1.4.2 1.2-.2 2.4-1.1 3.3-.2.2-.4.3-.6.5-.9.6-1.9.7-2.8.5-.9-.2-1.8-.8-2.3-1.6-1.2-1.8-.7-4.2 1.1-5.3zM227.4 271.5c1.7-1.1 4-.6 5.2 1.1 1.1 1.7.6 4-1.1 5.2-1.7 1.1-4 .6-5.2-1.1-1.2-1.8-.7-4.1 1.1-5.2zM201.6 265.9c1.7-1.1 4-.6 5.2 1.1 1.1 1.7.6 4-1.1 5.2-1.7 1.1-4 .6-5.2-1.1-1.1-1.8-.6-4.1 1.1-5.2zM221.8 297.3c1.7-1.1 4-.6 5.2 1.1 1.1 1.7.6 4-1.1 5.2-1.7 1.1-4 .6-5.2-1.1-1.2-1.8-.7-4.1 1.1-5.2zM232.9 245.7c1.7-1.1 4-.6 5.2 1.1 1.1 1.7.6 4-1.1 5.2-1.7 1.1-4 .6-5.2-1.1-1.1-1.7-.6-4 1.1-5.2zM253.1 277.1c1.7-1.1 4-.6 5.2 1.1 1.1 1.7.6 4-1.1 5.2-1.7 1.1-4 .6-5.2-1.1-1.1-1.8-.6-4.1 1.1-5.2zM246.1 307.4c-.4-1.2-.3-2.4.4-3.4.3-.4.6-.8 1.1-1 1.7-1.1 4-.6 5.2 1.1.3.4.5.9.5 1.4.2 1-.1 1.9-.6 2.7-.3.4-.6.8-1.1 1-1.7 1.1-4 .6-5.2-1.1-.1-.3-.2-.5-.3-.7zM258.7 251.3c.6-.4 1.4-.6 2.1-.6.5 0 1 .1 1.4.3.7.3 1.2.8 1.7 1.4.6.9.7 1.9.5 2.8-.1.2-.1.5-.2.7-.2.4-.5.8-.8 1.2-.2.2-.4.3-.6.5-1.7 1.1-4 .6-5.2-1.1-1.1-1.7-.6-4 1.1-5.2zM237.4 225.1c-.4-.6-.6-1.4-.6-2.1 0-1.2.6-2.4 1.7-3.1.2-.1.4-.3.7-.3.9-.4 1.9-.3 2.8.1.7.3 1.2.8 1.7 1.4.4.7.6 1.4.6 2.1 0 1-.4 1.9-1.1 2.6-.2.2-.4.3-.6.5-.2.1-.4.3-.7.3-.9.4-1.9.3-2.8-.1-.7-.2-1.3-.7-1.7-1.4zM164.6 311.9c1.7-1.1 4-.6 5.2 1.1 1.1 1.7.6 4-1.1 5.2-1.7 1.1-4 .6-5.2-1.1-1.1-1.8-.6-4.1 1.1-5.2zM138.9 306.3c1.7-1.1 4-.6 5.2 1.1 1.1 1.7.6 4-1.1 5.2-1.7 1.1-4 .6-5.2-1.1-1.2-1.8-.7-4.1 1.1-5.2zM159 337.6c1.7-1.1 4-.6 5.2 1.1 1.1 1.7.6 4-1.1 5.2-1.7 1.1-4 .6-5.2-1.1-1.1-1.7-.6-4 1.1-5.2zM170.2 286.1c1.7-1.1 4-.6 5.2 1.1 1.1 1.7.6 4-1.1 5.2-1.7 1.1-4 .6-5.2-1.1-1.1-1.8-.6-4.1 1.1-5.2zM190.4 317.5c1.7-1.1 4-.6 5.2 1.1 1.1 1.7.6 4-1.1 5.2-1.7 1.1-4 .6-5.2-1.1-1.1-1.8-.6-4.1 1.1-5.2zM194.3 294.7c0-.5.1-1 .3-1.4.3-.7.8-1.2 1.4-1.7.4-.3.9-.5 1.4-.5 1.4-.2 2.9.4 3.8 1.7 1.1 1.7.6 4-1.1 5.2-.2.1-.4.3-.7.3-1.6.6-3.5.1-4.5-1.5-.4-.6-.6-1.3-.6-2.1zM174.7 265.5c-.1-.2-.3-.4-.3-.7-.2-.5-.3-.9-.2-1.4 0-.7.2-1.4.6-2 .3-.4.6-.8 1.1-1 1.7-1.1 4-.6 5.2 1.1.3.4.5.9.5 1.4.2 1 0 1.9-.6 2.7-.3.4-.6.8-1.1 1-.2.1-.4.3-.7.3-.5.2-.9.3-1.4.2-.5 0-1-.1-1.4-.3-.7-.2-1.3-.7-1.7-1.3zM215 328.2c-.6-.9-.7-1.9-.5-2.8.1-.2.1-.5.2-.7.2-.4.5-.8.8-1.2.2-.2.4-.3.6-.5 1.7-1.1 4-.6 5.2 1.1.3.4.5.9.5 1.4 0 .2.1.5.1.7 0 .7-.2 1.4-.6 2-.1.2-.3.4-.5.6-.2.2-.4.3-.6.5-.9.6-1.9.7-2.8.5-.9-.2-1.8-.7-2.4-1.6zM72.6 371.8c.5 0 1 .1 1.4.3.7.3 1.2.8 1.7 1.4.4.6.6 1.4.6 2.1 0 1.2-.6 2.3-1.7 3h-.1c-1.6-.2-3.1-.4-4.7-.6-.1-.2-.3-.3-.4-.5-.4-.6-.6-1.4-.6-2.1 0-1.2.6-2.4 1.7-3.1.2-.1.4-.3.7-.3.5-.1 1-.2 1.4-.2zM101.9 352.2c1.7-1.1 4-.6 5.2 1.1 1.1 1.7.6 4-1.1 5.2-1.7 1.1-4 .6-5.2-1.1-1.1-1.8-.6-4.1 1.1-5.2zM76.1 346.6c1.7-1.1 4-.6 5.2 1.1 1.1 1.7.6 4-1.1 5.2-1.7 1.1-4 .6-5.2-1.1-1.1-1.8-.6-4.1 1.1-5.2zM101.5 379.1c.8 1.3.8 2.9 0 4.1-.8-.2-1.6-.3-2.3-.5-1.5-.3-3-.6-4.4-.8-.3-1.4.3-3 1.6-3.8 1.6-1.2 3.9-.7 5.1 1zM107.5 326.5c1.7-1.1 4-.6 5.2 1.1 1.1 1.7.6 4-1.1 5.2-1.7 1.1-4 .6-5.2-1.1-1.1-1.8-.6-4.1 1.1-5.2zM127.7 357.8c1.7-1.1 4-.6 5.2 1.1 1.1 1.7.6 4-1.1 5.2-1.7 1.1-4 .6-5.2-1.1-1.2-1.8-.7-4.1 1.1-5.2zM127.2 384.7c.3.4.5.9.5 1.4.2 1 0 1.9-.6 2.7-.2.3-.5.6-.8.8-1.6-.5-3.1-.9-4.7-1.4-.4-.1-.7-.2-1.1-.3-.1-.4-.2-.9-.2-1.3 0-1 .4-1.9 1.1-2.6.2-.2.4-.3.6-.5 1.8-1 4.1-.5 5.2 1.2zM132.1 337.2c-.4-.6-.6-1.4-.6-2.1 0-1.2.6-2.4 1.7-3.1 1.7-1.1 4-.6 5.2 1.1 1.1 1.7.6 4-1.1 5.2-.2.1-.4.3-.7.3-.9.4-1.9.3-2.8-.1-.7-.2-1.2-.7-1.7-1.3zM112 305.8c-.1-.2-.3-.4-.3-.7-.2-.5-.3-.9-.3-1.4 0-1.2.6-2.4 1.7-3.1.2-.1.4-.3.7-.3.7-.3 1.4-.3 2.1-.2.9.2 1.8.8 2.3 1.6.4.6.6 1.4.6 2.1 0 1.2-.6 2.4-1.7 3.1-1.5 1-3.5.7-4.7-.5-.1-.2-.3-.3-.4-.6zM153.4 363.4c.6-.4 1.4-.6 2.1-.6.5 0 1 .1 1.4.3.4.2.8.5 1.2.8.2.2.3.4.5.6.3.4.5.9.5 1.4.1.5.1 1 0 1.4-.1.5-.3.9-.6 1.3s-.6.8-1.1 1c-.9.6-1.9.7-2.8.5-.9-.2-1.8-.8-2.3-1.6-1.1-1.7-.6-4 1.1-5.1zM49.9 367.9c1.1 1.7.6 4-1.1 5.2-1.7 1.1-4 .6-5.2-1.1-1.1-1.7-.6-4 1.1-5.2 1.8-1.1 4.1-.6 5.2 1.1zM387.6 279.3c1.7-1.1 4-.6 5.2 1.1 1.1 1.7.6 4-1.1 5.2-1.7 1.1-4 .6-5.2-1.1-1.2-1.8-.7-4.1 1.1-5.2zM413.3 284.9c1.1-.7 2.4-.8 3.5-.3.4.2.8.5 1.2.8.2.2.3.4.5.6 1.1 1.7.6 4-1.1 5.2-1.7 1.1-4 .6-5.2-1.1-1.1-1.8-.6-4.1 1.1-5.2zM330.4 293.9c1.7-1.1 4-.6 5.2 1.1 1.1 1.7.6 4-1.1 5.2-1.7 1.1-4 .6-5.2-1.1-1.1-1.8-.6-4.1 1.1-5.2zM304.7 288.3c1.7-1.1 4-.6 5.2 1.1 1.1 1.7.6 4-1.1 5.2-1.7 1.1-4 .6-5.2-1.1-1.2-1.8-.7-4.1 1.1-5.2zM324.8 319.7c1.7-1.1 4-.6 5.2 1.1 1.1 1.7.6 4-1.1 5.2-1.7 1.1-4 .6-5.2-1.1-1.1-1.8-.6-4.1 1.1-5.2zM336 268.1c1.7-1.1 4-.6 5.2 1.1 1.1 1.7.6 4-1.1 5.2-1.7 1.1-4 .6-5.2-1.1-1.1-1.8-.6-4.1 1.1-5.2zM356.2 299.5c1.7-1.1 4-.6 5.2 1.1 1.1 1.7.6 4-1.1 5.2-1.7 1.1-4 .6-5.2-1.1-1.1-1.8-.6-4.1 1.1-5.2zM350.6 325.3c.2-.1.4-.3.7-.3.9-.4 1.9-.3 2.8.1.7.3 1.2.8 1.7 1.4.8 1.3.8 2.9-.1 4.1-.3.4-.6.8-1.1 1-1.7 1.1-4 .6-5.2-1.1-1-1.8-.5-4.1 1.2-5.2zM361.8 273.7c.4-.3.9-.5 1.4-.5 1.4-.2 2.9.4 3.8 1.7 1.1 1.7.6 4-1.1 5.2-.2.1-.4.3-.7.3-1.6.6-3.5.1-4.5-1.5-1.1-1.8-.6-4.1 1.1-5.2zM340.5 247.5c-.1-.2-.3-.4-.3-.7-.2-.5-.3-.9-.2-1.4 0-.2 0-.4.1-.7.9.5 1.8.9 2.7 1.3.6.3 1.2.6 1.9.9.6.3 1.2.6 1.9.9-.2.3-.5.5-.8.7-.2.1-.4.3-.7.3-.5.2-.9.3-1.4.2-.5 0-1-.1-1.4-.3-.8-.1-1.4-.5-1.8-1.2zM380.9 310.2c-.4-.6-.6-1.4-.6-2.1 0-.2 0-.5.1-.7.2-.7.5-1.4 1-1.9.2-.2.4-.3.6-.5 1.7-1.1 4-.6 5.2 1.1.3.4.5.9.5 1.4 0 .2.1.5.1.7 0 .7-.2 1.4-.6 2-.1.2-.3.4-.5.6-.2.2-.4.3-.6.5-1.8 1.2-4.1.7-5.2-1.1zM267.7 334.2c1.7-1.1 4-.6 5.2 1.1 1.1 1.7.6 4-1.1 5.2-1.7 1.1-4 .6-5.2-1.1-1.1-1.7-.6-4 1.1-5.2zM241.9 328.7c1.7-1.1 4-.6 5.2 1.1 1.1 1.7.6 4-1.1 5.2-1.7 1.1-4 .6-5.2-1.1-1.1-1.8-.6-4.1 1.1-5.2zM262.1 360c1.7-1.1 4-.6 5.2 1.1 1.1 1.7.6 4-1.1 5.2-1.7 1.1-4 .6-5.2-1.1-1.1-1.8-.6-4.1 1.1-5.2zM273.3 308.5c1.7-1.1 4-.6 5.2 1.1 1.1 1.7.6 4-1.1 5.2-1.7 1.1-4 .6-5.2-1.1-1.1-1.8-.6-4.1 1.1-5.2zM293.5 339.8c1.7-1.1 4-.6 5.2 1.1 1.1 1.7.6 4-1.1 5.2-1.7 1.1-4 .6-5.2-1.1-1.2-1.7-.7-4 1.1-5.2zM286.8 370.8c-.4-.6-.6-1.4-.6-2.1 0-1 .4-1.9 1.1-2.6.2-.2.4-.3.6-.5 1.7-1.1 4-.6 5.2 1.1.3.4.5.9.5 1.4.2 1-.1 1.9-.6 2.7-.3.4-.6.8-1.1 1-.2.1-.4.3-.7.3-1.6.8-3.5.2-4.4-1.3zM298 319.2c-.4-.6-.6-1.4-.6-2.1 0-1.2.6-2.4 1.7-3.1 1.7-1.1 4-.6 5.2 1.1 1.1 1.7.6 4-1.1 5.2-.2.1-.4.3-.7.3-.9.4-1.9.3-2.8-.1-.7-.2-1.3-.6-1.7-1.3zM278.2 288.5c-.2-.2-.3-.4-.5-.6-.1-.2-.3-.4-.3-.7-.1-.2-.2-.5-.2-.7-.1-.5-.1-1 0-1.4.1-.5.3-.9.6-1.3s.6-.8 1.1-1c.2-.1.4-.3.7-.3.2-.1.5-.2.7-.2.5-.1 1-.1 1.4 0 .9.2 1.8.8 2.3 1.6.4.6.6 1.4.6 2.1 0 1.2-.6 2.4-1.7 3.1-.4.3-.9.5-1.4.5-.5.1-1 .1-1.4 0-.5-.1-.9-.3-1.3-.6-.2-.2-.4-.4-.6-.5zM319.2 345.4c.6-.4 1.4-.6 2.1-.6.5 0 1 .1 1.4.3.4.2.8.5 1.2.8.2.2.3.4.5.6.6.9.7 1.9.5 2.8-.2.9-.8 1.8-1.6 2.3-.9.6-1.9.7-2.8.5-.9-.2-1.8-.8-2.3-1.6-1.2-1.6-.7-4 1-5.1zM178.8 395.9c1.1 1.7.6 4-1.1 5.2-1.5 1-3.5.7-4.7-.5-.2-.2-.3-.4-.5-.6-.1-.2-.3-.4-.3-.7-.6-1.6-.1-3.5 1.5-4.5.4-.3.9-.5 1.4-.5 1.3-.3 2.8.3 3.7 1.6zM205 374.6c1.7-1.1 4-.6 5.2 1.1 1.1 1.7.6 4-1.1 5.2-1.7 1.1-4 .6-5.2-1.1-1.2-1.8-.7-4.1 1.1-5.2zM183.7 348.4c-.3-.4-.5-.9-.5-1.4-.1-.5-.1-1 0-1.4.1-.5.3-.9.6-1.3s.6-.8 1.1-1c.4-.3.9-.5 1.4-.5 1.4-.2 2.9.4 3.8 1.7 1.1 1.7.6 4-1.1 5.2-.4.3-.9.5-1.4.5-.5.1-1 .1-1.4 0-.5-.1-.9-.3-1.3-.6-.6-.4-.9-.8-1.2-1.2zM179.2 369c1.7-1.1 4-.6 5.2 1.1 1.1 1.7.6 4-1.1 5.2-1.7 1.1-4 .6-5.2-1.1-1.1-1.8-.6-4.1 1.1-5.2zM204.5 401.5c1.1 1.7.6 4-1.1 5.2-1.7 1.1-4 .6-5.2-1.1-1.1-1.7-.6-4 1.1-5.2 1.8-1.1 4.1-.6 5.2 1.1zM210.6 348.8c1.7-1.1 4-.6 5.2 1.1 1.1 1.7.6 4-1.1 5.2-1.7 1.1-4 .6-5.2-1.1-1.2-1.7-.7-4.1 1.1-5.2zM230.7 380.2c1.7-1.1 4-.6 5.2 1.1 1.1 1.7.6 4-1.1 5.2-1.7 1.1-4 .6-5.2-1.1-1.1-1.8-.6-4.1 1.1-5.2zM230.3 407.1c1.1 1.7.6 4-1.1 5.2-1.7 1.1-4 .6-5.2-1.1-1.1-1.7-.6-4 1.1-5.2.9-.6 1.9-.7 2.8-.5 1 .2 1.9.7 2.4 1.6zM235.2 359.6c-.4-.6-.6-1.4-.6-2.1 0-1.2.6-2.4 1.7-3.1.2-.1.4-.3.7-.3.5-.2.9-.3 1.4-.2.5 0 1 .1 1.4.3.7.3 1.2.8 1.7 1.4 1 1.5.7 3.5-.5 4.7-.2.2-.4.3-.6.5-.2.1-.4.3-.7.3-.9.4-1.9.3-2.8-.1-.7-.3-1.3-.8-1.7-1.4zM153 390.3c1.1 1.7.6 4-1.1 5.2-1.7 1.1-4 .6-5.2-1.1-1.1-1.7-.6-4 1.1-5.2 1.8-1.1 4.1-.6 5.2 1.1zM615 226.1c-.6-.9-.7-1.9-.5-2.8 2.4-.2 4.8-.3 7.2-.3.5 1.6-.1 3.3-1.5 4.3-1.8 1.1-4.1.6-5.2-1.2zM615.7 247.9c.4.7.6 1.4.6 2.1 0 1-.4 1.9-1.1 2.6-.2.2-.4.3-.6.5-.2.1-.4.3-.7.3-.9.4-1.9.3-2.8-.1-.4-.2-.8-.5-1.2-.8-.2-.2-.3-.4-.5-.6-.1-.2-.3-.4-.3-.7-.2-.5-.3-.9-.2-1.4 0-1.2.6-2.4 1.7-3.1.2-.1.4-.3.7-.3.9-.4 1.9-.3 2.8.1.6.2 1.2.7 1.6 1.4zM531.6 262c-.2.1-.4.3-.7.3-1.6.6-3.5.1-4.5-1.5-1.1-1.7-.6-4 1.1-5.2.4-.3.9-.5 1.4-.5 1.4-.2 2.9.4 3.8 1.7 1.2 1.8.7 4.1-1.1 5.2zM557.9 240.7c-1.1-1.7-.6-4 1.1-5.2 1.7-1.1 4-.6 5.2 1.1 1.1 1.7.6 4-1.1 5.2-1.8 1.2-4.1.7-5.2-1.1zM557.4 267.6c-1.7 1.1-4 .6-5.2-1.1-1.1-1.7-.6-4 1.1-5.2 1.7-1.1 4-.6 5.2 1.1 1.1 1.8.6 4.1-1.1 5.2zM588.8 247.4c-1.7 1.1-4 .6-5.2-1.1-1.1-1.7-.6-4 1.1-5.2 1.7-1.1 4-.6 5.2 1.1 1.1 1.8.6 4.1-1.1 5.2zM500.3 282.2c-1.7 1.1-4 .6-5.2-1.1-1.1-1.7-.6-4 1.1-5.2 1.7-1.1 4-.6 5.2 1.1 1.1 1.8.6 4.1-1.1 5.2zM474.5 276.6c-1.7 1.1-4 .6-5.2-1.1-1.1-1.7-.6-4 1.1-5.2 1.7-1.1 4-.6 5.2 1.1 1.1 1.8.6 4.1-1.1 5.2zM494.7 308c-1.7 1.1-4 .6-5.2-1.1-1.1-1.7-.6-4 1.1-5.2 1.7-1.1 4-.6 5.2 1.1 1.1 1.7.6 4-1.1 5.2zM501 255.7c2.2-.7 4.4-1.5 6.6-2.3 0 1.2-.6 2.4-1.7 3-1.6 1.1-3.7.7-4.9-.7zM526.1 287.8c-1.7 1.1-4 .6-5.2-1.1-1.1-1.7-.6-4 1.1-5.2 1.7-1.1 4-.6 5.2 1.1 1.1 1.8.6 4.1-1.1 5.2zM521.6 308.4c.4.6.6 1.4.6 2.1 0 1-.4 1.9-1.1 2.6-.2.2-.4.3-.6.5-.9.6-1.9.7-2.8.5-.9-.2-1.8-.8-2.3-1.6-1.1-1.7-.6-4 1.1-5.2.2-.1.4-.3.7-.3.9-.4 1.9-.3 2.8.1.6.2 1.2.7 1.6 1.3zM433.5 316.3c1.7-1.1 4-.6 5.2 1.1 1.1 1.7.6 4-1.1 5.2-1.7 1.1-4 .6-5.2-1.1-1.1-1.8-.6-4.1 1.1-5.2zM407.7 310.7c1.7-1.1 4-.6 5.2 1.1 1.1 1.7.6 4-1.1 5.2-1.7 1.1-4 .6-5.2-1.1-1.1-1.8-.6-4.1 1.1-5.2zM427.9 342c1.7-1.1 4-.6 5.2 1.1 1.1 1.7.6 4-1.1 5.2-1.7 1.1-4 .6-5.2-1.1-1.1-1.7-.6-4 1.1-5.2zM439.1 290.5c1.7-1.1 4-.6 5.2 1.1 1.1 1.7.6 4-1.1 5.2-1.7 1.1-4 .6-5.2-1.1-1.1-1.8-.6-4.1 1.1-5.2zM459.3 321.9c1.7-1.1 4-.6 5.2 1.1 1.1 1.7.6 4-1.1 5.2-1.7 1.1-4 .6-5.2-1.1-1.1-1.8-.6-4.1 1.1-5.2zM452.2 352.1c-.4-1.2-.3-2.4.4-3.4.3-.4.6-.8 1.1-1 1.7-1.1 4-.6 5.2 1.1.3.4.5.9.5 1.4.2 1-.1 1.9-.6 2.7-.3.4-.6.8-1.1 1-.2.1-.4.3-.7.3-.5.2-.9.3-1.4.3-.2 0-.5 0-.7-.1-.9-.2-1.8-.8-2.3-1.6-.2-.2-.3-.5-.4-.7zM463.8 301.2c-.4-.6-.6-1.4-.6-2.1 0-1.2.6-2.4 1.7-3.1 1.7-1.1 4-.6 5.2 1.1 1.1 1.7.6 4-1.1 5.2-.2.1-.4.3-.7.3-.9.4-1.9.3-2.8-.1-.7-.1-1.3-.6-1.7-1.3zM444.1 270.5c-.2-.2-.3-.4-.5-.6-.1-.2-.3-.4-.3-.7-.1-.2-.2-.5-.2-.7 0-.2-.1-.5-.1-.7 1.2-.1 2.3-.2 3.5-.2.3 0 .6 0 .8-.1 1-.1 2-.1 3.1-.2 0 .2.1.5.1.7 0 .7-.2 1.4-.6 2-.3.4-.6.8-1.1 1-1.6 1-3.5.7-4.7-.5zM485.1 327.5c.6-.4 1.4-.6 2.1-.6.2 0 .5 0 .7.1.2.1.5.1.7.2.7.3 1.2.8 1.7 1.4.6.9.7 1.9.5 2.8-.2.9-.8 1.8-1.6 2.3-.9.6-1.9.7-2.8.5-.9-.2-1.8-.8-2.3-1.6-1.3-1.7-.8-4 1-5.1zM370.8 356.6c1.7-1.1 4-.6 5.2 1.1 1.1 1.7.6 4-1.1 5.2-1.7 1.1-4 .6-5.2-1.1-1.1-1.8-.6-4.1 1.1-5.2zM345 351c1.7-1.1 4-.6 5.2 1.1 1.1 1.7.6 4-1.1 5.2-1.7 1.1-4 .6-5.2-1.1-1.1-1.7-.6-4.1 1.1-5.2zM365.2 382.4c1.7-1.1 4-.6 5.2 1.1 1.1 1.7.6 4-1.1 5.2-1.7 1.1-4 .6-5.2-1.1-1.1-1.8-.6-4.1 1.1-5.2zM376.4 330.9c1.7-1.1 4-.6 5.2 1.1 1.1 1.7.6 4-1.1 5.2-1.7 1.1-4 .6-5.2-1.1-1.2-1.8-.7-4.1 1.1-5.2zM396.6 362.2c1.7-1.1 4-.6 5.2 1.1 1.1 1.7.6 4-1.1 5.2-1.7 1.1-4 .6-5.2-1.1-1.2-1.8-.7-4.1 1.1-5.2zM401 341.6c-.4-.6-.6-1.4-.6-2.1 0-1.2.6-2.4 1.7-3.1.2-.1.4-.3.7-.3.5-.2.9-.3 1.4-.2.5 0 1 .1 1.4.3.7.3 1.2.8 1.7 1.4.4.6.6 1.4.6 2.1 0 1.2-.6 2.4-1.7 3.1-.2.1-.4.3-.7.3-.9.4-1.9.3-2.8-.1-.7-.3-1.2-.8-1.7-1.4zM308.1 397c1.7-1.1 4-.6 5.2 1.1 1.1 1.7.6 4-1.1 5.2-1.7 1.1-4 .6-5.2-1.1-1.2-1.8-.7-4.1 1.1-5.2zM282.3 391.4c1.7-1.1 4-.6 5.2 1.1 1.1 1.7.6 4-1.1 5.2-1.7 1.1-4 .6-5.2-1.1-1.1-1.8-.6-4.1 1.1-5.2zM302.5 422.7c1.7-1.1 4-.6 5.2 1.1 1.1 1.7.6 4-1.1 5.2-1.7 1.1-4 .6-5.2-1.1-1.2-1.7-.7-4 1.1-5.2zM313.7 371.2c1.7-1.1 4-.6 5.2 1.1 1.1 1.7.6 4-1.1 5.2-1.7 1.1-4 .6-5.2-1.1-1.2-1.8-.7-4.1 1.1-5.2zM333.8 402.6c1.7-1.1 4-.6 5.2 1.1 1.1 1.7.6 4-1.1 5.2-1.7 1.1-4 .6-5.2-1.1-1.1-1.8-.6-4.1 1.1-5.2zM328.2 428.3c1.7-1.1 4-.6 5.2 1.1.3.4.5.9.5 1.4.2 1.2-.2 2.4-1.1 3.3-.2.2-.4.3-.6.5-.9.6-1.9.7-2.8.5-.9-.2-1.8-.8-2.3-1.6-1.1-1.7-.6-4 1.1-5.2zM338.3 382c-.1-.2-.3-.4-.3-.7-.6-1.6-.1-3.5 1.5-4.5.4-.3.9-.5 1.4-.5 1.4-.2 2.9.4 3.8 1.7 1.1 1.7.6 4-1.1 5.2-1.5 1-3.5.7-4.7-.5-.3-.3-.5-.5-.6-.7zM250.5 438.4c1.1 1.7.6 4-1.1 5.2-1.7 1.1-4 .6-5.2-1.1-1.1-1.7-.6-4 1.1-5.2 1.8-1.1 4.1-.6 5.2 1.1zM224.7 432.8c.9 1.3.8 3-.1 4.2-2.1-1.4-4.1-2.7-6.2-4 .3-.5.7-.9 1.2-1.3 1.7-1.1 4-.6 5.1 1.1zM250.9 411.6c1.7-1.1 4-.6 5.2 1.1 1.1 1.7.6 4-1.1 5.2-1.7 1.1-4 .6-5.2-1.1-1.1-1.8-.6-4.1 1.1-5.2zM276.3 444c1.1 1.7.6 4-1.1 5.2-1.7 1.1-4 .6-5.2-1.1-1.1-1.7-.6-4 1.1-5.2 1.7-1.1 4-.6 5.2 1.1zM270.7 469.8c.3.4.4.9.5 1.3-.4-.3-.8-.6-1.1-.9-.9-.7-1.8-1.4-2.6-2.1 1.2 0 2.4.6 3.2 1.7zM275.1 419.5c.2-.9.8-1.8 1.6-2.3 1.7-1.1 4-.6 5.2 1.1.4.6.6 1.4.6 2.1 0 1-.4 1.9-1.1 2.6-.2.2-.4.3-.6.5-1.7 1.1-4 .6-5.2-1.1-.6-1-.7-2-.5-2.9zM255.4 390.9c-.4-.6-.6-1.4-.6-2.1 0-1.2.6-2.4 1.7-3.1.2-.1.4-.3.7-.3.2-.1.5-.2.7-.2.7-.1 1.5 0 2.1.2.7.3 1.2.8 1.7 1.4.4.6.6 1.4.6 2.1 0 1-.4 1.9-1.1 2.6-.2.2-.4.3-.6.5-.2.1-.4.3-.7.3-.9.4-1.9.3-2.8-.1-.7-.1-1.3-.6-1.7-1.3zM295.2 451.6c0-.2 0-.5.1-.7.1-.5.3-.9.6-1.3s.6-.8 1.1-1c.2-.1.4-.3.7-.3.2-.1.5-.2.7-.2.2 0 .5-.1.7-.1.2 0 .5 0 .7.1.2.1.5.1.7.2.7.3 1.2.8 1.7 1.4.4.6.6 1.4.6 2.1 0 1.2-.6 2.4-1.7 3.1-.2.1-.4.3-.7.3-.9.4-1.9.3-2.8-.1l-.6-.3c-.4-.3-.8-.6-1-1.1-.3-.4-.5-.9-.5-1.4-.3-.2-.3-.5-.3-.7zM718.1 248.5c-.8-1.2-.8-2.6-.1-3.8l6.6 3.3c-.3.6-.7 1.2-1.3 1.6-1.8 1.1-4.1.6-5.2-1.1zM636.4 282c-.2.9-.8 1.8-1.6 2.3-.2.1-.4.3-.7.3-.9.4-1.9.3-2.8-.1-.7-.3-1.2-.8-1.7-1.4-.4-.6-.6-1.4-.6-2.1 0-1.2.6-2.4 1.7-3.1.4-.3.9-.5 1.4-.5 1.4-.2 2.9.4 3.8 1.7.5 1 .7 2 .5 2.9zM666.1 264.2c-1.7 1.1-4 .6-5.2-1.1-1.1-1.7-.6-4 1.1-5.2 1.7-1.1 4-.6 5.2 1.1 1.1 1.8.6 4.1-1.1 5.2zM642.4 233.1c-.7-.3-1.2-.8-1.7-1.4-.4-.6-.6-1.4-.6-2.1 0-1 .4-1.9 1.1-2.6.2-.2.4-.3.6-.5 1.7-1.1 4-.6 5.2 1.1.3.4.5.9.5 1.4.2 1-.1 1.9-.6 2.7-.3.4-.6.8-1.1 1-.2.1-.4.3-.7.3-.8.6-1.8.5-2.7.1zM640.3 258.6c-1.7 1.1-4 .6-5.2-1.1-1.1-1.7-.6-4 1.1-5.2 1.7-1.1 4-.6 5.2 1.1 1.2 1.8.6 4.1-1.1 5.2zM660.5 290c-1.7 1.1-4 .6-5.2-1.1-1.1-1.7-.6-4 1.1-5.2 1.7-1.1 4-.6 5.2 1.1 1.1 1.8.6 4.1-1.1 5.2zM666.5 237.3c-1.1-1.7-.6-4 1.1-5.2 1.7-1.1 4-.6 5.2 1.1 1.1 1.7.6 4-1.1 5.2-1.7 1.2-4.1.7-5.2-1.1zM691.9 269.8c-1.7 1.1-4 .6-5.2-1.1-1.1-1.7-.6-4 1.1-5.2 1.7-1.1 4-.6 5.2 1.1 1.1 1.8.6 4.1-1.1 5.2zM692.3 242.9c-.6-.9-.7-1.9-.5-2.8.2-.9.8-1.8 1.6-2.3.6-.4 1.4-.6 2.1-.6.5 0 1 .1 1.4.3.7.3 1.2.8 1.7 1.4.4.6.6 1.4.6 2.1 0 1-.4 1.9-1.1 2.6-.2.2-.4.3-.6.5-1.8 1.1-4.1.6-5.2-1.2zM573.1 319.6c.4.6.6 1.4.6 2.1 0 1.2-.6 2.4-1.7 3.1-.2.1-.4.3-.7.3-.9.4-1.9.3-2.8-.1-.7-.3-1.2-.8-1.7-1.4-.4-.6-.6-1.4-.6-2.1 0-1.2.6-2.4 1.7-3.1.2-.1.4-.3.7-.3.5-.2.9-.3 1.4-.2.5 0 1 .1 1.4.3.7.3 1.3.7 1.7 1.4zM553.5 289.6c0 .2.1.5.1.7 0 .7-.2 1.4-.6 2-.1.2-.3.4-.5.6-.2.2-.4.3-.6.5-.2.1-.4.3-.7.3-.5.2-.9.3-1.4.2-1.2 0-2.4-.6-3.1-1.7-.1-.2-.3-.4-.3-.7-.3-.7-.3-1.4-.2-2.1.1-.5.3-.9.6-1.3s.6-.8 1.1-1c1.7-1.1 4-.6 5.2 1.1.1.5.3.9.4 1.4zM603.4 304.6c-1.7 1.1-4 .6-5.2-1.1-1.1-1.7-.6-4 1.1-5.2 1.7-1.1 4-.6 5.2 1.1 1.1 1.7.6 4.1-1.1 5.2zM584.3 268c1.1 1.7.6 4-1.1 5.2-1.7 1.1-4 .6-5.2-1.1-1.1-1.7-.6-4 1.1-5.2.9-.6 1.9-.7 2.8-.5 1 .2 1.8.8 2.4 1.6zM577.6 299c-1.7 1.1-4 .6-5.2-1.1-1.1-1.7-.6-4 1.1-5.2 1.7-1.1 4-.6 5.2 1.1 1.1 1.8.6 4.1-1.1 5.2zM597.8 330.3c-1.7 1.1-4 .6-5.2-1.1-1.1-1.7-.6-4 1.1-5.2 1.7-1.1 4-.6 5.2 1.1 1.1 1.8.6 4.1-1.1 5.2zM609 278.8c-1.7 1.1-4 .6-5.2-1.1-1.1-1.7-.6-4 1.1-5.2 1.7-1.1 4-.6 5.2 1.1 1.1 1.8.6 4.1-1.1 5.2zM629.1 310.2c-1.7 1.1-4 .6-5.2-1.1-1.1-1.7-.6-4 1.1-5.2 1.7-1.1 4-.6 5.2 1.1 1.2 1.7.7 4-1.1 5.2zM540.6 344.9c-1.7 1.1-4 .6-5.2-1.1-1.1-1.7-.6-4 1.1-5.2 1.7-1.1 4-.6 5.2 1.1 1.2 1.8.7 4.1-1.1 5.2zM510.8 333.1c1.7-1.1 4-.6 5.2 1.1 1.1 1.7.6 4-1.1 5.2-1.7 1.1-4 .6-5.2-1.1-1.1-1.8-.6-4.1 1.1-5.2zM531 364.4c1.7-1.1 4-.6 5.2 1.1 1.1 1.7.6 4-1.1 5.2-1.7 1.1-4 .6-5.2-1.1-1.1-1.8-.6-4.1 1.1-5.2zM546.2 319.1c-1.7 1.1-4 .6-5.2-1.1-1.1-1.7-.6-4 1.1-5.2 1.7-1.1 4-.6 5.2 1.1 1.2 1.8.7 4.1-1.1 5.2zM566.4 350.5c-1.7 1.1-4 .6-5.2-1.1-1.1-1.7-.6-4 1.1-5.2 1.7-1.1 4-.6 5.2 1.1 1.1 1.8.6 4.1-1.1 5.2zM473.9 379c1.7-1.1 4-.6 5.2 1.1 1.1 1.7.6 4-1.1 5.2-1.7 1.1-4 .6-5.2-1.1-1.2-1.8-.7-4.1 1.1-5.2zM448.1 373.4c1.7-1.1 4-.6 5.2 1.1 1.1 1.7.6 4-1.1 5.2-1.7 1.1-4 .6-5.2-1.1-1.1-1.8-.6-4.1 1.1-5.2zM468.3 404.8c1.7-1.1 4-.6 5.2 1.1 1.1 1.7.6 4-1.1 5.2-1.7 1.1-4 .6-5.2-1.1-1.2-1.8-.7-4.1 1.1-5.2zM479.5 353.2c1.7-1.1 4-.6 5.2 1.1 1.1 1.7.6 4-1.1 5.2-1.7 1.1-4 .6-5.2-1.1-1.2-1.7-.7-4.1 1.1-5.2zM499.6 384.6c1.7-1.1 4-.6 5.2 1.1 1.1 1.7.6 4-1.1 5.2-1.7 1.1-4 .6-5.2-1.1-1.1-1.8-.6-4.1 1.1-5.2zM492.3 413.4c0-1 .4-1.9 1.1-2.6.2-.2.4-.3.6-.5 1.7-1.1 4-.6 5.2 1.1.3.4.5.9.5 1.4.2 1-.1 1.9-.6 2.7-.3.4-.6.8-1.1 1-.9.6-1.9.7-2.8.5-.9-.2-1.8-.8-2.3-1.6-.4-.5-.6-1.3-.6-2zM504.1 364c-.1-.2-.3-.4-.3-.7-.6-1.6-.1-3.5 1.5-4.5.4-.3.9-.5 1.4-.5 1.4-.2 2.9.4 3.8 1.7 1.1 1.7.6 4-1.1 5.2-1.5 1-3.5.7-4.7-.5-.3-.3-.4-.5-.6-.7zM411.1 419.4c1.7-1.1 4-.6 5.2 1.1 1.1 1.7.6 4-1.1 5.2-1.7 1.1-4 .6-5.2-1.1-1.1-1.8-.6-4.1 1.1-5.2zM389.8 393.1c-.3-.4-.5-.9-.5-1.4-.1-.5-.1-1 0-1.4.1-.5.3-.9.6-1.3s.6-.8 1.1-1c.4-.3.9-.5 1.4-.5.5-.1 1-.1 1.4 0 .9.2 1.8.8 2.3 1.6 1.1 1.7.6 4-1.1 5.2-.4.3-.9.5-1.4.5-.5.1-1 .1-1.4 0-.5-.1-.9-.3-1.3-.6s-.8-.6-1.1-1.1zM385.4 413.8c1.7-1.1 4-.6 5.2 1.1 1.1 1.7.6 4-1.1 5.2-1.7 1.1-4 .6-5.2-1.1-1.2-1.8-.7-4.1 1.1-5.2zM405.5 445.1c1.7-1.1 4-.6 5.2 1.1 1.1 1.7.6 4-1.1 5.2-1.7 1.1-4 .6-5.2-1.1-1.1-1.8-.6-4.1 1.1-5.2zM416.7 393.6c1.7-1.1 4-.6 5.2 1.1 1.1 1.7.6 4-1.1 5.2-1.7 1.1-4 .6-5.2-1.1-1.1-1.8-.6-4.1 1.1-5.2zM436.9 424.9c1.7-1.1 4-.6 5.2 1.1 1.1 1.7.6 4-1.1 5.2-1.7 1.1-4 .6-5.2-1.1-1.1-1.7-.6-4 1.1-5.2zM431.3 450.7c1.1-.7 2.4-.8 3.5-.3.4.2.8.5 1.2.8.2.2.3.4.5.6 1.1 1.7.6 4-1.1 5.2-1.7 1.1-4 .6-5.2-1.1-1.1-1.8-.6-4.1 1.1-5.2zM440.9 401.5c.2-.9.8-1.8 1.6-2.3 1.7-1.1 4-.6 5.2 1.1.4.6.6 1.4.6 2.1 0 1-.4 1.9-1.1 2.6-.2.2-.4.3-.6.5-1.7 1.1-4 .6-5.2-1.1-.6-.9-.7-1.9-.5-2.9zM421.2 373c-.4-.6-.6-1.4-.6-2.1 0-1.2.6-2.4 1.7-3.1.4-.3.9-.5 1.4-.5 1.4-.2 2.9.4 3.8 1.7.3.4.5.9.5 1.4.2 1.2-.2 2.4-1.1 3.3-.2.2-.4.3-.6.5-.2.1-.4.3-.7.3-.7.3-1.4.3-2.1.2-.2-.1-.5-.1-.7-.2-.6-.4-1.2-.9-1.6-1.5zM322.2 481c1.1 1.7.6 4-1.1 5.2-.2.1-.4.3-.7.3-.9.4-1.9.3-2.8-.1-.7-.3-1.2-.8-1.7-1.4-.4-.6-.6-1.4-.6-2.1 0-1.2.6-2.4 1.7-3.1 1.8-1 4.1-.5 5.2 1.2zM348.4 459.7c1.7-1.1 4-.6 5.2 1.1 1.1 1.7.6 4-1.1 5.2-1.7 1.1-4 .6-5.2-1.1-1.1-1.8-.6-4.1 1.1-5.2zM322.6 454.1c1.7-1.1 4-.6 5.2 1.1 1.1 1.7.6 4-1.1 5.2-1.7 1.1-4 .6-5.2-1.1-1.1-1.8-.6-4.1 1.1-5.2zM342.8 485.5c1.7-1.1 4-.6 5.2 1.1 1.1 1.7.6 4-1.1 5.2-1.7 1.1-4 .6-5.2-1.1-1.1-1.8-.6-4.1 1.1-5.2zM354 433.9c1.7-1.1 4-.6 5.2 1.1 1.1 1.7.6 4-1.1 5.2-1.7 1.1-4 .6-5.2-1.1-1.1-1.7-.6-4.1 1.1-5.2zM374.2 465.3c1.7-1.1 4-.6 5.2 1.1 1.1 1.7.6 4-1.1 5.2-1.7 1.1-4 .6-5.2-1.1-1.2-1.8-.7-4.1 1.1-5.2zM340.7 511c.4.2.8.5 1.2.8.2.2.3.4.5.6.4.6.6 1.4.6 2.1 0 .2 0 .5-.1.7-.1.2-.1.5-.2.7-.2.4-.5.8-.8 1.2-.2.2-.4.3-.6.5-1.7 1.1-4 .6-5.2-1.1-1.1-1.7-.6-4 1.1-5.2.6-.4 1.4-.6 2.1-.6.5 0 1 .1 1.4.3zM368.6 491.1c.2-.1.4-.3.7-.3.9-.4 1.9-.3 2.8.1.7.3 1.2.8 1.7 1.4.7 1.1.8 2.4.3 3.5l-.3.6c-.3.4-.6.8-1.1 1-1.7 1.1-4 .6-5.2-1.1-1.1-1.8-.6-4.1 1.1-5.2zM379.8 439.5c.6-.4 1.4-.6 2.1-.6.5 0 1 .1 1.4.3.7.3 1.2.8 1.7 1.4.6.9.7 1.9.5 2.8-.2.9-.8 1.8-1.6 2.3-.2.1-.4.3-.7.3-1.6.6-3.5.1-4.5-1.5-1.2-1.6-.7-3.9 1.1-5zM358.5 413.3c-.1-.2-.3-.4-.3-.7-.2-.5-.3-.9-.2-1.4 0-.7.2-1.4.6-2 .3-.4.6-.8 1.1-1 1.7-1.1 4-.6 5.2 1.1.3.4.5.9.5 1.4.2 1 0 1.9-.6 2.7-.3.4-.6.8-1.1 1-.2.1-.4.3-.7.3-.5.2-.9.3-1.4.3-.5 0-1-.1-1.4-.3-.7-.3-1.3-.7-1.7-1.4zM296.4 475.4c1.1 1.7.6 4-1.1 5.2-1.7 1.1-4 .6-5.2-1.1-1.1-1.7-.6-4 1.1-5.2 1.8-1.1 4.1-.6 5.2 1.1zM316.6 506.8c.7 1.1.8 2.5.2 3.6-1.8-1.6-3.5-3.2-5.3-4.8 1.8-1 4-.5 5.1 1.2zM737.8 306.8c-.2.1-.4.3-.7.3-.9.4-1.9.3-2.8-.1-.7-.3-1.2-.8-1.7-1.4-.4-.6-.6-1.4-.6-2.1 0-1.2.6-2.4 1.7-3.1 1.7-1.1 4-.6 5.2 1.1 1.1 1.8.6 4.2-1.1 5.3zM764 285.5c-1.1-1.7-.6-4 1.1-5.2 1.7-1.1 4-.6 5.2 1.1 1.1 1.7.6 4-1.1 5.2-1.8 1.1-4.1.6-5.2-1.1zM738.2 279.9c-1.1-1.7-.6-4 1.1-5.2 1.7-1.1 4-.6 5.2 1.1 1.1 1.7.6 4-1.1 5.2-1.7 1.1-4 .6-5.2-1.1zM758.4 311.2c-1.1-1.7-.6-4 1.1-5.2 1.7-1.1 4-.6 5.2 1.1 1.1 1.7.6 4-1.1 5.2-1.8 1.2-4.1.7-5.2-1.1zM759.1 333c.3.4.5.9.5 1.4.1.5.1 1 0 1.4-.1.2-.1.5-.2.7l-.3.6c-.1.2-.3.4-.5.6-.2.2-.4.3-.6.5-1.7 1.1-4 .6-5.2-1.1-.4-.6-.6-1.4-.6-2.1 0-1 .4-1.9 1.1-2.6.2-.2.4-.3.6-.5.6-.4 1.4-.6 2.1-.6.5 0 1 .1 1.4.3.7.3 1.3.7 1.7 1.4zM675.1 347.1c-1.5 1-3.5.7-4.7-.5-.2-.2-.3-.4-.5-.6-.1-.2-.3-.4-.3-.7-.6-1.6-.1-3.5 1.5-4.5 1.7-1.1 4-.6 5.2 1.1 1 1.8.5 4.1-1.2 5.2zM656 310.6c1.1 1.7.6 4-1.1 5.2-.4.3-.9.5-1.4.5-.5.1-1 .1-1.4 0-.5-.1-.9-.3-1.3-.6s-.8-.6-1-1.1c-.3-.4-.5-.9-.5-1.4-.1-.5-.1-1 0-1.4.1-.5.3-.9.6-1.3s.6-.8 1.1-1c.4-.3.9-.5 1.4-.5.5-.1 1-.1 1.4 0 .8.2 1.7.7 2.2 1.6zM706.4 326.9c-1.7 1.1-4 .6-5.2-1.1-1.1-1.7-.6-4 1.1-5.2 1.7-1.1 4-.6 5.2 1.1 1.2 1.8.7 4.1-1.1 5.2zM687.9 291.8c.2 1.2-.2 2.4-1.1 3.3-.2.2-.4.3-.6.5-.9.6-1.9.7-2.8.5-.9-.2-1.8-.8-2.3-1.6-1.1-1.7-.6-4 1.1-5.2 1.7-1.1 4-.6 5.2 1.1.3.5.4.9.5 1.4zM680.7 321.3c-1.7 1.1-4 .6-5.2-1.1-1.1-1.7-.6-4 1.1-5.2 1.7-1.1 4-.6 5.2 1.1 1.1 1.8.6 4.1-1.1 5.2zM700.8 352.7c-1.7 1.1-4 .6-5.2-1.1-1.1-1.7-.6-4 1.1-5.2 1.7-1.1 4-.6 5.2 1.1 1.2 1.8.7 4.1-1.1 5.2zM712 301.2c-1.7 1.1-4 .6-5.2-1.1-1.1-1.7-.6-4 1.1-5.2 1.7-1.1 4-.6 5.2 1.1 1.2 1.8.7 4.1-1.1 5.2zM732.2 332.5c-1.7 1.1-4 .6-5.2-1.1-1.1-1.7-.6-4 1.1-5.2 1.7-1.1 4-.6 5.2 1.1 1.1 1.8.6 4.1-1.1 5.2zM695.9 372.7c.2.2.3.4.5.6 1.1 1.7.6 4-1.1 5.2-.2.1-.4.3-.7.3-.9.4-1.9.3-2.8-.1-.7-.3-1.2-.8-1.7-1.4-.4-.6-.6-1.4-.6-2.1 0-1.2.6-2.4 1.7-3.1 1.1-.7 2.4-.8 3.5-.3.4.3.9.6 1.2.9zM727.7 353.2c.8 1.3.8 2.9-.1 4.1-.3.4-.6.8-1.1 1-1.7 1.1-4 .6-5.2-1.1-1.1-1.7-.6-4 1.1-5.2.2-.1.4-.3.7-.3.9-.4 1.9-.3 2.8.1.8.2 1.4.7 1.8 1.4zM715.5 276c-1.2 0-2.4-.6-3.1-1.7-.1-.2-.3-.4-.3-.7-.2-.5-.3-.9-.2-1.4 0-.7.2-1.4.6-2 .3-.4.6-.8 1.1-1 .2-.1.4-.3.7-.3.5-.2.9-.3 1.4-.2.5 0 1 .1 1.4.3.7.3 1.2.8 1.7 1.4.3.4.5.9.5 1.4 0 .2.1.5.1.7 0 .7-.2 1.4-.6 2-.3.4-.6.8-1.1 1-.2.1-.4.3-.7.3-.5.1-1 .2-1.5.2zM614.1 384.4c0 1-.4 1.9-1.1 2.6-.2.2-.4.3-.6.5-1.7 1.1-4 .6-5.2-1.1-.6-.9-.7-1.9-.5-2.8.2-.9.8-1.8 1.6-2.3 1.7-1.1 4-.6 5.2 1.1.4.6.6 1.3.6 2zM593.8 352.3c.2 1-.1 1.9-.6 2.7-.3.4-.6.8-1.1 1-.2.1-.4.3-.7.3-.7.3-1.4.3-2.1.2-.2 0-.5-.1-.7-.2-.7-.3-1.2-.8-1.7-1.4-.4-.6-.6-1.4-.6-2.1 0-1.2.6-2.4 1.7-3.1.4-.3.9-.5 1.4-.5 1.4-.2 2.9.4 3.8 1.7.4.5.5 1 .6 1.4zM643.7 367.3c-1.7 1.1-4 .6-5.2-1.1-1.1-1.7-.6-4 1.1-5.2 1.7-1.1 4-.6 5.2 1.1 1.1 1.8.6 4.1-1.1 5.2zM625.2 332.2c.2 1-.1 1.9-.6 2.7-.3.4-.6.8-1.1 1-.9.6-1.9.7-2.8.5-.9-.2-1.8-.8-2.3-1.6-.1-.2-.3-.4-.3-.7-.4-1.2-.3-2.4.4-3.4.3-.4.6-.8 1.1-1 1.7-1.1 4-.6 5.2 1.1.1.4.3.9.4 1.4zM617.9 361.7c-1.7 1.1-4 .6-5.2-1.1-1.1-1.7-.6-4 1.1-5.2 1.7-1.1 4-.6 5.2 1.1 1.2 1.8.7 4.1-1.1 5.2zM638.1 393.1c-1.7 1.1-4 .6-5.2-1.1-1.1-1.7-.6-4 1.1-5.2 1.7-1.1 4-.6 5.2 1.1 1.2 1.7.6 4.1-1.1 5.2zM649.3 341.5c-1.7 1.1-4 .6-5.2-1.1-1.1-1.7-.6-4 1.1-5.2 1.7-1.1 4-.6 5.2 1.1 1.1 1.8.6 4.1-1.1 5.2zM669.5 372.9c-1.7 1.1-4 .6-5.2-1.1-1.1-1.7-.6-4 1.1-5.2 1.7-1.1 4-.6 5.2 1.1 1.1 1.8.6 4.1-1.1 5.2zM633.6 413.7c.4.6.6 1.4.6 2.1 0 .7-.2 1.4-.7 2-.3.4-.6.8-1.1 1-.2.1-.4.3-.7.3-.9.4-1.9.3-2.8-.1-.7-.3-1.2-.8-1.7-1.4-.4-.6-.6-1.4-.6-2.1 0-1.2.6-2.4 1.7-3.1.2-.1.4-.3.7-.3.5-.2.9-.3 1.4-.2.5 0 1 .1 1.4.3.8.4 1.4.8 1.8 1.5zM576.9 401.4c1.7-1.1 4-.6 5.2 1.1 1.1 1.7.6 4-1.1 5.2-1.7 1.1-4 .6-5.2-1.1-1.1-1.8-.6-4.1 1.1-5.2zM555.7 375.2c-.3-.4-.5-.9-.5-1.4-.1-.5-.1-1 0-1.4.1-.5.3-.9.6-1.3s.6-.8 1.1-1c.4-.3.9-.5 1.4-.5 1.4-.2 2.9.4 3.8 1.7 1.1 1.7.6 4-1.1 5.2-.4.3-.9.5-1.4.5-.5.1-1 .1-1.4 0-.5-.1-.9-.3-1.3-.6-.6-.4-1-.8-1.2-1.2zM551.2 395.8c1.7-1.1 4-.6 5.2 1.1 1.1 1.7.6 4-1.1 5.2-1.7 1.1-4 .6-5.2-1.1-1.2-1.8-.7-4.1 1.1-5.2zM571.4 427.1c1.7-1.1 4-.6 5.2 1.1 1.1 1.7.6 4-1.1 5.2-1.7 1.1-4 .6-5.2-1.1-1.2-1.7-.7-4 1.1-5.2zM586.6 381.9c-1.7 1.1-4 .6-5.2-1.1-1.1-1.7-.6-4 1.1-5.2 1.7-1.1 4-.6 5.2 1.1 1.1 1.8.6 4.1-1.1 5.2zM602.7 407c1.7-1.1 4-.6 5.2 1.1 1.1 1.7.6 4-1.1 5.2-1.7 1.1-4 .6-5.2-1.1-1.1-1.8-.6-4.1 1.1-5.2zM597.1 432.7c.9-.6 1.9-.7 2.8-.5.9.2 1.8.8 2.3 1.6 1.1 1.7.6 4-1.1 5.2-1.7 1.1-4 .6-5.2-1.1-1-1.7-.5-4 1.2-5.2zM514.2 441.7c1.7-1.1 4-.6 5.2 1.1 1.1 1.7.6 4-1.1 5.2-1.7 1.1-4 .6-5.2-1.1-1.1-1.7-.6-4.1 1.1-5.2zM488.5 436.1c1.7-1.1 4-.6 5.2 1.1 1.1 1.7.6 4-1.1 5.2-1.7 1.1-4 .6-5.2-1.1-1.2-1.7-.7-4.1 1.1-5.2zM508.6 467.5c1.7-1.1 4-.6 5.2 1.1 1.1 1.7.6 4-1.1 5.2-1.7 1.1-4 .6-5.2-1.1-1.1-1.8-.6-4.1 1.1-5.2zM519.8 416c1.7-1.1 4-.6 5.2 1.1 1.1 1.7.6 4-1.1 5.2-1.7 1.1-4 .6-5.2-1.1-1.1-1.8-.6-4.1 1.1-5.2zM540 447.3c1.7-1.1 4-.6 5.2 1.1 1.1 1.7.6 4-1.1 5.2-1.7 1.1-4 .6-5.2-1.1-1.1-1.8-.6-4.1 1.1-5.2zM534.4 473.1c.2-.1.4-.3.7-.3.9-.4 1.9-.3 2.8.1.7.3 1.2.8 1.7 1.4 1 1.5.7 3.5-.5 4.7-.2.2-.4.3-.6.5-.9.6-1.9.7-2.8.5-.9-.2-1.8-.8-2.3-1.6-1.2-1.9-.7-4.2 1-5.3zM545.6 421.6c.6-.4 1.4-.6 2.1-.6.5 0 1 .1 1.4.3.7.3 1.2.8 1.7 1.4.6.9.7 1.9.5 2.8-.2.9-.8 1.8-1.6 2.3-.9.6-1.9.7-2.8.5-.9-.2-1.8-.8-2.3-1.6-1.2-1.7-.7-4 1-5.1zM524.3 395.3c-.4-.6-.6-1.4-.6-2.1 0-1.2.6-2.4 1.7-3.1 1.1-.7 2.4-.8 3.5-.3.4.2.8.5 1.2.8.2.2.3.4.5.6.3.4.5.9.5 1.4.2 1-.1 1.9-.6 2.7-.3.4-.6.8-1.1 1-.2.1-.4.3-.7.3-.9.4-1.9.3-2.8-.1-.6 0-1.2-.5-1.6-1.2zM451.5 482.1c1.7-1.1 4-.6 5.2 1.1 1.1 1.7.6 4-1.1 5.2-1.7 1.1-4 .6-5.2-1.1-1.1-1.8-.6-4.1 1.1-5.2zM425.7 476.5c1.7-1.1 4-.6 5.2 1.1 1.1 1.7.6 4-1.1 5.2-1.7 1.1-4 .6-5.2-1.1-1.1-1.8-.6-4.1 1.1-5.2zM445.9 507.8c1.7-1.1 4-.6 5.2 1.1 1.1 1.7.6 4-1.1 5.2-1.7 1.1-4 .6-5.2-1.1-1.1-1.7-.6-4 1.1-5.2zM457.1 456.3c1.7-1.1 4-.6 5.2 1.1 1.1 1.7.6 4-1.1 5.2-1.7 1.1-4 .6-5.2-1.1-1.1-1.8-.6-4.1 1.1-5.2zM477.3 487.7c1.7-1.1 4-.6 5.2 1.1 1.1 1.7.6 4-1.1 5.2-1.7 1.1-4 .6-5.2-1.1-1.2-1.8-.7-4.1 1.1-5.2zM470.2 517.9c-.4-1.2-.3-2.4.4-3.4.3-.4.6-.8 1.1-1 1.7-1.1 4-.6 5.2 1.1.3.4.5.9.5 1.4.2 1-.1 1.9-.6 2.7-.3.4-.6.8-1.1 1-.2.1-.4.3-.7.3-.5.2-.9.3-1.4.2-1.2 0-2.4-.6-3.1-1.7-.1-.1-.2-.3-.3-.6zM481.7 467.1c-.4-.6-.6-1.4-.6-2.1 0-1.2.6-2.4 1.7-3.1 1.7-1.1 4-.6 5.2 1.1 1.1 1.7.6 4-1.1 5.2-.2.1-.4.3-.7.3-.9.4-1.9.3-2.8-.1-.7-.2-1.2-.7-1.7-1.3zM461.6 435.7c-.3-.4-.5-.9-.5-1.4 0-.2-.1-.5-.1-.7 0-.2 0-.5.1-.7.1-.5.3-.9.6-1.3s.6-.8 1.1-1c.2-.1.4-.3.7-.3.5-.2.9-.3 1.4-.2.5 0 1 .1 1.4.3.7.3 1.2.8 1.7 1.4.4.7.6 1.4.6 2.1 0 .7-.2 1.4-.6 2-.3.4-.6.8-1.1 1-.2.1-.4.3-.7.3-.9.4-1.9.3-2.8-.1-.8-.3-1.4-.8-1.8-1.4zM503 493.3c.6-.4 1.4-.6 2.1-.6.2 0 .5 0 .7.1.2.1.5.1.7.2.7.3 1.2.8 1.7 1.4.4.6.6 1.4.6 2.1 0 .2 0 .5-.1.7-.1.2-.1.5-.2.7-.2.4-.5.8-.8 1.2-.2.2-.4.3-.6.5-1.7 1.1-4 .6-5.2-1.1-1.1-1.8-.6-4.1 1.1-5.2zM359.5 542c.5 0 1 .1 1.4.3.7.3 1.2.8 1.7 1.4.4.6.6 1.4.6 2.1 0 1.2-.6 2.4-1.7 3.1-1 .6-2.2.7-3.2.4-.8-.7-1.5-1.5-2.3-2.2-.2-.5-.3-.9-.2-1.4 0-1.2.6-2.4 1.7-3.1.2-.1.4-.3.7-.3.3-.2.8-.3 1.3-.3zM388.8 522.4c1.7-1.1 4-.6 5.2 1.1 1.1 1.7.6 4-1.1 5.2-1.7 1.1-4 .6-5.2-1.1-1.2-1.7-.7-4.1 1.1-5.2zM368.1 518c1.1 1.7.6 4-1.1 5.2-1.7 1.1-4 .6-5.2-1.1-1.1-1.7-.6-4 1.1-5.2 1.8-1.2 4.1-.7 5.2 1.1zM388.3 549.3c1.1 1.7.6 4-1.1 5.2-1.7 1.1-4 .6-5.2-1.1-1.1-1.7-.6-4 1.1-5.2 1.8-1.1 4.1-.6 5.2 1.1zM394.4 496.7c1.7-1.1 4-.6 5.2 1.1 1.1 1.7.6 4-1.1 5.2-1.7 1.1-4 .6-5.2-1.1-1.2-1.8-.7-4.1 1.1-5.2zM414.5 528c1.7-1.1 4-.6 5.2 1.1 1.1 1.7.6 4-1.1 5.2-1.7 1.1-4 .6-5.2-1.1-1.1-1.8-.6-4.1 1.1-5.2zM411.7 553.3c.9.2 1.8.8 2.3 1.6 1.1 1.7.6 4-1.1 5.2-.4.3-.9.5-1.4.5-.5.1-1 .1-1.4 0-.5-.1-.9-.3-1.3-.6s-.8-.6-1-1.1c-.3-.4-.5-.9-.5-1.4-.1-.5-.1-1 0-1.4.1-.5.3-.9.6-1.3s.6-.8 1.1-1c.4-.3.9-.5 1.4-.5.4-.1.9-.1 1.3 0zM419 507.4c-.4-.6-.6-1.4-.6-2.1 0-1.2.6-2.4 1.7-3.1 1.7-1.1 4-.6 5.2 1.1 1.1 1.7.6 4-1.1 5.2-.2.1-.4.3-.7.3-.9.4-1.9.3-2.8-.1-.7-.2-1.3-.6-1.7-1.3zM398.8 476c-.4-.6-.6-1.4-.6-2.1 0-.2 0-.5.1-.7.2-.7.5-1.4 1-1.9.2-.2.4-.3.6-.5.4-.3.9-.5 1.4-.5 1.4-.2 2.9.4 3.8 1.7.3.4.5.9.5 1.4.2 1-.1 1.9-.6 2.7-.3.4-.6.8-1.1 1-1.5 1-3.5.7-4.7-.5-.1-.1-.2-.3-.4-.6zM439.2 538.8c-1.1-1.7-.6-4 1.1-5.2.4-.3.9-.5 1.4-.5 1.4-.2 2.9.4 3.8 1.7.3.4.5.9.5 1.4.2 1.2-.2 2.4-1.1 3.3-.2.2-.4.3-.6.5-.2.1-.4.3-.7.3-.7.3-1.4.3-2.1.2-.9-.3-1.8-.9-2.3-1.7zM779.3 364.3c.4.6.6 1.4.6 2.1 0 1.2-.6 2.4-1.7 3.1-1.5 1-3.5.7-4.7-.5-.2-.2-.3-.4-.5-.6-.1-.2-.3-.4-.3-.7-.2-.5-.3-.9-.2-1.4 0-1.2.6-2.4 1.7-3.1.2-.1.4-.3.7-.3.5-.2.9-.3 1.4-.2.5 0 1 .1 1.4.3.6.2 1.2.7 1.6 1.3zM804.4 348.2c-1.1-1.7-.6-4 1.1-5.2 1.7-1.1 4-.6 5.2 1.1 1.1 1.7.6 4-1.1 5.2-1.8 1.1-4.1.6-5.2-1.1zM784.2 316.8c-1.1-1.7-.6-4 1.1-5.2 1.1-.7 2.4-.8 3.5-.3.4.2.8.5 1.2.8.2.2.3.4.5.6 1.1 1.7.6 4-1.1 5.2-1.8 1.2-4.1.7-5.2-1.1zM783.8 343.7c-1.7 1.1-4 .6-5.2-1.1-1.1-1.7-.6-4 1.1-5.2 1.7-1.1 4-.6 5.2 1.1 1.1 1.8.6 4.1-1.1 5.2zM803.9 375.1c-1.7 1.1-4 .6-5.2-1.1-1.1-1.7-.6-4 1.1-5.2 1.7-1.1 4-.6 5.2 1.1 1.2 1.8.7 4.1-1.1 5.2zM810 322.4c-1.1-1.7-.6-4 1.1-5.2.2-.1.3-.2.5-.3 1.6 1.7 3.2 3.5 4.7 5.3-.3.5-.7.9-1.2 1.3-1.7 1.2-4 .7-5.1-1.1zM830.1 353.8c-1.1-1.7-.6-4 1.1-5.2 1.7-1.1 4-.6 5.2 1.1 1.1 1.7.6 4-1.1 5.2-1.7 1.1-4 .6-5.2-1.1zM716.5 404.7c.6.9.7 1.9.5 2.8-.2.9-.7 1.8-1.6 2.3-.9.6-1.9.7-2.8.5-.9-.2-1.8-.8-2.3-1.6-1.1-1.7-.6-4 1.1-5.2.6-.4 1.4-.6 2.1-.6.5 0 1 .1 1.4.3.6.4 1.2.8 1.6 1.5zM746.8 389.7c-1.7 1.1-4 .6-5.2-1.1-1.1-1.7-.6-4 1.1-5.2 1.7-1.1 4-.6 5.2 1.1 1.1 1.8.6 4.1-1.1 5.2zM721 384.1c-1.7 1.1-4 .6-5.2-1.1-1.1-1.7-.6-4 1.1-5.2 1.7-1.1 4-.6 5.2 1.1 1.2 1.8.7 4.1-1.1 5.2zM741.2 415.4c-1.7 1.1-4 .6-5.2-1.1-1.1-1.7-.6-4 1.1-5.2 1.7-1.1 4-.6 5.2 1.1 1.1 1.8.6 4.1-1.1 5.2zM752.4 363.9c-1.7 1.1-4 .6-5.2-1.1-1.1-1.7-.6-4 1.1-5.2 1.7-1.1 4-.6 5.2 1.1 1.1 1.8.6 4.1-1.1 5.2zM772.6 395.3c-1.7 1.1-4 .6-5.2-1.1-1.1-1.7-.6-4 1.1-5.2 1.7-1.1 4-.6 5.2 1.1 1.1 1.7.6 4.1-1.1 5.2zM652.7 450.2c-.2.1-.4.3-.7.3-.9.4-1.9.3-2.8-.1-.7-.3-1.2-.8-1.7-1.4-.4-.6-.6-1.4-.6-2.1 0-1.2.6-2.4 1.7-3.1 1.7-1.1 4-.6 5.2 1.1 1.1 1.9.6 4.2-1.1 5.3zM684.1 430c-1.7 1.1-4 .6-5.2-1.1-1.1-1.7-.6-4 1.1-5.2 1.7-1.1 4-.6 5.2 1.1 1.1 1.8.6 4.1-1.1 5.2zM665.5 394.9c.2 1 0 1.9-.6 2.7-.3.4-.6.8-1.1 1-.2.1-.4.3-.7.3-.9.4-1.9.3-2.8-.1-.7-.3-1.2-.8-1.7-1.4-.4-.6-.6-1.4-.6-2.1 0-1 .4-1.9 1.1-2.6.2-.2.4-.3.6-.5 1.7-1.1 4-.6 5.2 1.1.4.6.6 1.1.6 1.6zM658.3 424.4c-1.7 1.1-4 .6-5.2-1.1-1.1-1.7-.6-4 1.1-5.2 1.7-1.1 4-.6 5.2 1.1 1.1 1.8.6 4.1-1.1 5.2zM678.5 455.8c-1.7 1.1-4 .6-5.2-1.1-1.1-1.7-.6-4 1.1-5.2 1.7-1.1 4-.6 5.2 1.1 1.1 1.8.6 4.1-1.1 5.2zM689.7 404.3c-1.7 1.1-4 .6-5.2-1.1-1.1-1.7-.6-4 1.1-5.2 1.7-1.1 4-.6 5.2 1.1 1.1 1.7.6 4-1.1 5.2zM709.8 435.6c-1.7 1.1-4 .6-5.2-1.1-1.1-1.7-.6-4 1.1-5.2 1.7-1.1 4-.6 5.2 1.1 1.2 1.8.7 4.1-1.1 5.2zM617.3 464.1c1.7-1.1 4-.6 5.2 1.1 1.1 1.7.6 4-1.1 5.2-1.7 1.1-4 .6-5.2-1.1-1.1-1.8-.6-4.1 1.1-5.2zM591.5 458.5c1.7-1.1 4-.6 5.2 1.1 1.1 1.7.6 4-1.1 5.2-1.7 1.1-4 .6-5.2-1.1-1.1-1.8-.6-4.1 1.1-5.2zM611.7 489.9c1.7-1.1 4-.6 5.2 1.1 1.1 1.7.6 4-1.1 5.2-1.7 1.1-4 .6-5.2-1.1-1.1-1.8-.6-4.1 1.1-5.2zM622.9 438.3c1.7-1.1 4-.6 5.2 1.1 1.1 1.7.6 4-1.1 5.2-1.7 1.1-4 .6-5.2-1.1-1.1-1.7-.6-4.1 1.1-5.2zM643.1 469.7c1.7-1.1 4-.6 5.2 1.1 1.1 1.7.6 4-1.1 5.2-1.7 1.1-4 .6-5.2-1.1-1.2-1.8-.7-4.1 1.1-5.2zM636 499.9c-.4-1.2-.3-2.4.4-3.4.3-.4.6-.8 1.1-1 1.7-1.1 4-.6 5.2 1.1.3.4.5.9.5 1.4.2 1-.1 1.9-.6 2.7-.3.4-.6.8-1.1 1-1.7 1.1-4 .6-5.2-1.1-.1-.2-.2-.4-.3-.7zM554.6 504.5c1.7-1.1 4-.6 5.2 1.1 1.1 1.7.6 4-1.1 5.2-1.7 1.1-4 .6-5.2-1.1-1.2-1.8-.7-4.1 1.1-5.2zM528.8 498.9c1.7-1.1 4-.6 5.2 1.1 1.1 1.7.6 4-1.1 5.2-1.7 1.1-4 .6-5.2-1.1-1.1-1.8-.6-4.1 1.1-5.2zM549 530.2c1.7-1.1 4-.6 5.2 1.1 1.1 1.7.6 4-1.1 5.2-1.7 1.1-4 .6-5.2-1.1-1.2-1.8-.7-4.1 1.1-5.2zM560.2 478.7c1.7-1.1 4-.6 5.2 1.1 1.1 1.7.6 4-1.1 5.2-1.7 1.1-4 .6-5.2-1.1-1.2-1.8-.7-4.1 1.1-5.2zM580.3 510c1.7-1.1 4-.6 5.2 1.1 1.1 1.7.6 4-1.1 5.2-1.7 1.1-4 .6-5.2-1.1-1.1-1.7-.6-4 1.1-5.2zM584.8 489.4c-.4-.6-.6-1.4-.6-2.1 0-1.2.6-2.4 1.7-3.1 1.7-1.1 4-.6 5.2 1.1 1.1 1.7.6 4-1.1 5.2-.2.1-.4.3-.7.3-.9.4-1.9.3-2.8-.1-.7-.1-1.3-.6-1.7-1.3zM564.6 458.1c-.1-.2-.3-.4-.3-.7-.3-.7-.3-1.4-.2-2.1.1-.5.3-.9.6-1.3s.6-.8 1.1-1c.4-.3.9-.5 1.4-.5 1.4-.2 2.9.4 3.8 1.7.3.4.5.9.5 1.4.2 1-.1 1.9-.6 2.7-.3.4-.6.8-1.1 1-.2.1-.4.3-.7.3-.5.2-.9.3-1.4.3-1 0-1.9-.4-2.6-1.1-.2-.3-.3-.5-.5-.7zM605 520.8c-.7-1.1-.8-2.4-.3-3.5.2-.4.5-.8.8-1.2.2-.2.4-.3.6-.5.4-.3.9-.5 1.4-.5 1.4-.2 2.9.4 3.8 1.7.3.4.5.9.5 1.4.2 1-.1 1.9-.6 2.7-.3.4-.6.8-1.1 1-.2.1-.4.3-.7.3-.7.3-1.4.3-2.1.2-.9-.2-1.7-.7-2.3-1.6zM491.8 544.8c1.7-1.1 4-.6 5.2 1.1 1.1 1.7.6 4-1.1 5.2-1.7 1.1-4 .6-5.2-1.1-1.1-1.8-.6-4.1 1.1-5.2zM466.1 539.2c1.7-1.1 4-.6 5.2 1.1 1.1 1.7.6 4-1.1 5.2-1.7 1.1-4 .6-5.2-1.1-1.2-1.8-.7-4.1 1.1-5.2zM486.2 570.6c1.7-1.1 4-.6 5.2 1.1 1.1 1.7.6 4-1.1 5.2-1.7 1.1-4 .6-5.2-1.1-1.1-1.8-.6-4.1 1.1-5.2zM497.4 519c1.7-1.1 4-.6 5.2 1.1 1.1 1.7.6 4-1.1 5.2-1.7 1.1-4 .6-5.2-1.1-1.1-1.7-.6-4 1.1-5.2zM517.6 550.4c1.7-1.1 4-.6 5.2 1.1 1.1 1.7.6 4-1.1 5.2-1.7 1.1-4 .6-5.2-1.1-1.1-1.8-.6-4.1 1.1-5.2zM510.3 579.2c0-1 .4-1.9 1.1-2.6.2-.2.4-.3.6-.5 1.7-1.1 4-.6 5.2 1.1.3.4.5.9.5 1.4.2 1 0 1.9-.6 2.7-.3.4-.6.8-1.1 1-.9.6-1.9.7-2.8.5-.9-.2-1.8-.8-2.3-1.6-.4-.5-.6-1.3-.6-2zM522.1 529.8c-.1-.2-.3-.4-.3-.7-.2-.5-.3-.9-.2-1.4 0-1.2.6-2.4 1.7-3.1.2-.1.4-.3.7-.3.5-.2.9-.3 1.4-.2.5 0 1 .1 1.4.3.7.3 1.2.8 1.7 1.4.4.7.6 1.4.6 2.1 0 1.2-.6 2.4-1.7 3.1-1.5 1-3.5.7-4.7-.5-.3-.3-.5-.5-.6-.7zM434.3 586.3c1.1 1.7.6 4-1.1 5.2-1.7 1.1-4 .6-5.2-1.1-1.1-1.7-.6-4 1.1-5.2 1.7-1.2 4.1-.7 5.2 1.1zM408.5 580.7c1.1 1.7.6 4-1.1 5.2-1.7 1.1-4 .6-5.2-1.1-1.1-1.7-.6-4 1.1-5.2 1.8-1.1 4.1-.6 5.2 1.1zM428.7 612c.8 1.3.8 3-.1 4.2-1.8-1.6-3.7-3.3-5.5-5 .1-.1.3-.2.4-.3 1.8-1.1 4.1-.6 5.2 1.1zM434.7 559.4c1.7-1.1 4-.6 5.2 1.1 1.1 1.7.6 4-1.1 5.2-1.7 1.1-4 .6-5.2-1.1-1.1-1.8-.6-4.1 1.1-5.2zM454.9 590.8c1.7-1.1 4-.6 5.2 1.1 1.1 1.7.6 4-1.1 5.2-1.7 1.1-4 .6-5.2-1.1-1.1-1.8-.6-4.1 1.1-5.2zM452.8 616.2c.4.2.8.5 1.2.8.2.2.3.4.5.6 1.1 1.7.6 4-1.1 5.2-1.7 1.1-4 .6-5.2-1.1-1.1-1.7-.6-4 1.1-5.2 1.1-.7 2.4-.7 3.5-.3zM458.9 567.3c.2-.9.8-1.8 1.6-2.3.4-.3.9-.5 1.4-.5 1.4-.2 2.9.4 3.8 1.7 1.1 1.7.6 4-1.1 5.2-1.7 1.1-4 .6-5.2-1.1-.6-1-.8-2-.5-3zM819.6 427.1c.6.9.7 1.9.5 2.8-.2.9-.8 1.8-1.6 2.3-1.7 1.1-4 .6-5.2-1.1-1.1-1.7-.6-4 1.1-5.2.6-.4 1.4-.6 2.1-.6.5 0 1 .1 1.4.3.7.3 1.3.8 1.7 1.5zM800 397.1c.2 1.2-.2 2.4-1.1 3.3-.2.2-.4.3-.6.5-.2.1-.4.3-.7.3-.7.3-1.4.3-2.1.2-.2-.1-.5-.1-.7-.2-.7-.3-1.2-.8-1.7-1.4-.4-.6-.6-1.4-.6-2.1 0-1.2.6-2.4 1.7-3.1 1.7-1.1 4-.6 5.2 1.1.3.4.5.9.6 1.4zM844.7 410.9c-1.1-1.7-.6-4 1.1-5.2 1.7-1.1 4-.6 5.2 1.1 1.1 1.7.6 4-1.1 5.2-1.8 1.2-4.1.7-5.2-1.1zM827.6 381.3c-1.2 0-2.4-.6-3.1-1.7-.1-.2-.3-.4-.3-.7-.4-1.2-.3-2.4.4-3.4.3-.4.6-.8 1.1-1 1.7-1.1 4-.6 5.2 1.1.3.4.5.9.5 1.4.2 1-.1 1.9-.6 2.7-.3.4-.6.8-1.1 1-.2.1-.4.3-.7.3-.4.2-.9.3-1.4.3zM824.1 406.5c-1.7 1.1-4 .6-5.2-1.1-1.1-1.7-.6-4 1.1-5.2 1.7-1.1 4-.6 5.2 1.1 1.1 1.7.6 4-1.1 5.2zM844.3 437.8c-1.7 1.1-4 .6-5.2-1.1-1.1-1.7-.6-4 1.1-5.2 1.7-1.1 4-.6 5.2 1.1 1.1 1.8.6 4.1-1.1 5.2zM850.3 385.2c-1.1-1.7-.6-4 1.1-5.2 1.7-1.1 4-.6 5.2 1.1 1.1 1.7.6 4-1.1 5.2-1.8 1.1-4.1.6-5.2-1.1zM870.5 416.5c-1.1-1.7-.6-4 1.1-5.2 1.7-1.1 4-.6 5.2 1.1 1.1 1.7.6 4-1.1 5.2-1.8 1.2-4.1.7-5.2-1.1zM839.8 458.4c.8 1.3.8 2.9-.1 4.1-.3.4-.6.8-1.1 1-1.5 1-3.5.7-4.7-.5-.2-.2-.3-.4-.5-.6-.1-.2-.3-.4-.3-.7-.1-.2-.2-.5-.2-.7-.1-.5-.1-1 0-1.4.1-.5.3-.9.6-1.3s.6-.8 1.1-1c.4-.3.9-.5 1.4-.5.7-.1 1.5 0 2.1.2.7.3 1.3.8 1.7 1.4zM755.8 472.6c-.2.1-.4.3-.7.3-.9.4-1.9.3-2.8-.1-.7-.3-1.2-.8-1.7-1.4-.4-.6-.6-1.4-.6-2.1 0-1.2.6-2.4 1.7-3.1 1.7-1.1 4-.6 5.2 1.1 1.1 1.9.6 4.2-1.1 5.3zM737.3 437.4c.2 1 0 1.9-.6 2.7-.3.4-.6.8-1.1 1-.2.1-.4.3-.7.3-.5.2-.9.3-1.4.2-1 0-1.9-.4-2.6-1.1-.2-.2-.3-.4-.5-.6-.1-.2-.3-.4-.3-.7-.3-.7-.3-1.4-.2-2.1.1-.5.3-.9.6-1.3s.6-.8 1.1-1c.4-.3.9-.5 1.4-.5 1.4-.2 2.9.4 3.8 1.7.2.5.4 1 .5 1.4zM787.1 452.4c-1.7 1.1-4 .6-5.2-1.1-1.1-1.7-.6-4 1.1-5.2 1.7-1.1 4-.6 5.2 1.1 1.2 1.8.7 4.1-1.1 5.2zM767 421c-.4.3-.9.5-1.4.5-.5.1-1 .1-1.4 0-.5-.1-.9-.3-1.3-.6s-.8-.6-1-1.1c-.3-.4-.5-.9-.5-1.4-.1-.5-.1-1 0-1.4.1-.5.3-.9.6-1.3s.6-.8 1.1-1c.4-.3.9-.5 1.4-.5.5-.1 1-.1 1.4 0 .9.2 1.8.8 2.3 1.6 1 1.8.5 4.1-1.2 5.2zM761.4 446.8c-1.7 1.1-4 .6-5.2-1.1-1.1-1.7-.6-4 1.1-5.2 1.7-1.1 4-.6 5.2 1.1 1.1 1.8.6 4.1-1.1 5.2zM781.6 478.2c-1.7 1.1-4 .6-5.2-1.1-1.1-1.7-.6-4 1.1-5.2 1.7-1.1 4-.6 5.2 1.1 1.1 1.7.6 4.1-1.1 5.2zM792.7 426.6c-1.7 1.1-4 .6-5.2-1.1-1.1-1.7-.6-4 1.1-5.2 1.7-1.1 4-.6 5.2 1.1 1.2 1.8.7 4.1-1.1 5.2zM812.9 458c-1.7 1.1-4 .6-5.2-1.1-1.1-1.7-.6-4 1.1-5.2 1.7-1.1 4-.6 5.2 1.1 1.1 1.8.6 4.1-1.1 5.2zM808 478c.2.2.3.4.5.6 1.1 1.7.6 4-1.1 5.2-1.7 1.1-4 .6-5.2-1.1-1.1-1.7-.6-4 1.1-5.2 1.1-.7 2.4-.8 3.5-.3.4.2.8.5 1.2.8zM724.4 492.8c-1.7 1.1-4 .6-5.2-1.1-1.1-1.7-.6-4 1.1-5.2 1.7-1.1 4-.6 5.2 1.1 1.1 1.7.6 4-1.1 5.2zM704.8 460.9c-.2.2-.4.3-.6.5-.9.6-1.9.7-2.8.5-.9-.2-1.8-.8-2.3-1.6-1.1-1.7-.6-4 1.1-5.2 1.7-1.1 4-.6 5.2 1.1.9 1.6.7 3.5-.6 4.7zM698.6 487.2c-1.7 1.1-4 .6-5.2-1.1-1.1-1.7-.6-4 1.1-5.2 1.7-1.1 4-.6 5.2 1.1 1.2 1.7.7 4-1.1 5.2zM714.8 512.2c1.7-1.1 4-.6 5.2 1.1 1.1 1.7.6 4-1.1 5.2-1.7 1.1-4 .6-5.2-1.1-1.1-1.7-.6-4 1.1-5.2zM730 467c-1.7 1.1-4 .6-5.2-1.1-1.1-1.7-.6-4 1.1-5.2 1.7-1.1 4-.6 5.2 1.1 1.1 1.8.6 4.1-1.1 5.2zM750.2 498.3c-1.7 1.1-4 .6-5.2-1.1-1.1-1.7-.6-4 1.1-5.2 1.7-1.1 4-.6 5.2 1.1 1.1 1.8.6 4.1-1.1 5.2zM745.7 519c.8 1.3.8 2.9-.1 4.1-.3.4-.6.8-1.1 1-1.7 1.1-4 .6-5.2-1.1-1.1-1.7-.6-4 1.1-5.2.2-.1.4-.3.7-.3.9-.4 1.9-.3 2.8.1.8.2 1.4.7 1.8 1.4zM657.7 526.8c1.7-1.1 4-.6 5.2 1.1 1.1 1.7.6 4-1.1 5.2-1.7 1.1-4 .6-5.2-1.1-1.2-1.7-.7-4.1 1.1-5.2zM631.9 521.2c1.7-1.1 4-.6 5.2 1.1 1.1 1.7.6 4-1.1 5.2-1.7 1.1-4 .6-5.2-1.1-1.2-1.7-.7-4 1.1-5.2zM652.1 552.6c1.7-1.1 4-.6 5.2 1.1 1.1 1.7.6 4-1.1 5.2-1.7 1.1-4 .6-5.2-1.1-1.2-1.8-.7-4.1 1.1-5.2zM663.2 501.1c1.7-1.1 4-.6 5.2 1.1 1.1 1.7.6 4-1.1 5.2-1.7 1.1-4 .6-5.2-1.1-1.1-1.8-.6-4.1 1.1-5.2zM683.4 532.4c1.7-1.1 4-.6 5.2 1.1 1.1 1.7.6 4-1.1 5.2-1.7 1.1-4 .6-5.2-1.1-1.1-1.8-.6-4.1 1.1-5.2zM687.9 511.8c-.1-.2-.3-.4-.3-.7-.2-.5-.3-.9-.2-1.4 0-1.2.6-2.4 1.7-3.1.2-.1.4-.3.7-.3.5-.2.9-.3 1.4-.2.5 0 1 .1 1.4.3.7.3 1.2.8 1.7 1.4.4.6.6 1.4.6 2.1 0 1.2-.6 2.4-1.7 3.1-1.5 1-3.5.7-4.7-.5-.3-.3-.5-.5-.6-.7zM667.7 480.4c-.3-.4-.5-.9-.5-1.4-.1-.5-.1-1 0-1.4.1-.5.3-.9.6-1.3s.6-.8 1.1-1c.4-.3.9-.5 1.4-.5.2 0 .5-.1.7-.1.2 0 .5 0 .7.1.2.1.5.1.7.2.7.3 1.2.8 1.7 1.4.4.6.6 1.4.6 2.1 0 .2 0 .5-.1.7-.1.2-.1.5-.2.7-.2.4-.5.8-.8 1.2-.2.2-.4.3-.6.5-.4.3-.9.5-1.4.5-.5.1-1 .1-1.4 0-.5-.1-.9-.3-1.3-.6-.5-.3-.9-.6-1.2-1.1zM594.9 567.2c1.7-1.1 4-.6 5.2 1.1 1.1 1.7.6 4-1.1 5.2-1.7 1.1-4 .6-5.2-1.1-1.1-1.8-.6-4.1 1.1-5.2zM573.6 541c-.3-.4-.5-.9-.5-1.4-.1-.5-.1-1 0-1.4.1-.5.3-.9.6-1.3s.6-.8 1.1-1c.4-.3.9-.5 1.4-.5 1.4-.2 2.9.4 3.8 1.7 1.1 1.7.6 4-1.1 5.2-.4.3-.9.5-1.4.5-.5.1-1 .1-1.4 0-.5-.1-.9-.3-1.3-.6-.5-.4-.9-.8-1.2-1.2zM569.2 561.6c1.7-1.1 4-.6 5.2 1.1 1.1 1.7.6 4-1.1 5.2-1.7 1.1-4 .6-5.2-1.1-1.2-1.8-.7-4.1 1.1-5.2zM589.3 593c1.7-1.1 4-.6 5.2 1.1 1.1 1.7.6 4-1.1 5.2-1.7 1.1-4 .6-5.2-1.1-1.1-1.8-.6-4.1 1.1-5.2zM600.5 541.4c1.7-1.1 4-.6 5.2 1.1 1.1 1.7.6 4-1.1 5.2-1.7 1.1-4 .6-5.2-1.1-1.1-1.8-.6-4.1 1.1-5.2zM620.7 572.8c1.7-1.1 4-.6 5.2 1.1 1.1 1.7.6 4-1.1 5.2-1.7 1.1-4 .6-5.2-1.1-1.1-1.8-.6-4.1 1.1-5.2zM615.1 598.5c.4-.3.9-.5 1.4-.5 1.4-.2 2.9.4 3.8 1.7 1.1 1.7.6 4-1.1 5.2-1.7 1.1-4 .6-5.2-1.1-1.1-1.8-.6-4.1 1.1-5.3zM624.7 549.4c.2-.9.8-1.8 1.6-2.3.4-.3.9-.5 1.4-.5 1.4-.2 2.9.4 3.8 1.7.4.6.6 1.4.6 2.1 0 1-.4 1.9-1.1 2.6-.2.2-.4.3-.6.5-1.7 1.1-4 .6-5.2-1.1-.6-1.1-.7-2.1-.5-3zM532.2 607.5c1.7-1.1 4-.6 5.2 1.1 1.1 1.7.6 4-1.1 5.2-1.7 1.1-4 .6-5.2-1.1-1.1-1.7-.6-4 1.1-5.2zM506.4 601.9c1.7-1.1 4-.6 5.2 1.1 1.1 1.7.6 4-1.1 5.2-1.7 1.1-4 .6-5.2-1.1-1.1-1.7-.6-4 1.1-5.2zM526.6 633.3c1.7-1.1 4-.6 5.2 1.1 1.1 1.7.6 4-1.1 5.2-1.7 1.1-4 .6-5.2-1.1-1.1-1.8-.6-4.1 1.1-5.2zM537.8 581.8c1.7-1.1 4-.6 5.2 1.1 1.1 1.7.6 4-1.1 5.2-1.7 1.1-4 .6-5.2-1.1-1.1-1.8-.6-4.1 1.1-5.2zM558 613.1c1.7-1.1 4-.6 5.2 1.1 1.1 1.7.6 4-1.1 5.2-1.7 1.1-4 .6-5.2-1.1-1.2-1.7-.7-4.1 1.1-5.2zM526.2 660.2c.4.7.6 1.4.6 2.1 0 1-.4 1.9-1.1 2.6-.2.2-.4.3-.6.5-1.7 1.1-4 .6-5.2-1.1-.6-.9-.7-1.9-.5-2.8.2-.9.8-1.8 1.6-2.3.9-.6 1.9-.7 2.8-.5.9.1 1.8.6 2.4 1.5zM552.4 638.9c.2-.1.4-.3.7-.3.9-.4 1.9-.3 2.8.1.7.3 1.2.8 1.7 1.4.4.6.6 1.4.6 2.1 0 1-.4 1.9-1.1 2.6-.2.2-.4.3-.6.5-.9.6-1.9.7-2.8.5-.9-.2-1.8-.8-2.3-1.6-1.3-1.9-.8-4.2 1-5.3zM563.6 587.4c.6-.4 1.4-.6 2.1-.6.5 0 1 .1 1.4.3.7.3 1.2.8 1.7 1.4.6.9.7 1.9.5 2.8-.1.2-.1.5-.2.7-.2.4-.5.8-.8 1.2-.2.2-.4.3-.6.5-1.7 1.1-4 .6-5.2-1.1-1.2-1.8-.7-4.1 1.1-5.2zM542.3 561.1c-.4-.6-.6-1.4-.6-2.1 0-1.2.6-2.4 1.7-3.1 1.1-.7 2.4-.8 3.5-.3.4.2.8.5 1.2.8.2.2.3.4.5.6.3.4.5.9.5 1.4.2 1 0 1.9-.6 2.7-.3.4-.6.8-1.1 1-.2.1-.4.3-.7.3-.9.4-1.9.3-2.8-.1-.6 0-1.2-.5-1.6-1.2zM474.6 649c1.1 1.7.6 4-1.1 5.2 0 0-.1 0-.1.1-1.8-1.4-3.6-2.9-5.4-4.3.3-.8.8-1.5 1.5-2 1.7-1.2 4-.7 5.1 1zM480.2 623.2c1.1 1.7.6 4-1.1 5.2-1.7 1.1-4 .6-5.2-1.1-1.1-1.7-.6-4 1.1-5.2 1.8-1.1 4.1-.6 5.2 1.1zM500.4 654.6c1.1 1.7.6 4-1.1 5.2-1.7 1.1-4 .6-5.2-1.1-1.1-1.7-.6-4 1.1-5.2 1.8-1.1 4.1-.6 5.2 1.1zM500.8 627.7c.4-.3.9-.5 1.4-.5 1.4-.2 2.9.4 3.8 1.7 1.1 1.7.6 4-1.1 5.2-.2.1-.4.3-.7.3-1.6.6-3.5.1-4.5-1.5-1.1-1.8-.6-4.1 1.1-5.2zM479.5 601.5c-.3-.4-.5-.9-.5-1.4 0-.2-.1-.5-.1-.7 0-.2 0-.5.1-.7.1-.5.3-.9.6-1.3s.6-.8 1.1-1c1.1-.7 2.4-.8 3.5-.3.7.3 1.2.8 1.7 1.4.8 1.3.8 2.9-.1 4.1-.3.4-.6.8-1.1 1-.2.1-.4.3-.7.3-.9.4-1.9.3-2.8-.1-.7-.2-1.2-.6-1.7-1.3zM858.9 495c-.2.1-.4.3-.7.3-.9.4-1.9.3-2.8-.1-.7-.3-1.2-.8-1.7-1.4-.4-.6-.6-1.4-.6-2.1 0-1.2.6-2.4 1.7-3.1 1.7-1.1 4-.6 5.2 1.1 1.1 1.8.6 4.1-1.1 5.3zM885.1 473.7c-1.1-1.7-.6-4 1.1-5.2 1.7-1.1 4-.6 5.2 1.1 1.1 1.7.6 4-1.1 5.2-1.8 1.1-4.1.6-5.2-1.1zM864.9 442.3c-.4-.6-.6-1.4-.6-2.1 0-1 .4-1.9 1.1-2.6.2-.2.4-.3.6-.5 1.7-1.1 4-.6 5.2 1.1.3.4.5.9.5 1.4.2 1-.1 1.9-.6 2.7-.3.4-.6.8-1.1 1-.9.6-1.9.7-2.8.5-.9-.1-1.7-.6-2.3-1.5zM864.5 469.2c-1.7 1.1-4 .6-5.2-1.1-1.1-1.7-.6-4 1.1-5.2 1.7-1.1 4-.6 5.2 1.1 1.1 1.8.6 4.1-1.1 5.2zM879.5 499.4c-1.1-1.7-.6-4 1.1-5.2 1.7-1.1 4-.6 5.2 1.1 1.1 1.7.6 4-1.1 5.2-1.8 1.2-4.1.7-5.2-1.1zM890.7 447.9c-1.1-1.7-.6-4 1.1-5.2.5-.3 1-.5 1.5-.5 1 2.2 2 4.4 2.9 6.5-.1.1-.2.2-.4.3-1.7 1.1-4 .6-5.1-1.1zM880.2 521.2c.6.9.7 1.9.5 2.8-.2.9-.8 1.8-1.6 2.3-.9.6-1.9.7-2.8.5-.9-.2-1.8-.8-2.3-1.6-1.1-1.7-.6-4 1.1-5.2.6-.4 1.4-.6 2.1-.6.2 0 .5 0 .7.1.2.1.5.1.7.2.6.3 1.1.8 1.6 1.5zM796.1 535.3c-1.7 1.1-4 .6-5.2-1.1-.6-.9-.7-1.9-.5-2.8.2-.9.8-1.8 1.6-2.3.4-.3.9-.5 1.4-.5 1.4-.2 2.9.4 3.8 1.7 1.2 1.6.7 3.9-1.1 5zM777.6 500.2c.2 1-.1 1.9-.6 2.7-.3.4-.6.8-1.1 1-.2.1-.4.3-.7.3-1.6.6-3.5.1-4.5-1.5-.4-.6-.6-1.4-.6-2.1 0-1 .4-1.9 1.1-2.6.2-.2.4-.3.6-.5.4-.3.9-.5 1.4-.5 1.4-.2 2.9.4 3.8 1.7.4.5.5 1 .6 1.5zM827.5 515.1c-1.7 1.1-4 .6-5.2-1.1-1.1-1.7-.6-4 1.1-5.2 1.7-1.1 4-.6 5.2 1.1 1.1 1.8.6 4.1-1.1 5.2zM801.7 509.5c-1.7 1.1-4 .6-5.2-1.1-1.1-1.7-.6-4 1.1-5.2 1.7-1.1 4-.6 5.2 1.1 1.2 1.8.7 4.1-1.1 5.2zM821.9 540.9c-1.7 1.1-4 .6-5.2-1.1-1.1-1.7-.6-4 1.1-5.2 1.7-1.1 4-.6 5.2 1.1 1.1 1.8.6 4.1-1.1 5.2zM833.1 489.4c-1.7 1.1-4 .6-5.2-1.1-1.1-1.7-.6-4 1.1-5.2 1.7-1.1 4-.6 5.2 1.1 1.1 1.7.6 4-1.1 5.2zM853.3 520.7c-1.7 1.1-4 .6-5.2-1.1-1.1-1.7-.6-4 1.1-5.2 1.7-1.1 4-.6 5.2 1.1 1.1 1.8.6 4.1-1.1 5.2zM760.7 549.2c1.7-1.1 4-.6 5.2 1.1 1.1 1.7.6 4-1.1 5.2-1.7 1.1-4 .6-5.2-1.1-1.1-1.8-.6-4.1 1.1-5.2zM735 543.6c1.7-1.1 4-.6 5.2 1.1 1.1 1.7.6 4-1.1 5.2-1.7 1.1-4 .6-5.2-1.1-1.2-1.8-.7-4.1 1.1-5.2zM755.1 575c1.7-1.1 4-.6 5.2 1.1 1.1 1.7.6 4-1.1 5.2-1.7 1.1-4 .6-5.2-1.1-1.1-1.8-.6-4.1 1.1-5.2zM770.4 529.7c-1.7 1.1-4 .6-5.2-1.1-1.1-1.7-.6-4 1.1-5.2 1.7-1.1 4-.6 5.2 1.1 1.1 1.8.6 4.1-1.1 5.2zM786.5 554.8c1.7-1.1 4-.6 5.2 1.1 1.1 1.7.6 4-1.1 5.2-1.7 1.1-4 .6-5.2-1.1-1.1-1.8-.6-4.1 1.1-5.2zM698 589.6c1.7-1.1 4-.6 5.2 1.1 1.1 1.7.6 4-1.1 5.2-1.7 1.1-4 .6-5.2-1.1-1.1-1.8-.6-4.1 1.1-5.2zM676.7 563.3c-.4-.6-.6-1.4-.6-2.1 0-1 .4-1.9 1.1-2.6.2-.2.4-.3.6-.5 1.7-1.1 4-.6 5.2 1.1.3.4.5.9.5 1.4.2 1-.1 1.9-.6 2.7-.3.4-.6.8-1.1 1-.2.1-.4.3-.7.3-.9.4-1.9.3-2.8-.1-.6 0-1.2-.5-1.6-1.2zM672.2 584c1.7-1.1 4-.6 5.2 1.1 1.1 1.7.6 4-1.1 5.2-1.7 1.1-4 .6-5.2-1.1-1.1-1.8-.6-4.1 1.1-5.2zM692.4 615.3c1.7-1.1 4-.6 5.2 1.1 1.1 1.7.6 4-1.1 5.2-1.7 1.1-4 .6-5.2-1.1-1.1-1.7-.6-4.1 1.1-5.2zM703.6 563.8c1.7-1.1 4-.6 5.2 1.1 1.1 1.7.6 4-1.1 5.2-1.7 1.1-4 .6-5.2-1.1-1.1-1.8-.6-4.1 1.1-5.2zM723.8 595.2c1.7-1.1 4-.6 5.2 1.1 1.1 1.7.6 4-1.1 5.2-1.7 1.1-4 .6-5.2-1.1-1.2-1.8-.7-4.1 1.1-5.2zM718.2 620.9c1.7-1.1 4-.6 5.2 1.1.3.4.5.9.5 1.4.2 1.2-.2 2.4-1.1 3.3-.2.2-.4.3-.6.5-.9.6-1.9.7-2.8.5-.9-.2-1.8-.8-2.3-1.6-1.2-1.8-.7-4.1 1.1-5.2zM729.4 569.4c.6-.4 1.4-.6 2.1-.6.5 0 1 .1 1.4.3.7.3 1.2.8 1.7 1.4.6.9.7 1.9.5 2.8-.1.2-.1.5-.2.7-.2.4-.5.8-.8 1.2-.2.2-.4.3-.6.5-1.7 1.1-4 .6-5.2-1.1-1.2-1.8-.7-4.1 1.1-5.2zM708.1 543.2c-.4-.6-.6-1.4-.6-2.1 0-1.2.6-2.4 1.7-3.1 1.1-.7 2.4-.8 3.5-.3.4.2.8.5 1.2.8.2.2.3.4.5.6 1.1 1.7.6 4-1.1 5.2-.2.1-.4.3-.7.3-.9.4-1.9.3-2.8-.1-.7-.2-1.3-.7-1.7-1.3zM635.3 629.9c1.7-1.1 4-.6 5.2 1.1 1.1 1.7.6 4-1.1 5.2-1.7 1.1-4 .6-5.2-1.1-1.2-1.8-.7-4.1 1.1-5.2zM609.5 624.3c1.7-1.1 4-.6 5.2 1.1 1.1 1.7.6 4-1.1 5.2-1.7 1.1-4 .6-5.2-1.1-1.1-1.8-.6-4.1 1.1-5.2zM629.7 655.7c1.7-1.1 4-.6 5.2 1.1 1.1 1.7.6 4-1.1 5.2-1.7 1.1-4 .6-5.2-1.1-1.2-1.8-.7-4.1 1.1-5.2zM640.9 604.1c1.7-1.1 4-.6 5.2 1.1 1.1 1.7.6 4-1.1 5.2-1.7 1.1-4 .6-5.2-1.1-1.2-1.7-.7-4 1.1-5.2zM661 635.5c1.7-1.1 4-.6 5.2 1.1 1.1 1.7.6 4-1.1 5.2-1.7 1.1-4 .6-5.2-1.1-1.1-1.8-.6-4.1 1.1-5.2zM654 665.8c-.4-1.2-.3-2.4.4-3.4.3-.4.6-.8 1.1-1 1.7-1.1 4-.6 5.2 1.1.3.4.5.9.5 1.4.2 1-.1 1.9-.6 2.7-.3.4-.6.8-1.1 1-1.7 1.1-4 .6-5.2-1.1-.1-.3-.2-.5-.3-.7zM666.6 609.7c.4-.3.9-.5 1.4-.5 1.4-.2 2.9.4 3.8 1.7 1.1 1.7.6 4-1.1 5.2-.2.1-.4.3-.7.3-1.6.6-3.5.1-4.5-1.5-1.1-1.7-.6-4 1.1-5.2zM645.3 583.5c-.4-.6-.6-1.4-.6-2.1 0-1.2.6-2.4 1.7-3.1.2-.1.4-.3.7-.3.9-.4 1.9-.3 2.8.1.7.3 1.2.8 1.7 1.4.8 1.3.8 2.9-.1 4.1-.3.4-.6.8-1.1 1-.2.1-.4.3-.7.3-.9.4-1.9.3-2.8-.1-.6-.1-1.1-.6-1.6-1.3zM543.3 689.8c.5 0 1 .1 1.4.3.7.3 1.2.8 1.7 1.4.4.6.6 1.4.6 2.1 0 1.2-.6 2.4-1.7 3.1-.2.1-.4.3-.7.3-.9.4-1.9.3-2.8-.1-.7-.3-1.2-.8-1.7-1.4-.4-.6-.6-1.4-.6-2.1 0-1.2.6-2.4 1.7-3.1.2-.1.4-.3.7-.3.4-.1.9-.2 1.4-.2zM572.5 670.3c1.7-1.1 4-.6 5.2 1.1 1.1 1.7.6 4-1.1 5.2-1.7 1.1-4 .6-5.2-1.1-1.1-1.8-.6-4.1 1.1-5.2zM546.8 664.7c1.7-1.1 4-.6 5.2 1.1 1.1 1.7.6 4-1.1 5.2-1.7 1.1-4 .6-5.2-1.1-1.2-1.8-.7-4.1 1.1-5.2zM572.1 697.2c1.1 1.7.6 4-1.1 5.2-1.7 1.1-4 .6-5.2-1.1-1.1-1.7-.6-4 1.1-5.2 1.8-1.2 4.1-.7 5.2 1.1zM578.1 644.5c1.7-1.1 4-.6 5.2 1.1 1.1 1.7.6 4-1.1 5.2-1.7 1.1-4 .6-5.2-1.1-1.1-1.8-.6-4.1 1.1-5.2zM598.3 675.9c1.7-1.1 4-.6 5.2 1.1 1.1 1.7.6 4-1.1 5.2-1.7 1.1-4 .6-5.2-1.1-1.1-1.8-.6-4.1 1.1-5.2zM597.9 702.7c1.1 1.7.6 4-1.1 5.2-.4.3-.9.5-1.4.5-.5.1-1 .1-1.4 0-.5-.1-.9-.3-1.3-.6s-.8-.6-1-1.1c-.3-.4-.5-.9-.5-1.4-.1-.5-.1-1 0-1.4.1-.5.3-.9.6-1.3s.6-.8 1.1-1c.4-.3.9-.5 1.4-.5 1.2-.3 2.7.3 3.6 1.6zM602.8 655.2c-.4-.6-.6-1.4-.6-2.1 0-1.2.6-2.4 1.7-3.1 1.7-1.1 4-.6 5.2 1.1 1.1 1.7.6 4-1.1 5.2-.2.1-.4.3-.7.3-.9.4-1.9.3-2.8-.1-.7-.1-1.3-.6-1.7-1.3zM582.6 623.9c-.1-.2-.3-.4-.3-.7-.4-1.2-.3-2.4.4-3.4.3-.4.6-.8 1.1-1 .2-.1.4-.3.7-.3 1.6-.6 3.5-.1 4.5 1.5.3.4.5.9.5 1.4 0 .2.1.5.1.7 0 .7-.2 1.4-.6 2-.3.4-.6.8-1.1 1-.2.1-.4.3-.7.3-.5.2-.9.3-1.4.2-1 0-1.9-.4-2.6-1.1-.3-.2-.4-.4-.6-.6zM623 686.6c-.7-1.1-.8-2.4-.3-3.5.2-.4.5-.8.8-1.2.2-.2.4-.3.6-.5.6-.4 1.4-.6 2.1-.6.5 0 1 .1 1.4.3.7.3 1.2.8 1.7 1.4.3.4.5.9.5 1.4.1.5.1 1 0 1.4-.1.5-.3.9-.6 1.3s-.6.8-1.1 1c-.9.6-1.9.7-2.8.5-.9-.1-1.8-.6-2.3-1.5zM520.6 686c.5.8.7 1.8.5 2.7-1.9-1.2-3.8-2.5-5.7-3.8l.1-.1c1.6-1.1 4-.6 5.1 1.2zM905.2 505c-1.1-1.7-.6-4 1.1-5.2.2-.1.4-.3.7-.3.9-.4 1.9-.3 2.8.1.7.3 1.2.8 1.7 1.4.4.6.6 1.4.6 2.1 0 1-.4 1.9-1.1 2.6-.2.2-.4.3-.6.5-.9.6-1.9.7-2.8.5-.9-.3-1.8-.8-2.4-1.7zM899.7 530.8c-1.1-1.7-.6-4 1.1-5.2 1.7-1.1 4-.6 5.2 1.1 1.1 1.7.6 4-1.1 5.2-1.8 1.1-4.1.6-5.2-1.1zM919.8 562.2c-1.1-1.7-.6-4 1.1-5.2 1.7-1.1 4-.6 5.2 1.1 1.1 1.7.6 4-1.1 5.2-1.8 1.1-4.1.6-5.2-1.1zM867.8 577.9c-1.7 1.1-4 .6-5.2-1.1-1.1-1.7-.6-4 1.1-5.2 1.7-1.1 4-.6 5.2 1.1 1.2 1.7.7 4-1.1 5.2zM849.3 542.7c.2 1-.1 1.9-.6 2.7-.3.4-.6.8-1.1 1-.2.1-.4.3-.7.3-.5.2-.9.3-1.4.3-1.2 0-2.4-.6-3.1-1.7-.1-.2-.3-.4-.3-.7-.4-1.2-.3-2.4.4-3.4.3-.4.6-.8 1.1-1 .4-.3.9-.5 1.4-.5 1.4-.2 2.9.4 3.8 1.7.3.4.4.8.5 1.3zM842.1 572.3c-1.7 1.1-4 .6-5.2-1.1-1.1-1.7-.6-4 1.1-5.2 1.7-1.1 4-.6 5.2 1.1 1.1 1.7.6 4.1-1.1 5.2zM858.2 597.4c1.7-1.1 4-.6 5.2 1.1 1.1 1.7.6 4-1.1 5.2-1.7 1.1-4 .6-5.2-1.1-1.1-1.8-.6-4.1 1.1-5.2zM873.4 552.1c-1.7 1.1-4 .6-5.2-1.1-1.1-1.7-.6-4 1.1-5.2 1.7-1.1 4-.6 5.2 1.1 1.2 1.8.7 4.1-1.1 5.2zM893.6 583.5c-1.7 1.1-4 .6-5.2-1.1-1.1-1.7-.6-4 1.1-5.2 1.7-1.1 4-.6 5.2 1.1 1.2 1.7.6 4-1.1 5.2zM882.3 606c0-1 .4-1.9 1.1-2.6.2-.2.4-.3.6-.5 1.7-1.1 4-.6 5.2 1.1.3.4.5.9.5 1.4.2 1 0 1.9-.6 2.7-.3.4-.6.8-1.1 1-.9.6-1.9.7-2.8.5-.9-.2-1.8-.8-2.3-1.6-.4-.5-.6-1.3-.6-2zM894.5 557.2c-.2-.2-.3-.4-.5-.6-.1-.2-.3-.4-.3-.7-.6-1.6-.1-3.5 1.5-4.5.4-.3.9-.5 1.4-.5 1.4-.2 2.9.4 3.8 1.7 1.1 1.7.6 4-1.1 5.2-1.6.9-3.6.6-4.8-.6zM801.1 611.9c1.7-1.1 4-.6 5.2 1.1 1.1 1.7.6 4-1.1 5.2-1.7 1.1-4 .6-5.2-1.1-1.1-1.7-.6-4 1.1-5.2zM779.8 585.7c-.3-.4-.5-.9-.5-1.4-.1-.5-.1-1 0-1.4.1-.5.3-.9.6-1.3s.6-.8 1.1-1c1.7-1.1 4-.6 5.2 1.1 1.1 1.7.6 4-1.1 5.2-.4.3-.9.5-1.4.5-.5.1-1 .1-1.4 0-.5-.1-.9-.3-1.3-.6-.6-.3-.9-.6-1.2-1.1zM775.3 606.3c1.7-1.1 4-.6 5.2 1.1 1.1 1.7.6 4-1.1 5.2-1.7 1.1-4 .6-5.2-1.1-1.1-1.7-.6-4 1.1-5.2zM795.5 637.7c1.7-1.1 4-.6 5.2 1.1 1.1 1.7.6 4-1.1 5.2-1.7 1.1-4 .6-5.2-1.1-1.1-1.8-.6-4.1 1.1-5.2zM806.7 586.2c1.7-1.1 4-.6 5.2 1.1 1.1 1.7.6 4-1.1 5.2-1.7 1.1-4 .6-5.2-1.1-1.2-1.8-.7-4.1 1.1-5.2zM826.9 617.5c1.7-1.1 4-.6 5.2 1.1 1.1 1.7.6 4-1.1 5.2-1.7 1.1-4 .6-5.2-1.1-1.2-1.7-.7-4.1 1.1-5.2zM821.3 643.3c1.1-.7 2.4-.8 3.5-.3.4.2.8.5 1.2.8.2.2.3.4.5.6 1.1 1.7.6 4-1.1 5.2-1.7 1.1-4 .6-5.2-1.1-1.2-1.8-.7-4.1 1.1-5.2zM832.4 591.8c.4-.3.9-.5 1.4-.5 1.4-.2 2.9.4 3.8 1.7 1.1 1.7.6 4-1.1 5.2-.2.1-.4.3-.7.3-1.6.6-3.5.1-4.5-1.5-1.1-1.8-.6-4.1 1.1-5.2zM811.2 565.6c-.4-.6-.6-1.4-.6-2.1 0-1.2.6-2.4 1.7-3.1 1.7-1.1 4-.6 5.2 1.1.3.4.5.9.5 1.4.2 1.2-.2 2.4-1.1 3.3-.2.2-.4.3-.6.5-.2.1-.4.3-.7.3-.7.3-1.4.3-2.1.2-.2-.1-.5-.1-.7-.2-.6-.3-1.2-.8-1.6-1.4zM851 626.9c-.1-.5-.1-1 0-1.4.1-.5.3-.9.6-1.3s.6-.8 1.1-1c.4-.3.9-.5 1.4-.5.7-.1 1.5 0 2.1.2.7.3 1.2.8 1.7 1.4.4.7.6 1.4.6 2.1 0 .7-.2 1.4-.6 2-.1.2-.3.4-.5.6-.2.2-.4.3-.6.5-1.7 1.1-4 .6-5.2-1.1-.4-.6-.6-1-.6-1.5zM738.4 652.3c1.7-1.1 4-.6 5.2 1.1 1.1 1.7.6 4-1.1 5.2-1.7 1.1-4 .6-5.2-1.1-1.2-1.8-.7-4.1 1.1-5.2zM712.6 646.7c1.7-1.1 4-.6 5.2 1.1 1.1 1.7.6 4-1.1 5.2-1.7 1.1-4 .6-5.2-1.1-1.1-1.8-.6-4.1 1.1-5.2zM732.8 678.1c1.7-1.1 4-.6 5.2 1.1 1.1 1.7.6 4-1.1 5.2-1.7 1.1-4 .6-5.2-1.1-1.2-1.8-.7-4.1 1.1-5.2zM744 626.5c1.7-1.1 4-.6 5.2 1.1 1.1 1.7.6 4-1.1 5.2-1.7 1.1-4 .6-5.2-1.1-1.2-1.8-.7-4.1 1.1-5.2zM764.1 657.9c1.7-1.1 4-.6 5.2 1.1 1.1 1.7.6 4-1.1 5.2-1.7 1.1-4 .6-5.2-1.1-1.1-1.8-.6-4.1 1.1-5.2zM758.5 683.7c.2-.1.4-.3.7-.3.9-.4 1.9-.3 2.8.1.7.3 1.2.8 1.7 1.4.8 1.3.8 2.9-.1 4.1-.3.4-.6.8-1.1 1-1.7 1.1-4 .6-5.2-1.1-1-1.8-.5-4.1 1.2-5.2zM768.6 637.3c-.4-.6-.6-1.4-.6-2.1 0-1.2.6-2.4 1.7-3.1 1.7-1.1 4-.6 5.2 1.1 1.1 1.7.6 4-1.1 5.2-.2.1-.4.3-.7.3-.9.4-1.9.3-2.8-.1-.7-.2-1.3-.7-1.7-1.3zM748.4 605.9c-.1-.2-.3-.4-.3-.7-.4-1.2-.3-2.4.4-3.4.3-.4.6-.8 1.1-1 .2-.1.4-.3.7-.3 1.6-.6 3.5-.1 4.5 1.5.3.4.5.9.5 1.4 0 .2.1.5.1.7 0 .7-.2 1.4-.6 2-.3.4-.6.8-1.1 1-.2.1-.4.3-.7.3-.5.2-.9.3-1.4.3-1 0-1.9-.4-2.6-1.1-.3-.3-.4-.5-.6-.7zM788.8 668.6c-.4-.6-.6-1.4-.6-2.1 0-1 .4-1.9 1.1-2.6.2-.2.4-.3.6-.5.6-.4 1.4-.6 2.1-.6.5 0 1 .1 1.4.3.7.3 1.2.8 1.7 1.4.3.4.5.9.5 1.4.1.5.1 1 0 1.4-.1.5-.3.9-.6 1.3s-.6.8-1.1 1c-.9.6-1.9.7-2.8.5-.9 0-1.8-.6-2.3-1.5zM675.6 692.6c1.7-1.1 4-.6 5.2 1.1 1.1 1.7.6 4-1.1 5.2-1.7 1.1-4 .6-5.2-1.1-1.1-1.7-.6-4 1.1-5.2zM649.9 687c1.7-1.1 4-.6 5.2 1.1 1.1 1.7.6 4-1.1 5.2-1.7 1.1-4 .6-5.2-1.1-1.2-1.7-.7-4 1.1-5.2zM670 718.4c1.7-1.1 4-.6 5.2 1.1 1.1 1.7.6 4-1.1 5.2-1.7 1.1-4 .6-5.2-1.1-1.1-1.8-.6-4.1 1.1-5.2zM681.2 666.9c1.7-1.1 4-.6 5.2 1.1 1.1 1.7.6 4-1.1 5.2-1.7 1.1-4 .6-5.2-1.1-1.1-1.8-.6-4.1 1.1-5.2zM701.4 698.2c1.7-1.1 4-.6 5.2 1.1 1.1 1.7.6 4-1.1 5.2-1.7 1.1-4 .6-5.2-1.1-1.1-1.7-.6-4.1 1.1-5.2zM667.9 743.9c.7.3 1.2.8 1.7 1.4.4.6.6 1.3.6 2-1-.1-2.1-.2-3.1-.4-.3 0-.6-.1-.9-.1-1.1-.1-2.2-.3-3.3-.5.2-.9.8-1.6 1.6-2.2.2-.1.4-.3.7-.3.8-.3 1.8-.3 2.7.1zM694.1 727.1c0-1 .4-1.9 1.1-2.6.2-.2.4-.3.6-.5 1.7-1.1 4-.6 5.2 1.1.3.4.5.9.5 1.4.2 1-.1 1.9-.6 2.7-.3.4-.6.8-1.1 1-.2.1-.4.3-.7.3-.9.4-1.9.3-2.8-.1-.7-.3-1.2-.8-1.7-1.4-.3-.5-.5-1.2-.5-1.9zM705.9 677.6c-.4-.6-.6-1.4-.6-2.1 0-1.2.6-2.4 1.7-3.1.2-.1.4-.3.7-.3.5-.2.9-.3 1.4-.2.5 0 1 .1 1.4.3.7.3 1.2.8 1.7 1.4.4.6.6 1.4.6 2.1 0 1.2-.6 2.4-1.7 3.1-.2.1-.4.3-.7.3-.9.4-1.9.3-2.8-.1-.7-.3-1.3-.7-1.7-1.4zM685.7 646.3c-.3-.4-.5-.9-.5-1.4-.1-.5-.1-1 0-1.4.1-.5.3-.9.6-1.3s.6-.8 1.1-1c.4-.3.9-.5 1.4-.5.5-.1 1-.1 1.4 0 .9.2 1.8.8 2.3 1.6.4.6.6 1.4.6 2.1 0 1-.4 1.9-1.1 2.6-.2.2-.4.3-.6.5-.4.3-.9.5-1.4.5-.5.1-1 .1-1.4 0-.5-.1-.9-.3-1.3-.6-.5-.4-.8-.7-1.1-1.1zM618.1 734.1c.4.6.6 1.3.6 2-2.3-.7-4.5-1.4-6.7-2.2.3-.4.6-.7 1-1 1.6-1 3.9-.5 5.1 1.2zM623.6 708.3c1.1 1.7.6 4-1.1 5.2-1.7 1.1-4 .6-5.2-1.1-1.1-1.7-.6-4 1.1-5.2 1.8-1.1 4.1-.6 5.2 1.1zM643.8 739.7c.6 1 .7 2.2.4 3.2-2.4-.5-4.8-1.1-7.2-1.7.1-1.1.7-2.1 1.7-2.7 1.7-1 4-.5 5.1 1.2zM642.8 717.3c-.6-1.6-.1-3.5 1.5-4.5.4-.3.9-.5 1.4-.5 1.4-.2 2.9.4 3.8 1.7.4.6.6 1.4.6 2.1 0 1-.4 1.9-1.1 2.6-.2.2-.4.3-.6.5-1.5 1-3.5.7-4.7-.5-.2-.2-.3-.4-.5-.6-.2-.3-.3-.6-.4-.8zM904.2 634.3c1.7-1.1 4-.6 5.2 1.1 1.1 1.7.6 4-1.1 5.2-1.7 1.1-4 .6-5.2-1.1-1.2-1.8-.7-4.1 1.1-5.2zM878.4 628.7c1.7-1.1 4-.6 5.2 1.1 1.1 1.7.6 4-1.1 5.2-1.7 1.1-4 .6-5.2-1.1-1.1-1.8-.6-4.1 1.1-5.2zM898.6 660.1c1.2-.8 2.7-.8 3.9-.1-1.5 2-3 3.9-4.6 5.7-.1-.2-.3-.3-.4-.5-1.2-1.7-.7-4 1.1-5.1zM909.8 608.5c1.7-1.1 4-.6 5.2 1.1 1.1 1.7.6 4-1.1 5.2-1.7 1.1-4 .6-5.2-1.1-1.2-1.7-.7-4 1.1-5.2zM914.2 587.9c-.4-.6-.6-1.4-.6-2.1 0-1.2.6-2.4 1.7-3.1 1.1-.7 2.4-.8 3.5-.3.4.2.8.5 1.2.8.2.2.3.4.5.6.3.4.5.9.5 1.4.2 1-.1 1.9-.6 2.7-.3.4-.6.8-1.1 1-.2.1-.4.3-.7.3-.9.4-1.9.3-2.8-.1-.6 0-1.1-.5-1.6-1.2zM841.4 674.7c1.7-1.1 4-.6 5.2 1.1 1.1 1.7.6 4-1.1 5.2-1.7 1.1-4 .6-5.2-1.1-1.1-1.8-.6-4.1 1.1-5.2zM815.7 669.1c1.7-1.1 4-.6 5.2 1.1 1.1 1.7.6 4-1.1 5.2-1.7 1.1-4 .6-5.2-1.1-1.2-1.8-.7-4.1 1.1-5.2zM835.8 700.4c1.7-1.1 4-.6 5.2 1.1 1.1 1.7.6 4-1.1 5.2-1.7 1.1-4 .6-5.2-1.1-1.1-1.7-.6-4 1.1-5.2zM847 648.9c1.7-1.1 4-.6 5.2 1.1 1.1 1.7.6 4-1.1 5.2-1.7 1.1-4 .6-5.2-1.1-1.1-1.8-.6-4.1 1.1-5.2zM867.2 680.3c1.7-1.1 4-.6 5.2 1.1 1.1 1.7.6 4-1.1 5.2-1.7 1.1-4 .6-5.2-1.1-1.1-1.8-.6-4.1 1.1-5.2zM871.7 659.6c-.4-.6-.6-1.4-.6-2.1 0-1.2.6-2.4 1.7-3.1.2-.1.4-.3.7-.3.5-.2.9-.3 1.4-.2.5 0 1 .1 1.4.3.7.3 1.2.8 1.7 1.4.4.7.6 1.4.6 2.1 0 1.2-.6 2.4-1.7 3.1-.2.1-.4.3-.7.3-.9.4-1.9.3-2.8-.1-.7-.2-1.3-.7-1.7-1.4zM752.5 736.3c.4.6.6 1.4.6 2.1 0 1-.4 1.9-1.1 2.6-.2.2-.4.3-.6.5-1.7 1.1-4 .6-5.2-1.1-.6-.9-.7-1.9-.5-2.8.2-.9.8-1.8 1.6-2.3 1.8-1.2 4.1-.7 5.2 1zM778.7 715c1.7-1.1 4-.6 5.2 1.1 1.1 1.7.6 4-1.1 5.2-1.7 1.1-4 .6-5.2-1.1-1.1-1.8-.6-4.1 1.1-5.2zM752.9 709.4c1.7-1.1 4-.6 5.2 1.1 1.1 1.7.6 4-1.1 5.2-1.7 1.1-4 .6-5.2-1.1-1.1-1.8-.6-4.1 1.1-5.2zM784.3 689.2c1.7-1.1 4-.6 5.2 1.1 1.1 1.7.6 4-1.1 5.2-1.7 1.1-4 .6-5.2-1.1-1.1-1.7-.6-4 1.1-5.2zM809.6 721.7c.7 1.1.8 2.4.3 3.5-1.6.7-3.2 1.4-4.8 2-.7-.3-1.4-.8-1.8-1.5-1.1-1.7-.6-4 1.1-5.2 1.8-1 4.1-.5 5.2 1.2zM809 700c-.1-.2-.3-.4-.3-.7-.6-1.6-.1-3.5 1.5-4.5.4-.3.9-.5 1.4-.5 1.4-.2 2.9.4 3.8 1.7 1.1 1.7.6 4-1.1 5.2-1.5 1-3.5.7-4.7-.5-.3-.3-.5-.5-.6-.7zM726.7 730.7c1.1 1.7.6 4-1.1 5.2-1.7 1.1-4 .6-5.2-1.1-1.1-1.7-.6-4 1.1-5.2 1.8-1.1 4.1-.6 5.2 1.1zM726 709c-.4-.6-.6-1.4-.6-2.1 0-1.2.6-2.4 1.7-3.1.4-.3.9-.5 1.4-.5.7-.1 1.5 0 2.1.2.4.2.8.5 1.2.8.2.2.3.4.5.6 1.1 1.7.6 4-1.1 5.2-.2.1-.4.3-.7.3-.9.4-1.9.3-2.8-.1-.6-.2-1.2-.7-1.7-1.3z"/></svg>