<svg xmlns="http://www.w3.org/2000/svg" fill="none" viewBox="0 0 1208 1009"><path fill="#fff" fill-opacity=".1" d="M-2.6 151.7c1.7-1.1 4-.6 5.2 1.1 1.1 1.7.6 4-1.1 5.2-1.7 1.1-4 .6-5.2-1.1-1.2-1.7-.7-4 1.1-5.2zM2.9 126c1.7-1.1 4-.6 5.2 1.1 1.1 1.7.6 4-1.1 5.2-1.7 1.1-4 .6-5.2-1.1-1.1-1.8-.6-4.1 1.1-5.2zM22 162.5c-1.1-1.7-.6-4 1.1-5.2 1.7-1.1 4-.6 5.2 1.1 1.1 1.7.6 4-1.1 5.2-1.8 1.1-4.1.6-5.2-1.1zM17.5 183.1c.2-.1.4-.3.7-.3.9-.4 1.9-.3 2.8.1.7.3 1.2.8 1.7 1.4.4.7.6 1.4.6 2.1 0 1-.4 1.9-1.1 2.6-.2.2-.4.3-.6.5-.9.6-1.9.7-2.8.5-.9-.2-1.8-.8-2.3-1.6-1.2-1.9-.7-4.2 1-5.3zM93.7 205c-1.1-1.7-.6-4 1.1-5.2 1.7-1.1 4-.6 5.2 1.1 1.1 1.7.6 4-1.1 5.2-1.8 1.2-4.1.7-5.2-1.1zM37.7 214.5c1.7-1.1 4-.6 5.2 1.1 1.1 1.7.6 4-1.1 5.2-1.7 1.1-4 .6-5.2-1.1-1.1-1.8-.6-4.1 1.1-5.2zM11.9 208.9c1.7-1.1 4-.6 5.2 1.1 1.1 1.7.6 4-1.1 5.2-1.7 1.1-4 .6-5.2-1.1-1.1-1.8-.6-4.1 1.1-5.2zM32.1 240.2c1.7-1.1 4-.6 5.2 1.1 1.1 1.7.6 4-1.1 5.2-1.7 1.1-4 .6-5.2-1.1-1.1-1.7-.6-4 1.1-5.2zM42.2 193.9c-1.1-1.7-.6-4 1.1-5.2 1.7-1.1 4-.6 5.2 1.1 1.1 1.7.6 4-1.1 5.2-1.8 1.1-4.1.6-5.2-1.1zM67.5 226.3c-1.7 1.1-4 .6-5.2-1.1-1.1-1.7-.6-4 1.1-5.2 1.7-1.1 4-.6 5.2 1.1 1.1 1.8.6 4.1-1.1 5.2zM56.2 249.6c-.1-.5-.1-1 0-1.4.1-.5.3-.9.6-1.3s.6-.8 1.1-1c.4-.3.9-.5 1.4-.5 1.4-.2 2.9.4 3.8 1.7.8 1.3.8 2.9-.1 4.1-.3.4-.6.8-1.1 1-1.7 1.1-4 .6-5.2-1.1-.2-.5-.4-1-.5-1.5zM68 199.5c-1.1-1.7-.6-4 1.1-5.2.6-.4 1.4-.6 2.1-.6.5 0 1 .1 1.4.3.7.3 1.2.8 1.7 1.4.6.9.7 1.9.5 2.8-.1.2-.1.5-.2.7-.2.4-.5.8-.8 1.2-.2.2-.4.3-.6.5-1.8 1.1-4.1.6-5.2-1.1zM50.8 169.8c-.5 0-1-.1-1.4-.3-.7-.3-1.2-.8-1.7-1.4-.1-.2-.3-.4-.3-.7-.2-.5-.3-.9-.3-1.4 0-.7.2-1.4.6-2 .3-.4.6-.8 1.1-1 1.7-1.1 4-.6 5.2 1.1.3.4.5.9.5 1.4.2 1-.1 1.9-.6 2.7-.3.4-.6.8-1.1 1-.2.1-.4.3-.7.3-.3.2-.8.3-1.3.3zM.7 260.4c1.7-1.1 4-.6 5.2 1.1 1.1 1.7.6 4-1.1 5.2-1.7 1.1-4 .6-5.2-1.1-1.1-1.8-.6-4.1 1.1-5.2zM-6.6 289.2c0-1 .4-1.9 1.1-2.6.2-.2.4-.3.6-.5 1.7-1.1 4-.6 5.2 1.1.3.4.5.9.5 1.4.2 1 0 1.9-.6 2.7-.3.4-.6.8-1.1 1-.9.6-1.9.7-2.8.5-.9-.2-1.8-.8-2.3-1.6-.4-.5-.6-1.2-.6-2zM6.3 234.6c.4-.3.9-.5 1.4-.5 1.4-.2 2.9.4 3.8 1.7 1.1 1.7.6 4-1.1 5.2-.2.1-.4.3-.7.3-1.6.6-3.5.1-4.5-1.5-1.1-1.7-.6-4 1.1-5.2zM24.9 268.4c.2-.9.8-1.8 1.6-2.3 1.1-.7 2.4-.8 3.5-.3.4.2.8.5 1.2.8.2.2.3.4.5.6.3.4.5.9.5 1.4 0 .2.1.5.1.7 0 .7-.2 1.4-.6 2-.1.2-.3.4-.5.6-.2.2-.4.3-.6.5-1.7 1.1-4 .6-5.2-1.1-.6-1-.7-2-.5-2.9zM196.8 227.4c-1.1-1.7-.6-4 1.1-5.2 1.7-1.1 4-.6 5.2 1.1 1.1 1.7.6 4-1.1 5.2-1.8 1.2-4.1.7-5.2-1.1zM197 248.6c.2.2.3.4.5.6.4.6.6 1.4.6 2.1 0 1-.4 1.9-1.1 2.6-.2.2-.4.3-.6.5-1.7 1.1-4 .6-5.2-1.1-.6-.9-.7-1.9-.5-2.8.2-.9.8-1.8 1.6-2.3 1.1-.7 2.4-.8 3.5-.3.5 0 .9.3 1.2.7zM113.5 263.3c-.2.1-.4.3-.7.3-.9.4-1.9.3-2.8-.1-.7-.3-1.2-.8-1.7-1.4-.4-.6-.6-1.4-.6-2.1 0-1.2.6-2.4 1.7-3.1 1.7-1.1 4-.6 5.2 1.1 1.1 1.9.6 4.2-1.1 5.3zM94.9 228.2c0 .2.1.5.1.7 0 .7-.2 1.4-.6 2-.3.4-.6.8-1.1 1-.9.6-1.9.7-2.8.5-.7-.2-1.4-.5-1.9-1-.2-.2-.3-.4-.5-.6-.1-.2-.3-.4-.3-.7-.2-.5-.3-.9-.2-1.4 0-.5.1-1 .3-1.4.2-.4.5-.8.8-1.2.2-.2.4-.3.6-.5.2-.1.4-.3.7-.3 1.6-.6 3.5-.1 4.5 1.5.2.4.4.9.4 1.4zM144.8 243.1c-1.7 1.1-4 .6-5.2-1.1-1.1-1.7-.6-4 1.1-5.2 1.7-1.1 4-.6 5.2 1.1 1.2 1.8.7 4.1-1.1 5.2zM119.5 210.6c-.1-.2-.3-.4-.3-.7-.4-1.2-.3-2.4.4-3.4 1.3.6 2.6 1.1 3.8 1.6 1 .4 1.9.8 2.9 1.2-.1.5-.3 1-.6 1.4-.3.4-.6.8-1.1 1-1.7 1.2-4 .7-5.1-1.1zM119.1 237.5c-1.7 1.1-4 .6-5.2-1.1-1.1-1.7-.6-4 1.1-5.2 1.7-1.1 4-.6 5.2 1.1 1.1 1.8.6 4.1-1.1 5.2zM139.2 268.9c-1.7 1.1-4 .6-5.2-1.1-1.1-1.7-.6-4 1.1-5.2 1.7-1.1 4-.6 5.2 1.1 1.2 1.8.7 4.1-1.1 5.2zM145.3 216.2c-.2-.3-.3-.6-.4-1l6.3 1.5c-.2.2-.4.4-.7.6-1.8 1.2-4.1.7-5.2-1.1zM170.6 248.7c-1.7 1.1-4 .6-5.2-1.1-1.1-1.7-.6-4 1.1-5.2 1.7-1.1 4-.6 5.2 1.1 1.1 1.8.6 4.1-1.1 5.2zM134.8 289.5c.4.7.6 1.4.6 2.1 0 1-.4 1.9-1.1 2.6-.2.2-.4.3-.6.5-1.7 1.1-4 .6-5.2-1.1-1.1-1.7-.6-4 1.1-5.2.2-.1.4-.3.7-.3.5-.2.9-.3 1.4-.2.5 0 1 .1 1.4.3.6.2 1.2.7 1.7 1.3zM171 221.8c-.4-.7-.6-1.4-.6-2.1l3.9.3c1.2.1 2.4.1 3.5.2-.1 1.1-.7 2.1-1.7 2.7-.2.1-.4.3-.7.3-1.5.7-3.4.1-4.4-1.4zM78.1 277.2c1.7-1.1 4-.6 5.2 1.1 1.1 1.7.6 4-1.1 5.2-1.7 1.1-4 .6-5.2-1.1-1.2-1.8-.7-4.1 1.1-5.2zM52.3 271.6c1.7-1.1 4-.6 5.2 1.1 1.1 1.7.6 4-1.1 5.2-1.7 1.1-4 .6-5.2-1.1-1.1-1.8-.6-4.1 1.1-5.2zM72.5 303c1.7-1.1 4-.6 5.2 1.1 1.1 1.7.6 4-1.1 5.2-1.7 1.1-4 .6-5.2-1.1-1.2-1.8-.7-4.1 1.1-5.2zM87.7 257.7c-1.7 1.1-4 .6-5.2-1.1-1.1-1.7-.6-4 1.1-5.2 1.7-1.1 4-.6 5.2 1.1 1.1 1.8.6 4.1-1.1 5.2zM107.9 289.1c-1.7 1.1-4 .6-5.2-1.1-1.1-1.7-.6-4 1.1-5.2 1.7-1.1 4-.6 5.2 1.1 1.1 1.7.6 4.1-1.1 5.2zM98.2 308.6c.9-.6 1.9-.7 2.8-.5.9.2 1.8.8 2.3 1.6 1.1 1.7.6 4-1.1 5.2-.9.6-1.9.7-2.8.5-.9-.2-1.8-.8-2.3-1.6-1.1-1.8-.6-4.1 1.1-5.2zM15.3 317.6c1.7-1.1 4-.6 5.2 1.1 1.1 1.7.6 4-1.1 5.2-1.7 1.1-4 .6-5.2-1.1-1.1-1.8-.6-4.1 1.1-5.2zM9.7 343.3c1.7-1.1 4-.6 5.2 1.1 1.1 1.7.6 4-1.1 5.2-1.7 1.1-4 .6-5.2-1.1-1.1-1.8-.6-4.1 1.1-5.2zM20.9 291.8c1.7-1.1 4-.6 5.2 1.1 1.1 1.7.6 4-1.1 5.2-1.7 1.1-4 .6-5.2-1.1-1.1-1.8-.6-4.1 1.1-5.2zM41.1 323.1c1.7-1.1 4-.6 5.2 1.1 1.1 1.7.6 4-1.1 5.2-1.7 1.1-4 .6-5.2-1.1-1.1-1.7-.6-4 1.1-5.2zM35.5 348.9c.2-.1.4-.3.7-.3.9-.4 1.9-.3 2.8.1.7.3 1.2.8 1.7 1.4.4.7.6 1.4.6 2.1 0 1-.4 1.9-1.1 2.6-.2.2-.4.3-.6.5-.9.6-1.9.7-2.8.5-.9-.2-1.8-.8-2.3-1.6-1.2-1.9-.7-4.2 1-5.3zM45.6 302.5c-.4-.6-.6-1.4-.6-2.1 0-1.2.6-2.4 1.7-3.1.2-.1.4-.3.7-.3.5-.2.9-.3 1.4-.2.5 0 1 .1 1.4.3.7.3 1.2.8 1.7 1.4.4.7.6 1.4.6 2.1 0 1.2-.6 2.4-1.7 3.1-.2.1-.4.3-.7.3-.9.4-1.9.3-2.8-.1-.7-.2-1.3-.7-1.7-1.4zM279.3 245.3c-.2.1-.4.3-.7.3-.9.4-1.9.3-2.8-.1-.7-.3-1.2-.8-1.7-1.4-.4-.6-.6-1.4-.6-2.1 0-1.2.6-2.4 1.7-3.1 1.7-1.1 4-.6 5.2 1.1 1.1 1.9.6 4.2-1.1 5.3zM305.5 224c-1.1-1.7-.6-4 1.1-5.2 1.7-1.1 4-.6 5.2 1.1 1.1 1.7.6 4-1.1 5.2-1.8 1.2-4.1.7-5.2-1.1zM279.7 218.4c-1.1-1.7-.6-4 1.1-5.2 1.7-1.1 4-.6 5.2 1.1 1.1 1.7.6 4-1.1 5.2-1.8 1.2-4.1.7-5.2-1.1zM305 250.9c-1.7 1.1-4 .6-5.2-1.1-1.1-1.7-.6-4 1.1-5.2 1.7-1.1 4-.6 5.2 1.1 1.2 1.8.7 4.1-1.1 5.2zM331.2 229.6c-1.1-1.7-.6-4 1.1-5.2 1.7-1.1 4-.6 5.2 1.1 1.1 1.7.6 4-1.1 5.2-1.7 1.2-4 .7-5.2-1.1zM300.6 271.5c.3.4.5.9.5 1.4.1.5.1 1 0 1.4-.2.7-.5 1.4-1 1.9-.2.2-.4.3-.6.5-.9.6-1.9.7-2.8.5-.9-.2-1.8-.8-2.3-1.6-1.1-1.7-.6-4 1.1-5.2.6-.4 1.4-.6 2.1-.6.5 0 1 .1 1.4.3.6.3 1.1.8 1.6 1.4zM217.7 280.5c.4.6.6 1.4.6 2.1 0 1.2-.6 2.4-1.7 3.1-.2.1-.4.3-.7.3-.9.4-1.9.3-2.8-.1-.7-.3-1.2-.8-1.7-1.4-.4-.6-.6-1.4-.6-2.1 0-1.2.6-2.4 1.7-3.1.2-.1.4-.3.7-.3.5-.2.9-.3 1.4-.2.5 0 1 .1 1.4.3.7.3 1.2.8 1.7 1.4zM247.9 265.5c-1.7 1.1-4 .6-5.2-1.1-1.1-1.7-.6-4 1.1-5.2 1.7-1.1 4-.6 5.2 1.1 1.1 1.8.6 4.1-1.1 5.2zM222.6 233c-1.1-1.7-.6-4 1.1-5.2.2-.1.4-.3.7-.3.9-.4 1.9-.3 2.8.1.7.3 1.2.8 1.7 1.4.8 1.3.8 2.9-.1 4.1-.3.4-.6.8-1.1 1-1.7 1.1-4 .6-5.1-1.1zM222.1 259.9c-1.7 1.1-4 .6-5.2-1.1-1.1-1.7-.6-4 1.1-5.2 1.7-1.1 4-.6 5.2 1.1 1.2 1.8.7 4.1-1.1 5.2zM242.3 291.3c-1.7 1.1-4 .6-5.2-1.1-1.1-1.7-.6-4 1.1-5.2 1.7-1.1 4-.6 5.2 1.1 1.1 1.7.6 4.1-1.1 5.2zM253.5 239.7c-1.7 1.1-4 .6-5.2-1.1-1.1-1.7-.6-4 1.1-5.2 1.7-1.1 4-.6 5.2 1.1 1.1 1.8.6 4.1-1.1 5.2zM273.7 271.1c-1.7 1.1-4 .6-5.2-1.1-1.1-1.7-.6-4 1.1-5.2 1.7-1.1 4-.6 5.2 1.1 1.1 1.8.6 4.1-1.1 5.2zM153.8 326c-1.5 1-3.5.7-4.7-.5-.2-.2-.3-.4-.5-.6-.1-.2-.3-.4-.3-.7-.6-1.6-.1-3.5 1.5-4.5.4-.3.9-.5 1.4-.5 1.4-.2 2.9.4 3.8 1.7 1 1.7.5 4-1.2 5.1zM185.2 305.9c-1.7 1.1-4 .6-5.2-1.1-1.1-1.7-.6-4 1.1-5.2 1.7-1.1 4-.6 5.2 1.1 1.1 1.7.6 4-1.1 5.2zM166.7 270.7c.2 1 0 1.9-.6 2.7-.3.4-.6.8-1.1 1-.2.1-.4.3-.7.3-.9.4-1.9.3-2.8-.1-.7-.3-1.2-.8-1.7-1.4-.4-.6-.6-1.4-.6-2.1 0-1 .4-1.9 1.1-2.6.2-.2.4-.3.6-.5 1.7-1.1 4-.6 5.2 1.1.3.7.5 1.1.6 1.6zM159.4 300.3c-1.7 1.1-4 .6-5.2-1.1-1.1-1.7-.6-4 1.1-5.2 1.7-1.1 4-.6 5.2 1.1 1.1 1.7.6 4-1.1 5.2zM179.6 331.6c-1.7 1.1-4 .6-5.2-1.1-1.1-1.7-.6-4 1.1-5.2 1.7-1.1 4-.6 5.2 1.1 1.1 1.8.6 4.1-1.1 5.2zM190.8 280.1c-1.7 1.1-4 .6-5.2-1.1-1.1-1.7-.6-4 1.1-5.2 1.7-1.1 4-.6 5.2 1.1 1.1 1.8.6 4.1-1.1 5.2zM210.9 311.4c-1.7 1.1-4 .6-5.2-1.1-1.1-1.7-.6-4 1.1-5.2 1.7-1.1 4-.6 5.2 1.1 1.2 1.8.7 4.1-1.1 5.2zM118.4 339.9c1.7-1.1 4-.6 5.2 1.1 1.1 1.7.6 4-1.1 5.2-1.7 1.1-4 .6-5.2-1.1-1.1-1.7-.6-4.1 1.1-5.2zM92.6 334.3c1.7-1.1 4-.6 5.2 1.1 1.1 1.7.6 4-1.1 5.2-1.7 1.1-4 .6-5.2-1.1-1.1-1.7-.6-4.1 1.1-5.2zM112.8 365.7c1.7-1.1 4-.6 5.2 1.1 1.1 1.7.6 4-1.1 5.2-1.7 1.1-4 .6-5.2-1.1-1.1-1.8-.6-4.1 1.1-5.2zM124 314.2c1.7-1.1 4-.6 5.2 1.1 1.1 1.7.6 4-1.1 5.2-1.7 1.1-4 .6-5.2-1.1-1.1-1.8-.6-4.1 1.1-5.2zM144.2 345.5c1.7-1.1 4-.6 5.2 1.1 1.1 1.7.6 4-1.1 5.2-1.7 1.1-4 .6-5.2-1.1-1.2-1.8-.7-4.1 1.1-5.2zM137.1 375.8c-.4-1.2-.3-2.4.4-3.4.3-.4.6-.8 1.1-1 1.1-.7 2.4-.8 3.5-.3.4.2.8.5 1.2.8.2.2.3.4.5.6.3.4.5.9.5 1.4.2 1 0 1.9-.6 2.7-.3.4-.6.8-1.1 1-1.7 1.1-4 .6-5.2-1.1-.1-.3-.2-.5-.3-.7zM55.7 380.3c1.7-1.1 4-.6 5.2 1.1 1.1 1.7.6 4-1.1 5.2-1.7 1.1-4 .6-5.2-1.1-1.2-1.8-.7-4.1 1.1-5.2zM29.9 374.7c1.7-1.1 4-.6 5.2 1.1 1.1 1.7.6 4-1.1 5.2-1.7 1.1-4 .6-5.2-1.1-1.1-1.8-.6-4.1 1.1-5.2zM50.1 406.1c1.7-1.1 4-.6 5.2 1.1 1.1 1.7.6 4-1.1 5.2-1.7 1.1-4 .6-5.2-1.1-1.1-1.8-.6-4.1 1.1-5.2zM61.3 354.5c1.7-1.1 4-.6 5.2 1.1 1.1 1.7.6 4-1.1 5.2-1.7 1.1-4 .6-5.2-1.1-1.2-1.8-.7-4.1 1.1-5.2zM81.5 385.9c1.7-1.1 4-.6 5.2 1.1 1.1 1.7.6 4-1.1 5.2-1.7 1.1-4 .6-5.2-1.1-1.2-1.8-.7-4.1 1.1-5.2zM74.2 415.4c-.1-.5-.1-1 0-1.4.1-.5.3-.9.6-1.3s.6-.8 1.1-1c.4-.3.9-.5 1.4-.5 1.4-.2 2.9.4 3.8 1.7.8 1.3.8 2.9-.1 4.1-.3.4-.6.8-1.1 1-1.7 1.1-4 .6-5.2-1.1-.2-.5-.4-1-.5-1.5zM85.4 362.5c.2-.9.8-1.8 1.6-2.3 1.7-1.1 4-.6 5.2 1.1.4.7.6 1.4.6 2.1 0 1-.4 1.9-1.1 2.6-.2.2-.4.3-.6.5-1.7 1.1-4 .6-5.2-1.1-.5-1-.7-2-.5-2.9zM65.8 333.9c-.1-.2-.3-.4-.3-.7-.2-.5-.3-.9-.2-1.4 0-.7.2-1.4.6-2 .3-.4.6-.8 1.1-1 .4-.3.9-.5 1.4-.5 1.4-.2 2.9.4 3.8 1.7.3.4.5.9.5 1.4.2 1 0 1.9-.6 2.7-.3.4-.6.8-1.1 1-.2.1-.4.3-.7.3-.5.2-.9.3-1.4.3-.5 0-1-.1-1.4-.3-.7-.4-1.3-.9-1.7-1.5zM-1.5 394.9c1.7-1.1 4-.6 5.2 1.1 1.1 1.7.6 4-1.1 5.2-1.7 1.1-4 .6-5.2-1.1-1.1-1.8-.6-4.1 1.1-5.2zM18.7 426.2c1.7-1.1 4-.6 5.2 1.1 1.1 1.7.6 4-1.1 5.2-1.7 1.1-4 .6-5.2-1.1-1.1-1.7-.6-4.1 1.1-5.2zM11.4 455.1c0-1 .4-1.9 1.1-2.6.2-.2.4-.3.6-.5 1.7-1.1 4-.6 5.2 1.1.8 1.3.8 2.9-.1 4.1-.3.4-.6.8-1.1 1-.9.6-1.9.7-2.8.5-.9-.2-1.8-.8-2.3-1.6-.4-.6-.6-1.3-.6-2zM24.3 400.5c.6-.4 1.4-.6 2.1-.6.5 0 1 .1 1.4.3.7.3 1.2.8 1.7 1.4.6.9.7 1.9.5 2.8-.2.9-.8 1.8-1.6 2.3-.9.6-1.9.7-2.8.5-.9-.2-1.8-.8-2.3-1.6-1.2-1.7-.7-4 1-5.1zM3 374.2c-.4-.6-.6-1.4-.6-2.1 0-1.2.6-2.4 1.7-3.1.9-.6 1.9-.7 2.8-.5.9.2 1.8.8 2.3 1.6 1.1 1.7.6 4-1.1 5.2-.2.1-.4.3-.7.3-.9.4-1.9.3-2.8-.1-.6-.1-1.2-.6-1.6-1.3zM384.1 264.6c0 1.2-.6 2.4-1.7 3.1-.2.1-.4.3-.7.3-.9.4-1.9.3-2.8-.1-.7-.3-1.2-.8-1.7-1.4-.4-.6-.6-1.4-.6-2.1 0-1.2.6-2.4 1.7-3.1.2-.1.4-.3.7-.3.5-.2.9-.3 1.4-.2.5 0 1 .1 1.4.3.7.3 1.2.8 1.7 1.4.4.7.6 1.4.6 2.1zM408.6 246.4c-.8-1.3-.8-3 .1-4.2 1.9 1.6 3.8 3.2 5.6 4.9-.2.2-.3.3-.5.4-1.8 1.1-4.1.6-5.2-1.1zM382.8 240.8c-1.1-1.7-.6-4 1.1-5.2 1.7-1.1 4-.6 5.2 1.1 1.1 1.7.6 4-1.1 5.2-1.8 1.1-4.1.6-5.2-1.1zM403 272.2c-1.1-1.7-.6-4 1.1-5.2 1.7-1.1 4-.6 5.2 1.1 1.1 1.7.6 4-1.1 5.2-1.8 1.1-4.1.6-5.2-1.1zM403.2 293.3c.2.2.3.4.5.6.3.4.5.9.5 1.4.2 1 0 1.9-.6 2.7-.3.4-.6.8-1.1 1-.2.1-.4.3-.7.3-.9.4-1.9.3-2.8-.1-.7-.3-1.2-.8-1.7-1.4-.4-.6-.6-1.4-.6-2.1 0-1.2.6-2.4 1.7-3.1.4-.3.9-.5 1.4-.5.7-.1 1.5 0 2.1.2.5.4.9.7 1.3 1zM319.6 308.1c-1.5 1-3.5.7-4.7-.5-.2-.2-.3-.4-.5-.6-.1-.2-.3-.4-.3-.7-.6-1.6-.1-3.5 1.5-4.5.4-.3.9-.5 1.4-.5 1.4-.2 2.9.4 3.8 1.7 1.1 1.6.5 3.9-1.2 5.1zM351 287.9c-1.7 1.1-4 .6-5.2-1.1-1.1-1.7-.6-4 1.1-5.2 1.7-1.1 4-.6 5.2 1.1 1.1 1.8.6 4.1-1.1 5.2zM332.5 252.7c.2 1-.1 1.9-.6 2.7-.3.4-.6.8-1.1 1-.2.1-.4.3-.7.3-.5.2-.9.3-1.4.3-1.2 0-2.4-.6-3.1-1.7-.1-.2-.3-.4-.3-.7-.4-1.2-.3-2.4.4-3.4.3-.4.6-.8 1.1-1 1.7-1.1 4-.6 5.2 1.1.2.5.4 1 .5 1.4zM325.2 282.3c-1.7 1.1-4 .6-5.2-1.1-1.1-1.7-.6-4 1.1-5.2 1.7-1.1 4-.6 5.2 1.1 1.1 1.8.6 4.1-1.1 5.2zM345.4 313.6c-1.7 1.1-4 .6-5.2-1.1-1.1-1.7-.6-4 1.1-5.2 1.7-1.1 4-.6 5.2 1.1 1.1 1.8.6 4.1-1.1 5.2zM356.6 262.1c-1.7 1.1-4 .6-5.2-1.1-1.1-1.7-.6-4 1.1-5.2 1.7-1.1 4-.6 5.2 1.1 1.1 1.8.6 4.1-1.1 5.2zM376.8 293.5c-1.7 1.1-4 .6-5.2-1.1-1.1-1.7-.6-4 1.1-5.2 1.7-1.1 4-.6 5.2 1.1 1.1 1.7.6 4.1-1.1 5.2zM340.9 334.3c.8 1.3.8 2.9-.1 4.1-.3.4-.6.8-1.1 1-.2.1-.4.3-.7.3-.9.4-1.9.3-2.8-.1-.7-.3-1.2-.8-1.7-1.4-.3-.4-.5-.9-.5-1.4 0-.2-.1-.5-.1-.7 0-.2 0-.5.1-.7.1-.5.3-.9.6-1.3s.6-.8 1.1-1c1.1-.7 2.4-.8 3.5-.3.7.3 1.3.8 1.7 1.5zM357 235.2c-.6-.9-.7-1.9-.5-2.8.2-.9.8-1.8 1.6-2.3.9-.6 1.9-.7 2.8-.5.9.2 1.8.8 2.3 1.6.4.7.6 1.4.6 2.1 0 1-.4 1.9-1.1 2.6-.2.2-.4.3-.6.5-1.7 1.1-4 .5-5.1-1.2zM258.6 345.3c0 1-.4 1.9-1.1 2.6-.2.2-.4.3-.6.5-.2.1-.4.3-.7.3-.9.4-1.9.3-2.8-.1-.7-.3-1.2-.8-1.7-1.4-.6-.9-.7-1.9-.5-2.8.2-.9.8-1.8 1.6-2.3 1.7-1.1 4-.6 5.2 1.1.4.7.6 1.4.6 2.1zM238.4 313.3c.2 1-.1 1.9-.6 2.7-.3.4-.6.8-1.1 1-.2.1-.4.3-.7.3-.9.4-1.9.3-2.8-.1-.7-.3-1.2-.8-1.7-1.4-.1-.2-.3-.4-.3-.7-.2-.5-.3-.9-.2-1.4 0-.7.2-1.4.6-2 .3-.4.6-.8 1.1-1 .4-.3.9-.5 1.4-.5 1.4-.2 2.9.4 3.8 1.7.2.4.4.9.5 1.4zM288.3 328.2c-1.7 1.1-4 .6-5.2-1.1-1.1-1.7-.6-4 1.1-5.2 1.7-1.1 4-.6 5.2 1.1 1.1 1.8.6 4.1-1.1 5.2zM268.1 296.9c-.4.3-.9.5-1.4.5-1.4.2-2.9-.4-3.8-1.7-.3-.4-.5-.9-.5-1.4-.1-.5-.1-1 0-1.4.1-.5.3-.9.6-1.3s.6-.8 1.1-1c.4-.3.9-.5 1.4-.5.5-.1 1-.1 1.4 0 .9.2 1.8.8 2.3 1.6 1.1 1.7.6 4-1.1 5.2zM262.5 322.6c-1.7 1.1-4 .6-5.2-1.1-1.1-1.7-.6-4 1.1-5.2 1.7-1.1 4-.6 5.2 1.1 1.1 1.8.6 4.1-1.1 5.2zM282.7 354c-1.7 1.1-4 .6-5.2-1.1-1.1-1.7-.6-4 1.1-5.2 1.7-1.1 4-.6 5.2 1.1 1.1 1.8.6 4.1-1.1 5.2zM293.8 302.5c-1.7 1.1-4 .6-5.2-1.1-1.1-1.7-.6-4 1.1-5.2 1.7-1.1 4-.6 5.2 1.1 1.2 1.7.7 4-1.1 5.2zM314 333.8c-1.7 1.1-4 .6-5.2-1.1-1.1-1.7-.6-4 1.1-5.2 1.7-1.1 4-.6 5.2 1.1 1.2 1.8.7 4.1-1.1 5.2zM278.2 374.6c.3.4.5.9.5 1.4 0 .2.1.5.1.7 0 .7-.2 1.4-.6 2-.3.4-.6.8-1.1 1-.2.1-.4.3-.7.3-.9.4-1.9.3-2.8-.1-.7-.3-1.2-.8-1.7-1.4-.4-.6-.6-1.4-.6-2.1 0-1 .4-1.9 1.1-2.6.2-.2.4-.3.6-.5.2-.1.4-.3.7-.3.5-.2.9-.3 1.4-.2.5 0 1 .1 1.4.3.7.4 1.3.9 1.7 1.5zM309.1 353.8c.2.2.3.4.5.6 1.1 1.7.6 4-1.1 5.2-1.7 1.1-4 .6-5.2-1.1-1.1-1.7-.6-4 1.1-5.2 1.1-.7 2.4-.8 3.5-.3.4.2.8.5 1.2.8zM175.1 352.2c1.1 1.7.6 4-1.1 5.2-.2.1-.4.3-.7.3-.2.1-.5.2-.7.2-.5.1-1 .1-1.4 0-.2-.1-.5-.1-.7-.2l-.6-.3c-.4-.3-.8-.6-1-1.1-.3-.4-.5-.9-.5-1.4 0-.2-.1-.5-.1-.7 0-.2 0-.5.1-.7.1-.5.3-.9.6-1.3s.6-.8 1.1-1c.4-.3.9-.5 1.4-.5.5-.1 1-.1 1.4 0 .8.1 1.6.7 2.2 1.5zM225.5 368.6c-1.7 1.1-4 .6-5.2-1.1-1.1-1.7-.6-4 1.1-5.2 1.7-1.1 4-.6 5.2 1.1 1.2 1.8.7 4.1-1.1 5.2zM207 333.4c.2 1.2-.2 2.4-1.1 3.3-.2.2-.4.3-.6.5-.9.6-1.9.7-2.8.5-.9-.2-1.8-.8-2.3-1.6-1.1-1.7-.6-4 1.1-5.2 1.7-1.1 4-.6 5.2 1.1.2.5.4 1 .5 1.4zM199.8 363c-1.7 1.1-4 .6-5.2-1.1-1.1-1.7-.6-4 1.1-5.2 1.7-1.1 4-.6 5.2 1.1 1.1 1.8.6 4.1-1.1 5.2zM219.9 394.3c-1.7 1.1-4 .6-5.2-1.1-1.1-1.7-.6-4 1.1-5.2 1.7-1.1 4-.6 5.2 1.1 1.2 1.8.7 4.1-1.1 5.2zM231.1 342.8c-1.7 1.1-4 .6-5.2-1.1-1.1-1.7-.6-4 1.1-5.2 1.7-1.1 4-.6 5.2 1.1 1.2 1.8.7 4.1-1.1 5.2zM251.3 374.2c-1.7 1.1-4 .6-5.2-1.1-1.1-1.7-.6-4 1.1-5.2 1.7-1.1 4-.6 5.2 1.1 1.1 1.8.6 4.1-1.1 5.2zM246.8 394.8c.8 1.3.8 2.9-.1 4.1-.3.4-.6.8-1.1 1-1.7 1.1-4 .6-5.2-1.1-1.1-1.7-.6-4 1.1-5.2.2-.1.4-.3.7-.3.9-.4 1.9-.3 2.8.1.8.3 1.4.7 1.8 1.4zM158.8 402.7c1.7-1.1 4-.6 5.2 1.1 1.1 1.7.6 4-1.1 5.2-1.7 1.1-4 .6-5.2-1.1-1.2-1.8-.7-4.1 1.1-5.2zM133 397.1c1.7-1.1 4-.6 5.2 1.1 1.1 1.7.6 4-1.1 5.2-1.7 1.1-4 .6-5.2-1.1-1.1-1.8-.6-4.1 1.1-5.2zM153.2 428.4c1.7-1.1 4-.6 5.2 1.1 1.1 1.7.6 4-1.1 5.2-1.7 1.1-4 .6-5.2-1.1-1.2-1.7-.7-4.1 1.1-5.2zM164.4 376.9c1.7-1.1 4-.6 5.2 1.1 1.1 1.7.6 4-1.1 5.2-1.7 1.1-4 .6-5.2-1.1-1.2-1.8-.7-4.1 1.1-5.2zM184.5 408.3c1.7-1.1 4-.6 5.2 1.1 1.1 1.7.6 4-1.1 5.2-1.7 1.1-4 .6-5.2-1.1-1.1-1.8-.6-4.1 1.1-5.2zM190.1 382.5c.6-.4 1.4-.6 2.1-.6.5 0 1 .1 1.4.3.7.3 1.2.8 1.7 1.4.6.9.7 1.9.5 2.8-.2.9-.8 1.8-1.6 2.3-.9.6-1.9.7-2.8.5-.9-.2-1.8-.8-2.3-1.6-1.2-1.7-.7-4 1-5.1zM96 443c1.7-1.1 4-.6 5.2 1.1 1.1 1.7.6 4-1.1 5.2-1.7 1.1-4 .6-5.2-1.1-1.1-1.8-.6-4.1 1.1-5.2zM70.3 437.4c1.7-1.1 4-.6 5.2 1.1 1.1 1.7.6 4-1.1 5.2-1.7 1.1-4 .6-5.2-1.1-1.2-1.8-.7-4.1 1.1-5.2zM90.4 468.8c1.7-1.1 4-.6 5.2 1.1 1.1 1.7.6 4-1.1 5.2-1.7 1.1-4 .6-5.2-1.1-1.1-1.8-.6-4.1 1.1-5.2zM101.6 417.2c1.7-1.1 4-.6 5.2 1.1 1.1 1.7.6 4-1.1 5.2-1.7 1.1-4 .6-5.2-1.1-1.1-1.7-.6-4 1.1-5.2zM121.8 448.6c1.7-1.1 4-.6 5.2 1.1 1.1 1.7.6 4-1.1 5.2-1.7 1.1-4 .6-5.2-1.1-1.1-1.8-.6-4.1 1.1-5.2zM116.2 474.4c.9-.6 1.9-.7 2.8-.5.9.2 1.8.8 2.3 1.6 1.1 1.7.6 4-1.1 5.2-1.7 1.1-4 .6-5.2-1.1-1-1.8-.5-4.1 1.2-5.2zM126.3 428c-.4-.6-.6-1.4-.6-2.1 0-1.2.6-2.4 1.7-3.1 1.7-1.1 4-.6 5.2 1.1 1.1 1.7.6 4-1.1 5.2-.2.1-.4.3-.7.3-.9.4-1.9.3-2.8-.1-.7-.2-1.3-.7-1.7-1.3zM106.1 396.6c-.4-.6-.6-1.4-.6-2.1 0-.5.1-1 .3-1.4.2-.4.5-.8.8-1.2.2-.2.4-.3.6-.5.2-.1.4-.3.7-.3.5-.2.9-.3 1.4-.2.5 0 1 .1 1.4.3.7.3 1.2.8 1.7 1.4.3.4.5.9.5 1.4 0 .2.1.5.1.7 0 .7-.2 1.4-.6 2-.3.4-.6.8-1.1 1-.2.1-.4.3-.7.3-.9.4-1.9.3-2.8-.1-.7-.1-1.3-.6-1.7-1.3zM146.5 459.4c-1.1-1.7-.6-4 1.1-5.2.2-.1.4-.3.7-.3.5-.2.9-.3 1.4-.2.5 0 1 .1 1.4.3.7.3 1.2.8 1.7 1.4.4.6.6 1.4.6 2.1 0 1-.4 1.9-1.1 2.6-.2.2-.4.3-.6.5-1.8 1-4.1.5-5.2-1.2zM33.3 483.4c1.7-1.1 4-.6 5.2 1.1 1.1 1.7.6 4-1.1 5.2-1.7 1.1-4 .6-5.2-1.1-1.1-1.8-.6-4.1 1.1-5.2zM7.5 477.8c1.7-1.1 4-.6 5.2 1.1 1.1 1.7.6 4-1.1 5.2-1.7 1.1-4 .6-5.2-1.1-1.1-1.8-.6-4.1 1.1-5.2zM27.7 509.1c1.7-1.1 4-.6 5.2 1.1 1.1 1.7.6 4-1.1 5.2-1.7 1.1-4 .6-5.2-1.1-1.1-1.7-.6-4.1 1.1-5.2zM38.9 457.6c1.7-1.1 4-.6 5.2 1.1 1.1 1.7.6 4-1.1 5.2-1.7 1.1-4 .6-5.2-1.1-1.1-1.8-.6-4.1 1.1-5.2zM59.1 489c1.7-1.1 4-.6 5.2 1.1 1.1 1.7.6 4-1.1 5.2-1.7 1.1-4 .6-5.2-1.1-1.2-1.8-.7-4.1 1.1-5.2zM53.5 514.7c.2-.1.4-.3.7-.3.9-.4 1.9-.3 2.8.1.7.3 1.2.8 1.7 1.4.4.6.6 1.4.6 2.1 0 1-.4 1.9-1.1 2.6-.2.2-.4.3-.6.5-.9.6-1.9.7-2.8.5-.9-.2-1.8-.8-2.3-1.6-1.3-1.9-.8-4.2 1-5.3zM63.5 468.3c-.4-.6-.6-1.4-.6-2.1 0-1.2.6-2.4 1.7-3.1 1.7-1.1 4-.6 5.2 1.1 1.1 1.7.6 4-1.1 5.2-.2.1-.4.3-.7.3-.9.4-1.9.3-2.8-.1-.6-.1-1.2-.6-1.7-1.3zM43.4 437c-.6-.9-.7-1.9-.5-2.8.2-.9.8-1.8 1.6-2.3.4-.3.9-.5 1.4-.5.7-.1 1.4 0 2.1.2.4.2.8.5 1.2.8.2.2.3.4.5.6.3.4.5.9.5 1.4.2 1-.1 1.9-.6 2.7-.3.4-.6.8-1.1 1-1.5 1-3.5.7-4.7-.5-.1-.2-.3-.4-.4-.6zM83.4 499c-.4-1.2-.3-2.4.4-3.4.3-.4.6-.8 1.1-1 .4-.3.9-.5 1.4-.5 1.4-.2 2.9.4 3.8 1.7.3.4.5.9.5 1.4.2 1 0 1.9-.6 2.7-.3.4-.6.8-1.1 1-.2.1-.4.3-.7.3-.5.2-.9.3-1.4.3-1.2 0-2.4-.6-3.1-1.7-.1-.3-.2-.5-.3-.8zM1.5 530.4c1.1 1.7.6 4-1.1 5.2-1.7 1.1-4 .6-5.2-1.1-1.1-1.7-.6-4 1.1-5.2 1.8-1.1 4.1-.6 5.2 1.1zM.8 508.7c-.1-.2-.3-.4-.3-.7-.2-.5-.3-.9-.2-1.4 0-1.2.6-2.4 1.7-3.1.2-.1.4-.3.7-.3.5-.2.9-.3 1.4-.2.5 0 1 .1 1.4.3.7.3 1.2.8 1.7 1.4.4.7.6 1.4.6 2.1 0 1.2-.6 2.4-1.7 3.1-1.5 1-3.5.7-4.7-.5-.3-.3-.4-.5-.6-.7zM424.4 327.4c0 1-.4 1.9-1.1 2.6-.2.2-.4.3-.6.5-1.7 1.1-4 .6-5.2-1.1-.6-.9-.7-1.9-.5-2.8.2-.9.8-1.8 1.6-2.3 1.7-1.1 4-.6 5.2 1.1.4.5.6 1.3.6 2zM448.9 309.1c-1.1-1.7-.6-4 1.1-5.2 1.7-1.1 4-.6 5.2 1.1 1.1 1.7.6 4-1.1 5.2-1.8 1.2-4.1.7-5.2-1.1zM428.7 277.8c-.3-.4-.5-.9-.5-1.4-.1-.5-.1-1 0-1.4.1-.5.3-.9.6-1.3s.6-.8 1.1-1c.4-.3.9-.5 1.4-.5 1.4-.2 2.9.4 3.8 1.7.8 1.3.8 2.9-.1 4.1-.3.4-.6.8-1.1 1-1.7 1-4.1.5-5.2-1.2zM423.1 303.5c-1.1-1.7-.6-4 1.1-5.2 1.7-1.1 4-.6 5.2 1.1 1.1 1.7.6 4-1.1 5.2-1.7 1.2-4 .7-5.2-1.1zM443.3 334.9c-1.1-1.7-.6-4 1.1-5.2 1.7-1.1 4-.6 5.2 1.1 1.1 1.7.6 4-1.1 5.2-1.8 1.1-4.1.6-5.2-1.1zM444 356.6c.3.4.5.9.5 1.4 0 .2.1.5.1.7 0 .7-.2 1.4-.6 2-.3.4-.6.8-1.1 1-.2.1-.4.3-.7.3-.9.4-1.9.3-2.8-.1-.7-.3-1.2-.8-1.7-1.4-.1-.2-.3-.4-.3-.7-.2-.5-.3-.9-.2-1.4 0-.7.2-1.4.6-2 .3-.4.6-.8 1.1-1 .2-.1.4-.3.7-.3.5-.2.9-.3 1.4-.2.5 0 1 .1 1.4.3.6.3 1.2.8 1.6 1.4zM361.1 365.6c.6.9.7 1.9.5 2.8-.2.9-.8 1.8-1.6 2.3-.9.6-1.9.7-2.8.5-.9-.2-1.8-.8-2.3-1.6-1.1-1.7-.6-4 1.1-5.2.6-.4 1.4-.6 2.1-.6.5 0 1 .1 1.4.3.6.4 1.2.9 1.6 1.5zM391.3 350.6c-1.7 1.1-4 .6-5.2-1.1-1.1-1.7-.6-4 1.1-5.2 1.7-1.1 4-.6 5.2 1.1 1.2 1.8.7 4.1-1.1 5.2zM372.8 315.5c.2 1-.1 1.9-.6 2.7-.3.4-.6.8-1.1 1-.9.6-1.9.7-2.8.5-.9-.2-1.8-.8-2.3-1.6-.4-.6-.6-1.4-.6-2.1 0-1 .4-1.9 1.1-2.6.2-.2.4-.3.6-.5 1.7-1.1 4-.6 5.2 1.1.3.5.4 1 .5 1.5zM365.6 345c-1.7 1.1-4 .6-5.2-1.1-1.1-1.7-.6-4 1.1-5.2 1.7-1.1 4-.6 5.2 1.1 1.1 1.8.6 4.1-1.1 5.2zM385.7 376.4c-1.7 1.1-4 .6-5.2-1.1-1.1-1.7-.6-4 1.1-5.2 1.7-1.1 4-.6 5.2 1.1 1.2 1.8.7 4.1-1.1 5.2zM396.9 324.8c-1.7 1.1-4 .6-5.2-1.1-1.1-1.7-.6-4 1.1-5.2 1.7-1.1 4-.6 5.2 1.1 1.2 1.8.7 4.1-1.1 5.2zM417.1 356.2c-1.7 1.1-4 .6-5.2-1.1-1.1-1.7-.6-4 1.1-5.2 1.7-1.1 4-.6 5.2 1.1 1.1 1.8.6 4.1-1.1 5.2zM412.6 376.8c.4.6.6 1.4.6 2.1 0 1-.4 1.9-1.1 2.6-.2.2-.4.3-.6.5-.9.6-1.9.7-2.8.5-.9-.2-1.8-.8-2.3-1.6-1.1-1.7-.6-4 1.1-5.2.2-.1.4-.3.7-.3.9-.4 1.9-.3 2.8.1.6.2 1.2.7 1.6 1.3zM297.2 411.1c-.2.1-.4.3-.7.3-.9.4-1.9.3-2.8-.1-.7-.3-1.2-.8-1.7-1.4-.4-.6-.6-1.4-.6-2.1 0-1.2.6-2.4 1.7-3.1 1.7-1.1 4-.6 5.2 1.1 1.2 1.9.7 4.2-1.1 5.3zM328.6 391c-1.7 1.1-4 .6-5.2-1.1-1.1-1.7-.6-4 1.1-5.2 1.7-1.1 4-.6 5.2 1.1 1.1 1.7.6 4-1.1 5.2zM302.8 385.4c-1.7 1.1-4 .6-5.2-1.1-1.1-1.7-.6-4 1.1-5.2 1.7-1.1 4-.6 5.2 1.1 1.2 1.7.7 4-1.1 5.2zM323 416.7c-1.7 1.1-4 .6-5.2-1.1-1.1-1.7-.6-4 1.1-5.2 1.7-1.1 4-.6 5.2 1.1 1.1 1.8.6 4.1-1.1 5.2zM334.2 365.2c-1.7 1.1-4 .6-5.2-1.1-1.1-1.7-.6-4 1.1-5.2 1.7-1.1 4-.6 5.2 1.1 1.1 1.8.6 4.1-1.1 5.2zM354.4 396.5c-1.7 1.1-4 .6-5.2-1.1-1.1-1.7-.6-4 1.1-5.2 1.7-1.1 4-.6 5.2 1.1 1.1 1.8.6 4.1-1.1 5.2zM318.5 437.3c.3.4.5.9.5 1.4 0 .2.1.5.1.7 0 1-.4 1.9-1.1 2.6-.2.2-.4.3-.6.5-.9.6-1.9.7-2.8.5-.9-.2-1.8-.8-2.3-1.6-1.1-1.7-.6-4 1.1-5.2.6-.4 1.4-.6 2.1-.6.5 0 1 .1 1.4.3.6.3 1.2.8 1.6 1.4zM265.9 431.3c-1.7 1.1-4 .6-5.2-1.1-1.1-1.7-.6-4 1.1-5.2 1.7-1.1 4-.6 5.2 1.1 1.1 1.8.6 4.1-1.1 5.2zM236.1 419.4c1.7-1.1 4-.6 5.2 1.1 1.1 1.7.6 4-1.1 5.2-1.7 1.1-4 .6-5.2-1.1-1.2-1.7-.7-4 1.1-5.2zM256.2 450.8c1.7-1.1 4-.6 5.2 1.1 1.1 1.7.6 4-1.1 5.2-1.7 1.1-4 .6-5.2-1.1-1.1-1.8-.6-4.1 1.1-5.2zM271.5 405.5c-1.7 1.1-4 .6-5.2-1.1-1.1-1.7-.6-4 1.1-5.2 1.7-1.1 4-.6 5.2 1.1 1.1 1.8.6 4.1-1.1 5.2zM291.6 436.9c-1.7 1.1-4 .6-5.2-1.1-1.1-1.7-.6-4 1.1-5.2 1.7-1.1 4-.6 5.2 1.1 1.2 1.8.7 4.1-1.1 5.2zM199.1 465.4c1.7-1.1 4-.6 5.2 1.1 1.1 1.7.6 4-1.1 5.2-1.7 1.1-4 .6-5.2-1.1-1.1-1.8-.6-4.1 1.1-5.2zM177.8 439.2c-.4-.6-.6-1.4-.6-2.1 0-1 .4-1.9 1.1-2.6.2-.2.4-.3.6-.5 1.7-1.1 4-.6 5.2 1.1.8 1.3.8 2.9-.1 4.1-.3.4-.6.8-1.1 1-.2.1-.4.3-.7.3-.9.4-1.9.3-2.8-.1-.6-.1-1.2-.6-1.6-1.2zM173.3 459.8c1.7-1.1 4-.6 5.2 1.1 1.1 1.7.6 4-1.1 5.2-1.7 1.1-4 .6-5.2-1.1-1.1-1.8-.6-4.1 1.1-5.2zM193.5 491.2c1.7-1.1 4-.6 5.2 1.1 1.1 1.7.6 4-1.1 5.2-1.7 1.1-4 .6-5.2-1.1-1.1-1.8-.6-4.1 1.1-5.2zM204.7 439.6c1.7-1.1 4-.6 5.2 1.1 1.1 1.7.6 4-1.1 5.2-1.7 1.1-4 .6-5.2-1.1-1.1-1.8-.6-4.1 1.1-5.2zM224.9 471c1.7-1.1 4-.6 5.2 1.1 1.1 1.7.6 4-1.1 5.2-1.7 1.1-4 .6-5.2-1.1-1.1-1.8-.6-4.1 1.1-5.2zM219.3 496.8c1.7-1.1 4-.6 5.2 1.1.3.4.5.9.5 1.4.2 1.2-.2 2.4-1.1 3.3-.2.2-.4.3-.6.5-.9.6-1.9.7-2.8.5-.9-.2-1.8-.8-2.3-1.6-1.1-1.8-.6-4.1 1.1-5.2zM229.4 450.4c-.4-.6-.6-1.4-.6-2.1 0-1.2.6-2.4 1.7-3.1 1.7-1.1 4-.6 5.2 1.1 1.1 1.7.6 4-1.1 5.2-.2.1-.4.3-.7.3-.9.4-1.9.3-2.8-.1-.7-.2-1.3-.7-1.7-1.3zM209.2 419c-.6-.9-.7-1.9-.5-2.8.2-.9.8-1.8 1.6-2.3.4-.3.9-.5 1.4-.5.7-.1 1.5 0 2.1.2.4.2.8.5 1.2.8.2.2.3.4.5.6 1.1 1.7.6 4-1.1 5.2-1.5 1-3.5.7-4.7-.5-.2-.3-.4-.5-.5-.7zM249.2 481.1c-.4-1.2-.3-2.4.4-3.5.3-.4.6-.8 1.1-1 .4-.3.9-.5 1.4-.5 1.4-.2 2.9.4 3.8 1.7.3.4.5.9.5 1.4.2 1 0 1.9-.6 2.7-.3.4-.6.8-1.1 1-.2.1-.4.3-.7.3-1.6.6-3.5.1-4.5-1.5l-.3-.6zM136.4 505.7c1.7-1.1 4-.6 5.2 1.1 1.1 1.7.6 4-1.1 5.2-1.7 1.1-4 .6-5.2-1.1-1.1-1.7-.6-4 1.1-5.2zM110.6 500.1c1.7-1.1 4-.6 5.2 1.1 1.1 1.7.6 4-1.1 5.2-1.7 1.1-4 .6-5.2-1.1-1.1-1.7-.6-4 1.1-5.2zM130.8 531.5c1.7-1.1 4-.6 5.2 1.1 1.1 1.7.6 4-1.1 5.2-1.7 1.1-4 .6-5.2-1.1-1.1-1.8-.6-4.1 1.1-5.2zM142 480c1.7-1.1 4-.6 5.2 1.1 1.1 1.7.6 4-1.1 5.2-1.7 1.1-4 .6-5.2-1.1-1.2-1.8-.7-4.1 1.1-5.2zM162.2 511.3c1.7-1.1 4-.6 5.2 1.1 1.1 1.7.6 4-1.1 5.2-1.7 1.1-4 .6-5.2-1.1-1.2-1.7-.7-4.1 1.1-5.2zM155.1 541.6c-.4-1.2-.3-2.4.4-3.4.3-.4.6-.8 1.1-1 1.1-.7 2.4-.8 3.5-.3.4.2.8.5 1.2.8.2.2.3.4.5.6.3.4.5.9.5 1.4.2 1-.1 1.9-.6 2.7-.3.4-.6.8-1.1 1-1.7 1.1-4 .6-5.2-1.1-.1-.3-.2-.5-.3-.7zM166.6 490.7c-.1-.2-.3-.4-.3-.7-.2-.5-.3-.9-.2-1.4 0-1.2.6-2.4 1.7-3.1.2-.1.4-.3.7-.3.5-.2.9-.3 1.4-.2.5 0 1 .1 1.4.3.7.3 1.2.8 1.7 1.4.4.7.6 1.4.6 2.1 0 1.2-.6 2.4-1.7 3.1-1.5 1-3.5.7-4.7-.5-.3-.3-.4-.5-.6-.7zM45.8 566c.7.3 1.2.8 1.7 1.4.6.9.7 1.9.5 2.8-.1.2-.1.5-.2.7-.2.4-.5.8-.8 1.2-.2.2-.4.3-.6.5-1.7 1.1-4 .6-5.2-1.1-1.1-1.7-.6-4 1.1-5.2.6-.4 1.4-.6 2.1-.6.5 0 .9.1 1.4.3zM73.7 546.1c1.7-1.1 4-.6 5.2 1.1 1.1 1.7.6 4-1.1 5.2-1.7 1.1-4 .6-5.2-1.1-1.2-1.8-.7-4.1 1.1-5.2zM47.9 540.5c1.7-1.1 4-.6 5.2 1.1 1.1 1.7.6 4-1.1 5.2-1.7 1.1-4 .6-5.2-1.1-1.1-1.8-.6-4.1 1.1-5.2zM68.1 571.9c1.7-1.1 4-.6 5.2 1.1 1.1 1.7.6 4-1.1 5.2-1.7 1.1-4 .6-5.2-1.1-1.2-1.8-.7-4.1 1.1-5.2zM79.3 520.3c1.7-1.1 4-.6 5.2 1.1 1.1 1.7.6 4-1.1 5.2-1.7 1.1-4 .6-5.2-1.1-1.2-1.8-.7-4.1 1.1-5.2zM99.4 551.7c1.7-1.1 4-.6 5.2 1.1 1.1 1.7.6 4-1.1 5.2-1.7 1.1-4 .6-5.2-1.1-1.1-1.8-.6-4.1 1.1-5.2zM66 597.3c.4.2.8.5 1.2.8.2.2.3.4.5.6.3.4.5.9.5 1.4 0 .2.1.5.1.7 0 .7-.2 1.4-.6 2-.3.4-.6.8-1.1 1-1.5 1-3.5.7-4.7-.5-.2-.2-.3-.4-.5-.6-.1-.2-.3-.4-.3-.7-.2-.5-.3-.9-.2-1.4 0-1.2.6-2.4 1.7-3.1.2-.1.4-.3.7-.3.8-.3 1.8-.2 2.7.1zM92.2 581.2c-.1-.5-.1-1 0-1.4.1-.5.3-.9.6-1.3s.6-.8 1.1-1c1.7-1.1 4-.6 5.2 1.1.8 1.3.8 2.9-.1 4.1-.3.4-.6.8-1.1 1-1.7 1.1-4 .6-5.2-1.1-.3-.4-.4-.9-.5-1.4zM103.4 528.3c.2-.9.8-1.8 1.6-2.3.4-.3.9-.5 1.4-.5 1.4-.2 2.9.4 3.8 1.7 1.1 1.7.6 4-1.1 5.2-1.7 1.1-4 .6-5.2-1.1-.6-1.1-.7-2.1-.5-3zM21.7 561.8c1.1 1.7.6 4-1.1 5.2-1.7 1.1-4 .6-5.2-1.1-1.1-1.7-.6-4 1.1-5.2 1.8-1.1 4.1-.6 5.2 1.1zM41.9 593.2c.7 1.1.8 2.5.2 3.6-2.1-1.2-4.2-2.5-6.3-3.8l.9-.9c1.7-1.2 4-.7 5.2 1.1zM21 540.1c-.4-.6-.6-1.4-.6-2.1 0-1.2.6-2.4 1.7-3.1.9-.6 1.9-.7 2.8-.5.9.2 1.8.8 2.3 1.6 1.1 1.7.6 4-1.1 5.2-.2.1-.4.3-.7.3-.9.4-1.9.3-2.8-.1-.6-.2-1.2-.7-1.6-1.3zM463.1 393.2c-.2.1-.4.3-.7.3-.9.4-1.9.3-2.8-.1-.7-.3-1.2-.8-1.7-1.4-.4-.6-.6-1.4-.6-2.1 0-1.2.6-2.4 1.7-3.1 1.7-1.1 4-.6 5.2 1.1 1.1 1.8.6 4.1-1.1 5.3zM489.3 371.9c-1.1-1.7-.6-4 1.1-5.2.4-.3.9-.5 1.4-.5 1.1 2.1 2.2 4.2 3.3 6.2-.2.2-.4.4-.7.6-1.7 1.1-4 .6-5.1-1.1zM469.1 340.5c-1.1-1.7-.6-4 1.1-5.2.9-.6 1.9-.7 2.8-.5.9.2 1.8.8 2.3 1.6 1.1 1.7.6 4-1.1 5.2-1.7 1.1-4 .6-5.1-1.1zM463.5 366.3c-1.1-1.7-.6-4 1.1-5.2 1.7-1.1 4-.6 5.2 1.1 1.1 1.7.6 4-1.1 5.2-1.8 1.1-4.1.6-5.2-1.1zM483.7 397.6c-1.1-1.7-.6-4 1.1-5.2 1.7-1.1 4-.6 5.2 1.1 1.1 1.7.6 4-1.1 5.2-1.8 1.2-4.1.7-5.2-1.1zM400.3 433.5c-.2.1-.4.3-.7.3-.9.4-1.9.3-2.8-.1-.7-.3-1.2-.8-1.7-1.4-.4-.6-.6-1.4-.6-2.1 0-1.2.6-2.4 1.7-3.1 1.7-1.1 4-.6 5.2 1.1 1.2 1.9.7 4.2-1.1 5.3zM381.3 397c1.1 1.7.6 4-1.1 5.2-1.5 1-3.5.7-4.7-.5-.2-.2-.3-.4-.5-.6-.1-.2-.3-.4-.3-.7-.3-.7-.3-1.4-.2-2.1.2-.9.8-1.8 1.6-2.3.4-.3.9-.5 1.4-.5.5-.1 1-.1 1.4 0 1 .1 1.8.6 2.4 1.5zM431.7 413.3c-1.7 1.1-4 .6-5.2-1.1-1.1-1.7-.6-4 1.1-5.2 1.7-1.1 4-.6 5.2 1.1 1.1 1.8.6 4.1-1.1 5.2zM405.9 407.7c-1.7 1.1-4 .6-5.2-1.1-1.1-1.7-.6-4 1.1-5.2 1.7-1.1 4-.6 5.2 1.1 1.2 1.8.6 4.1-1.1 5.2zM426.1 439.1c-1.7 1.1-4 .6-5.2-1.1-1.1-1.7-.6-4 1.1-5.2 1.7-1.1 4-.6 5.2 1.1 1.1 1.8.6 4.1-1.1 5.2zM437.3 387.6c-1.7 1.1-4 .6-5.2-1.1-1.1-1.7-.6-4 1.1-5.2 1.7-1.1 4-.6 5.2 1.1 1.1 1.7.6 4-1.1 5.2zM457.5 418.9c-1.7 1.1-4 .6-5.2-1.1-1.1-1.7-.6-4 1.1-5.2 1.7-1.1 4-.6 5.2 1.1 1.1 1.8.6 4.1-1.1 5.2zM421.1 459.1c.2.2.3.4.5.6.3.4.5.9.5 1.4.2 1 0 1.9-.6 2.7-.3.4-.6.8-1.1 1-.2.1-.4.3-.7.3-1.6.6-3.5.1-4.5-1.5-1.1-1.7-.6-4 1.1-5.2.4-.3.9-.5 1.4-.5.7-.1 1.5 0 2.1.2.6.4 1 .7 1.3 1zM369 453.7c-1.7 1.1-4 .6-5.2-1.1-1.1-1.7-.6-4 1.1-5.2 1.7-1.1 4-.6 5.2 1.1 1.1 1.8.6 4.1-1.1 5.2zM349.8 421.3c-.3.4-.6.8-1.1 1-.2.1-.4.3-.7.3-.5.2-.9.3-1.4.2-1.2 0-2.4-.6-3.1-1.7-.1-.2-.3-.4-.3-.7-.4-1.2-.3-2.4.4-3.4.3-.4.6-.8 1.1-1 1.7-1.1 4-.6 5.2 1.1.8 1.4.8 3-.1 4.2zM343.2 448.1c-1.7 1.1-4 .6-5.2-1.1-1.1-1.7-.6-4 1.1-5.2 1.7-1.1 4-.6 5.2 1.1 1.1 1.8.6 4.1-1.1 5.2zM359.3 473.2c1.7-1.1 4-.6 5.2 1.1 1.1 1.7.6 4-1.1 5.2-1.7 1.1-4 .6-5.2-1.1-1.1-1.8-.6-4.1 1.1-5.2zM374.6 427.9c-1.7 1.1-4 .6-5.2-1.1-1.1-1.7-.6-4 1.1-5.2 1.7-1.1 4-.6 5.2 1.1 1.1 1.8.6 4.1-1.1 5.2zM394.7 459.3c-1.7 1.1-4 .6-5.2-1.1-1.1-1.7-.6-4 1.1-5.2 1.7-1.1 4-.6 5.2 1.1 1.2 1.8.7 4.1-1.1 5.2zM383.4 481.8c0-1 .4-1.9 1.1-2.6.2-.2.4-.3.6-.5 1.7-1.1 4-.6 5.2 1.1.3.4.5.9.5 1.4.2 1-.1 1.9-.6 2.7-.3.4-.6.8-1.1 1-.9.6-1.9.7-2.8.5-.9-.2-1.8-.8-2.3-1.6-.4-.5-.6-1.2-.6-2zM302.2 487.8c1.7-1.1 4-.6 5.2 1.1 1.1 1.7.6 4-1.1 5.2-1.7 1.1-4 .6-5.2-1.1-1.1-1.8-.6-4.1 1.1-5.2zM280.9 461.6c-.3-.4-.5-.9-.5-1.4-.1-.5-.1-1 0-1.4.1-.5.3-.9.6-1.3s.6-.8 1.1-1c.4-.3.9-.5 1.4-.5.5-.1 1-.1 1.4 0 .9.2 1.8.8 2.3 1.6 1.1 1.7.6 4-1.1 5.2-.4.3-.9.5-1.4.5-.5.1-1 .1-1.4 0-.5-.1-.9-.3-1.3-.6-.5-.4-.8-.7-1.1-1.1zM276.4 482.2c1.7-1.1 4-.6 5.2 1.1 1.1 1.7.6 4-1.1 5.2-1.7 1.1-4 .6-5.2-1.1-1.1-1.8-.6-4.1 1.1-5.2zM296.6 513.5c1.7-1.1 4-.6 5.2 1.1 1.1 1.7.6 4-1.1 5.2-1.7 1.1-4 .6-5.2-1.1-1.1-1.7-.6-4.1 1.1-5.2zM307.8 462c1.7-1.1 4-.6 5.2 1.1 1.1 1.7.6 4-1.1 5.2-1.7 1.1-4 .6-5.2-1.1-1.1-1.8-.6-4.1 1.1-5.2zM328 493.4c1.7-1.1 4-.6 5.2 1.1 1.1 1.7.6 4-1.1 5.2-1.7 1.1-4 .6-5.2-1.1-1.2-1.8-.7-4.1 1.1-5.2zM322.4 519.1c1.1-.7 2.4-.8 3.5-.3.4.2.8.5 1.2.8.2.2.3.4.5.6 1.1 1.7.6 4-1.1 5.2-1.7 1.1-4 .6-5.2-1.1-1.2-1.7-.7-4.1 1.1-5.2zM332.4 472.7c-.1-.2-.3-.4-.3-.7-.2-.5-.3-.9-.2-1.4 0-1.2.6-2.4 1.7-3.1.2-.1.4-.3.7-.3.5-.2.9-.3 1.4-.2.5 0 1 .1 1.4.3.7.3 1.2.8 1.7 1.4.4.6.6 1.4.6 2.1 0 1.2-.6 2.4-1.7 3.1-1.5 1-3.5.7-4.7-.5-.3-.2-.4-.4-.6-.7zM239.5 528.1c1.7-1.1 4-.6 5.2 1.1 1.1 1.7.6 4-1.1 5.2-1.7 1.1-4 .6-5.2-1.1-1.2-1.8-.7-4.1 1.1-5.2zM213.7 522.5c1.7-1.1 4-.6 5.2 1.1 1.1 1.7.6 4-1.1 5.2-1.7 1.1-4 .6-5.2-1.1-1.1-1.8-.6-4.1 1.1-5.2zM233.9 553.9c1.7-1.1 4-.6 5.2 1.1 1.1 1.7.6 4-1.1 5.2-1.7 1.1-4 .6-5.2-1.1-1.2-1.8-.7-4.1 1.1-5.2zM245.1 502.3c1.7-1.1 4-.6 5.2 1.1 1.1 1.7.6 4-1.1 5.2-1.7 1.1-4 .6-5.2-1.1-1.2-1.7-.7-4 1.1-5.2zM265.2 533.7c1.7-1.1 4-.6 5.2 1.1 1.1 1.7.6 4-1.1 5.2-1.7 1.1-4 .6-5.2-1.1-1.1-1.8-.6-4.1 1.1-5.2zM259.6 559.5c.2-.1.4-.3.7-.3 1.6-.6 3.5-.1 4.5 1.5.8 1.3.8 2.9-.1 4.1-.3.4-.6.8-1.1 1-1.7 1.1-4 .6-5.2-1.1-1-1.8-.5-4.1 1.2-5.2zM269.7 513.1c-.6-.9-.7-1.9-.5-2.8.2-.9.8-1.8 1.6-2.3.4-.3.9-.5 1.4-.5 1.4-.2 2.9.4 3.8 1.7 1.1 1.7.6 4-1.1 5.2-.2.1-.4.3-.7.3-.9.4-1.9.3-2.8-.1-.7-.4-1.3-.9-1.7-1.5zM176.7 568.5c1.7-1.1 4-.6 5.2 1.1 1.1 1.7.6 4-1.1 5.2-1.7 1.1-4 .6-5.2-1.1-1.1-1.8-.6-4.1 1.1-5.2zM151 562.9c1.7-1.1 4-.6 5.2 1.1 1.1 1.7.6 4-1.1 5.2-1.7 1.1-4 .6-5.2-1.1-1.2-1.8-.7-4.1 1.1-5.2zM171.1 594.2c1.7-1.1 4-.6 5.2 1.1 1.1 1.7.6 4-1.1 5.2-1.7 1.1-4 .6-5.2-1.1-1.1-1.7-.6-4 1.1-5.2zM182.3 542.7c1.7-1.1 4-.6 5.2 1.1 1.1 1.7.6 4-1.1 5.2-1.7 1.1-4 .6-5.2-1.1-1.1-1.8-.6-4.1 1.1-5.2zM202.5 574.1c1.7-1.1 4-.6 5.2 1.1 1.1 1.7.6 4-1.1 5.2-1.7 1.1-4 .6-5.2-1.1-1.1-1.8-.6-4.1 1.1-5.2zM169 619.7c.7.3 1.2.8 1.7 1.4.4.6.6 1.4.6 2.1 0 1-.4 1.9-1.1 2.6-.2.2-.4.3-.6.5-1.7 1.1-4 .6-5.2-1.1-.6-.9-.7-1.9-.5-2.8.2-.9.8-1.8 1.6-2.3.2-.1.4-.3.7-.3.9-.5 2-.5 2.8-.1zM208.1 548.3c.6-.4 1.4-.6 2.1-.6.5 0 1 .1 1.4.3.7.3 1.2.8 1.7 1.4.6.9.7 1.9.5 2.8 0 .2-.1.5-.2.7-.2.4-.5.8-.8 1.2-.2.2-.4.3-.6.5-1.7 1.1-4 .6-5.2-1.1-1.1-1.8-.6-4.1 1.1-5.2zM187.8 523.1c-.4-.3-.8-.6-1-1.1-.3-.4-.5-.9-.5-1.4 0-.2-.1-.5-.1-.7 0-.2 0-.5.1-.7.1-.5.3-.9.6-1.3s.6-.8 1.1-1c.4-.3.9-.5 1.4-.5.5-.1 1-.1 1.4 0 .9.2 1.8.8 2.3 1.6 1.1 1.7.6 4-1.1 5.2-.2.1-.4.3-.7.3-.2.1-.5.2-.7.2-.5.1-1 .1-1.4 0-.2-.1-.5-.1-.7-.2-.2-.1-.5-.2-.7-.4zM119.2 609.9c1.1 1.7.6 4-1.1 5.2-1.7 1.1-4 .6-5.2-1.1-1.1-1.7-.6-4 1.1-5.2 1.7-1.1 4-.6 5.2 1.1zM93.4 604.3c1.1 1.7.6 4-1.1 5.2-1.7 1.1-4 .6-5.2-1.1-1.1-1.7-.6-4 1.1-5.2 1.8-1.1 4.1-.6 5.2 1.1zM119.6 583c1.7-1.1 4-.6 5.2 1.1 1.1 1.7.6 4-1.1 5.2-1.7 1.1-4 .6-5.2-1.1-1.1-1.7-.6-4 1.1-5.2zM144.9 615.5c1.1 1.7.6 4-1.1 5.2-1.7 1.1-4 .6-5.2-1.1-1.1-1.7-.6-4 1.1-5.2 1.8-1.1 4.1-.6 5.2 1.1zM145.4 588.6c.4-.3.9-.5 1.4-.5 1.4-.2 2.9.4 3.8 1.7 1.1 1.7.6 4-1.1 5.2-.2.1-.4.3-.7.3-1.6.6-3.5.1-4.5-1.5-1.2-1.7-.7-4 1.1-5.2zM124.1 562.4c-.4-.6-.6-1.4-.6-2.1 0-.5.1-1 .3-1.4.2-.4.5-.8.8-1.2.2-.2.4-.3.6-.5 1.7-1.1 4-.6 5.2 1.1.3.4.5.9.5 1.4.2 1-.1 1.9-.6 2.7-.3.4-.6.8-1.1 1-.2.1-.4.3-.7.3-.7.3-1.4.3-2.1.2-.2 0-.5-.1-.7-.2-.6-.1-1.2-.6-1.6-1.3zM505.1 452.8c0 1.2-.6 2.4-1.7 3.1-1.5 1-3.5.7-4.7-.5-.2-.2-.3-.4-.5-.6-.1-.2-.3-.4-.3-.7-.2-.5-.3-.9-.3-1.4 0-1.2.6-2.4 1.7-3.1.2-.1.4-.3.7-.3.5-.2.9-.3 1.4-.2.5 0 1 .1 1.4.3.7.3 1.2.8 1.7 1.4.4.6.6 1.3.6 2zM484.9 420.7c0 .2.1.5.1.7 0 .7-.2 1.4-.6 2-.1.2-.3.4-.5.6-.2.2-.4.3-.6.5-.9.6-1.9.7-2.8.5-.9-.2-1.8-.8-2.3-1.6-.7-1.1-.8-2.4-.3-3.5.2-.4.5-.8.8-1.2.2-.2.4-.3.6-.5.6-.4 1.4-.6 2.1-.6.5 0 1 .1 1.4.3.7.3 1.2.8 1.7 1.4.1.5.3 1 .4 1.4zM529.6 434.6c-1-1.6-.7-3.6.7-4.8 1.5 2 3 3.9 4.6 5.8 0 0-.1 0-.1.1-1.8 1.1-4.1.6-5.2-1.1zM509.4 403.2c-.1-.2-.3-.4-.3-.7-.4-1.2-.3-2.4.4-3.4l.3-.3c.6 1 1.2 2 1.8 3.1l1.8 3c-1.5.3-3.1-.3-4-1.7zM503.8 429c-1.1-1.7-.6-4 1.1-5.2 1.7-1.1 4-.6 5.2 1.1 1.1 1.7.6 4-1.1 5.2-1.7 1.1-4 .6-5.2-1.1zM524 460.4c-1.1-1.7-.6-4 1.1-5.2 1.7-1.1 4-.6 5.2 1.1 1.1 1.7.6 4-1.1 5.2-1.8 1.1-4.1.6-5.2-1.1zM472 476.1c-1.7 1.1-4 .6-5.2-1.1-1.1-1.7-.6-4 1.1-5.2 1.7-1.1 4-.6 5.2 1.1 1.2 1.7.7 4-1.1 5.2zM452.9 443.7c-.3.4-.6.8-1.1 1-1.7 1.1-4 .6-5.2-1.1-.3-.4-.5-.9-.5-1.4-.1-.5-.1-1 0-1.4.1-.5.3-.9.6-1.3s.6-.8 1.1-1c.4-.3.9-.5 1.4-.5 1.4-.2 2.9.4 3.8 1.7.8 1.1.7 2.8-.1 4zM446.3 470.5c-1.7 1.1-4 .6-5.2-1.1-1.1-1.7-.6-4 1.1-5.2 1.7-1.1 4-.6 5.2 1.1 1.1 1.7.6 4.1-1.1 5.2zM462.4 495.6c1.7-1.1 4-.6 5.2 1.1 1.1 1.7.6 4-1.1 5.2-1.7 1.1-4 .6-5.2-1.1-1.1-1.8-.6-4.1 1.1-5.2zM477.6 450.3c-1.7 1.1-4 .6-5.2-1.1-1.1-1.7-.6-4 1.1-5.2 1.7-1.1 4-.6 5.2 1.1 1.2 1.8.7 4.1-1.1 5.2zM493.8 475.4c1.7-1.1 4-.6 5.2 1.1 1.1 1.7.6 4-1.1 5.2-1.7 1.1-4 .6-5.2-1.1-1.2-1.8-.7-4.1 1.1-5.2zM488.2 501.2c.9-.6 1.9-.7 2.8-.5.9.2 1.8.8 2.3 1.6 1.1 1.7.6 4-1.1 5.2-1.7 1.1-4 .6-5.2-1.1-1.1-1.8-.6-4.1 1.2-5.2zM405.3 510.1c1.7-1.1 4-.6 5.2 1.1 1.1 1.7.6 4-1.1 5.2-1.7 1.1-4 .6-5.2-1.1-1.2-1.7-.7-4 1.1-5.2zM379.5 504.5c1.7-1.1 4-.6 5.2 1.1 1.1 1.7.6 4-1.1 5.2-1.7 1.1-4 .6-5.2-1.1-1.1-1.7-.6-4 1.1-5.2zM399.7 535.9c1.7-1.1 4-.6 5.2 1.1 1.1 1.7.6 4-1.1 5.2-1.7 1.1-4 .6-5.2-1.1-1.2-1.8-.7-4.1 1.1-5.2zM410.9 484.4c1.7-1.1 4-.6 5.2 1.1 1.1 1.7.6 4-1.1 5.2-1.7 1.1-4 .6-5.2-1.1-1.2-1.8-.7-4.1 1.1-5.2zM431 515.7c1.7-1.1 4-.6 5.2 1.1 1.1 1.7.6 4-1.1 5.2-1.7 1.1-4 .6-5.2-1.1-1.1-1.7-.6-4.1 1.1-5.2zM425.5 541.5c.2-.1.4-.3.7-.3 1.6-.6 3.5-.1 4.5 1.5.4.7.6 1.4.6 2.1 0 1-.4 1.9-1.1 2.6-.2.2-.4.3-.6.5-.9.6-1.9.7-2.8.5-.9-.2-1.8-.8-2.3-1.6-1.3-1.9-.8-4.2 1-5.3zM435 492.3c.2-.9.8-1.8 1.6-2.3.4-.3.9-.5 1.4-.5 1.4-.2 2.9.4 3.8 1.7 1.1 1.7.6 4-1.1 5.2-1.7 1.1-4 .6-5.2-1.1-.5-1-.7-2.1-.5-3zM342.5 550.5c1.7-1.1 4-.6 5.2 1.1 1.1 1.7.6 4-1.1 5.2-1.7 1.1-4 .6-5.2-1.1-1.1-1.8-.6-4.1 1.1-5.2zM316.8 544.9c1.7-1.1 4-.6 5.2 1.1 1.1 1.7.6 4-1.1 5.2-1.7 1.1-4 .6-5.2-1.1-1.2-1.8-.7-4.1 1.1-5.2zM337 576.3c1.7-1.1 4-.6 5.2 1.1 1.1 1.7.6 4-1.1 5.2-1.7 1.1-4 .6-5.2-1.1-1.2-1.8-.7-4.1 1.1-5.2zM348.1 524.7c1.7-1.1 4-.6 5.2 1.1 1.1 1.7.6 4-1.1 5.2-1.7 1.1-4 .6-5.2-1.1-1.1-1.8-.6-4.1 1.1-5.2zM368.3 556.1c1.7-1.1 4-.6 5.2 1.1 1.1 1.7.6 4-1.1 5.2-1.7 1.1-4 .6-5.2-1.1-1.1-1.8-.6-4.1 1.1-5.2zM361.3 586.3c-.4-1.2-.3-2.4.4-3.4.3-.4.6-.8 1.1-1 1.7-1.1 4-.6 5.2 1.1.3.4.5.9.5 1.4.2 1-.1 1.9-.6 2.7-.3.4-.6.8-1.1 1-.2.1-.4.3-.7.3-.5.2-.9.3-1.4.2-1.2 0-2.4-.6-3.1-1.7-.1-.1-.3-.3-.3-.6zM373.9 530.3c.6-.4 1.4-.6 2.1-.6.5 0 1 .1 1.4.3.7.3 1.2.8 1.7 1.4.6.9.7 1.9.5 2.8-.1.2-.1.5-.2.7-.2.4-.5.8-.8 1.2-.2.2-.4.3-.6.5-1.7 1.1-4 .6-5.2-1.1-1.1-1.8-.6-4.1 1.1-5.2zM352.6 504.1c-.3-.4-.5-.9-.5-1.4 0-.2-.1-.5-.1-.7 0-.2 0-.5.1-.7.1-.5.3-.9.6-1.3s.6-.8 1.1-1c1.1-.7 2.4-.8 3.5-.3.7.3 1.2.8 1.7 1.4.8 1.3.8 2.9-.1 4.1-.3.4-.6.8-1.1 1-.2.1-.4.3-.7.3-.9.4-1.9.3-2.8-.1-.7-.2-1.3-.6-1.7-1.3zM279.8 590.8c1.7-1.1 4-.6 5.2 1.1 1.1 1.7.6 4-1.1 5.2-1.7 1.1-4 .6-5.2-1.1-1.1-1.7-.6-4 1.1-5.2zM254 585.2c1.7-1.1 4-.6 5.2 1.1 1.1 1.7.6 4-1.1 5.2-1.7 1.1-4 .6-5.2-1.1-1.1-1.7-.6-4 1.1-5.2zM279.4 617.7c1.1 1.7.6 4-1.1 5.2-1.7 1.1-4 .6-5.2-1.1-1.1-1.7-.6-4 1.1-5.2 1.8-1.1 4.1-.6 5.2 1.1zM285.4 565.1c1.7-1.1 4-.6 5.2 1.1 1.1 1.7.6 4-1.1 5.2-1.7 1.1-4 .6-5.2-1.1-1.1-1.8-.6-4.1 1.1-5.2zM305.6 596.4c1.7-1.1 4-.6 5.2 1.1 1.1 1.7.6 4-1.1 5.2-1.7 1.1-4 .6-5.2-1.1-1.1-1.7-.6-4 1.1-5.2zM302.8 621.7c.9.2 1.8.8 2.3 1.6 1.1 1.7.6 4-1.1 5.2-.4.3-.9.5-1.4.5-.5.1-1 .1-1.4 0-.5-.1-.9-.3-1.3-.6s-.8-.6-1-1.1c-.3-.4-.5-.9-.5-1.4-.1-.5-.1-1 0-1.4.1-.5.3-.9.6-1.3s.6-.8 1.1-1c.4-.3.9-.5 1.4-.5.4-.1.8-.1 1.3 0zM311.2 570.7c.4-.3.9-.5 1.4-.5 1.4-.2 2.9.4 3.8 1.7 1.1 1.7.6 4-1.1 5.2-.2.1-.4.3-.7.3-1.6.6-3.5.1-4.5-1.5-1.2-1.8-.7-4.1 1.1-5.2zM289.9 544.5c-.4-.6-.6-1.4-.6-2.1 0-1 .4-1.9 1.1-2.6.2-.2.4-.3.6-.5 1.7-1.1 4-.6 5.2 1.1.3.4.5.9.5 1.4.2 1 0 1.9-.6 2.7-.3.4-.6.8-1.1 1-.2.1-.4.3-.7.3-.9.4-1.9.3-2.8-.1-.6-.1-1.2-.6-1.6-1.2zM330.2 607.2c-.6-.9-.7-1.9-.5-2.8.2-.9.8-1.8 1.6-2.3 1.7-1.1 4-.6 5.2 1.1.3.4.5.9.5 1.4 0 .2.1.5.1.7 0 1-.4 1.9-1.1 2.6-.2.2-.4.3-.6.5-.9.6-1.9.7-2.8.5-.9-.3-1.8-.8-2.4-1.7zM222.2 632.3c.9 1.3.7 3-.1 4.2h-6c0-.1-.1-.1-.1-.2-1.1-1.7-.6-4 1.1-5.2 1.7-1 4-.5 5.1 1.2zM195.8 605c-.4-.6-.6-1.4-.6-2.1 0-1 .4-1.9 1.1-2.6.2-.2.4-.3.6-.5 1.7-1.1 4-.6 5.2 1.1.3.4.5.9.5 1.4.2 1-.1 1.9-.6 2.7-.3.4-.6.8-1.1 1-.2.1-.4.3-.7.3-.9.4-1.9.3-2.8-.1-.6-.1-1.2-.6-1.6-1.2zM196.5 626.7c1.1 1.7.6 4-1.1 5.2-1.7 1.1-4 .6-5.2-1.1-1.1-1.7-.6-4 1.1-5.2 1.7-1.1 4.1-.6 5.2 1.1zM222.7 605.4c1.7-1.1 4-.6 5.2 1.1 1.1 1.7.6 4-1.1 5.2-1.7 1.1-4 .6-5.2-1.1-1.1-1.8-.7-4.1 1.1-5.2zM244 636.3c.6-.1 1.2-.2 1.8 0H244zM246.7 614.1c0-1.2.6-2.4 1.7-3.1 1.7-1.1 4-.6 5.2 1.1 1.1 1.7.6 4-1.1 5.2-.2.1-.4.3-.7.3-.9.4-1.9.3-2.8-.1-.7-.3-1.2-.8-1.7-1.4-.4-.6-.6-1.3-.6-2zM227.2 584.8c-.1-.2-.3-.4-.3-.7-.2-.5-.3-.9-.2-1.4 0-1.2.6-2.4 1.7-3.1.2-.1.4-.3.7-.3.9-.4 1.9-.3 2.8.1.4.2.8.5 1.2.8.2.2.3.4.5.6.4.6.6 1.4.6 2.1 0 1.2-.6 2.4-1.7 3.1-1.5 1-3.5.7-4.7-.5-.3-.3-.5-.5-.6-.7zM571.1 492.2c1.7-1.1 4-.6 5.2 1.1 1.1 1.7.6 4-1.1 5.2-1.7 1.1-4 .6-5.2-1.1-1.1-1.8-.6-4.1 1.1-5.2zM551.5 467.4c-.7-.3-1.2-.8-1.7-1.4-.4-.6-.6-1.4-.6-2.1 0-1 .4-1.9 1.1-2.6.2-.2.4-.3.6-.5 1.7-1.1 4-.6 5.2 1.1.3.4.5.9.5 1.4.2 1 0 1.9-.6 2.7-.3.4-.6.8-1.1 1-.2.1-.4.3-.7.3-.9.5-1.9.4-2.7.1zM545.3 486.6c1.7-1.1 4-.6 5.2 1.1 1.1 1.7.6 4-1.1 5.2-1.7 1.1-4 .6-5.2-1.1-1.1-1.8-.6-4.1 1.1-5.2zM565.5 517.9c1.7-1.1 4-.6 5.2 1.1 1.1 1.7.6 4-1.1 5.2-1.7 1.1-4 .6-5.2-1.1-1.1-1.7-.6-4.1 1.1-5.2zM596.9 497.8c1.7-1.1 4-.6 5.2 1.1 1.1 1.7.6 4-1.1 5.2-1.7 1.1-4 .6-5.2-1.1-1.2-1.8-.7-4.1 1.1-5.2zM591.3 523.5c.4-.3.9-.5 1.4-.5 1.4-.2 2.9.4 3.8 1.7.3.4.5.9.5 1.4.2 1.2-.2 2.4-1.1 3.3-.2.2-.4.3-.6.5-.9.6-1.9.7-2.8.5-.9-.2-1.8-.8-2.3-1.6-1.2-1.8-.7-4.2 1.1-5.3zM508.4 532.5c1.7-1.1 4-.6 5.2 1.1 1.1 1.7.6 4-1.1 5.2-1.7 1.1-4 .6-5.2-1.1-1.2-1.8-.7-4.1 1.1-5.2zM482.6 526.9c1.7-1.1 4-.6 5.2 1.1 1.1 1.7.6 4-1.1 5.2-1.7 1.1-4 .6-5.2-1.1-1.1-1.8-.6-4.1 1.1-5.2zM502.8 558.3c1.7-1.1 4-.6 5.2 1.1 1.1 1.7.6 4-1.1 5.2-1.7 1.1-4 .6-5.2-1.1-1.2-1.8-.7-4.1 1.1-5.2zM513.9 506.7c1.7-1.1 4-.6 5.2 1.1 1.1 1.7.6 4-1.1 5.2-1.7 1.1-4 .6-5.2-1.1-1.1-1.7-.6-4 1.1-5.2zM534.1 538.1c1.7-1.1 4-.6 5.2 1.1 1.1 1.7.6 4-1.1 5.2-1.7 1.1-4 .6-5.2-1.1-1.1-1.8-.6-4.1 1.1-5.2zM527.1 568.4c-.4-1.2-.3-2.4.4-3.4.3-.4.6-.8 1.1-1 1.7-1.1 4-.6 5.2 1.1.3.4.5.9.5 1.4.2 1-.1 1.9-.6 2.7-.3.4-.6.8-1.1 1-1.7 1.1-4 .6-5.2-1.1-.1-.3-.2-.5-.3-.7zM539.7 512.3c.6-.4 1.4-.6 2.1-.6.5 0 1 .1 1.4.3.7.3 1.2.8 1.7 1.4.6.9.7 1.9.5 2.8-.1.2-.1.5-.2.7-.2.4-.5.8-.8 1.2-.2.2-.4.3-.6.5-1.7 1.1-4 .6-5.2-1.1-1.1-1.7-.6-4 1.1-5.2zM518.4 486.1c-.4-.6-.6-1.4-.6-2.1 0-1.2.6-2.4 1.7-3.1.2-.1.4-.3.7-.3.9-.4 1.9-.3 2.8.1.7.3 1.2.8 1.7 1.4.4.7.6 1.4.6 2.1 0 1-.4 1.9-1.1 2.6-.2.2-.4.3-.6.5-.2.1-.4.3-.7.3-.9.4-1.9.3-2.8-.1-.7-.2-1.3-.7-1.7-1.4zM445.6 572.9c1.7-1.1 4-.6 5.2 1.1 1.1 1.7.6 4-1.1 5.2-1.7 1.1-4 .6-5.2-1.1-1.1-1.8-.6-4.1 1.1-5.2zM419.9 567.3c1.7-1.1 4-.6 5.2 1.1 1.1 1.7.6 4-1.1 5.2-1.7 1.1-4 .6-5.2-1.1-1.2-1.8-.7-4.1 1.1-5.2zM440 598.6c1.7-1.1 4-.6 5.2 1.1 1.1 1.7.6 4-1.1 5.2-1.7 1.1-4 .6-5.2-1.1-1.1-1.7-.6-4 1.1-5.2zM451.2 547.1c1.7-1.1 4-.6 5.2 1.1 1.1 1.7.6 4-1.1 5.2-1.7 1.1-4 .6-5.2-1.1-1.1-1.8-.6-4.1 1.1-5.2zM471.4 578.5c1.7-1.1 4-.6 5.2 1.1 1.1 1.7.6 4-1.1 5.2-1.7 1.1-4 .6-5.2-1.1-1.1-1.8-.6-4.1 1.1-5.2zM475.3 555.7c0-.5.1-1 .3-1.4.3-.7.8-1.2 1.4-1.7.4-.3.9-.5 1.4-.5 1.4-.2 2.9.4 3.8 1.7 1.1 1.7.6 4-1.1 5.2-.2.1-.4.3-.7.3-1.6.6-3.5.1-4.5-1.5-.4-.6-.6-1.3-.6-2.1zM455.7 526.5c-.1-.2-.3-.4-.3-.7-.2-.5-.3-.9-.2-1.4 0-.7.2-1.4.6-2 .3-.4.6-.8 1.1-1 1.7-1.1 4-.6 5.2 1.1.3.4.5.9.5 1.4.2 1 0 1.9-.6 2.7-.3.4-.6.8-1.1 1-.2.1-.4.3-.7.3-.5.2-.9.3-1.4.2-.5 0-1-.1-1.4-.3-.7-.2-1.3-.7-1.7-1.3zM496 589.2c-.6-.9-.7-1.9-.5-2.8.1-.2.1-.5.2-.7.2-.4.5-.8.8-1.2.2-.2.4-.3.6-.5 1.7-1.1 4-.6 5.2 1.1.3.4.5.9.5 1.4 0 .2.1.5.1.7 0 .7-.2 1.4-.6 2-.1.2-.3.4-.5.6-.2.2-.4.3-.6.5-.9.6-1.9.7-2.8.5-.9-.2-1.8-.7-2.4-1.6zM353.6 632.8c.5 0 1 .1 1.4.3.7.3 1.2.8 1.7 1.4.4.6.6 1.4.6 2.1 0 1.2-.6 2.3-1.7 3h-.1c-1.6-.2-3.1-.4-4.7-.6-.1-.2-.3-.3-.4-.5-.4-.6-.6-1.4-.6-2.1 0-1.2.6-2.4 1.7-3.1.2-.1.4-.3.7-.3.5-.1 1-.2 1.4-.2zM382.9 613.2c1.7-1.1 4-.6 5.2 1.1 1.1 1.7.6 4-1.1 5.2-1.7 1.1-4 .6-5.2-1.1-1.1-1.8-.6-4.1 1.1-5.2zM357.1 607.6c1.7-1.1 4-.6 5.2 1.1 1.1 1.7.6 4-1.1 5.2-1.7 1.1-4 .6-5.2-1.1-1.1-1.8-.6-4.1 1.1-5.2zM382.5 640.1c.8 1.3.8 2.9 0 4.1-.8-.2-1.6-.3-2.3-.5-1.5-.3-3-.6-4.4-.8-.3-1.4.3-3 1.6-3.8 1.6-1.2 3.9-.7 5.1 1zM388.5 587.5c1.7-1.1 4-.6 5.2 1.1 1.1 1.7.6 4-1.1 5.2-1.7 1.1-4 .6-5.2-1.1-1.1-1.8-.6-4.1 1.1-5.2zM408.7 618.8c1.7-1.1 4-.6 5.2 1.1 1.1 1.7.6 4-1.1 5.2-1.7 1.1-4 .6-5.2-1.1-1.2-1.8-.7-4.1 1.1-5.2zM408.2 645.7c.3.4.5.9.5 1.4.2 1 0 1.9-.6 2.7-.2.3-.5.6-.8.8-1.6-.5-3.1-.9-4.7-1.4-.4-.1-.7-.2-1.1-.3-.1-.4-.2-.9-.2-1.3 0-1 .4-1.9 1.1-2.6.2-.2.4-.3.6-.5 1.8-1 4.1-.5 5.2 1.2zM413.1 598.2c-.4-.6-.6-1.4-.6-2.1 0-1.2.6-2.4 1.7-3.1 1.7-1.1 4-.6 5.2 1.1 1.1 1.7.6 4-1.1 5.2-.2.1-.4.3-.7.3-.9.4-1.9.3-2.8-.1-.7-.2-1.2-.7-1.7-1.3zM393 566.8c-.1-.2-.3-.4-.3-.7-.2-.5-.3-.9-.3-1.4 0-1.2.6-2.4 1.7-3.1.2-.1.4-.3.7-.3.7-.3 1.4-.3 2.1-.2.9.2 1.8.8 2.3 1.6.4.6.6 1.4.6 2.1 0 1.2-.6 2.4-1.7 3.1-1.5 1-3.5.7-4.7-.5-.1-.2-.3-.3-.4-.6zM434.4 624.4c.6-.4 1.4-.6 2.1-.6.5 0 1 .1 1.4.3.4.2.8.5 1.2.8.2.2.3.4.5.6.3.4.5.9.5 1.4.1.5.1 1 0 1.4-.1.5-.3.9-.6 1.3s-.6.8-1.1 1c-.9.6-1.9.7-2.8.5-.9-.2-1.8-.8-2.3-1.6-1.1-1.7-.6-4 1.1-5.1zM330.9 628.9c1.1 1.7.6 4-1.1 5.2-1.7 1.1-4 .6-5.2-1.1-1.1-1.7-.6-4 1.1-5.2 1.8-1.1 4.1-.6 5.2 1.1zM668.6 540.3c1.7-1.1 4-.6 5.2 1.1 1.1 1.7.6 4-1.1 5.2-1.7 1.1-4 .6-5.2-1.1-1.2-1.8-.7-4.1 1.1-5.2zM694.3 545.9c1.1-.7 2.4-.8 3.5-.3.4.2.8.5 1.2.8.2.2.3.4.5.6 1.1 1.7.6 4-1.1 5.2-1.7 1.1-4 .6-5.2-1.1-1.1-1.8-.6-4.1 1.1-5.2zM611.4 554.9c1.7-1.1 4-.6 5.2 1.1 1.1 1.7.6 4-1.1 5.2-1.7 1.1-4 .6-5.2-1.1-1.1-1.8-.6-4.1 1.1-5.2zM585.7 549.3c1.7-1.1 4-.6 5.2 1.1 1.1 1.7.6 4-1.1 5.2-1.7 1.1-4 .6-5.2-1.1-1.2-1.8-.7-4.1 1.1-5.2zM605.8 580.7c1.7-1.1 4-.6 5.2 1.1 1.1 1.7.6 4-1.1 5.2-1.7 1.1-4 .6-5.2-1.1-1.1-1.8-.6-4.1 1.1-5.2zM617 529.1c1.7-1.1 4-.6 5.2 1.1 1.1 1.7.6 4-1.1 5.2-1.7 1.1-4 .6-5.2-1.1-1.1-1.8-.6-4.1 1.1-5.2zM637.2 560.5c1.7-1.1 4-.6 5.2 1.1 1.1 1.7.6 4-1.1 5.2-1.7 1.1-4 .6-5.2-1.1-1.1-1.8-.6-4.1 1.1-5.2zM631.6 586.3c.2-.1.4-.3.7-.3.9-.4 1.9-.3 2.8.1.7.3 1.2.8 1.7 1.4.8 1.3.8 2.9-.1 4.1-.3.4-.6.8-1.1 1-1.7 1.1-4 .6-5.2-1.1-1-1.8-.5-4.1 1.2-5.2zM642.8 534.7c.4-.3.9-.5 1.4-.5 1.4-.2 2.9.4 3.8 1.7 1.1 1.7.6 4-1.1 5.2-.2.1-.4.3-.7.3-1.6.6-3.5.1-4.5-1.5-1.1-1.8-.6-4.1 1.1-5.2zM621.5 508.5c-.1-.2-.3-.4-.3-.7-.2-.5-.3-.9-.2-1.4 0-.2 0-.4.1-.7.9.5 1.8.9 2.7 1.3.6.3 1.2.6 1.9.9.6.3 1.2.6 1.9.9-.2.3-.5.5-.8.7-.2.1-.4.3-.7.3-.5.2-.9.3-1.4.2-.5 0-1-.1-1.4-.3-.8-.1-1.4-.5-1.8-1.2zM661.9 571.2c-.4-.6-.6-1.4-.6-2.1 0-.2 0-.5.1-.7.2-.7.5-1.4 1-1.9.2-.2.4-.3.6-.5 1.7-1.1 4-.6 5.2 1.1.3.4.5.9.5 1.4 0 .2.1.5.1.7 0 .7-.2 1.4-.6 2-.1.2-.3.4-.5.6-.2.2-.4.3-.6.5-1.8 1.2-4.1.7-5.2-1.1zM548.7 595.2c1.7-1.1 4-.6 5.2 1.1 1.1 1.7.6 4-1.1 5.2-1.7 1.1-4 .6-5.2-1.1-1.1-1.7-.6-4 1.1-5.2zM522.9 589.7c1.7-1.1 4-.6 5.2 1.1 1.1 1.7.6 4-1.1 5.2-1.7 1.1-4 .6-5.2-1.1-1.1-1.8-.6-4.1 1.1-5.2zM543.1 621c1.7-1.1 4-.6 5.2 1.1 1.1 1.7.6 4-1.1 5.2-1.7 1.1-4 .6-5.2-1.1-1.1-1.8-.6-4.1 1.1-5.2zM554.3 569.5c1.7-1.1 4-.6 5.2 1.1 1.1 1.7.6 4-1.1 5.2-1.7 1.1-4 .6-5.2-1.1-1.1-1.8-.6-4.1 1.1-5.2zM574.5 600.8c1.7-1.1 4-.6 5.2 1.1 1.1 1.7.6 4-1.1 5.2-1.7 1.1-4 .6-5.2-1.1-1.2-1.7-.7-4 1.1-5.2zM567.8 631.8c-.4-.6-.6-1.4-.6-2.1 0-1 .4-1.9 1.1-2.6.2-.2.4-.3.6-.5 1.7-1.1 4-.6 5.2 1.1.3.4.5.9.5 1.4.2 1-.1 1.9-.6 2.7-.3.4-.6.8-1.1 1-.2.1-.4.3-.7.3-1.6.8-3.5.2-4.4-1.3zM579 580.2c-.4-.6-.6-1.4-.6-2.1 0-1.2.6-2.4 1.7-3.1 1.7-1.1 4-.6 5.2 1.1 1.1 1.7.6 4-1.1 5.2-.2.1-.4.3-.7.3-.9.4-1.9.3-2.8-.1-.7-.2-1.3-.6-1.7-1.3zM559.2 549.5c-.2-.2-.3-.4-.5-.6-.1-.2-.3-.4-.3-.7-.1-.2-.2-.5-.2-.7-.1-.5-.1-1 0-1.4.1-.5.3-.9.6-1.3s.6-.8 1.1-1c.2-.1.4-.3.7-.3.2-.1.5-.2.7-.2.5-.1 1-.1 1.4 0 .9.2 1.8.8 2.3 1.6.4.6.6 1.4.6 2.1 0 1.2-.6 2.4-1.7 3.1-.4.3-.9.5-1.4.5-.5.1-1 .1-1.4 0-.5-.1-.9-.3-1.3-.6-.2-.2-.4-.4-.6-.5zM600.2 606.4c.6-.4 1.4-.6 2.1-.6.5 0 1 .1 1.4.3.4.2.8.5 1.2.8.2.2.3.4.5.6.6.9.7 1.9.5 2.8-.2.9-.8 1.8-1.6 2.3-.9.6-1.9.7-2.8.5-.9-.2-1.8-.8-2.3-1.6-1.2-1.6-.7-4 1-5.1zM459.8 656.9c1.1 1.7.6 4-1.1 5.2-1.5 1-3.5.7-4.7-.5-.2-.2-.3-.4-.5-.6-.1-.2-.3-.4-.3-.7-.6-1.6-.1-3.5 1.5-4.5.4-.3.9-.5 1.4-.5 1.3-.3 2.8.3 3.7 1.6zM486 635.6c1.7-1.1 4-.6 5.2 1.1 1.1 1.7.6 4-1.1 5.2-1.7 1.1-4 .6-5.2-1.1-1.2-1.8-.7-4.1 1.1-5.2zM464.7 609.4c-.3-.4-.5-.9-.5-1.4-.1-.5-.1-1 0-1.4.1-.5.3-.9.6-1.3s.6-.8 1.1-1c.4-.3.9-.5 1.4-.5 1.4-.2 2.9.4 3.8 1.7 1.1 1.7.6 4-1.1 5.2-.4.3-.9.5-1.4.5-.5.1-1 .1-1.4 0-.5-.1-.9-.3-1.3-.6-.6-.4-.9-.8-1.2-1.2zM460.2 630c1.7-1.1 4-.6 5.2 1.1 1.1 1.7.6 4-1.1 5.2-1.7 1.1-4 .6-5.2-1.1-1.1-1.8-.6-4.1 1.1-5.2zM485.5 662.5c1.1 1.7.6 4-1.1 5.2-1.7 1.1-4 .6-5.2-1.1-1.1-1.7-.6-4 1.1-5.2 1.8-1.1 4.1-.6 5.2 1.1zM491.6 609.8c1.7-1.1 4-.6 5.2 1.1 1.1 1.7.6 4-1.1 5.2-1.7 1.1-4 .6-5.2-1.1-1.2-1.7-.7-4.1 1.1-5.2zM511.7 641.2c1.7-1.1 4-.6 5.2 1.1 1.1 1.7.6 4-1.1 5.2-1.7 1.1-4 .6-5.2-1.1-1.1-1.8-.6-4.1 1.1-5.2zM511.3 668.1c1.1 1.7.6 4-1.1 5.2-1.7 1.1-4 .6-5.2-1.1-1.1-1.7-.6-4 1.1-5.2.9-.6 1.9-.7 2.8-.5 1 .2 1.9.7 2.4 1.6zM516.2 620.6c-.4-.6-.6-1.4-.6-2.1 0-1.2.6-2.4 1.7-3.1.2-.1.4-.3.7-.3.5-.2.9-.3 1.4-.2.5 0 1 .1 1.4.3.7.3 1.2.8 1.7 1.4 1 1.5.7 3.5-.5 4.7-.2.2-.4.3-.6.5-.2.1-.4.3-.7.3-.9.4-1.9.3-2.8-.1-.7-.3-1.3-.8-1.7-1.4zM434 651.3c1.1 1.7.6 4-1.1 5.2-1.7 1.1-4 .6-5.2-1.1-1.1-1.7-.6-4 1.1-5.2 1.8-1.1 4.1-.6 5.2 1.1zM896 487.1c-.6-.9-.7-1.9-.5-2.8 2.4-.2 4.8-.3 7.2-.3.5 1.6-.1 3.3-1.5 4.3-1.8 1.1-4.1.6-5.2-1.2zM896.7 508.9c.4.7.6 1.4.6 2.1 0 1-.4 1.9-1.1 2.6-.2.2-.4.3-.6.5-.2.1-.4.3-.7.3-.9.4-1.9.3-2.8-.1-.4-.2-.8-.5-1.2-.8-.2-.2-.3-.4-.5-.6-.1-.2-.3-.4-.3-.7-.2-.5-.3-.9-.2-1.4 0-1.2.6-2.4 1.7-3.1.2-.1.4-.3.7-.3.9-.4 1.9-.3 2.8.1.6.2 1.2.7 1.6 1.4zM812.6 523c-.2.1-.4.3-.7.3-1.6.6-3.5.1-4.5-1.5-1.1-1.7-.6-4 1.1-5.2.4-.3.9-.5 1.4-.5 1.4-.2 2.9.4 3.8 1.7 1.2 1.8.7 4.1-1.1 5.2zM838.9 501.7c-1.1-1.7-.6-4 1.1-5.2 1.7-1.1 4-.6 5.2 1.1 1.1 1.7.6 4-1.1 5.2-1.8 1.2-4.1.7-5.2-1.1zM838.4 528.6c-1.7 1.1-4 .6-5.2-1.1-1.1-1.7-.6-4 1.1-5.2 1.7-1.1 4-.6 5.2 1.1 1.1 1.8.6 4.1-1.1 5.2zM869.8 508.4c-1.7 1.1-4 .6-5.2-1.1-1.1-1.7-.6-4 1.1-5.2 1.7-1.1 4-.6 5.2 1.1 1.1 1.8.6 4.1-1.1 5.2zM781.3 543.2c-1.7 1.1-4 .6-5.2-1.1-1.1-1.7-.6-4 1.1-5.2 1.7-1.1 4-.6 5.2 1.1 1.1 1.8.6 4.1-1.1 5.2zM755.5 537.6c-1.7 1.1-4 .6-5.2-1.1-1.1-1.7-.6-4 1.1-5.2 1.7-1.1 4-.6 5.2 1.1 1.1 1.8.6 4.1-1.1 5.2zM775.7 569c-1.7 1.1-4 .6-5.2-1.1-1.1-1.7-.6-4 1.1-5.2 1.7-1.1 4-.6 5.2 1.1 1.1 1.7.6 4-1.1 5.2zM782 516.7c2.2-.7 4.4-1.5 6.6-2.3 0 1.2-.6 2.4-1.7 3-1.6 1.1-3.7.7-4.9-.7zM807.1 548.8c-1.7 1.1-4 .6-5.2-1.1-1.1-1.7-.6-4 1.1-5.2 1.7-1.1 4-.6 5.2 1.1 1.1 1.8.6 4.1-1.1 5.2zM802.6 569.4c.4.6.6 1.4.6 2.1 0 1-.4 1.9-1.1 2.6-.2.2-.4.3-.6.5-.9.6-1.9.7-2.8.5-.9-.2-1.8-.8-2.3-1.6-1.1-1.7-.6-4 1.1-5.2.2-.1.4-.3.7-.3.9-.4 1.9-.3 2.8.1.6.2 1.2.7 1.6 1.3zM714.5 577.3c1.7-1.1 4-.6 5.2 1.1 1.1 1.7.6 4-1.1 5.2-1.7 1.1-4 .6-5.2-1.1-1.1-1.8-.6-4.1 1.1-5.2zM688.7 571.7c1.7-1.1 4-.6 5.2 1.1 1.1 1.7.6 4-1.1 5.2-1.7 1.1-4 .6-5.2-1.1-1.1-1.8-.6-4.1 1.1-5.2zM708.9 603c1.7-1.1 4-.6 5.2 1.1 1.1 1.7.6 4-1.1 5.2-1.7 1.1-4 .6-5.2-1.1-1.1-1.7-.6-4 1.1-5.2zM720.1 551.5c1.7-1.1 4-.6 5.2 1.1 1.1 1.7.6 4-1.1 5.2-1.7 1.1-4 .6-5.2-1.1-1.1-1.8-.6-4.1 1.1-5.2zM740.3 582.9c1.7-1.1 4-.6 5.2 1.1 1.1 1.7.6 4-1.1 5.2-1.7 1.1-4 .6-5.2-1.1-1.1-1.8-.6-4.1 1.1-5.2zM733.2 613.1c-.4-1.2-.3-2.4.4-3.4.3-.4.6-.8 1.1-1 1.7-1.1 4-.6 5.2 1.1.3.4.5.9.5 1.4.2 1-.1 1.9-.6 2.7-.3.4-.6.8-1.1 1-.2.1-.4.3-.7.3-.5.2-.9.3-1.4.3-.2 0-.5 0-.7-.1-.9-.2-1.8-.8-2.3-1.6-.2-.2-.3-.5-.4-.7zM744.8 562.2c-.4-.6-.6-1.4-.6-2.1 0-1.2.6-2.4 1.7-3.1 1.7-1.1 4-.6 5.2 1.1 1.1 1.7.6 4-1.1 5.2-.2.1-.4.3-.7.3-.9.4-1.9.3-2.8-.1-.7-.1-1.3-.6-1.7-1.3zM725.1 531.5c-.2-.2-.3-.4-.5-.6-.1-.2-.3-.4-.3-.7-.1-.2-.2-.5-.2-.7 0-.2-.1-.5-.1-.7 1.2-.1 2.3-.2 3.5-.2.3 0 .6 0 .8-.1 1-.1 2-.1 3.1-.2 0 .2.1.5.1.7 0 .7-.2 1.4-.6 2-.3.4-.6.8-1.1 1-1.6 1-3.5.7-4.7-.5zM766.1 588.5c.6-.4 1.4-.6 2.1-.6.2 0 .5 0 .7.1.2.1.5.1.7.2.7.3 1.2.8 1.7 1.4.6.9.7 1.9.5 2.8-.2.9-.8 1.8-1.6 2.3-.9.6-1.9.7-2.8.5-.9-.2-1.8-.8-2.3-1.6-1.3-1.7-.8-4 1-5.1zM651.8 617.6c1.7-1.1 4-.6 5.2 1.1 1.1 1.7.6 4-1.1 5.2-1.7 1.1-4 .6-5.2-1.1-1.1-1.8-.6-4.1 1.1-5.2zM626 612c1.7-1.1 4-.6 5.2 1.1 1.1 1.7.6 4-1.1 5.2-1.7 1.1-4 .6-5.2-1.1-1.1-1.7-.6-4.1 1.1-5.2zM646.2 643.4c1.7-1.1 4-.6 5.2 1.1 1.1 1.7.6 4-1.1 5.2-1.7 1.1-4 .6-5.2-1.1-1.1-1.8-.6-4.1 1.1-5.2zM657.4 591.9c1.7-1.1 4-.6 5.2 1.1 1.1 1.7.6 4-1.1 5.2-1.7 1.1-4 .6-5.2-1.1-1.2-1.8-.7-4.1 1.1-5.2zM677.6 623.2c1.7-1.1 4-.6 5.2 1.1 1.1 1.7.6 4-1.1 5.2-1.7 1.1-4 .6-5.2-1.1-1.2-1.8-.7-4.1 1.1-5.2zM682 602.6c-.4-.6-.6-1.4-.6-2.1 0-1.2.6-2.4 1.7-3.1.2-.1.4-.3.7-.3.5-.2.9-.3 1.4-.2.5 0 1 .1 1.4.3.7.3 1.2.8 1.7 1.4.4.6.6 1.4.6 2.1 0 1.2-.6 2.4-1.7 3.1-.2.1-.4.3-.7.3-.9.4-1.9.3-2.8-.1-.7-.3-1.2-.8-1.7-1.4zM589.1 658c1.7-1.1 4-.6 5.2 1.1 1.1 1.7.6 4-1.1 5.2-1.7 1.1-4 .6-5.2-1.1-1.2-1.8-.7-4.1 1.1-5.2zM563.3 652.4c1.7-1.1 4-.6 5.2 1.1 1.1 1.7.6 4-1.1 5.2-1.7 1.1-4 .6-5.2-1.1-1.1-1.8-.6-4.1 1.1-5.2zM583.5 683.7c1.7-1.1 4-.6 5.2 1.1 1.1 1.7.6 4-1.1 5.2-1.7 1.1-4 .6-5.2-1.1-1.2-1.7-.7-4 1.1-5.2zM594.7 632.2c1.7-1.1 4-.6 5.2 1.1 1.1 1.7.6 4-1.1 5.2-1.7 1.1-4 .6-5.2-1.1-1.2-1.8-.7-4.1 1.1-5.2zM614.8 663.6c1.7-1.1 4-.6 5.2 1.1 1.1 1.7.6 4-1.1 5.2-1.7 1.1-4 .6-5.2-1.1-1.1-1.8-.6-4.1 1.1-5.2zM609.2 689.3c1.7-1.1 4-.6 5.2 1.1.3.4.5.9.5 1.4.2 1.2-.2 2.4-1.1 3.3-.2.2-.4.3-.6.5-.9.6-1.9.7-2.8.5-.9-.2-1.8-.8-2.3-1.6-1.1-1.7-.6-4 1.1-5.2zM619.3 643c-.1-.2-.3-.4-.3-.7-.6-1.6-.1-3.5 1.5-4.5.4-.3.9-.5 1.4-.5 1.4-.2 2.9.4 3.8 1.7 1.1 1.7.6 4-1.1 5.2-1.5 1-3.5.7-4.7-.5-.3-.3-.5-.5-.6-.7zM531.5 699.4c1.1 1.7.6 4-1.1 5.2-1.7 1.1-4 .6-5.2-1.1-1.1-1.7-.6-4 1.1-5.2 1.8-1.1 4.1-.6 5.2 1.1zM505.7 693.8c.9 1.3.8 3-.1 4.2-2.1-1.4-4.1-2.7-6.2-4 .3-.5.7-.9 1.2-1.3 1.7-1.1 4-.6 5.1 1.1zM531.9 672.6c1.7-1.1 4-.6 5.2 1.1 1.1 1.7.6 4-1.1 5.2-1.7 1.1-4 .6-5.2-1.1-1.1-1.8-.6-4.1 1.1-5.2zM557.3 705c1.1 1.7.6 4-1.1 5.2-1.7 1.1-4 .6-5.2-1.1-1.1-1.7-.6-4 1.1-5.2 1.7-1.1 4-.6 5.2 1.1zM551.7 730.8c.3.4.4.9.5 1.3-.4-.3-.8-.6-1.1-.9-.9-.7-1.8-1.4-2.6-2.1 1.2 0 2.4.6 3.2 1.7zM556.1 680.5c.2-.9.8-1.8 1.6-2.3 1.7-1.1 4-.6 5.2 1.1.4.6.6 1.4.6 2.1 0 1-.4 1.9-1.1 2.6-.2.2-.4.3-.6.5-1.7 1.1-4 .6-5.2-1.1-.6-1-.7-2-.5-2.9zM536.4 651.9c-.4-.6-.6-1.4-.6-2.1 0-1.2.6-2.4 1.7-3.1.2-.1.4-.3.7-.3.2-.1.5-.2.7-.2.7-.1 1.5 0 2.1.2.7.3 1.2.8 1.7 1.4.4.6.6 1.4.6 2.1 0 1-.4 1.9-1.1 2.6-.2.2-.4.3-.6.5-.2.1-.4.3-.7.3-.9.4-1.9.3-2.8-.1-.7-.1-1.3-.6-1.7-1.3zM576.2 712.6c0-.2 0-.5.1-.7.1-.5.3-.9.6-1.3s.6-.8 1.1-1c.2-.1.4-.3.7-.3.2-.1.5-.2.7-.2.2 0 .5-.1.7-.1.2 0 .5 0 .7.1.2.1.5.1.7.2.7.3 1.2.8 1.7 1.4.4.6.6 1.4.6 2.1 0 1.2-.6 2.4-1.7 3.1-.2.1-.4.3-.7.3-.9.4-1.9.3-2.8-.1l-.6-.3c-.4-.3-.8-.6-1-1.1-.3-.4-.5-.9-.5-1.4-.3-.2-.3-.5-.3-.7zM999.1 509.5c-.8-1.2-.8-2.6-.1-3.8l6.6 3.3c-.3.6-.7 1.2-1.3 1.6-1.8 1.1-4.1.6-5.2-1.1zM917.4 543c-.2.9-.8 1.8-1.6 2.3-.2.1-.4.3-.7.3-.9.4-1.9.3-2.8-.1-.7-.3-1.2-.8-1.7-1.4-.4-.6-.6-1.4-.6-2.1 0-1.2.6-2.4 1.7-3.1.4-.3.9-.5 1.4-.5 1.4-.2 2.9.4 3.8 1.7.5 1 .7 2 .5 2.9zM947.1 525.2c-1.7 1.1-4 .6-5.2-1.1-1.1-1.7-.6-4 1.1-5.2 1.7-1.1 4-.6 5.2 1.1 1.1 1.8.6 4.1-1.1 5.2zM923.4 494.1c-.7-.3-1.2-.8-1.7-1.4-.4-.6-.6-1.4-.6-2.1 0-1 .4-1.9 1.1-2.6.2-.2.4-.3.6-.5 1.7-1.1 4-.6 5.2 1.1.3.4.5.9.5 1.4.2 1-.1 1.9-.6 2.7-.3.4-.6.8-1.1 1-.2.1-.4.3-.7.3-.8.6-1.8.5-2.7.1zM921.3 519.6c-1.7 1.1-4 .6-5.2-1.1-1.1-1.7-.6-4 1.1-5.2 1.7-1.1 4-.6 5.2 1.1 1.2 1.8.6 4.1-1.1 5.2zM941.5 551c-1.7 1.1-4 .6-5.2-1.1-1.1-1.7-.6-4 1.1-5.2 1.7-1.1 4-.6 5.2 1.1 1.1 1.8.6 4.1-1.1 5.2zM947.5 498.3c-1.1-1.7-.6-4 1.1-5.2 1.7-1.1 4-.6 5.2 1.1 1.1 1.7.6 4-1.1 5.2-1.7 1.2-4.1.7-5.2-1.1zM972.9 530.8c-1.7 1.1-4 .6-5.2-1.1-1.1-1.7-.6-4 1.1-5.2 1.7-1.1 4-.6 5.2 1.1 1.1 1.8.6 4.1-1.1 5.2zM973.3 503.9c-.6-.9-.7-1.9-.5-2.8.2-.9.8-1.8 1.6-2.3.6-.4 1.4-.6 2.1-.6.5 0 1 .1 1.4.3.7.3 1.2.8 1.7 1.4.4.6.6 1.4.6 2.1 0 1-.4 1.9-1.1 2.6-.2.2-.4.3-.6.5-1.8 1.1-4.1.6-5.2-1.2zM854.1 580.6c.4.6.6 1.4.6 2.1 0 1.2-.6 2.4-1.7 3.1-.2.1-.4.3-.7.3-.9.4-1.9.3-2.8-.1-.7-.3-1.2-.8-1.7-1.4-.4-.6-.6-1.4-.6-2.1 0-1.2.6-2.4 1.7-3.1.2-.1.4-.3.7-.3.5-.2.9-.3 1.4-.2.5 0 1 .1 1.4.3.7.3 1.3.7 1.7 1.4zM834.5 550.6c0 .2.1.5.1.7 0 .7-.2 1.4-.6 2-.1.2-.3.4-.5.6-.2.2-.4.3-.6.5-.2.1-.4.3-.7.3-.5.2-.9.3-1.4.2-1.2 0-2.4-.6-3.1-1.7-.1-.2-.3-.4-.3-.7-.3-.7-.3-1.4-.2-2.1.1-.5.3-.9.6-1.3s.6-.8 1.1-1c1.7-1.1 4-.6 5.2 1.1.1.5.3.9.4 1.4zM884.4 565.6c-1.7 1.1-4 .6-5.2-1.1-1.1-1.7-.6-4 1.1-5.2 1.7-1.1 4-.6 5.2 1.1 1.1 1.7.6 4.1-1.1 5.2zM865.3 529c1.1 1.7.6 4-1.1 5.2-1.7 1.1-4 .6-5.2-1.1-1.1-1.7-.6-4 1.1-5.2.9-.6 1.9-.7 2.8-.5 1 .2 1.8.8 2.4 1.6zM858.6 560c-1.7 1.1-4 .6-5.2-1.1-1.1-1.7-.6-4 1.1-5.2 1.7-1.1 4-.6 5.2 1.1 1.1 1.8.6 4.1-1.1 5.2zM878.8 591.3c-1.7 1.1-4 .6-5.2-1.1-1.1-1.7-.6-4 1.1-5.2 1.7-1.1 4-.6 5.2 1.1 1.1 1.8.6 4.1-1.1 5.2zM890 539.8c-1.7 1.1-4 .6-5.2-1.1-1.1-1.7-.6-4 1.1-5.2 1.7-1.1 4-.6 5.2 1.1 1.1 1.8.6 4.1-1.1 5.2zM910.1 571.2c-1.7 1.1-4 .6-5.2-1.1-1.1-1.7-.6-4 1.1-5.2 1.7-1.1 4-.6 5.2 1.1 1.2 1.7.7 4-1.1 5.2zM821.6 605.9c-1.7 1.1-4 .6-5.2-1.1-1.1-1.7-.6-4 1.1-5.2 1.7-1.1 4-.6 5.2 1.1 1.2 1.8.7 4.1-1.1 5.2zM791.8 594.1c1.7-1.1 4-.6 5.2 1.1 1.1 1.7.6 4-1.1 5.2-1.7 1.1-4 .6-5.2-1.1-1.1-1.8-.6-4.1 1.1-5.2zM812 625.4c1.7-1.1 4-.6 5.2 1.1 1.1 1.7.6 4-1.1 5.2-1.7 1.1-4 .6-5.2-1.1-1.1-1.8-.6-4.1 1.1-5.2zM827.2 580.1c-1.7 1.1-4 .6-5.2-1.1-1.1-1.7-.6-4 1.1-5.2 1.7-1.1 4-.6 5.2 1.1 1.2 1.8.7 4.1-1.1 5.2zM847.4 611.5c-1.7 1.1-4 .6-5.2-1.1-1.1-1.7-.6-4 1.1-5.2 1.7-1.1 4-.6 5.2 1.1 1.1 1.8.6 4.1-1.1 5.2zM754.9 640c1.7-1.1 4-.6 5.2 1.1 1.1 1.7.6 4-1.1 5.2-1.7 1.1-4 .6-5.2-1.1-1.2-1.8-.7-4.1 1.1-5.2zM729.1 634.4c1.7-1.1 4-.6 5.2 1.1 1.1 1.7.6 4-1.1 5.2-1.7 1.1-4 .6-5.2-1.1-1.1-1.8-.6-4.1 1.1-5.2zM749.3 665.8c1.7-1.1 4-.6 5.2 1.1 1.1 1.7.6 4-1.1 5.2-1.7 1.1-4 .6-5.2-1.1-1.2-1.8-.7-4.1 1.1-5.2zM760.5 614.2c1.7-1.1 4-.6 5.2 1.1 1.1 1.7.6 4-1.1 5.2-1.7 1.1-4 .6-5.2-1.1-1.2-1.7-.7-4.1 1.1-5.2zM780.6 645.6c1.7-1.1 4-.6 5.2 1.1 1.1 1.7.6 4-1.1 5.2-1.7 1.1-4 .6-5.2-1.1-1.1-1.8-.6-4.1 1.1-5.2zM773.3 674.4c0-1 .4-1.9 1.1-2.6.2-.2.4-.3.6-.5 1.7-1.1 4-.6 5.2 1.1.3.4.5.9.5 1.4.2 1-.1 1.9-.6 2.7-.3.4-.6.8-1.1 1-.9.6-1.9.7-2.8.5-.9-.2-1.8-.8-2.3-1.6-.4-.5-.6-1.3-.6-2zM785.1 625c-.1-.2-.3-.4-.3-.7-.6-1.6-.1-3.5 1.5-4.5.4-.3.9-.5 1.4-.5 1.4-.2 2.9.4 3.8 1.7 1.1 1.7.6 4-1.1 5.2-1.5 1-3.5.7-4.7-.5-.3-.3-.4-.5-.6-.7zM692.1 680.4c1.7-1.1 4-.6 5.2 1.1 1.1 1.7.6 4-1.1 5.2-1.7 1.1-4 .6-5.2-1.1-1.1-1.8-.6-4.1 1.1-5.2zM670.8 654.1c-.3-.4-.5-.9-.5-1.4-.1-.5-.1-1 0-1.4.1-.5.3-.9.6-1.3s.6-.8 1.1-1c.4-.3.9-.5 1.4-.5.5-.1 1-.1 1.4 0 .9.2 1.8.8 2.3 1.6 1.1 1.7.6 4-1.1 5.2-.4.3-.9.5-1.4.5-.5.1-1 .1-1.4 0-.5-.1-.9-.3-1.3-.6s-.8-.6-1.1-1.1zM666.4 674.8c1.7-1.1 4-.6 5.2 1.1 1.1 1.7.6 4-1.1 5.2-1.7 1.1-4 .6-5.2-1.1-1.2-1.8-.7-4.1 1.1-5.2zM686.5 706.1c1.7-1.1 4-.6 5.2 1.1 1.1 1.7.6 4-1.1 5.2-1.7 1.1-4 .6-5.2-1.1-1.1-1.8-.6-4.1 1.1-5.2zM697.7 654.6c1.7-1.1 4-.6 5.2 1.1 1.1 1.7.6 4-1.1 5.2-1.7 1.1-4 .6-5.2-1.1-1.1-1.8-.6-4.1 1.1-5.2zM717.9 685.9c1.7-1.1 4-.6 5.2 1.1 1.1 1.7.6 4-1.1 5.2-1.7 1.1-4 .6-5.2-1.1-1.1-1.7-.6-4 1.1-5.2zM712.3 711.7c1.1-.7 2.4-.8 3.5-.3.4.2.8.5 1.2.8.2.2.3.4.5.6 1.1 1.7.6 4-1.1 5.2-1.7 1.1-4 .6-5.2-1.1-1.1-1.8-.6-4.1 1.1-5.2zM721.9 662.5c.2-.9.8-1.8 1.6-2.3 1.7-1.1 4-.6 5.2 1.1.4.6.6 1.4.6 2.1 0 1-.4 1.9-1.1 2.6-.2.2-.4.3-.6.5-1.7 1.1-4 .6-5.2-1.1-.6-.9-.7-1.9-.5-2.9zM702.2 634c-.4-.6-.6-1.4-.6-2.1 0-1.2.6-2.4 1.7-3.1.4-.3.9-.5 1.4-.5 1.4-.2 2.9.4 3.8 1.7.3.4.5.9.5 1.4.2 1.2-.2 2.4-1.1 3.3-.2.2-.4.3-.6.5-.2.1-.4.3-.7.3-.7.3-1.4.3-2.1.2-.2-.1-.5-.1-.7-.2-.6-.4-1.2-.9-1.6-1.5zM603.2 742c1.1 1.7.6 4-1.1 5.2-.2.1-.4.3-.7.3-.9.4-1.9.3-2.8-.1-.7-.3-1.2-.8-1.7-1.4-.4-.6-.6-1.4-.6-2.1 0-1.2.6-2.4 1.7-3.1 1.8-1 4.1-.5 5.2 1.2zM629.4 720.7c1.7-1.1 4-.6 5.2 1.1 1.1 1.7.6 4-1.1 5.2-1.7 1.1-4 .6-5.2-1.1-1.1-1.8-.6-4.1 1.1-5.2zM603.6 715.1c1.7-1.1 4-.6 5.2 1.1 1.1 1.7.6 4-1.1 5.2-1.7 1.1-4 .6-5.2-1.1-1.1-1.8-.6-4.1 1.1-5.2zM623.8 746.5c1.7-1.1 4-.6 5.2 1.1 1.1 1.7.6 4-1.1 5.2-1.7 1.1-4 .6-5.2-1.1-1.1-1.8-.6-4.1 1.1-5.2zM635 694.9c1.7-1.1 4-.6 5.2 1.1 1.1 1.7.6 4-1.1 5.2-1.7 1.1-4 .6-5.2-1.1-1.1-1.7-.6-4.1 1.1-5.2zM655.2 726.3c1.7-1.1 4-.6 5.2 1.1 1.1 1.7.6 4-1.1 5.2-1.7 1.1-4 .6-5.2-1.1-1.2-1.8-.7-4.1 1.1-5.2zM621.7 772c.4.2.8.5 1.2.8.2.2.3.4.5.6.4.6.6 1.4.6 2.1 0 .2 0 .5-.1.7-.1.2-.1.5-.2.7-.2.4-.5.8-.8 1.2-.2.2-.4.3-.6.5-1.7 1.1-4 .6-5.2-1.1-1.1-1.7-.6-4 1.1-5.2.6-.4 1.4-.6 2.1-.6.5 0 1 .1 1.4.3zM649.6 752.1c.2-.1.4-.3.7-.3.9-.4 1.9-.3 2.8.1.7.3 1.2.8 1.7 1.4.7 1.1.8 2.4.3 3.5l-.3.6c-.3.4-.6.8-1.1 1-1.7 1.1-4 .6-5.2-1.1-1.1-1.8-.6-4.1 1.1-5.2zM660.8 700.5c.6-.4 1.4-.6 2.1-.6.5 0 1 .1 1.4.3.7.3 1.2.8 1.7 1.4.6.9.7 1.9.5 2.8-.2.9-.8 1.8-1.6 2.3-.2.1-.4.3-.7.3-1.6.6-3.5.1-4.5-1.5-1.2-1.6-.7-3.9 1.1-5zM639.5 674.3c-.1-.2-.3-.4-.3-.7-.2-.5-.3-.9-.2-1.4 0-.7.2-1.4.6-2 .3-.4.6-.8 1.1-1 1.7-1.1 4-.6 5.2 1.1.3.4.5.9.5 1.4.2 1 0 1.9-.6 2.7-.3.4-.6.8-1.1 1-.2.1-.4.3-.7.3-.5.2-.9.3-1.4.3-.5 0-1-.1-1.4-.3-.7-.3-1.3-.7-1.7-1.4zM577.4 736.4c1.1 1.7.6 4-1.1 5.2-1.7 1.1-4 .6-5.2-1.1-1.1-1.7-.6-4 1.1-5.2 1.8-1.1 4.1-.6 5.2 1.1zM597.6 767.8c.7 1.1.8 2.5.2 3.6-1.8-1.6-3.5-3.2-5.3-4.8 1.8-1 4-.5 5.1 1.2zM1018.8 567.8c-.2.1-.4.3-.7.3-.9.4-1.9.3-2.8-.1-.7-.3-1.2-.8-1.7-1.4-.4-.6-.6-1.4-.6-2.1 0-1.2.6-2.4 1.7-3.1 1.7-1.1 4-.6 5.2 1.1 1.1 1.8.6 4.2-1.1 5.3zM1045 546.5c-1.1-1.7-.6-4 1.1-5.2 1.7-1.1 4-.6 5.2 1.1 1.1 1.7.6 4-1.1 5.2-1.8 1.1-4.1.6-5.2-1.1zM1019.2 540.9c-1.1-1.7-.6-4 1.1-5.2 1.7-1.1 4-.6 5.2 1.1 1.1 1.7.6 4-1.1 5.2-1.7 1.1-4 .6-5.2-1.1zM1039.4 572.2c-1.1-1.7-.6-4 1.1-5.2 1.7-1.1 4-.6 5.2 1.1 1.1 1.7.6 4-1.1 5.2-1.8 1.2-4.1.7-5.2-1.1zM1040.1 594c.3.4.5.9.5 1.4.1.5.1 1 0 1.4-.1.2-.1.5-.2.7l-.3.6c-.1.2-.3.4-.5.6-.2.2-.4.3-.6.5-1.7 1.1-4 .6-5.2-1.1-.4-.6-.6-1.4-.6-2.1 0-1 .4-1.9 1.1-2.6.2-.2.4-.3.6-.5.6-.4 1.4-.6 2.1-.6.5 0 1 .1 1.4.3.7.3 1.3.7 1.7 1.4zM956.1 608.1c-1.5 1-3.5.7-4.7-.5-.2-.2-.3-.4-.5-.6-.1-.2-.3-.4-.3-.7-.6-1.6-.1-3.5 1.5-4.5 1.7-1.1 4-.6 5.2 1.1 1 1.8.5 4.1-1.2 5.2zM937 571.6c1.1 1.7.6 4-1.1 5.2-.4.3-.9.5-1.4.5-.5.1-1 .1-1.4 0-.5-.1-.9-.3-1.3-.6s-.8-.6-1-1.1c-.3-.4-.5-.9-.5-1.4-.1-.5-.1-1 0-1.4.1-.5.3-.9.6-1.3s.6-.8 1.1-1c.4-.3.9-.5 1.4-.5.5-.1 1-.1 1.4 0 .8.2 1.7.7 2.2 1.6zM987.4 587.9c-1.7 1.1-4 .6-5.2-1.1-1.1-1.7-.6-4 1.1-5.2 1.7-1.1 4-.6 5.2 1.1 1.2 1.8.7 4.1-1.1 5.2zM968.9 552.8c.2 1.2-.2 2.4-1.1 3.3-.2.2-.4.3-.6.5-.9.6-1.9.7-2.8.5-.9-.2-1.8-.8-2.3-1.6-1.1-1.7-.6-4 1.1-5.2 1.7-1.1 4-.6 5.2 1.1.3.5.4.9.5 1.4zM961.7 582.3c-1.7 1.1-4 .6-5.2-1.1-1.1-1.7-.6-4 1.1-5.2 1.7-1.1 4-.6 5.2 1.1 1.1 1.8.6 4.1-1.1 5.2zM981.8 613.7c-1.7 1.1-4 .6-5.2-1.1-1.1-1.7-.6-4 1.1-5.2 1.7-1.1 4-.6 5.2 1.1 1.2 1.8.7 4.1-1.1 5.2zM993 562.2c-1.7 1.1-4 .6-5.2-1.1-1.1-1.7-.6-4 1.1-5.2 1.7-1.1 4-.6 5.2 1.1 1.2 1.8.7 4.1-1.1 5.2zM1013.2 593.5c-1.7 1.1-4 .6-5.2-1.1-1.1-1.7-.6-4 1.1-5.2 1.7-1.1 4-.6 5.2 1.1 1.1 1.8.6 4.1-1.1 5.2zM976.9 633.7c.2.2.3.4.5.6 1.1 1.7.6 4-1.1 5.2-.2.1-.4.3-.7.3-.9.4-1.9.3-2.8-.1-.7-.3-1.2-.8-1.7-1.4-.4-.6-.6-1.4-.6-2.1 0-1.2.6-2.4 1.7-3.1 1.1-.7 2.4-.8 3.5-.3.4.3.9.6 1.2.9zM1008.7 614.2c.8 1.3.8 2.9-.1 4.1-.3.4-.6.8-1.1 1-1.7 1.1-4 .6-5.2-1.1-1.1-1.7-.6-4 1.1-5.2.2-.1.4-.3.7-.3.9-.4 1.9-.3 2.8.1.8.2 1.4.7 1.8 1.4zM996.5 537c-1.2 0-2.4-.6-3.1-1.7-.1-.2-.3-.4-.3-.7-.2-.5-.3-.9-.2-1.4 0-.7.2-1.4.6-2 .3-.4.6-.8 1.1-1 .2-.1.4-.3.7-.3.5-.2.9-.3 1.4-.2.5 0 1 .1 1.4.3.7.3 1.2.8 1.7 1.4.3.4.5.9.5 1.4 0 .2.1.5.1.7 0 .7-.2 1.4-.6 2-.3.4-.6.8-1.1 1-.2.1-.4.3-.7.3-.5.1-1 .2-1.5.2zM895.1 645.4c0 1-.4 1.9-1.1 2.6-.2.2-.4.3-.6.5-1.7 1.1-4 .6-5.2-1.1-.6-.9-.7-1.9-.5-2.8.2-.9.8-1.8 1.6-2.3 1.7-1.1 4-.6 5.2 1.1.4.6.6 1.3.6 2zM874.8 613.3c.2 1-.1 1.9-.6 2.7-.3.4-.6.8-1.1 1-.2.1-.4.3-.7.3-.7.3-1.4.3-2.1.2-.2 0-.5-.1-.7-.2-.7-.3-1.2-.8-1.7-1.4-.4-.6-.6-1.4-.6-2.1 0-1.2.6-2.4 1.7-3.1.4-.3.9-.5 1.4-.5 1.4-.2 2.9.4 3.8 1.7.4.5.5 1 .6 1.4zM924.7 628.3c-1.7 1.1-4 .6-5.2-1.1-1.1-1.7-.6-4 1.1-5.2 1.7-1.1 4-.6 5.2 1.1 1.1 1.8.6 4.1-1.1 5.2zM906.2 593.2c.2 1-.1 1.9-.6 2.7-.3.4-.6.8-1.1 1-.9.6-1.9.7-2.8.5-.9-.2-1.8-.8-2.3-1.6-.1-.2-.3-.4-.3-.7-.4-1.2-.3-2.4.4-3.4.3-.4.6-.8 1.1-1 1.7-1.1 4-.6 5.2 1.1.1.4.3.9.4 1.4zM898.9 622.7c-1.7 1.1-4 .6-5.2-1.1-1.1-1.7-.6-4 1.1-5.2 1.7-1.1 4-.6 5.2 1.1 1.2 1.8.7 4.1-1.1 5.2zM919.1 654.1c-1.7 1.1-4 .6-5.2-1.1-1.1-1.7-.6-4 1.1-5.2 1.7-1.1 4-.6 5.2 1.1 1.2 1.7.6 4.1-1.1 5.2zM930.3 602.5c-1.7 1.1-4 .6-5.2-1.1-1.1-1.7-.6-4 1.1-5.2 1.7-1.1 4-.6 5.2 1.1 1.1 1.8.6 4.1-1.1 5.2zM950.5 633.9c-1.7 1.1-4 .6-5.2-1.1-1.1-1.7-.6-4 1.1-5.2 1.7-1.1 4-.6 5.2 1.1 1.1 1.8.6 4.1-1.1 5.2zM914.6 674.7c.4.6.6 1.4.6 2.1 0 .7-.2 1.4-.7 2-.3.4-.6.8-1.1 1-.2.1-.4.3-.7.3-.9.4-1.9.3-2.8-.1-.7-.3-1.2-.8-1.7-1.4-.4-.6-.6-1.4-.6-2.1 0-1.2.6-2.4 1.7-3.1.2-.1.4-.3.7-.3.5-.2.9-.3 1.4-.2.5 0 1 .1 1.4.3.8.4 1.4.8 1.8 1.5zM857.9 662.4c1.7-1.1 4-.6 5.2 1.1 1.1 1.7.6 4-1.1 5.2-1.7 1.1-4 .6-5.2-1.1-1.1-1.8-.6-4.1 1.1-5.2zM836.7 636.2c-.3-.4-.5-.9-.5-1.4-.1-.5-.1-1 0-1.4.1-.5.3-.9.6-1.3s.6-.8 1.1-1c.4-.3.9-.5 1.4-.5 1.4-.2 2.9.4 3.8 1.7 1.1 1.7.6 4-1.1 5.2-.4.3-.9.5-1.4.5-.5.1-1 .1-1.4 0-.5-.1-.9-.3-1.3-.6-.6-.4-1-.8-1.2-1.2zM832.2 656.8c1.7-1.1 4-.6 5.2 1.1 1.1 1.7.6 4-1.1 5.2-1.7 1.1-4 .6-5.2-1.1-1.2-1.8-.7-4.1 1.1-5.2zM852.4 688.1c1.7-1.1 4-.6 5.2 1.1 1.1 1.7.6 4-1.1 5.2-1.7 1.1-4 .6-5.2-1.1-1.2-1.7-.7-4 1.1-5.2zM867.6 642.9c-1.7 1.1-4 .6-5.2-1.1-1.1-1.7-.6-4 1.1-5.2 1.7-1.1 4-.6 5.2 1.1 1.1 1.8.6 4.1-1.1 5.2zM883.7 668c1.7-1.1 4-.6 5.2 1.1 1.1 1.7.6 4-1.1 5.2-1.7 1.1-4 .6-5.2-1.1-1.1-1.8-.6-4.1 1.1-5.2zM878.1 693.7c.9-.6 1.9-.7 2.8-.5.9.2 1.8.8 2.3 1.6 1.1 1.7.6 4-1.1 5.2-1.7 1.1-4 .6-5.2-1.1-1-1.7-.5-4 1.2-5.2zM795.2 702.7c1.7-1.1 4-.6 5.2 1.1 1.1 1.7.6 4-1.1 5.2-1.7 1.1-4 .6-5.2-1.1-1.1-1.7-.6-4.1 1.1-5.2zM769.5 697.1c1.7-1.1 4-.6 5.2 1.1 1.1 1.7.6 4-1.1 5.2-1.7 1.1-4 .6-5.2-1.1-1.2-1.7-.7-4.1 1.1-5.2zM789.6 728.5c1.7-1.1 4-.6 5.2 1.1 1.1 1.7.6 4-1.1 5.2-1.7 1.1-4 .6-5.2-1.1-1.1-1.8-.6-4.1 1.1-5.2zM800.8 677c1.7-1.1 4-.6 5.2 1.1 1.1 1.7.6 4-1.1 5.2-1.7 1.1-4 .6-5.2-1.1-1.1-1.8-.6-4.1 1.1-5.2zM821 708.3c1.7-1.1 4-.6 5.2 1.1 1.1 1.7.6 4-1.1 5.2-1.7 1.1-4 .6-5.2-1.1-1.1-1.8-.6-4.1 1.1-5.2zM815.4 734.1c.2-.1.4-.3.7-.3.9-.4 1.9-.3 2.8.1.7.3 1.2.8 1.7 1.4 1 1.5.7 3.5-.5 4.7-.2.2-.4.3-.6.5-.9.6-1.9.7-2.8.5-.9-.2-1.8-.8-2.3-1.6-1.2-1.9-.7-4.2 1-5.3zM826.6 682.6c.6-.4 1.4-.6 2.1-.6.5 0 1 .1 1.4.3.7.3 1.2.8 1.7 1.4.6.9.7 1.9.5 2.8-.2.9-.8 1.8-1.6 2.3-.9.6-1.9.7-2.8.5-.9-.2-1.8-.8-2.3-1.6-1.2-1.7-.7-4 1-5.1zM805.3 656.3c-.4-.6-.6-1.4-.6-2.1 0-1.2.6-2.4 1.7-3.1 1.1-.7 2.4-.8 3.5-.3.4.2.8.5 1.2.8.2.2.3.4.5.6.3.4.5.9.5 1.4.2 1-.1 1.9-.6 2.7-.3.4-.6.8-1.1 1-.2.1-.4.3-.7.3-.9.4-1.9.3-2.8-.1-.6 0-1.2-.5-1.6-1.2zM732.5 743.1c1.7-1.1 4-.6 5.2 1.1 1.1 1.7.6 4-1.1 5.2-1.7 1.1-4 .6-5.2-1.1-1.1-1.8-.6-4.1 1.1-5.2zM706.7 737.5c1.7-1.1 4-.6 5.2 1.1 1.1 1.7.6 4-1.1 5.2-1.7 1.1-4 .6-5.2-1.1-1.1-1.8-.6-4.1 1.1-5.2zM726.9 768.8c1.7-1.1 4-.6 5.2 1.1 1.1 1.7.6 4-1.1 5.2-1.7 1.1-4 .6-5.2-1.1-1.1-1.7-.6-4 1.1-5.2zM738.1 717.3c1.7-1.1 4-.6 5.2 1.1 1.1 1.7.6 4-1.1 5.2-1.7 1.1-4 .6-5.2-1.1-1.1-1.8-.6-4.1 1.1-5.2zM758.3 748.7c1.7-1.1 4-.6 5.2 1.1 1.1 1.7.6 4-1.1 5.2-1.7 1.1-4 .6-5.2-1.1-1.2-1.8-.7-4.1 1.1-5.2zM751.2 778.9c-.4-1.2-.3-2.4.4-3.4.3-.4.6-.8 1.1-1 1.7-1.1 4-.6 5.2 1.1.3.4.5.9.5 1.4.2 1-.1 1.9-.6 2.7-.3.4-.6.8-1.1 1-.2.1-.4.3-.7.3-.5.2-.9.3-1.4.2-1.2 0-2.4-.6-3.1-1.7-.1-.1-.2-.3-.3-.6zM762.7 728.1c-.4-.6-.6-1.4-.6-2.1 0-1.2.6-2.4 1.7-3.1 1.7-1.1 4-.6 5.2 1.1 1.1 1.7.6 4-1.1 5.2-.2.1-.4.3-.7.3-.9.4-1.9.3-2.8-.1-.7-.2-1.2-.7-1.7-1.3zM742.6 696.7c-.3-.4-.5-.9-.5-1.4 0-.2-.1-.5-.1-.7 0-.2 0-.5.1-.7.1-.5.3-.9.6-1.3s.6-.8 1.1-1c.2-.1.4-.3.7-.3.5-.2.9-.3 1.4-.2.5 0 1 .1 1.4.3.7.3 1.2.8 1.7 1.4.4.7.6 1.4.6 2.1 0 .7-.2 1.4-.6 2-.3.4-.6.8-1.1 1-.2.1-.4.3-.7.3-.9.4-1.9.3-2.8-.1-.8-.3-1.4-.8-1.8-1.4zM784 754.3c.6-.4 1.4-.6 2.1-.6.2 0 .5 0 .7.1.2.1.5.1.7.2.7.3 1.2.8 1.7 1.4.4.6.6 1.4.6 2.1 0 .2 0 .5-.1.7-.1.2-.1.5-.2.7-.2.4-.5.8-.8 1.2-.2.2-.4.3-.6.5-1.7 1.1-4 .6-5.2-1.1-1.1-1.8-.6-4.1 1.1-5.2zM640.5 803c.5 0 1 .1 1.4.3.7.3 1.2.8 1.7 1.4.4.6.6 1.4.6 2.1 0 1.2-.6 2.4-1.7 3.1-1 .6-2.2.7-3.2.4-.8-.7-1.5-1.5-2.3-2.2-.2-.5-.3-.9-.2-1.4 0-1.2.6-2.4 1.7-3.1.2-.1.4-.3.7-.3.3-.2.8-.3 1.3-.3zM669.8 783.4c1.7-1.1 4-.6 5.2 1.1 1.1 1.7.6 4-1.1 5.2-1.7 1.1-4 .6-5.2-1.1-1.2-1.7-.7-4.1 1.1-5.2zM649.1 779c1.1 1.7.6 4-1.1 5.2-1.7 1.1-4 .6-5.2-1.1-1.1-1.7-.6-4 1.1-5.2 1.8-1.2 4.1-.7 5.2 1.1zM669.3 810.3c1.1 1.7.6 4-1.1 5.2-1.7 1.1-4 .6-5.2-1.1-1.1-1.7-.6-4 1.1-5.2 1.8-1.1 4.1-.6 5.2 1.1zM675.4 757.7c1.7-1.1 4-.6 5.2 1.1 1.1 1.7.6 4-1.1 5.2-1.7 1.1-4 .6-5.2-1.1-1.2-1.8-.7-4.1 1.1-5.2zM695.5 789c1.7-1.1 4-.6 5.2 1.1 1.1 1.7.6 4-1.1 5.2-1.7 1.1-4 .6-5.2-1.1-1.1-1.8-.6-4.1 1.1-5.2zM692.7 814.3c.9.2 1.8.8 2.3 1.6 1.1 1.7.6 4-1.1 5.2-.4.3-.9.5-1.4.5-.5.1-1 .1-1.4 0-.5-.1-.9-.3-1.3-.6s-.8-.6-1-1.1c-.3-.4-.5-.9-.5-1.4-.1-.5-.1-1 0-1.4.1-.5.3-.9.6-1.3s.6-.8 1.1-1c.4-.3.9-.5 1.4-.5.4-.1.9-.1 1.3 0zM700 768.4c-.4-.6-.6-1.4-.6-2.1 0-1.2.6-2.4 1.7-3.1 1.7-1.1 4-.6 5.2 1.1 1.1 1.7.6 4-1.1 5.2-.2.1-.4.3-.7.3-.9.4-1.9.3-2.8-.1-.7-.2-1.3-.6-1.7-1.3zM679.8 737c-.4-.6-.6-1.4-.6-2.1 0-.2 0-.5.1-.7.2-.7.5-1.4 1-1.9.2-.2.4-.3.6-.5.4-.3.9-.5 1.4-.5 1.4-.2 2.9.4 3.8 1.7.3.4.5.9.5 1.4.2 1-.1 1.9-.6 2.7-.3.4-.6.8-1.1 1-1.5 1-3.5.7-4.7-.5-.1-.1-.2-.3-.4-.6zM720.2 799.8c-1.1-1.7-.6-4 1.1-5.2.4-.3.9-.5 1.4-.5 1.4-.2 2.9.4 3.8 1.7.3.4.5.9.5 1.4.2 1.2-.2 2.4-1.1 3.3-.2.2-.4.3-.6.5-.2.1-.4.3-.7.3-.7.3-1.4.3-2.1.2-.9-.3-1.8-.9-2.3-1.7zM1060.3 625.3c.4.6.6 1.4.6 2.1 0 1.2-.6 2.4-1.7 3.1-1.5 1-3.5.7-4.7-.5-.2-.2-.3-.4-.5-.6-.1-.2-.3-.4-.3-.7-.2-.5-.3-.9-.2-1.4 0-1.2.6-2.4 1.7-3.1.2-.1.4-.3.7-.3.5-.2.9-.3 1.4-.2.5 0 1 .1 1.4.3.6.2 1.2.7 1.6 1.3zM1085.4 609.2c-1.1-1.7-.6-4 1.1-5.2 1.7-1.1 4-.6 5.2 1.1 1.1 1.7.6 4-1.1 5.2-1.8 1.1-4.1.6-5.2-1.1zM1065.2 577.8c-1.1-1.7-.6-4 1.1-5.2 1.1-.7 2.4-.8 3.5-.3.4.2.8.5 1.2.8.2.2.3.4.5.6 1.1 1.7.6 4-1.1 5.2-1.8 1.2-4.1.7-5.2-1.1zM1064.8 604.7c-1.7 1.1-4 .6-5.2-1.1-1.1-1.7-.6-4 1.1-5.2 1.7-1.1 4-.6 5.2 1.1 1.1 1.8.6 4.1-1.1 5.2zM1084.9 636.1c-1.7 1.1-4 .6-5.2-1.1-1.1-1.7-.6-4 1.1-5.2 1.7-1.1 4-.6 5.2 1.1 1.2 1.8.7 4.1-1.1 5.2zM1091 583.4c-1.1-1.7-.6-4 1.1-5.2.2-.1.3-.2.5-.3 1.6 1.7 3.2 3.5 4.7 5.3-.3.5-.7.9-1.2 1.3-1.7 1.2-4 .7-5.1-1.1zM1111.1 614.8c-1.1-1.7-.6-4 1.1-5.2 1.7-1.1 4-.6 5.2 1.1 1.1 1.7.6 4-1.1 5.2-1.7 1.1-4 .6-5.2-1.1zM997.5 665.7c.6.9.7 1.9.5 2.8-.2.9-.7 1.8-1.6 2.3-.9.6-1.9.7-2.8.5-.9-.2-1.8-.8-2.3-1.6-1.1-1.7-.6-4 1.1-5.2.6-.4 1.4-.6 2.1-.6.5 0 1 .1 1.4.3.6.4 1.2.8 1.6 1.5zM1027.8 650.7c-1.7 1.1-4 .6-5.2-1.1-1.1-1.7-.6-4 1.1-5.2 1.7-1.1 4-.6 5.2 1.1 1.1 1.8.6 4.1-1.1 5.2zM1002 645.1c-1.7 1.1-4 .6-5.2-1.1-1.1-1.7-.6-4 1.1-5.2 1.7-1.1 4-.6 5.2 1.1 1.2 1.8.7 4.1-1.1 5.2zM1022.2 676.4c-1.7 1.1-4 .6-5.2-1.1-1.1-1.7-.6-4 1.1-5.2 1.7-1.1 4-.6 5.2 1.1 1.1 1.8.6 4.1-1.1 5.2zM1033.4 624.9c-1.7 1.1-4 .6-5.2-1.1-1.1-1.7-.6-4 1.1-5.2 1.7-1.1 4-.6 5.2 1.1 1.1 1.8.6 4.1-1.1 5.2zM1053.6 656.3c-1.7 1.1-4 .6-5.2-1.1-1.1-1.7-.6-4 1.1-5.2 1.7-1.1 4-.6 5.2 1.1 1.1 1.7.6 4.1-1.1 5.2zM933.7 711.2c-.2.1-.4.3-.7.3-.9.4-1.9.3-2.8-.1-.7-.3-1.2-.8-1.7-1.4-.4-.6-.6-1.4-.6-2.1 0-1.2.6-2.4 1.7-3.1 1.7-1.1 4-.6 5.2 1.1 1.1 1.9.6 4.2-1.1 5.3zM965.1 691c-1.7 1.1-4 .6-5.2-1.1-1.1-1.7-.6-4 1.1-5.2 1.7-1.1 4-.6 5.2 1.1 1.1 1.8.6 4.1-1.1 5.2zM946.5 655.9c.2 1 0 1.9-.6 2.7-.3.4-.6.8-1.1 1-.2.1-.4.3-.7.3-.9.4-1.9.3-2.8-.1-.7-.3-1.2-.8-1.7-1.4-.4-.6-.6-1.4-.6-2.1 0-1 .4-1.9 1.1-2.6.2-.2.4-.3.6-.5 1.7-1.1 4-.6 5.2 1.1.4.6.6 1.1.6 1.6zM939.3 685.4c-1.7 1.1-4 .6-5.2-1.1-1.1-1.7-.6-4 1.1-5.2 1.7-1.1 4-.6 5.2 1.1 1.1 1.8.6 4.1-1.1 5.2zM959.5 716.8c-1.7 1.1-4 .6-5.2-1.1-1.1-1.7-.6-4 1.1-5.2 1.7-1.1 4-.6 5.2 1.1 1.1 1.8.6 4.1-1.1 5.2zM970.7 665.3c-1.7 1.1-4 .6-5.2-1.1-1.1-1.7-.6-4 1.1-5.2 1.7-1.1 4-.6 5.2 1.1 1.1 1.7.6 4-1.1 5.2zM990.8 696.6c-1.7 1.1-4 .6-5.2-1.1-1.1-1.7-.6-4 1.1-5.2 1.7-1.1 4-.6 5.2 1.1 1.2 1.8.7 4.1-1.1 5.2zM898.3 725.1c1.7-1.1 4-.6 5.2 1.1 1.1 1.7.6 4-1.1 5.2-1.7 1.1-4 .6-5.2-1.1-1.1-1.8-.6-4.1 1.1-5.2zM872.5 719.5c1.7-1.1 4-.6 5.2 1.1 1.1 1.7.6 4-1.1 5.2-1.7 1.1-4 .6-5.2-1.1-1.1-1.8-.6-4.1 1.1-5.2zM892.7 750.9c1.7-1.1 4-.6 5.2 1.1 1.1 1.7.6 4-1.1 5.2-1.7 1.1-4 .6-5.2-1.1-1.1-1.8-.6-4.1 1.1-5.2zM903.9 699.3c1.7-1.1 4-.6 5.2 1.1 1.1 1.7.6 4-1.1 5.2-1.7 1.1-4 .6-5.2-1.1-1.1-1.7-.6-4.1 1.1-5.2zM924.1 730.7c1.7-1.1 4-.6 5.2 1.1 1.1 1.7.6 4-1.1 5.2-1.7 1.1-4 .6-5.2-1.1-1.2-1.8-.7-4.1 1.1-5.2zM917 760.9c-.4-1.2-.3-2.4.4-3.4.3-.4.6-.8 1.1-1 1.7-1.1 4-.6 5.2 1.1.3.4.5.9.5 1.4.2 1-.1 1.9-.6 2.7-.3.4-.6.8-1.1 1-1.7 1.1-4 .6-5.2-1.1-.1-.2-.2-.4-.3-.7zM835.6 765.5c1.7-1.1 4-.6 5.2 1.1 1.1 1.7.6 4-1.1 5.2-1.7 1.1-4 .6-5.2-1.1-1.2-1.8-.7-4.1 1.1-5.2zM809.8 759.9c1.7-1.1 4-.6 5.2 1.1 1.1 1.7.6 4-1.1 5.2-1.7 1.1-4 .6-5.2-1.1-1.1-1.8-.6-4.1 1.1-5.2zM830 791.2c1.7-1.1 4-.6 5.2 1.1 1.1 1.7.6 4-1.1 5.2-1.7 1.1-4 .6-5.2-1.1-1.2-1.8-.7-4.1 1.1-5.2zM841.2 739.7c1.7-1.1 4-.6 5.2 1.1 1.1 1.7.6 4-1.1 5.2-1.7 1.1-4 .6-5.2-1.1-1.2-1.8-.7-4.1 1.1-5.2zM861.3 771c1.7-1.1 4-.6 5.2 1.1 1.1 1.7.6 4-1.1 5.2-1.7 1.1-4 .6-5.2-1.1-1.1-1.7-.6-4 1.1-5.2zM865.8 750.4c-.4-.6-.6-1.4-.6-2.1 0-1.2.6-2.4 1.7-3.1 1.7-1.1 4-.6 5.2 1.1 1.1 1.7.6 4-1.1 5.2-.2.1-.4.3-.7.3-.9.4-1.9.3-2.8-.1-.7-.1-1.3-.6-1.7-1.3zM845.6 719.1c-.1-.2-.3-.4-.3-.7-.3-.7-.3-1.4-.2-2.1.1-.5.3-.9.6-1.3s.6-.8 1.1-1c.4-.3.9-.5 1.4-.5 1.4-.2 2.9.4 3.8 1.7.3.4.5.9.5 1.4.2 1-.1 1.9-.6 2.7-.3.4-.6.8-1.1 1-.2.1-.4.3-.7.3-.5.2-.9.3-1.4.3-1 0-1.9-.4-2.6-1.1-.2-.3-.3-.5-.5-.7zM886 781.8c-.7-1.1-.8-2.4-.3-3.5.2-.4.5-.8.8-1.2.2-.2.4-.3.6-.5.4-.3.9-.5 1.4-.5 1.4-.2 2.9.4 3.8 1.7.3.4.5.9.5 1.4.2 1-.1 1.9-.6 2.7-.3.4-.6.8-1.1 1-.2.1-.4.3-.7.3-.7.3-1.4.3-2.1.2-.9-.2-1.7-.7-2.3-1.6zM772.8 805.8c1.7-1.1 4-.6 5.2 1.1 1.1 1.7.6 4-1.1 5.2-1.7 1.1-4 .6-5.2-1.1-1.1-1.8-.6-4.1 1.1-5.2zM747.1 800.2c1.7-1.1 4-.6 5.2 1.1 1.1 1.7.6 4-1.1 5.2-1.7 1.1-4 .6-5.2-1.1-1.2-1.8-.7-4.1 1.1-5.2zM767.2 831.6c1.7-1.1 4-.6 5.2 1.1 1.1 1.7.6 4-1.1 5.2-1.7 1.1-4 .6-5.2-1.1-1.1-1.8-.6-4.1 1.1-5.2zM778.4 780c1.7-1.1 4-.6 5.2 1.1 1.1 1.7.6 4-1.1 5.2-1.7 1.1-4 .6-5.2-1.1-1.1-1.7-.6-4 1.1-5.2zM798.6 811.4c1.7-1.1 4-.6 5.2 1.1 1.1 1.7.6 4-1.1 5.2-1.7 1.1-4 .6-5.2-1.1-1.1-1.8-.6-4.1 1.1-5.2zM791.3 840.2c0-1 .4-1.9 1.1-2.6.2-.2.4-.3.6-.5 1.7-1.1 4-.6 5.2 1.1.3.4.5.9.5 1.4.2 1 0 1.9-.6 2.7-.3.4-.6.8-1.1 1-.9.6-1.9.7-2.8.5-.9-.2-1.8-.8-2.3-1.6-.4-.5-.6-1.3-.6-2zM803.1 790.8c-.1-.2-.3-.4-.3-.7-.2-.5-.3-.9-.2-1.4 0-1.2.6-2.4 1.7-3.1.2-.1.4-.3.7-.3.5-.2.9-.3 1.4-.2.5 0 1 .1 1.4.3.7.3 1.2.8 1.7 1.4.4.7.6 1.4.6 2.1 0 1.2-.6 2.4-1.7 3.1-1.5 1-3.5.7-4.7-.5-.3-.3-.5-.5-.6-.7zM715.3 847.3c1.1 1.7.6 4-1.1 5.2-1.7 1.1-4 .6-5.2-1.1-1.1-1.7-.6-4 1.1-5.2 1.7-1.2 4.1-.7 5.2 1.1zM689.5 841.7c1.1 1.7.6 4-1.1 5.2-1.7 1.1-4 .6-5.2-1.1-1.1-1.7-.6-4 1.1-5.2 1.8-1.1 4.1-.6 5.2 1.1zM709.7 873c.8 1.3.8 3-.1 4.2-1.8-1.6-3.7-3.3-5.5-5 .1-.1.3-.2.4-.3 1.8-1.1 4.1-.6 5.2 1.1zM715.7 820.4c1.7-1.1 4-.6 5.2 1.1 1.1 1.7.6 4-1.1 5.2-1.7 1.1-4 .6-5.2-1.1-1.1-1.8-.6-4.1 1.1-5.2zM735.9 851.8c1.7-1.1 4-.6 5.2 1.1 1.1 1.7.6 4-1.1 5.2-1.7 1.1-4 .6-5.2-1.1-1.1-1.8-.6-4.1 1.1-5.2zM733.8 877.2c.4.2.8.5 1.2.8.2.2.3.4.5.6 1.1 1.7.6 4-1.1 5.2-1.7 1.1-4 .6-5.2-1.1-1.1-1.7-.6-4 1.1-5.2 1.1-.7 2.4-.7 3.5-.3zM739.9 828.3c.2-.9.8-1.8 1.6-2.3.4-.3.9-.5 1.4-.5 1.4-.2 2.9.4 3.8 1.7 1.1 1.7.6 4-1.1 5.2-1.7 1.1-4 .6-5.2-1.1-.6-1-.8-2-.5-3zM1100.6 688.1c.6.9.7 1.9.5 2.8-.2.9-.8 1.8-1.6 2.3-1.7 1.1-4 .6-5.2-1.1-1.1-1.7-.6-4 1.1-5.2.6-.4 1.4-.6 2.1-.6.5 0 1 .1 1.4.3.7.3 1.3.8 1.7 1.5zM1081 658.1c.2 1.2-.2 2.4-1.1 3.3-.2.2-.4.3-.6.5-.2.1-.4.3-.7.3-.7.3-1.4.3-2.1.2-.2-.1-.5-.1-.7-.2-.7-.3-1.2-.8-1.7-1.4-.4-.6-.6-1.4-.6-2.1 0-1.2.6-2.4 1.7-3.1 1.7-1.1 4-.6 5.2 1.1.3.4.5.9.6 1.4zM1125.7 671.9c-1.1-1.7-.6-4 1.1-5.2 1.7-1.1 4-.6 5.2 1.1 1.1 1.7.6 4-1.1 5.2-1.8 1.2-4.1.7-5.2-1.1zM1108.6 642.3c-1.2 0-2.4-.6-3.1-1.7-.1-.2-.3-.4-.3-.7-.4-1.2-.3-2.4.4-3.4.3-.4.6-.8 1.1-1 1.7-1.1 4-.6 5.2 1.1.3.4.5.9.5 1.4.2 1-.1 1.9-.6 2.7-.3.4-.6.8-1.1 1-.2.1-.4.3-.7.3-.4.2-.9.3-1.4.3zM1105.1 667.5c-1.7 1.1-4 .6-5.2-1.1-1.1-1.7-.6-4 1.1-5.2 1.7-1.1 4-.6 5.2 1.1 1.1 1.7.6 4-1.1 5.2zM1125.3 698.8c-1.7 1.1-4 .6-5.2-1.1-1.1-1.7-.6-4 1.1-5.2 1.7-1.1 4-.6 5.2 1.1 1.1 1.8.6 4.1-1.1 5.2zM1131.3 646.2c-1.1-1.7-.6-4 1.1-5.2 1.7-1.1 4-.6 5.2 1.1 1.1 1.7.6 4-1.1 5.2-1.8 1.1-4.1.6-5.2-1.1zM1151.5 677.5c-1.1-1.7-.6-4 1.1-5.2 1.7-1.1 4-.6 5.2 1.1 1.1 1.7.6 4-1.1 5.2-1.8 1.2-4.1.7-5.2-1.1zM1120.8 719.4c.8 1.3.8 2.9-.1 4.1-.3.4-.6.8-1.1 1-1.5 1-3.5.7-4.7-.5-.2-.2-.3-.4-.5-.6-.1-.2-.3-.4-.3-.7-.1-.2-.2-.5-.2-.7-.1-.5-.1-1 0-1.4.1-.5.3-.9.6-1.3s.6-.8 1.1-1c.4-.3.9-.5 1.4-.5.7-.1 1.5 0 2.1.2.7.3 1.3.8 1.7 1.4zM1036.8 733.6c-.2.1-.4.3-.7.3-.9.4-1.9.3-2.8-.1-.7-.3-1.2-.8-1.7-1.4-.4-.6-.6-1.4-.6-2.1 0-1.2.6-2.4 1.7-3.1 1.7-1.1 4-.6 5.2 1.1 1.1 1.9.6 4.2-1.1 5.3zM1018.3 698.4c.2 1 0 1.9-.6 2.7-.3.4-.6.8-1.1 1-.2.1-.4.3-.7.3-.5.2-.9.3-1.4.2-1 0-1.9-.4-2.6-1.1-.2-.2-.3-.4-.5-.6-.1-.2-.3-.4-.3-.7-.3-.7-.3-1.4-.2-2.1.1-.5.3-.9.6-1.3s.6-.8 1.1-1c.4-.3.9-.5 1.4-.5 1.4-.2 2.9.4 3.8 1.7.2.5.4 1 .5 1.4zM1068.1 713.4c-1.7 1.1-4 .6-5.2-1.1-1.1-1.7-.6-4 1.1-5.2 1.7-1.1 4-.6 5.2 1.1 1.2 1.8.7 4.1-1.1 5.2zM1048 682c-.4.3-.9.5-1.4.5-.5.1-1 .1-1.4 0-.5-.1-.9-.3-1.3-.6s-.8-.6-1-1.1c-.3-.4-.5-.9-.5-1.4-.1-.5-.1-1 0-1.4.1-.5.3-.9.6-1.3s.6-.8 1.1-1c.4-.3.9-.5 1.4-.5.5-.1 1-.1 1.4 0 .9.2 1.8.8 2.3 1.6 1 1.8.5 4.1-1.2 5.2zM1042.4 707.8c-1.7 1.1-4 .6-5.2-1.1-1.1-1.7-.6-4 1.1-5.2 1.7-1.1 4-.6 5.2 1.1 1.1 1.8.6 4.1-1.1 5.2zM1062.6 739.2c-1.7 1.1-4 .6-5.2-1.1-1.1-1.7-.6-4 1.1-5.2 1.7-1.1 4-.6 5.2 1.1 1.1 1.7.6 4.1-1.1 5.2zM1073.7 687.6c-1.7 1.1-4 .6-5.2-1.1-1.1-1.7-.6-4 1.1-5.2 1.7-1.1 4-.6 5.2 1.1 1.2 1.8.7 4.1-1.1 5.2zM1093.9 719c-1.7 1.1-4 .6-5.2-1.1-1.1-1.7-.6-4 1.1-5.2 1.7-1.1 4-.6 5.2 1.1 1.1 1.8.6 4.1-1.1 5.2zM1089 739c.2.2.3.4.5.6 1.1 1.7.6 4-1.1 5.2-1.7 1.1-4 .6-5.2-1.1-1.1-1.7-.6-4 1.1-5.2 1.1-.7 2.4-.8 3.5-.3.4.2.8.5 1.2.8zM1005.4 753.8c-1.7 1.1-4 .6-5.2-1.1-1.1-1.7-.6-4 1.1-5.2 1.7-1.1 4-.6 5.2 1.1 1.1 1.7.6 4-1.1 5.2zM985.8 721.9c-.2.2-.4.3-.6.5-.9.6-1.9.7-2.8.5-.9-.2-1.8-.8-2.3-1.6-1.1-1.7-.6-4 1.1-5.2 1.7-1.1 4-.6 5.2 1.1.9 1.6.7 3.5-.6 4.7zM979.6 748.2c-1.7 1.1-4 .6-5.2-1.1-1.1-1.7-.6-4 1.1-5.2 1.7-1.1 4-.6 5.2 1.1 1.2 1.7.7 4-1.1 5.2zM995.8 773.2c1.7-1.1 4-.6 5.2 1.1 1.1 1.7.6 4-1.1 5.2-1.7 1.1-4 .6-5.2-1.1-1.1-1.7-.6-4 1.1-5.2zM1011 728c-1.7 1.1-4 .6-5.2-1.1-1.1-1.7-.6-4 1.1-5.2 1.7-1.1 4-.6 5.2 1.1 1.1 1.8.6 4.1-1.1 5.2zM1031.2 759.3c-1.7 1.1-4 .6-5.2-1.1-1.1-1.7-.6-4 1.1-5.2 1.7-1.1 4-.6 5.2 1.1 1.1 1.8.6 4.1-1.1 5.2zM1026.7 780c.8 1.3.8 2.9-.1 4.1-.3.4-.6.8-1.1 1-1.7 1.1-4 .6-5.2-1.1-1.1-1.7-.6-4 1.1-5.2.2-.1.4-.3.7-.3.9-.4 1.9-.3 2.8.1.8.2 1.4.7 1.8 1.4zM938.7 787.8c1.7-1.1 4-.6 5.2 1.1 1.1 1.7.6 4-1.1 5.2-1.7 1.1-4 .6-5.2-1.1-1.2-1.7-.7-4.1 1.1-5.2zM912.9 782.2c1.7-1.1 4-.6 5.2 1.1 1.1 1.7.6 4-1.1 5.2-1.7 1.1-4 .6-5.2-1.1-1.2-1.7-.7-4 1.1-5.2zM933.1 813.6c1.7-1.1 4-.6 5.2 1.1 1.1 1.7.6 4-1.1 5.2-1.7 1.1-4 .6-5.2-1.1-1.2-1.8-.7-4.1 1.1-5.2zM944.2 762.1c1.7-1.1 4-.6 5.2 1.1 1.1 1.7.6 4-1.1 5.2-1.7 1.1-4 .6-5.2-1.1-1.1-1.8-.6-4.1 1.1-5.2zM964.4 793.4c1.7-1.1 4-.6 5.2 1.1 1.1 1.7.6 4-1.1 5.2-1.7 1.1-4 .6-5.2-1.1-1.1-1.8-.6-4.1 1.1-5.2zM968.9 772.8c-.1-.2-.3-.4-.3-.7-.2-.5-.3-.9-.2-1.4 0-1.2.6-2.4 1.7-3.1.2-.1.4-.3.7-.3.5-.2.9-.3 1.4-.2.5 0 1 .1 1.4.3.7.3 1.2.8 1.7 1.4.4.6.6 1.4.6 2.1 0 1.2-.6 2.4-1.7 3.1-1.5 1-3.5.7-4.7-.5-.3-.3-.5-.5-.6-.7zM948.7 741.4c-.3-.4-.5-.9-.5-1.4-.1-.5-.1-1 0-1.4.1-.5.3-.9.6-1.3s.6-.8 1.1-1c.4-.3.9-.5 1.4-.5.2 0 .5-.1.7-.1.2 0 .5 0 .7.1.2.1.5.1.7.2.7.3 1.2.8 1.7 1.4.4.6.6 1.4.6 2.1 0 .2 0 .5-.1.7-.1.2-.1.5-.2.7-.2.4-.5.8-.8 1.2-.2.2-.4.3-.6.5-.4.3-.9.5-1.4.5-.5.1-1 .1-1.4 0-.5-.1-.9-.3-1.3-.6-.5-.3-.9-.6-1.2-1.1zM875.9 828.2c1.7-1.1 4-.6 5.2 1.1 1.1 1.7.6 4-1.1 5.2-1.7 1.1-4 .6-5.2-1.1-1.1-1.8-.6-4.1 1.1-5.2zM854.6 802c-.3-.4-.5-.9-.5-1.4-.1-.5-.1-1 0-1.4.1-.5.3-.9.6-1.3s.6-.8 1.1-1c.4-.3.9-.5 1.4-.5 1.4-.2 2.9.4 3.8 1.7 1.1 1.7.6 4-1.1 5.2-.4.3-.9.5-1.4.5-.5.1-1 .1-1.4 0-.5-.1-.9-.3-1.3-.6-.5-.4-.9-.8-1.2-1.2zM850.2 822.6c1.7-1.1 4-.6 5.2 1.1 1.1 1.7.6 4-1.1 5.2-1.7 1.1-4 .6-5.2-1.1-1.2-1.8-.7-4.1 1.1-5.2zM870.3 854c1.7-1.1 4-.6 5.2 1.1 1.1 1.7.6 4-1.1 5.2-1.7 1.1-4 .6-5.2-1.1-1.1-1.8-.6-4.1 1.1-5.2zM881.5 802.4c1.7-1.1 4-.6 5.2 1.1 1.1 1.7.6 4-1.1 5.2-1.7 1.1-4 .6-5.2-1.1-1.1-1.8-.6-4.1 1.1-5.2zM901.7 833.8c1.7-1.1 4-.6 5.2 1.1 1.1 1.7.6 4-1.1 5.2-1.7 1.1-4 .6-5.2-1.1-1.1-1.8-.6-4.1 1.1-5.2zM896.1 859.5c.4-.3.9-.5 1.4-.5 1.4-.2 2.9.4 3.8 1.7 1.1 1.7.6 4-1.1 5.2-1.7 1.1-4 .6-5.2-1.1-1.1-1.8-.6-4.1 1.1-5.3zM905.7 810.4c.2-.9.8-1.8 1.6-2.3.4-.3.9-.5 1.4-.5 1.4-.2 2.9.4 3.8 1.7.4.6.6 1.4.6 2.1 0 1-.4 1.9-1.1 2.6-.2.2-.4.3-.6.5-1.7 1.1-4 .6-5.2-1.1-.6-1.1-.7-2.1-.5-3zM813.2 868.5c1.7-1.1 4-.6 5.2 1.1 1.1 1.7.6 4-1.1 5.2-1.7 1.1-4 .6-5.2-1.1-1.1-1.7-.6-4 1.1-5.2zM787.4 862.9c1.7-1.1 4-.6 5.2 1.1 1.1 1.7.6 4-1.1 5.2-1.7 1.1-4 .6-5.2-1.1-1.1-1.7-.6-4 1.1-5.2zM807.6 894.3c1.7-1.1 4-.6 5.2 1.1 1.1 1.7.6 4-1.1 5.2-1.7 1.1-4 .6-5.2-1.1-1.1-1.8-.6-4.1 1.1-5.2zM818.8 842.8c1.7-1.1 4-.6 5.2 1.1 1.1 1.7.6 4-1.1 5.2-1.7 1.1-4 .6-5.2-1.1-1.1-1.8-.6-4.1 1.1-5.2zM839 874.1c1.7-1.1 4-.6 5.2 1.1 1.1 1.7.6 4-1.1 5.2-1.7 1.1-4 .6-5.2-1.1-1.2-1.7-.7-4.1 1.1-5.2zM807.2 921.2c.4.7.6 1.4.6 2.1 0 1-.4 1.9-1.1 2.6-.2.2-.4.3-.6.5-1.7 1.1-4 .6-5.2-1.1-.6-.9-.7-1.9-.5-2.8.2-.9.8-1.8 1.6-2.3.9-.6 1.9-.7 2.8-.5.9.1 1.8.6 2.4 1.5zM833.4 899.9c.2-.1.4-.3.7-.3.9-.4 1.9-.3 2.8.1.7.3 1.2.8 1.7 1.4.4.6.6 1.4.6 2.1 0 1-.4 1.9-1.1 2.6-.2.2-.4.3-.6.5-.9.6-1.9.7-2.8.5-.9-.2-1.8-.8-2.3-1.6-1.3-1.9-.8-4.2 1-5.3zM844.6 848.4c.6-.4 1.4-.6 2.1-.6.5 0 1 .1 1.4.3.7.3 1.2.8 1.7 1.4.6.9.7 1.9.5 2.8-.1.2-.1.5-.2.7-.2.4-.5.8-.8 1.2-.2.2-.4.3-.6.5-1.7 1.1-4 .6-5.2-1.1-1.2-1.8-.7-4.1 1.1-5.2zM823.3 822.1c-.4-.6-.6-1.4-.6-2.1 0-1.2.6-2.4 1.7-3.1 1.1-.7 2.4-.8 3.5-.3.4.2.8.5 1.2.8.2.2.3.4.5.6.3.4.5.9.5 1.4.2 1 0 1.9-.6 2.7-.3.4-.6.8-1.1 1-.2.1-.4.3-.7.3-.9.4-1.9.3-2.8-.1-.6 0-1.2-.5-1.6-1.2zM755.6 910c1.1 1.7.6 4-1.1 5.2 0 0-.1 0-.1.1-1.8-1.4-3.6-2.9-5.4-4.3.3-.8.8-1.5 1.5-2 1.7-1.2 4-.7 5.1 1zM761.2 884.2c1.1 1.7.6 4-1.1 5.2-1.7 1.1-4 .6-5.2-1.1-1.1-1.7-.6-4 1.1-5.2 1.8-1.1 4.1-.6 5.2 1.1zM781.4 915.6c1.1 1.7.6 4-1.1 5.2-1.7 1.1-4 .6-5.2-1.1-1.1-1.7-.6-4 1.1-5.2 1.8-1.1 4.1-.6 5.2 1.1zM781.8 888.7c.4-.3.9-.5 1.4-.5 1.4-.2 2.9.4 3.8 1.7 1.1 1.7.6 4-1.1 5.2-.2.1-.4.3-.7.3-1.6.6-3.5.1-4.5-1.5-1.1-1.8-.6-4.1 1.1-5.2zM760.5 862.5c-.3-.4-.5-.9-.5-1.4 0-.2-.1-.5-.1-.7 0-.2 0-.5.1-.7.1-.5.3-.9.6-1.3s.6-.8 1.1-1c1.1-.7 2.4-.8 3.5-.3.7.3 1.2.8 1.7 1.4.8 1.3.8 2.9-.1 4.1-.3.4-.6.8-1.1 1-.2.1-.4.3-.7.3-.9.4-1.9.3-2.8-.1-.7-.2-1.2-.6-1.7-1.3zM1139.9 756c-.2.1-.4.3-.7.3-.9.4-1.9.3-2.8-.1-.7-.3-1.2-.8-1.7-1.4-.4-.6-.6-1.4-.6-2.1 0-1.2.6-2.4 1.7-3.1 1.7-1.1 4-.6 5.2 1.1 1.1 1.8.6 4.1-1.1 5.3zM1166.1 734.7c-1.1-1.7-.6-4 1.1-5.2 1.7-1.1 4-.6 5.2 1.1 1.1 1.7.6 4-1.1 5.2-1.8 1.1-4.1.6-5.2-1.1zM1145.9 703.3c-.4-.6-.6-1.4-.6-2.1 0-1 .4-1.9 1.1-2.6.2-.2.4-.3.6-.5 1.7-1.1 4-.6 5.2 1.1.3.4.5.9.5 1.4.2 1-.1 1.9-.6 2.7-.3.4-.6.8-1.1 1-.9.6-1.9.7-2.8.5-.9-.1-1.7-.6-2.3-1.5zM1145.5 730.2c-1.7 1.1-4 .6-5.2-1.1-1.1-1.7-.6-4 1.1-5.2 1.7-1.1 4-.6 5.2 1.1 1.1 1.8.6 4.1-1.1 5.2zM1160.5 760.4c-1.1-1.7-.6-4 1.1-5.2 1.7-1.1 4-.6 5.2 1.1 1.1 1.7.6 4-1.1 5.2-1.8 1.2-4.1.7-5.2-1.1zM1171.7 708.9c-1.1-1.7-.6-4 1.1-5.2.5-.3 1-.5 1.5-.5 1 2.2 2 4.4 2.9 6.5-.1.1-.2.2-.4.3-1.7 1.1-4 .6-5.1-1.1zM1161.2 782.2c.6.9.7 1.9.5 2.8-.2.9-.8 1.8-1.6 2.3-.9.6-1.9.7-2.8.5-.9-.2-1.8-.8-2.3-1.6-1.1-1.7-.6-4 1.1-5.2.6-.4 1.4-.6 2.1-.6.2 0 .5 0 .7.1.2.1.5.1.7.2.6.3 1.1.8 1.6 1.5zM1077.1 796.3c-1.7 1.1-4 .6-5.2-1.1-.6-.9-.7-1.9-.5-2.8.2-.9.8-1.8 1.6-2.3.4-.3.9-.5 1.4-.5 1.4-.2 2.9.4 3.8 1.7 1.2 1.6.7 3.9-1.1 5zM1058.6 761.2c.2 1-.1 1.9-.6 2.7-.3.4-.6.8-1.1 1-.2.1-.4.3-.7.3-1.6.6-3.5.1-4.5-1.5-.4-.6-.6-1.4-.6-2.1 0-1 .4-1.9 1.1-2.6.2-.2.4-.3.6-.5.4-.3.9-.5 1.4-.5 1.4-.2 2.9.4 3.8 1.7.4.5.5 1 .6 1.5zM1108.5 776.1c-1.7 1.1-4 .6-5.2-1.1-1.1-1.7-.6-4 1.1-5.2 1.7-1.1 4-.6 5.2 1.1 1.1 1.8.6 4.1-1.1 5.2zM1082.7 770.5c-1.7 1.1-4 .6-5.2-1.1-1.1-1.7-.6-4 1.1-5.2 1.7-1.1 4-.6 5.2 1.1 1.2 1.8.7 4.1-1.1 5.2zM1102.9 801.9c-1.7 1.1-4 .6-5.2-1.1-1.1-1.7-.6-4 1.1-5.2 1.7-1.1 4-.6 5.2 1.1 1.1 1.8.6 4.1-1.1 5.2zM1114.1 750.4c-1.7 1.1-4 .6-5.2-1.1-1.1-1.7-.6-4 1.1-5.2 1.7-1.1 4-.6 5.2 1.1 1.1 1.7.6 4-1.1 5.2zM1134.3 781.7c-1.7 1.1-4 .6-5.2-1.1-1.1-1.7-.6-4 1.1-5.2 1.7-1.1 4-.6 5.2 1.1 1.1 1.8.6 4.1-1.1 5.2zM1041.7 810.2c1.7-1.1 4-.6 5.2 1.1 1.1 1.7.6 4-1.1 5.2-1.7 1.1-4 .6-5.2-1.1-1.1-1.8-.6-4.1 1.1-5.2zM1016 804.6c1.7-1.1 4-.6 5.2 1.1 1.1 1.7.6 4-1.1 5.2-1.7 1.1-4 .6-5.2-1.1-1.2-1.8-.7-4.1 1.1-5.2zM1036.1 836c1.7-1.1 4-.6 5.2 1.1 1.1 1.7.6 4-1.1 5.2-1.7 1.1-4 .6-5.2-1.1-1.1-1.8-.6-4.1 1.1-5.2zM1051.4 790.7c-1.7 1.1-4 .6-5.2-1.1-1.1-1.7-.6-4 1.1-5.2 1.7-1.1 4-.6 5.2 1.1 1.1 1.8.6 4.1-1.1 5.2zM1067.5 815.8c1.7-1.1 4-.6 5.2 1.1 1.1 1.7.6 4-1.1 5.2-1.7 1.1-4 .6-5.2-1.1-1.1-1.8-.6-4.1 1.1-5.2zM979 850.6c1.7-1.1 4-.6 5.2 1.1 1.1 1.7.6 4-1.1 5.2-1.7 1.1-4 .6-5.2-1.1-1.1-1.8-.6-4.1 1.1-5.2zM957.7 824.3c-.4-.6-.6-1.4-.6-2.1 0-1 .4-1.9 1.1-2.6.2-.2.4-.3.6-.5 1.7-1.1 4-.6 5.2 1.1.3.4.5.9.5 1.4.2 1-.1 1.9-.6 2.7-.3.4-.6.8-1.1 1-.2.1-.4.3-.7.3-.9.4-1.9.3-2.8-.1-.6 0-1.2-.5-1.6-1.2zM953.2 845c1.7-1.1 4-.6 5.2 1.1 1.1 1.7.6 4-1.1 5.2-1.7 1.1-4 .6-5.2-1.1-1.1-1.8-.6-4.1 1.1-5.2zM973.4 876.3c1.7-1.1 4-.6 5.2 1.1 1.1 1.7.6 4-1.1 5.2-1.7 1.1-4 .6-5.2-1.1-1.1-1.7-.6-4.1 1.1-5.2zM984.6 824.8c1.7-1.1 4-.6 5.2 1.1 1.1 1.7.6 4-1.1 5.2-1.7 1.1-4 .6-5.2-1.1-1.1-1.8-.6-4.1 1.1-5.2zM1004.8 856.2c1.7-1.1 4-.6 5.2 1.1 1.1 1.7.6 4-1.1 5.2-1.7 1.1-4 .6-5.2-1.1-1.2-1.8-.7-4.1 1.1-5.2zM999.2 881.9c1.7-1.1 4-.6 5.2 1.1.3.4.5.9.5 1.4.2 1.2-.2 2.4-1.1 3.3-.2.2-.4.3-.6.5-.9.6-1.9.7-2.8.5-.9-.2-1.8-.8-2.3-1.6-1.2-1.8-.7-4.1 1.1-5.2zM1010.4 830.4c.6-.4 1.4-.6 2.1-.6.5 0 1 .1 1.4.3.7.3 1.2.8 1.7 1.4.6.9.7 1.9.5 2.8-.1.2-.1.5-.2.7-.2.4-.5.8-.8 1.2-.2.2-.4.3-.6.5-1.7 1.1-4 .6-5.2-1.1-1.2-1.8-.7-4.1 1.1-5.2zM989.1 804.2c-.4-.6-.6-1.4-.6-2.1 0-1.2.6-2.4 1.7-3.1 1.1-.7 2.4-.8 3.5-.3.4.2.8.5 1.2.8.2.2.3.4.5.6 1.1 1.7.6 4-1.1 5.2-.2.1-.4.3-.7.3-.9.4-1.9.3-2.8-.1-.7-.2-1.3-.7-1.7-1.3zM916.3 890.9c1.7-1.1 4-.6 5.2 1.1 1.1 1.7.6 4-1.1 5.2-1.7 1.1-4 .6-5.2-1.1-1.2-1.8-.7-4.1 1.1-5.2zM890.5 885.3c1.7-1.1 4-.6 5.2 1.1 1.1 1.7.6 4-1.1 5.2-1.7 1.1-4 .6-5.2-1.1-1.1-1.8-.6-4.1 1.1-5.2zM910.7 916.7c1.7-1.1 4-.6 5.2 1.1 1.1 1.7.6 4-1.1 5.2-1.7 1.1-4 .6-5.2-1.1-1.2-1.8-.7-4.1 1.1-5.2zM921.9 865.1c1.7-1.1 4-.6 5.2 1.1 1.1 1.7.6 4-1.1 5.2-1.7 1.1-4 .6-5.2-1.1-1.2-1.7-.7-4 1.1-5.2zM942 896.5c1.7-1.1 4-.6 5.2 1.1 1.1 1.7.6 4-1.1 5.2-1.7 1.1-4 .6-5.2-1.1-1.1-1.8-.6-4.1 1.1-5.2zM935 926.8c-.4-1.2-.3-2.4.4-3.4.3-.4.6-.8 1.1-1 1.7-1.1 4-.6 5.2 1.1.3.4.5.9.5 1.4.2 1-.1 1.9-.6 2.7-.3.4-.6.8-1.1 1-1.7 1.1-4 .6-5.2-1.1-.1-.3-.2-.5-.3-.7zM947.6 870.7c.4-.3.9-.5 1.4-.5 1.4-.2 2.9.4 3.8 1.7 1.1 1.7.6 4-1.1 5.2-.2.1-.4.3-.7.3-1.6.6-3.5.1-4.5-1.5-1.1-1.7-.6-4 1.1-5.2zM926.3 844.5c-.4-.6-.6-1.4-.6-2.1 0-1.2.6-2.4 1.7-3.1.2-.1.4-.3.7-.3.9-.4 1.9-.3 2.8.1.7.3 1.2.8 1.7 1.4.8 1.3.8 2.9-.1 4.1-.3.4-.6.8-1.1 1-.2.1-.4.3-.7.3-.9.4-1.9.3-2.8-.1-.6-.1-1.1-.6-1.6-1.3zM824.3 950.8c.5 0 1 .1 1.4.3.7.3 1.2.8 1.7 1.4.4.6.6 1.4.6 2.1 0 1.2-.6 2.4-1.7 3.1-.2.1-.4.3-.7.3-.9.4-1.9.3-2.8-.1-.7-.3-1.2-.8-1.7-1.4-.4-.6-.6-1.4-.6-2.1 0-1.2.6-2.4 1.7-3.1.2-.1.4-.3.7-.3.4-.1.9-.2 1.4-.2zM853.5 931.3c1.7-1.1 4-.6 5.2 1.1 1.1 1.7.6 4-1.1 5.2-1.7 1.1-4 .6-5.2-1.1-1.1-1.8-.6-4.1 1.1-5.2zM827.8 925.7c1.7-1.1 4-.6 5.2 1.1 1.1 1.7.6 4-1.1 5.2-1.7 1.1-4 .6-5.2-1.1-1.2-1.8-.7-4.1 1.1-5.2zM853.1 958.2c1.1 1.7.6 4-1.1 5.2-1.7 1.1-4 .6-5.2-1.1-1.1-1.7-.6-4 1.1-5.2 1.8-1.2 4.1-.7 5.2 1.1zM859.1 905.5c1.7-1.1 4-.6 5.2 1.1 1.1 1.7.6 4-1.1 5.2-1.7 1.1-4 .6-5.2-1.1-1.1-1.8-.6-4.1 1.1-5.2zM879.3 936.9c1.7-1.1 4-.6 5.2 1.1 1.1 1.7.6 4-1.1 5.2-1.7 1.1-4 .6-5.2-1.1-1.1-1.8-.6-4.1 1.1-5.2zM878.9 963.7c1.1 1.7.6 4-1.1 5.2-.4.3-.9.5-1.4.5-.5.1-1 .1-1.4 0-.5-.1-.9-.3-1.3-.6s-.8-.6-1-1.1c-.3-.4-.5-.9-.5-1.4-.1-.5-.1-1 0-1.4.1-.5.3-.9.6-1.3s.6-.8 1.1-1c.4-.3.9-.5 1.4-.5 1.2-.3 2.7.3 3.6 1.6zM883.8 916.2c-.4-.6-.6-1.4-.6-2.1 0-1.2.6-2.4 1.7-3.1 1.7-1.1 4-.6 5.2 1.1 1.1 1.7.6 4-1.1 5.2-.2.1-.4.3-.7.3-.9.4-1.9.3-2.8-.1-.7-.1-1.3-.6-1.7-1.3zM863.6 884.9c-.1-.2-.3-.4-.3-.7-.4-1.2-.3-2.4.4-3.4.3-.4.6-.8 1.1-1 .2-.1.4-.3.7-.3 1.6-.6 3.5-.1 4.5 1.5.3.4.5.9.5 1.4 0 .2.1.5.1.7 0 .7-.2 1.4-.6 2-.3.4-.6.8-1.1 1-.2.1-.4.3-.7.3-.5.2-.9.3-1.4.2-1 0-1.9-.4-2.6-1.1-.3-.2-.4-.4-.6-.6zM904 947.6c-.7-1.1-.8-2.4-.3-3.5.2-.4.5-.8.8-1.2.2-.2.4-.3.6-.5.6-.4 1.4-.6 2.1-.6.5 0 1 .1 1.4.3.7.3 1.2.8 1.7 1.4.3.4.5.9.5 1.4.1.5.1 1 0 1.4-.1.5-.3.9-.6 1.3s-.6.8-1.1 1c-.9.6-1.9.7-2.8.5-.9-.1-1.8-.6-2.3-1.5zM801.6 947c.5.8.7 1.8.5 2.7-1.9-1.2-3.8-2.5-5.7-3.8l.1-.1c1.6-1.1 4-.6 5.1 1.2zM1186.2 766c-1.1-1.7-.6-4 1.1-5.2.2-.1.4-.3.7-.3.9-.4 1.9-.3 2.8.1.7.3 1.2.8 1.7 1.4.4.6.6 1.4.6 2.1 0 1-.4 1.9-1.1 2.6-.2.2-.4.3-.6.5-.9.6-1.9.7-2.8.5-.9-.3-1.8-.8-2.4-1.7zM1180.7 791.8c-1.1-1.7-.6-4 1.1-5.2 1.7-1.1 4-.6 5.2 1.1 1.1 1.7.6 4-1.1 5.2-1.8 1.1-4.1.6-5.2-1.1zM1200.8 823.2c-1.1-1.7-.6-4 1.1-5.2 1.7-1.1 4-.6 5.2 1.1 1.1 1.7.6 4-1.1 5.2-1.8 1.1-4.1.6-5.2-1.1zM1148.8 838.9c-1.7 1.1-4 .6-5.2-1.1-1.1-1.7-.6-4 1.1-5.2 1.7-1.1 4-.6 5.2 1.1 1.2 1.7.7 4-1.1 5.2zM1130.3 803.7c.2 1-.1 1.9-.6 2.7-.3.4-.6.8-1.1 1-.2.1-.4.3-.7.3-.5.2-.9.3-1.4.3-1.2 0-2.4-.6-3.1-1.7-.1-.2-.3-.4-.3-.7-.4-1.2-.3-2.4.4-3.4.3-.4.6-.8 1.1-1 .4-.3.9-.5 1.4-.5 1.4-.2 2.9.4 3.8 1.7.3.4.4.8.5 1.3zM1123.1 833.3c-1.7 1.1-4 .6-5.2-1.1-1.1-1.7-.6-4 1.1-5.2 1.7-1.1 4-.6 5.2 1.1 1.1 1.7.6 4.1-1.1 5.2zM1139.2 858.4c1.7-1.1 4-.6 5.2 1.1 1.1 1.7.6 4-1.1 5.2-1.7 1.1-4 .6-5.2-1.1-1.1-1.8-.6-4.1 1.1-5.2zM1154.4 813.1c-1.7 1.1-4 .6-5.2-1.1-1.1-1.7-.6-4 1.1-5.2 1.7-1.1 4-.6 5.2 1.1 1.2 1.8.7 4.1-1.1 5.2zM1174.6 844.5c-1.7 1.1-4 .6-5.2-1.1-1.1-1.7-.6-4 1.1-5.2 1.7-1.1 4-.6 5.2 1.1 1.2 1.7.6 4-1.1 5.2zM1163.3 867c0-1 .4-1.9 1.1-2.6.2-.2.4-.3.6-.5 1.7-1.1 4-.6 5.2 1.1.3.4.5.9.5 1.4.2 1 0 1.9-.6 2.7-.3.4-.6.8-1.1 1-.9.6-1.9.7-2.8.5-.9-.2-1.8-.8-2.3-1.6-.4-.5-.6-1.3-.6-2zM1175.5 818.2c-.2-.2-.3-.4-.5-.6-.1-.2-.3-.4-.3-.7-.6-1.6-.1-3.5 1.5-4.5.4-.3.9-.5 1.4-.5 1.4-.2 2.9.4 3.8 1.7 1.1 1.7.6 4-1.1 5.2-1.6.9-3.6.6-4.8-.6zM1082.1 872.9c1.7-1.1 4-.6 5.2 1.1 1.1 1.7.6 4-1.1 5.2-1.7 1.1-4 .6-5.2-1.1-1.1-1.7-.6-4 1.1-5.2zM1060.8 846.7c-.3-.4-.5-.9-.5-1.4-.1-.5-.1-1 0-1.4.1-.5.3-.9.6-1.3s.6-.8 1.1-1c1.7-1.1 4-.6 5.2 1.1 1.1 1.7.6 4-1.1 5.2-.4.3-.9.5-1.4.5-.5.1-1 .1-1.4 0-.5-.1-.9-.3-1.3-.6-.6-.3-.9-.6-1.2-1.1zM1056.3 867.3c1.7-1.1 4-.6 5.2 1.1 1.1 1.7.6 4-1.1 5.2-1.7 1.1-4 .6-5.2-1.1-1.1-1.7-.6-4 1.1-5.2zM1076.5 898.7c1.7-1.1 4-.6 5.2 1.1 1.1 1.7.6 4-1.1 5.2-1.7 1.1-4 .6-5.2-1.1-1.1-1.8-.6-4.1 1.1-5.2zM1087.7 847.2c1.7-1.1 4-.6 5.2 1.1 1.1 1.7.6 4-1.1 5.2-1.7 1.1-4 .6-5.2-1.1-1.2-1.8-.7-4.1 1.1-5.2zM1107.9 878.5c1.7-1.1 4-.6 5.2 1.1 1.1 1.7.6 4-1.1 5.2-1.7 1.1-4 .6-5.2-1.1-1.2-1.7-.7-4.1 1.1-5.2zM1102.3 904.3c1.1-.7 2.4-.8 3.5-.3.4.2.8.5 1.2.8.2.2.3.4.5.6 1.1 1.7.6 4-1.1 5.2-1.7 1.1-4 .6-5.2-1.1-1.2-1.8-.7-4.1 1.1-5.2zM1113.4 852.8c.4-.3.9-.5 1.4-.5 1.4-.2 2.9.4 3.8 1.7 1.1 1.7.6 4-1.1 5.2-.2.1-.4.3-.7.3-1.6.6-3.5.1-4.5-1.5-1.1-1.8-.6-4.1 1.1-5.2zM1092.2 826.6c-.4-.6-.6-1.4-.6-2.1 0-1.2.6-2.4 1.7-3.1 1.7-1.1 4-.6 5.2 1.1.3.4.5.9.5 1.4.2 1.2-.2 2.4-1.1 3.3-.2.2-.4.3-.6.5-.2.1-.4.3-.7.3-.7.3-1.4.3-2.1.2-.2-.1-.5-.1-.7-.2-.6-.3-1.2-.8-1.6-1.4zM1132 887.9c-.1-.5-.1-1 0-1.4.1-.5.3-.9.6-1.3s.6-.8 1.1-1c.4-.3.9-.5 1.4-.5.7-.1 1.5 0 2.1.2.7.3 1.2.8 1.7 1.4.4.7.6 1.4.6 2.1 0 .7-.2 1.4-.6 2-.1.2-.3.4-.5.6-.2.2-.4.3-.6.5-1.7 1.1-4 .6-5.2-1.1-.4-.6-.6-1-.6-1.5zM1019.4 913.3c1.7-1.1 4-.6 5.2 1.1 1.1 1.7.6 4-1.1 5.2-1.7 1.1-4 .6-5.2-1.1-1.2-1.8-.7-4.1 1.1-5.2zM993.6 907.7c1.7-1.1 4-.6 5.2 1.1 1.1 1.7.6 4-1.1 5.2-1.7 1.1-4 .6-5.2-1.1-1.1-1.8-.6-4.1 1.1-5.2zM1013.8 939.1c1.7-1.1 4-.6 5.2 1.1 1.1 1.7.6 4-1.1 5.2-1.7 1.1-4 .6-5.2-1.1-1.2-1.8-.7-4.1 1.1-5.2zM1025 887.5c1.7-1.1 4-.6 5.2 1.1 1.1 1.7.6 4-1.1 5.2-1.7 1.1-4 .6-5.2-1.1-1.2-1.8-.7-4.1 1.1-5.2zM1045.1 918.9c1.7-1.1 4-.6 5.2 1.1 1.1 1.7.6 4-1.1 5.2-1.7 1.1-4 .6-5.2-1.1-1.1-1.8-.6-4.1 1.1-5.2zM1039.5 944.7c.2-.1.4-.3.7-.3.9-.4 1.9-.3 2.8.1.7.3 1.2.8 1.7 1.4.8 1.3.8 2.9-.1 4.1-.3.4-.6.8-1.1 1-1.7 1.1-4 .6-5.2-1.1-1-1.8-.5-4.1 1.2-5.2zM1049.6 898.3c-.4-.6-.6-1.4-.6-2.1 0-1.2.6-2.4 1.7-3.1 1.7-1.1 4-.6 5.2 1.1 1.1 1.7.6 4-1.1 5.2-.2.1-.4.3-.7.3-.9.4-1.9.3-2.8-.1-.7-.2-1.3-.7-1.7-1.3zM1029.4 866.9c-.1-.2-.3-.4-.3-.7-.4-1.2-.3-2.4.4-3.4.3-.4.6-.8 1.1-1 .2-.1.4-.3.7-.3 1.6-.6 3.5-.1 4.5 1.5.3.4.5.9.5 1.4 0 .2.1.5.1.7 0 .7-.2 1.4-.6 2-.3.4-.6.8-1.1 1-.2.1-.4.3-.7.3-.5.2-.9.3-1.4.3-1 0-1.9-.4-2.6-1.1-.3-.3-.4-.5-.6-.7zM1069.8 929.6c-.4-.6-.6-1.4-.6-2.1 0-1 .4-1.9 1.1-2.6.2-.2.4-.3.6-.5.6-.4 1.4-.6 2.1-.6.5 0 1 .1 1.4.3.7.3 1.2.8 1.7 1.4.3.4.5.9.5 1.4.1.5.1 1 0 1.4-.1.5-.3.9-.6 1.3s-.6.8-1.1 1c-.9.6-1.9.7-2.8.5-.9 0-1.8-.6-2.3-1.5zM956.6 953.6c1.7-1.1 4-.6 5.2 1.1 1.1 1.7.6 4-1.1 5.2-1.7 1.1-4 .6-5.2-1.1-1.1-1.7-.6-4 1.1-5.2zM930.9 948c1.7-1.1 4-.6 5.2 1.1 1.1 1.7.6 4-1.1 5.2-1.7 1.1-4 .6-5.2-1.1-1.2-1.7-.7-4 1.1-5.2zM951 979.4c1.7-1.1 4-.6 5.2 1.1 1.1 1.7.6 4-1.1 5.2-1.7 1.1-4 .6-5.2-1.1-1.1-1.8-.6-4.1 1.1-5.2zM962.2 927.9c1.7-1.1 4-.6 5.2 1.1 1.1 1.7.6 4-1.1 5.2-1.7 1.1-4 .6-5.2-1.1-1.1-1.8-.6-4.1 1.1-5.2zM982.4 959.2c1.7-1.1 4-.6 5.2 1.1 1.1 1.7.6 4-1.1 5.2-1.7 1.1-4 .6-5.2-1.1-1.1-1.7-.6-4.1 1.1-5.2zM948.9 1004.9c.7.3 1.2.8 1.7 1.4.4.6.6 1.3.6 2-1-.1-2.1-.2-3.1-.4-.3 0-.6-.1-.9-.1-1.1-.1-2.2-.3-3.3-.5.2-.9.8-1.6 1.6-2.2.2-.1.4-.3.7-.3.8-.3 1.8-.3 2.7.1zM975.1 988.1c0-1 .4-1.9 1.1-2.6.2-.2.4-.3.6-.5 1.7-1.1 4-.6 5.2 1.1.3.4.5.9.5 1.4.2 1-.1 1.9-.6 2.7-.3.4-.6.8-1.1 1-.2.1-.4.3-.7.3-.9.4-1.9.3-2.8-.1-.7-.3-1.2-.8-1.7-1.4-.3-.5-.5-1.2-.5-1.9zM986.9 938.6c-.4-.6-.6-1.4-.6-2.1 0-1.2.6-2.4 1.7-3.1.2-.1.4-.3.7-.3.5-.2.9-.3 1.4-.2.5 0 1 .1 1.4.3.7.3 1.2.8 1.7 1.4.4.6.6 1.4.6 2.1 0 1.2-.6 2.4-1.7 3.1-.2.1-.4.3-.7.3-.9.4-1.9.3-2.8-.1-.7-.3-1.3-.7-1.7-1.4zM966.7 907.3c-.3-.4-.5-.9-.5-1.4-.1-.5-.1-1 0-1.4.1-.5.3-.9.6-1.3s.6-.8 1.1-1c.4-.3.9-.5 1.4-.5.5-.1 1-.1 1.4 0 .9.2 1.8.8 2.3 1.6.4.6.6 1.4.6 2.1 0 1-.4 1.9-1.1 2.6-.2.2-.4.3-.6.5-.4.3-.9.5-1.4.5-.5.1-1 .1-1.4 0-.5-.1-.9-.3-1.3-.6-.5-.4-.8-.7-1.1-1.1zM899.1 995.1c.4.6.6 1.3.6 2-2.3-.7-4.5-1.4-6.7-2.2.3-.4.6-.7 1-1 1.6-1 3.9-.5 5.1 1.2zM904.6 969.3c1.1 1.7.6 4-1.1 5.2-1.7 1.1-4 .6-5.2-1.1-1.1-1.7-.6-4 1.1-5.2 1.8-1.1 4.1-.6 5.2 1.1zM924.8 1000.7c.6 1 .7 2.2.4 3.2-2.4-.5-4.8-1.1-7.2-1.7.1-1.1.7-2.1 1.7-2.7 1.7-1 4-.5 5.1 1.2zM923.8 978.3c-.6-1.6-.1-3.5 1.5-4.5.4-.3.9-.5 1.4-.5 1.4-.2 2.9.4 3.8 1.7.4.6.6 1.4.6 2.1 0 1-.4 1.9-1.1 2.6-.2.2-.4.3-.6.5-1.5 1-3.5.7-4.7-.5-.2-.2-.3-.4-.5-.6-.2-.3-.3-.6-.4-.8zM1185.2 895.3c1.7-1.1 4-.6 5.2 1.1 1.1 1.7.6 4-1.1 5.2-1.7 1.1-4 .6-5.2-1.1-1.2-1.8-.7-4.1 1.1-5.2zM1159.4 889.7c1.7-1.1 4-.6 5.2 1.1 1.1 1.7.6 4-1.1 5.2-1.7 1.1-4 .6-5.2-1.1-1.1-1.8-.6-4.1 1.1-5.2zM1179.6 921.1c1.2-.8 2.7-.8 3.9-.1-1.5 2-3 3.9-4.6 5.7-.1-.2-.3-.3-.4-.5-1.2-1.7-.7-4 1.1-5.1zM1190.8 869.5c1.7-1.1 4-.6 5.2 1.1 1.1 1.7.6 4-1.1 5.2-1.7 1.1-4 .6-5.2-1.1-1.2-1.7-.7-4 1.1-5.2zM1195.2 848.9c-.4-.6-.6-1.4-.6-2.1 0-1.2.6-2.4 1.7-3.1 1.1-.7 2.4-.8 3.5-.3.4.2.8.5 1.2.8.2.2.3.4.5.6.3.4.5.9.5 1.4.2 1-.1 1.9-.6 2.7-.3.4-.6.8-1.1 1-.2.1-.4.3-.7.3-.9.4-1.9.3-2.8-.1-.6 0-1.1-.5-1.6-1.2zM1122.4 935.7c1.7-1.1 4-.6 5.2 1.1 1.1 1.7.6 4-1.1 5.2-1.7 1.1-4 .6-5.2-1.1-1.1-1.8-.6-4.1 1.1-5.2zM1096.7 930.1c1.7-1.1 4-.6 5.2 1.1 1.1 1.7.6 4-1.1 5.2-1.7 1.1-4 .6-5.2-1.1-1.2-1.8-.7-4.1 1.1-5.2zM1116.8 961.4c1.7-1.1 4-.6 5.2 1.1 1.1 1.7.6 4-1.1 5.2-1.7 1.1-4 .6-5.2-1.1-1.1-1.7-.6-4 1.1-5.2zM1128 909.9c1.7-1.1 4-.6 5.2 1.1 1.1 1.7.6 4-1.1 5.2-1.7 1.1-4 .6-5.2-1.1-1.1-1.8-.6-4.1 1.1-5.2zM1148.2 941.3c1.7-1.1 4-.6 5.2 1.1 1.1 1.7.6 4-1.1 5.2-1.7 1.1-4 .6-5.2-1.1-1.1-1.8-.6-4.1 1.1-5.2zM1152.7 920.6c-.4-.6-.6-1.4-.6-2.1 0-1.2.6-2.4 1.7-3.1.2-.1.4-.3.7-.3.5-.2.9-.3 1.4-.2.5 0 1 .1 1.4.3.7.3 1.2.8 1.7 1.4.4.7.6 1.4.6 2.1 0 1.2-.6 2.4-1.7 3.1-.2.1-.4.3-.7.3-.9.4-1.9.3-2.8-.1-.7-.2-1.3-.7-1.7-1.4zM1033.5 997.3c.4.6.6 1.4.6 2.1 0 1-.4 1.9-1.1 2.6-.2.2-.4.3-.6.5-1.7 1.1-4 .6-5.2-1.1-.6-.9-.7-1.9-.5-2.8.2-.9.8-1.8 1.6-2.3 1.8-1.2 4.1-.7 5.2 1zM1059.7 976c1.7-1.1 4-.6 5.2 1.1 1.1 1.7.6 4-1.1 5.2-1.7 1.1-4 .6-5.2-1.1-1.1-1.8-.6-4.1 1.1-5.2zM1033.9 970.4c1.7-1.1 4-.6 5.2 1.1 1.1 1.7.6 4-1.1 5.2-1.7 1.1-4 .6-5.2-1.1-1.1-1.8-.6-4.1 1.1-5.2zM1065.3 950.2c1.7-1.1 4-.6 5.2 1.1 1.1 1.7.6 4-1.1 5.2-1.7 1.1-4 .6-5.2-1.1-1.1-1.7-.6-4 1.1-5.2zM1090.6 982.7c.7 1.1.8 2.4.3 3.5-1.6.7-3.2 1.4-4.8 2-.7-.3-1.4-.8-1.8-1.5-1.1-1.7-.6-4 1.1-5.2 1.8-1 4.1-.5 5.2 1.2zM1090 961c-.1-.2-.3-.4-.3-.7-.6-1.6-.1-3.5 1.5-4.5.4-.3.9-.5 1.4-.5 1.4-.2 2.9.4 3.8 1.7 1.1 1.7.6 4-1.1 5.2-1.5 1-3.5.7-4.7-.5-.3-.3-.5-.5-.6-.7zM1007.7 991.7c1.1 1.7.6 4-1.1 5.2-1.7 1.1-4 .6-5.2-1.1-1.1-1.7-.6-4 1.1-5.2 1.8-1.1 4.1-.6 5.2 1.1zM1007 970c-.4-.6-.6-1.4-.6-2.1 0-1.2.6-2.4 1.7-3.1.4-.3.9-.5 1.4-.5.7-.1 1.5 0 2.1.2.4.2.8.5 1.2.8.2.2.3.4.5.6 1.1 1.7.6 4-1.1 5.2-.2.1-.4.3-.7.3-.9.4-1.9.3-2.8-.1-.6-.2-1.2-.7-1.7-1.3z"/></svg>