<svg width="20" height="20" viewBox="0 0 20 20" fill="none" xmlns="http://www.w3.org/2000/svg">
<path d="M10 1.11108C8.26957 1.11253 6.61 1.79869 5.38379 3.01969C4.15758 4.2407 3.46437 5.89733 3.45557 7.62775C3.45557 10.2222 4.91112 12.3944 5.97779 13.9778L6.17223 14.2666C7.2335 15.8048 8.37199 17.2881 9.58334 18.7111L10.0056 19.2055L10.4278 18.7111C11.639 17.288 12.7775 15.8046 13.8389 14.2666L14.0333 13.9722C15.0945 12.3889 16.55 10.2222 16.55 7.62775C16.5412 5.89637 15.8472 4.2389 14.6198 3.01773C13.3924 1.79657 11.7314 1.11106 10 1.11108ZM10 10.5555C9.27921 10.5555 8.57459 10.3418 7.97527 9.94133C7.37594 9.54087 6.90882 8.97169 6.63298 8.30575C6.35714 7.63982 6.28497 6.90704 6.42559 6.20009C6.56622 5.49314 6.91331 4.84376 7.423 4.33407C7.93268 3.82439 8.58206 3.47729 9.28901 3.33667C9.99597 3.19604 10.7287 3.26822 11.3947 3.54406C12.0606 3.8199 12.6298 4.28701 13.0303 4.88634C13.4307 5.48567 13.6445 6.19028 13.6445 6.91108C13.6445 7.87765 13.2605 8.80463 12.577 9.4881C11.8936 10.1716 10.9666 10.5555 10 10.5555Z" fill="#F87064"/>
<path d="M9.99996 8.98331C11.1444 8.98331 12.0722 8.05555 12.0722 6.91109C12.0722 5.76663 11.1444 4.83887 9.99996 4.83887C8.8555 4.83887 7.92773 5.76663 7.92773 6.91109C7.92773 8.05555 8.8555 8.98331 9.99996 8.98331Z" fill="#F87064"/>
</svg>
