<svg xmlns="http://www.w3.org/2000/svg" fill="none" viewBox="0 0 39 43"><path fill="#FFEACF" d="M33.065 35.73h-5.899v6.864h5.899V35.73z"/><path fill="#FFD59A" d="M29.782 35.73h-2.616v6.864h2.616V35.73z"/><path fill="#FFEACF" d="M29.595 39.458h-.279a7.166 7.166 0 0 1-7.167-7.167v-3.927a7.167 7.167 0 0 1 7.167-7.166h.279a7.167 7.167 0 0 1 7.167 7.166v3.927a7.167 7.167 0 0 1-7.167 7.167z"/><path fill="#FFD59A" d="M22.922 28.733l-2.641 3.172a.74.74 0 0 0-.172.474v.062c0 .41.334.741.745.741h2.068v-4.449z"/><path fill="#FFD59A" d="M24.766 32.18v-3.705c0-3.574 2.587-6.547 5.998-7.16a7.37 7.37 0 0 0-1.308-.117c-4.035 0-7.307 3.258-7.307 7.277v3.705c0 4.02 3.271 7.278 7.307 7.278.446 0 .883-.04 1.308-.117-3.411-.614-5.998-3.587-5.998-7.16z"/><path fill="#A56021" d="M34.458 26.186H23.285a3.173 3.173 0 0 1-3.173-3.173v-1.978c0-.4.325-.725.725-.725h11.808a3.626 3.626 0 0 1 3.626 3.626v.436a1.813 1.813 0 0 1-1.813 1.814z"/><path fill="#A56021" d="M32.175 33.918v-8.1c0-1.002.812-1.814 1.813-1.814h2.272c1.001 0 1.813.812 1.813 1.813v8.1a1.813 1.813 0 0 1-1.813 1.814h-2.272a1.813 1.813 0 0 1-1.813-1.813z"/><path fill="#BF6C0D" d="M36.666 34.445a.527.527 0 0 1-.527-.527v-5.554a.527.527 0 1 1 1.055 0v5.554a.527.527 0 0 1-.528.527z"/><path fill="#FFEACF" d="M32.175 32.985a2.663 2.663 0 0 0 2.668-2.657 2.663 2.663 0 0 0-2.669-2.658 2.663 2.663 0 0 0-2.668 2.658 2.663 2.663 0 0 0 2.669 2.657zM5.464 22.69h5.899v-6.863H5.464v6.863z"/><path fill="#FFD59A" d="M11.362 15.827H8.746v6.863h2.616v-6.863z"/><path fill="#FFEACF" d="M8.933 19.554h.28a7.167 7.167 0 0 0 7.166-7.167V8.46a7.167 7.167 0 0 0-7.167-7.166h-.279A7.167 7.167 0 0 0 1.767 8.46v3.927a7.167 7.167 0 0 0 7.166 7.167z"/><path fill="#FFD59A" d="M15.607 8.83l2.64 3.172c.111.133.172.3.172.473v.062c0 .41-.333.741-.744.741h-2.068V8.83z"/><path fill="#FFD59A" d="M13.763 12.276V8.571c0-3.574-2.588-6.547-5.998-7.16a7.374 7.374 0 0 1 1.308-.117c4.035 0 7.306 3.258 7.306 7.277v3.705c0 4.02-3.271 7.278-7.306 7.278-.447 0-.884-.04-1.308-.117 3.41-.614 5.998-3.586 5.998-7.16z"/><path fill="#A56021" d="M6.354 14.014v-8.1A1.813 1.813 0 0 0 4.54 4.1H2.269A1.813 1.813 0 0 0 .456 5.913v8.1c0 1.002.811 1.814 1.813 1.814H4.54a1.813 1.813 0 0 0 1.813-1.813z"/><path fill="#F87064" d="M36.417 1.95h-12.89a2.15 2.15 0 0 0-2.15 2.15v6.458a2.15 2.15 0 0 0 2.15 2.15h.803c.17 1.656-.91 2.674-1.713 3.193-.234.152-.135.516.145.528 3.56.154 4.723-2.288 5.098-3.72h8.557a2.15 2.15 0 0 0 2.15-2.15V4.1a2.15 2.15 0 0 0-2.15-2.15z"/><path fill="#FFC34C" d="M27.283 12.708h-.803a2.15 2.15 0 0 1-2.15-2.15V4.101a2.15 2.15 0 0 1 2.15-2.15h-2.953a2.15 2.15 0 0 0-2.15 2.15v6.457a2.15 2.15 0 0 0 2.15 2.15h.803c.17 1.656-.91 2.674-1.713 3.193-.234.152-.135.516.145.528 1.439.062 2.486-.3 3.248-.848.704-.576 1.413-1.508 1.273-2.873z"/><path fill="#FFC34C" d="M27.283 12.708h-.803a2.15 2.15 0 0 1-2.15-2.15V4.101a2.15 2.15 0 0 1 2.15-2.15h-2.953a2.15 2.15 0 0 0-2.15 2.15v6.457a2.15 2.15 0 0 0 2.15 2.15h.803c.17 1.656-.91 2.674-1.713 3.193-.234.152-.135.516.145.528 1.439.062 2.486-.3 3.248-.848.704-.576 1.413-1.508 1.273-2.873z"/><path fill="#F87064" d="M27.283 12.708h-.803a2.15 2.15 0 0 1-2.15-2.15V4.101a2.15 2.15 0 0 1 2.15-2.15h-2.953a2.15 2.15 0 0 0-2.15 2.15v6.457a2.15 2.15 0 0 0 2.15 2.15h.803c.17 1.656-.91 2.674-1.713 3.193-.234.152-.135.516.145.528 1.439.062 2.486-.3 3.248-.848.704-.576 1.413-1.508 1.273-2.873z"/><path fill="#fff" d="M36.828 7.87H23.117a.422.422 0 0 1 0-.844h13.71a.422.422 0 0 1 0 .844zM36.828 5.55H23.117a.422.422 0 0 1 0-.845h13.71a.422.422 0 0 1 0 .844z"/><path fill="#fff" d="M23.117 7.026a.422.422 0 0 0 0 .844h1.213v-.844h-1.213zM23.117 4.705a.422.422 0 0 0 0 .844h1.213v-.844h-1.213z"/><path fill="#F87064" d="M15.473 24.112H2.583a2.15 2.15 0 0 0-2.15 2.15v6.457a2.15 2.15 0 0 0 2.15 2.15h8.557c.375 1.433 1.538 3.874 5.098 3.72.28-.012.38-.375.145-.527-.804-.52-1.883-1.537-1.713-3.193h.803a2.15 2.15 0 0 0 2.15-2.15v-6.457a2.15 2.15 0 0 0-2.15-2.15z"/><path fill="#F87064" d="M3.385 32.72v-6.458a2.15 2.15 0 0 1 2.15-2.15H2.582a2.15 2.15 0 0 0-2.15 2.15v6.457a2.15 2.15 0 0 0 2.15 2.15h2.953a2.15 2.15 0 0 1-2.15-2.15z"/><path fill="#fff" d="M15.883 27.71H2.173a.422.422 0 0 1 0-.843h13.71a.422.422 0 0 1 0 .843zM15.883 30.03H2.173a.422.422 0 0 1 0-.843h13.71a.422.422 0 0 1 0 .844zM10.842 32.427H2.193a.422.422 0 0 1 0-.844h8.649a.422.422 0 0 1 0 .844z"/><path fill="#fff" d="M2.193 31.583a.422.422 0 0 0 0 .844h1.192v-.844H2.193zM2.172 29.187a.422.422 0 0 0 0 .844h1.213v-.844H2.172zM2.172 26.867a.422.422 0 0 0 0 .843h1.213v-.843H2.172z"/><path fill="#A56021" d="M12.22 10.502a.879.879 0 1 0 0-1.758.879.879 0 0 0 0 1.758zM26.14 30.316a.879.879 0 1 0 0-1.758.879.879 0 0 0 0 1.758z"/><path fill="#8C4C17" d="M26.424 25.586a1.582 1.582 0 1 0 0-3.164 1.582 1.582 0 0 0 0 3.164z"/><path fill="#8C4C17" d="M23.627 23.013v-1.978c0-.4.325-.725.726-.725h-3.516c-.4 0-.725.325-.725.726v1.977a3.173 3.173 0 0 0 3.173 3.172H26.8a3.172 3.172 0 0 1-3.173-3.172zM3.971 14.014v-8.1c0-.783.497-1.448 1.191-1.702a1.805 1.805 0 0 0-.621-.112H2.269A1.813 1.813 0 0 0 .456 5.913v8.1c0 1.002.811 1.814 1.813 1.814H4.54c.219 0 .427-.04.622-.112a1.812 1.812 0 0 1-1.192-1.701z"/><path fill="#A56021" d="M4.07 6.281h11.122a2.72 2.72 0 0 0 2.72-2.72v-.44A2.714 2.714 0 0 0 15.198.405H5.883a3.626 3.626 0 0 0-3.626 3.626v.436c0 1.002.812 1.813 1.813 1.813z"/><path fill="#BF6C0D" d="M15.192 5.403a.527.527 0 1 1 0-1.055.787.787 0 0 0 .786-.786.527.527 0 1 1 1.054 0c0 1.015-.825 1.84-1.84 1.84z"/><path fill="#8C4C17" d="M8.468 4.676a1.582 1.582 0 1 0 0-3.164 1.582 1.582 0 0 0 0 3.164z"/><path fill="#8C4C17" d="M5.772 4.468v-.436A3.626 3.626 0 0 1 9.398.406H5.883a3.626 3.626 0 0 0-3.626 3.626v.436c0 1.002.812 1.813 1.813 1.813h3.515a1.813 1.813 0 0 1-1.813-1.813z"/><path fill="#FFEACF" d="M6.354 13.081a2.663 2.663 0 0 0 2.668-2.657 2.663 2.663 0 0 0-2.668-2.658 2.663 2.663 0 0 0-2.668 2.658 2.663 2.663 0 0 0 2.668 2.657z"/><path fill="#fff" d="M36.828 10.166h-8.649a.422.422 0 0 1 0-.844h8.649a.422.422 0 0 1 0 .844z"/></svg>