<svg width="99" height="90" viewBox="0 0 99 90" fill="none" xmlns="http://www.w3.org/2000/svg">
<g filter="url(#filter0_f)">
<path d="M65.2585 74.7784L65.4034 74.5444L57.5393 59.3154L65.2585 74.7784Z" fill="#FFA9F8"/>
<path d="M31.8547 73.3917L57.5393 59.3155L32.9945 44.248L31.8547 73.3917Z" fill="#FF78F2"/>
<path d="M32.9945 44.2481L24.3554 44.0791L32.9945 44.2481Z" fill="#FFA9F8"/>
<path d="M32.9944 44.248L24.3553 44.079L16.1309 43.9725L15.9324 43.9792L25.5357 61.8389L31.674 73.4741L31.7498 73.4563L31.8545 73.3916L32.9944 44.248Z" fill="#F462ED"/>
<path d="M33.6059 15.7484L33.6393 15.3806L21.0619 35.6945L15.9547 43.7339L16.0484 43.7919L16.084 43.9435L24.3553 44.079L32.9944 44.248L33.6059 15.7484Z" fill="#D94EE2"/>
<path d="M83.1994 46.3249L83.0589 46.2379L82.9653 46.1799L57.5392 59.3155L65.4033 74.5444L65.468 74.6492L70.3366 66.7858L83.1994 46.3249Z" fill="#FFA9F8"/>
<path d="M34.1119 15.3495L45.4958 21.2324L57.5641 27.4743L59.5239 28.4934L59.6175 28.5514L59.7112 28.6094L67.275 16.393L34.1119 15.3495Z" fill="#D94EE2"/>
<path d="M57.7983 27.6192L57.5642 27.4743L45.4959 21.2324L34.1121 15.3495L33.8378 15.374L33.7799 15.4676L45.2685 21.2858L33.7799 15.4676L33.606 15.7484L32.9945 44.248L59.524 28.4934L57.7983 27.6192Z" fill="#FF78F2"/>
<path d="M67.2749 16.3929L59.7111 28.6093L59.8515 28.6963L61.3565 29.8223L72.0315 37.7915L83.1747 46.0506L67.2749 16.3929Z" fill="#B730C6"/>
<path d="M83.1748 46.0506L72.0316 37.7916L61.5617 30.0141L59.7112 28.6094L59.6176 28.5514L59.5239 28.4934L57.5392 59.3154L82.9653 46.1799L83.1748 46.0506Z" fill="#FF78F2"/>
<path d="M31.8544 73.3916L31.8433 73.5142L65.2583 74.7784L57.539 59.3154L31.8544 73.3916Z" fill="#F462ED"/>
<path d="M59.5238 28.4934L57.5391 59.3154L32.9943 44.248L59.5238 28.4934Z" fill="#FFA9F8"/>
</g>
<defs>
<filter id="filter0_f" x="0.932373" y="0.349487" width="97.2671" height="89.4289" filterUnits="userSpaceOnUse" color-interpolation-filters="sRGB">
<feFlood flood-opacity="0" result="BackgroundImageFix"/>
<feBlend mode="normal" in="SourceGraphic" in2="BackgroundImageFix" result="shape"/>
<feGaussianBlur stdDeviation="7.5" result="effect1_foregroundBlur"/>
</filter>
</defs>
</svg>
