<svg width="16" height="12" viewBox="0 0 16 12" fill="none" xmlns="http://www.w3.org/2000/svg">
<path d="M0.00292969 1.884L7.99993 5.882L15.9969 1.884C15.9673 1.37444 15.744 0.895488 15.3728 0.545227C15.0015 0.194965 14.5103 -9.35847e-05 13.9999 3.36834e-08H1.99993C1.48951 -9.35847e-05 0.998377 0.194965 0.627107 0.545227C0.255838 0.895488 0.0325338 1.37444 0.00292969 1.884Z" fill="#F87064"/>
<path d="M16 4.11792L8 8.11792L0 4.11792V9.99992C0 10.5304 0.210714 11.0391 0.585786 11.4141C0.960859 11.7892 1.46957 11.9999 2 11.9999H14C14.5304 11.9999 15.0391 11.7892 15.4142 11.4141C15.7893 11.0391 16 10.5304 16 9.99992V4.11792Z" fill="#F87064"/>
</svg>
