<svg xmlns="http://www.w3.org/2000/svg" fill="none" viewBox="0 0 31 43"><path fill="#F87064" d="M30.476 41.149H.524v-5.022A8.086 8.086 0 0 1 8.61 28.04h13.78a8.086 8.086 0 0 1 8.086 8.086v5.022z"/><path fill="#fff" d="M29.07 40.27a.527.527 0 0 1-.528-.528v-3.615a6.172 6.172 0 0 0-1.972-4.51.527.527 0 0 1 .718-.773 7.23 7.23 0 0 1 2.31 5.283v3.615a.527.527 0 0 1-.528.528z"/><path fill="#F87064" d="M5.446 38.236a8.086 8.086 0 0 1 8.086-8.086h13.78c.184 0 .365.009.546.02a8.056 8.056 0 0 0-5.468-2.13H8.61a8.086 8.086 0 0 0-8.086 8.087v5.022h4.922v-2.913z"/><path fill="#F87064" d="M15.53 33.54l-5.44 3.529a.703.703 0 0 1-1.086-.59v-8.438h6.525v5.5z"/><path fill="#F87064" d="M15.511 33.54l5.44 3.529a.703.703 0 0 0 1.085-.59v-8.438h-6.525v5.5z"/><path fill="#99AF17" d="M9.004 31.537a8.047 8.047 0 0 1 4.528-1.387h1.997v-2.11H9.004v3.497z"/><path fill="#99AF17" d="M22.036 28.04h-6.525v2.11h6.525v-2.11z"/><path fill="#FFEACF" d="M11.35 19.5v8.54l4.179 5.5 4.122-5.5V19.5H11.35z"/><path fill="#FFD59A" d="M14.865 28.04V19.5h-3.516v8.54l4.18 5.5 1.745-2.328-2.41-3.171z"/><path fill="#8C4C17" d="M6.925 18.426h3.426V6.193a2.049 2.049 0 0 0-2.049-2.05H6.925a2.049 2.049 0 0 0-2.049 2.05v10.184c0 1.132.918 2.049 2.05 2.049zM24.124 3.094h-1.395a2.04 2.04 0 0 0-2.04 2.04v1.777a8.998 8.998 0 0 1 3.639 7.235v3.22a2.04 2.04 0 0 0 1.836-2.03V5.134a2.04 2.04 0 0 0-2.04-2.04z"/><path fill="#FFEACF" d="M24.532 17.835a2.915 2.915 0 1 0 0-5.83 2.915 2.915 0 0 0 0 5.83z"/><path fill="#FFD59A" d="M6.169 18.89a2.915 2.915 0 1 0 0-5.83 2.915 2.915 0 0 0 0 5.83z"/><path fill="#FFEACF" d="M15.52 26.351A9.011 9.011 0 0 1 6.51 17.34v-4.588a9.011 9.011 0 1 1 18.023 0v4.588a9.011 9.011 0 0 1-9.012 9.011z"/><path fill="#FFD59A" d="M9.671 16.205v-4.473c0-.341.02-.678.056-1.01a1.017 1.017 0 0 1 1.014-.897h13.304a9.015 9.015 0 0 0-9.665-6.013c-.029.004-.057.01-.086.013-.095.013-.19.027-.284.043l-.136.024a8.834 8.834 0 0 0-.63.14l-.14.037a9.03 9.03 0 0 0-.245.073l-.124.038a9.082 9.082 0 0 0-.29.1l-.072.025c-.12.045-.237.092-.354.141l-.09.04c-.086.038-.171.075-.255.115l-.125.061a8.375 8.375 0 0 0-.546.292l-.132.078-.196.122c-.041.027-.082.052-.123.08a8.523 8.523 0 0 0-.212.145l-.097.068c-.099.072-.197.145-.293.22l-.088.073a9.337 9.337 0 0 0-.2.165c-.039.033-.077.068-.115.102a8.004 8.004 0 0 0-.548.528 8.25 8.25 0 0 0-.142.152l-.112.124c-.048.055-.094.11-.141.167l-.1.119c-.068.085-.135.17-.2.258l-.1.137-.135.191-.095.144a8.969 8.969 0 0 0-.108.17c-.032.05-.063.102-.094.154a10 10 0 0 0-.276.5l-.083.163c-.029.06-.056.12-.084.181-.025.054-.05.107-.074.162a8.914 8.914 0 0 0-.187.466c-.024.067-.05.134-.073.202a8.996 8.996 0 0 0-.487 2.927v4.479c0 4.958 3.959 9.068 8.916 9.12a8.974 8.974 0 0 0 4.398-1.091 9.09 9.09 0 0 1-1.202.07c-4.97-.033-8.949-4.153-8.949-9.125z"/><path fill="#A56021" d="M21.071 8.499H5.993a3.052 3.052 0 0 1-3.052-3.052V3.395A3.052 3.052 0 0 1 5.993.343h15.078a3.052 3.052 0 0 1 3.053 3.052v2.052a3.052 3.052 0 0 1-3.053 3.052z"/><path fill="#BF6C0D" d="M21.071 7.62a.527.527 0 1 1 0-1.055 1.12 1.12 0 0 0 1.119-1.118V3.395a.527.527 0 1 1 1.055 0v2.052A2.176 2.176 0 0 1 21.07 7.62z"/><path fill="#A56021" d="M10.42 16.168a1.122 1.122 0 1 0 0-2.244 1.122 1.122 0 0 0 0 2.244zM20.621 16.168a1.122 1.122 0 1 0 0-2.244 1.122 1.122 0 0 0 0 2.244z"/><path fill="#8C4C17" d="M8.214 5.447V3.395A3.052 3.052 0 0 1 11.267.343H5.993a3.052 3.052 0 0 0-3.052 3.052v2.052a3.052 3.052 0 0 0 3.052 3.052h5.274a3.052 3.052 0 0 1-3.053-3.052z"/><path fill="#FFA730" d="M17.605 42.657l.692-8.488h-5.53l.692 8.488h4.146z"/><path fill="#E58D23" d="M14.954 42.657l-.692-8.488h-1.495l.692 8.488h1.495z"/><path fill="#FFD551" d="M19.021 42.132h-6.877a.3.3 0 0 1-.299-.299v-5.68h7.475v5.68a.299.299 0 0 1-.299.3z"/><path fill="#F87064" d="M11.845 36.152v5.681a.3.3 0 0 0 .3.3h1.793v-5.98h-2.093z"/><path fill="#F87064" d="M18.44 35.183h-5.88l-.715.97h7.475l-.88-.97zM7.965 40.417a1.582 1.582 0 1 0 0-3.164 1.582 1.582 0 0 0 0 3.164z"/><path fill="#8C4C17" d="M10.771 4.324a1.582 1.582 0 1 0 0-3.164 1.582 1.582 0 0 0 0 3.164z"/><path fill="#FF624B" d="M17.851 40.418H13.15a.351.351 0 0 1-.352-.352v-1.603c0-.194.158-.352.352-.352h4.702c.194 0 .352.158.352.352v1.603a.352.352 0 0 1-.352.352z"/><path fill="#FF4B34" d="M13.938 38.111h-.79a.352.352 0 0 0-.35.352v1.603c0 .194.157.352.35.352h.79V38.11z"/></svg>