<svg width="13" height="9" viewBox="0 0 13 9" fill="none" xmlns="http://www.w3.org/2000/svg">
<path d="M4.98557 8.75006C4.88845 8.74975 4.79242 8.72946 4.70347 8.69047C4.61452 8.65148 4.53453 8.59461 4.46849 8.52339L1.02599 4.86131C0.897302 4.72417 0.828365 4.54153 0.834343 4.35356C0.837303 4.26049 0.858566 4.16891 0.896917 4.08406C0.935269 3.99921 0.989958 3.92274 1.05786 3.85902C1.12577 3.7953 1.20556 3.74558 1.29268 3.7127C1.37979 3.67981 1.47254 3.66441 1.56561 3.66737C1.75358 3.67335 1.93147 3.75375 2.06015 3.89089L4.97849 7.00048L10.9356 0.483809C10.996 0.408529 11.0712 0.346402 11.1566 0.301245C11.2419 0.256088 11.3356 0.228854 11.4318 0.221215C11.5281 0.213576 11.6249 0.225694 11.7163 0.256824C11.8076 0.287954 11.8917 0.33744 11.9633 0.402241C12.0349 0.467042 12.0924 0.545791 12.1324 0.633651C12.1725 0.721511 12.1941 0.816627 12.1961 0.913157C12.198 1.00969 12.1802 1.10559 12.1437 1.19498C12.1072 1.28437 12.0528 1.36536 11.9839 1.43298L5.50974 8.51631C5.44432 8.58881 5.36461 8.647 5.27563 8.68723C5.18664 8.72745 5.0903 8.74885 4.99265 8.75006H4.98557Z" fill="#E5E5E5"/>
</svg>
