<svg width="60" height="60" viewBox="0 0 60 60" fill="none" xmlns="http://www.w3.org/2000/svg">
<g clip-path="url(#clip0)">
<path d="M29.9626 44.5652C38.0068 44.5652 44.5278 38.0441 44.5278 30C44.5278 21.9559 38.0068 15.4348 29.9626 15.4348C21.9185 15.4348 15.3975 21.9559 15.3975 30C15.3975 38.0441 21.9185 44.5652 29.9626 44.5652Z" fill="#F87064"/>
<path d="M29.9629 28.5507C29.0024 28.5507 28.2237 27.7721 28.2237 26.8116C28.2237 25.8511 29.0024 25.0724 29.9629 25.0724C30.9234 25.0724 31.7021 25.8511 31.7021 26.8116C31.7021 27.612 32.3509 28.2608 33.1513 28.2608C33.9518 28.2608 34.6006 27.612 34.6006 26.8116C34.5635 24.8175 33.2927 23.0557 31.4122 22.3913V22.029C31.4122 21.2286 30.7633 20.5798 29.9629 20.5798C29.1625 20.5798 28.5136 21.2286 28.5136 22.029V22.3913C26.6331 23.0558 25.3624 24.8175 25.3252 26.8116C25.3252 29.3729 27.4015 31.4493 29.9629 31.4493C30.9234 31.4493 31.7021 32.2279 31.7021 33.1884C31.7021 34.1489 30.9234 34.9276 29.9629 34.9276C29.0024 34.9276 28.2237 34.1489 28.2237 33.1884C28.2237 32.388 27.5749 31.7392 26.7745 31.7392C25.974 31.7392 25.3252 32.388 25.3252 33.1884C25.3624 35.1825 26.6331 36.9443 28.5136 37.6087V37.971C28.5136 38.7714 29.1625 39.4202 29.9629 39.4202C30.7633 39.4202 31.4122 38.7714 31.4122 37.971V37.6087C33.2927 36.9442 34.5635 35.1825 34.6006 33.1884C34.6006 30.6271 32.5243 28.5507 29.9629 28.5507Z" fill="white"/>
<path d="M51.1945 8.76801C39.4686 -2.9373 20.4736 -2.92066 8.76813 8.80546C-2.93733 20.5316 -2.92054 39.5264 8.80558 51.2319C14.421 56.8373 22.0283 59.9901 29.9626 59.9999C46.5312 60.0206 59.9793 46.6059 59.9999 30.0374C60.0099 22.0587 56.8412 14.4048 51.1945 8.76801ZM49.1655 49.2028C44.4281 53.9304 38.0977 56.7211 31.4119 57.029V51.0145C31.4119 50.2141 30.7631 49.5652 29.9626 49.5652C29.1622 49.5652 28.5133 50.2141 28.5133 51.0145V57.029C14.7112 56.2735 3.68907 45.2515 2.93371 31.4492H8.94816C9.7486 31.4492 10.3974 30.8004 10.3974 29.9999C10.3974 29.1995 9.7486 28.5507 8.94816 28.5507H2.93371C3.55717 14.6898 14.6526 3.5945 28.5133 2.97104V8.98549C28.5133 9.78593 29.1622 10.4348 29.9626 10.4348C30.7631 10.4348 31.4119 9.78593 31.4119 8.98549V2.97091C45.2727 3.59436 56.3681 14.6898 56.9915 28.5505H50.9771C50.1766 28.5505 49.5278 29.1994 49.5278 29.9998C49.5278 30.8002 50.1766 31.4491 50.9771 31.4491H56.9915C56.6837 38.1348 53.8932 44.4654 49.1655 49.2028Z" fill="#1D262D"/>
</g>
<defs>
<clipPath id="clip0">
<rect width="60" height="60" fill="white"/>
</clipPath>
</defs>
</svg>
