<svg width="60" height="60" viewBox="0 0 60 60" fill="none" xmlns="http://www.w3.org/2000/svg">
<path d="M60 25.5774V34.4227L53.5134 35.0124C52.9183 37.8739 51.7933 40.5989 50.1965 43.0468L54.3243 48.0592L48.1326 54.3245L43.1202 50.123C40.6601 51.7128 37.9411 52.8602 35.0858 53.5137L34.4224 60.0001H25.651L24.9876 53.5136C22.1602 52.845 19.468 51.6984 17.0269 50.1229L11.9409 54.3244L5.74925 48.0591L9.95078 43.0467C8.2878 40.6259 7.13429 37.8926 6.56007 35.0123L0 34.4227V25.5774L6.56021 24.9877C7.14967 22.1122 8.30205 19.3817 9.95092 16.9533L5.74939 11.9409L11.9411 5.6756L17.0271 9.87714C19.4545 8.27595 22.1515 7.12723 24.9877 6.48642L25.6511 0H34.4225L35.0859 6.48656C37.9366 7.15404 40.6533 8.3005 43.1203 9.87728L48.1327 5.67574L54.2506 11.9411L50.0491 16.9534C51.7121 19.3742 52.8656 22.1076 53.4398 24.9879L60 25.5774Z" fill="#1D262D"/>
<path d="M29.9997 47.0271C39.4035 47.0271 47.0268 39.4038 47.0268 30C47.0268 20.5962 39.4035 12.973 29.9997 12.973C20.5959 12.973 12.9727 20.5962 12.9727 30C12.9727 39.4038 20.5959 47.0271 29.9997 47.0271Z" fill="#F87064"/>
</svg>
