<svg width="60" height="60" viewBox="0 0 60 60" fill="none" xmlns="http://www.w3.org/2000/svg">
<path d="M58.5687 0V23.5909H42.2732L32.7277 30.4773V23.5909H26.7959V0H58.5687Z" fill="#F87064"/>
<path d="M31.159 57.4091V60H1.43164V57.4091C1.46896 49.2157 8.10185 42.5828 16.2953 42.5455C20.2384 42.5357 24.0206 44.1076 26.7953 46.9091C29.5778 49.6967 31.1462 53.4706 31.159 57.4091Z" fill="#1D262D"/>
<path d="M16.2953 21.6819C21.0775 21.6441 24.9847 25.4904 25.0223 30.2725C25.06 35.0547 21.2138 38.9619 16.4316 38.9995C11.6494 39.0371 7.74222 35.191 7.70464 30.4088C7.70451 30.3862 7.70438 30.3635 7.70438 30.3409C7.66666 25.5965 11.4823 21.7198 16.2268 21.6821C16.2498 21.6819 16.2725 21.6819 16.2953 21.6819Z" fill="#1D262D"/>
<path d="M39.5543 6.00656C39.5269 6.00875 39.4383 6.01859 39.3574 6.02843C37.7332 6.21648 36.3999 7.44432 36.075 9.05046C35.9296 9.77208 36.0018 10.6981 36.2621 11.481C36.5377 12.3043 37.0003 13.0237 37.79 13.8558C38.1641 14.2494 38.4835 14.5446 39.5269 15.463C39.7796 15.6849 40.0607 15.9331 40.1503 16.0151C41.2703 17.021 42.048 17.8651 42.7163 18.7999L42.8585 19H43.0028L43.1472 18.9989L43.2894 18.789C43.8986 17.8902 44.615 17.0833 45.6793 16.0982C45.8882 15.9036 46.1255 15.6904 46.8025 15.0891C47.8482 14.1575 48.383 13.6207 48.8161 13.0664C49.5194 12.1643 49.8749 11.3137 49.9799 10.275C50.0007 10.0607 49.9985 9.54794 49.9744 9.36207C49.8596 8.48192 49.4921 7.72532 48.8828 7.11632C48.2736 6.50732 47.5157 6.13886 46.6363 6.02515C46.4252 5.99891 45.9658 5.99891 45.7503 6.02515C44.9486 6.12683 44.2421 6.44828 43.6503 6.98074C43.4414 7.1688 43.2063 7.43667 43.0652 7.64769C43.0324 7.69689 43.0028 7.73734 42.9996 7.73734C42.9963 7.73734 42.9668 7.69689 42.9339 7.64769C42.7928 7.43667 42.5577 7.1688 42.3488 6.98074C41.768 6.45812 41.0691 6.13558 40.2947 6.0328C40.135 6.01093 39.68 5.99563 39.5543 6.00656Z" fill="white"/>
</svg>
