<svg width="56" height="60" viewBox="0 0 56 60" fill="none" xmlns="http://www.w3.org/2000/svg">
<path d="M52.7793 19.2476H47.3643V59.956H52.7793V19.2476Z" fill="#1D262D"/>
<path d="M41.8028 26.5653H36.3877V59.956H41.8028V26.5653Z" fill="#1D262D"/>
<path d="M30.8262 34.6147H25.4111V59.956H30.8262V34.6147Z" fill="#1D262D"/>
<path d="M19.7764 37.9078H14.3613V59.9927H19.7764V37.9078Z" fill="#1D262D"/>
<path d="M8.72661 49.9821H3.31152V60H8.72661V49.9821Z" fill="#1D262D"/>
<path d="M55.048 0.441074C54.7409 0.17733 54.3547 0.0228374 53.9503 0.00196763H44.3641C43.5972 -0.0385114 42.9428 0.550465 42.9025 1.31719C42.9012 1.34226 42.9005 1.36719 42.9005 1.39226C42.9005 2.20058 43.5558 2.85581 44.3641 2.85581H50.4378L35.3635 18.0035L29.9482 12.7348C29.6304 12.4472 29.2024 12.3135 28.7774 12.3689C28.4561 12.4495 28.1565 12.5993 27.8994 12.808L0.97002 39.7372C0.432027 40.3261 0.464522 41.2372 1.04313 41.7863C1.31332 42.0621 1.68155 42.2198 2.06758 42.2254C2.47587 42.2236 2.86833 42.0665 3.16527 41.7863L29.07 15.8815L34.3387 21.0039C34.6462 21.1892 35.0069 21.2665 35.3632 21.2233C35.8023 21.2233 36.1681 21.2233 36.3876 21.0039L52.4869 4.97809V10.9786C52.4869 11.787 53.1422 12.4422 53.9505 12.4422C54.7173 12.4827 55.3717 11.8937 55.4121 11.127C55.4133 11.1019 55.414 11.077 55.414 11.0519V1.46552C55.4035 1.09392 55.2754 0.735212 55.048 0.441074Z" fill="#F87064"/>
</svg>
