<svg width="45" height="45" viewBox="0 0 45 45" fill="none" xmlns="http://www.w3.org/2000/svg">
<path d="M32.1287 11.8125V1.40625H12.8708V11.8125C12.8708 15.6565 15.0929 18.9759 18.312 20.5393C19.0392 20.8925 19.5115 21.623 19.5115 22.4371V22.5631C19.5115 23.3771 19.0392 24.1075 18.312 24.4608C15.0929 26.0242 12.8708 29.3435 12.8708 33.1877V43.5938H32.1287V33.1875C32.1287 29.3435 29.9067 26.0241 26.6876 24.4607C25.9604 24.1075 25.4881 23.377 25.4881 22.5629V22.4369C25.4881 21.6229 25.9604 20.8925 26.6876 20.5392C29.9067 18.9759 32.1287 15.6567 32.1287 11.8125Z" fill="#FFEACF"/>
<path d="M30.7227 33.7148C30.4314 33.7148 30.1953 33.4787 30.1953 33.1875C30.1953 30.2266 28.4869 27.484 25.843 26.2C25.5811 26.0727 25.4717 25.7572 25.599 25.4953C25.7264 25.2333 26.0418 25.1242 26.3037 25.2513C29.3085 26.7104 31.25 29.8255 31.25 33.1873C31.25 33.4787 31.0139 33.7148 30.7227 33.7148Z" fill="#FCF9DE"/>
<path d="M23.2339 24.4607C23.9611 24.1073 24.4334 23.377 24.4334 22.5629V22.4369C24.4334 21.6229 23.9611 20.8925 23.2339 20.5392C20.0148 18.9758 17.7927 15.6565 17.7927 11.8123V1.40625H12.8708V11.8125C12.8708 15.6565 15.0929 18.9759 18.312 20.5393C19.0392 20.8927 19.5115 21.623 19.5115 22.4371V22.5631C19.5115 23.3771 19.0392 24.1075 18.312 24.4608C15.0929 26.0242 12.8708 29.3435 12.8708 33.1877V43.5938H17.7927V33.1875C17.7927 29.3435 20.0148 26.0241 23.2339 24.4607Z" fill="#FFD59A"/>
<path d="M15.3823 15.4131C16.6919 18.0252 19.3777 19.8215 22.4732 19.8215H22.5264C25.6219 19.8215 28.3077 18.0252 29.6173 15.4131H15.3823Z" fill="#F87064"/>
<path d="M30.4686 40.8596V39.5493C30.4686 35.1332 26.9058 31.5404 22.5264 31.5404H22.4732C18.0939 31.5404 14.531 35.1332 14.531 39.5493V40.8596H30.4686Z" fill="#F87064"/>
<path d="M23.2031 18.1472H21.7969V32.2097H23.2031V18.1472Z" fill="#F87064"/>
<path d="M17.7929 33.1875C17.7929 33.1526 17.7945 33.1179 17.7948 33.0828C15.8183 34.541 14.5312 36.8958 14.5312 39.5491V40.8593H17.793V33.1875H17.7929Z" fill="#DB9C2E"/>
<path d="M21.7969 25.3218C22.239 25.0014 22.7094 24.7182 23.2031 24.4762V20.5235C22.7094 20.2815 22.239 19.9985 21.7969 19.6779V25.3218Z" fill="#DB9C2E"/>
<path d="M21.9782 19.805C20.42 18.7297 19.1927 17.2038 18.4805 15.4131H15.3823C16.6216 17.8849 19.0932 19.6252 21.9782 19.805Z" fill="#DB9C2E"/>
<path d="M33.4529 5.11644H11.5471C10.9946 5.11644 10.5469 4.66855 10.5469 4.11625V2.43367C10.5469 1.88119 10.9948 1.43347 11.5471 1.43347H33.4529C34.0054 1.43347 34.4531 1.88136 34.4531 2.43367V4.11625C34.4531 4.66855 34.0052 5.11644 33.4529 5.11644Z" fill="#BF6C0D"/>
<path d="M11.5471 39.8828H33.4529C34.0054 39.8828 34.4531 40.3307 34.4531 40.883V42.5656C34.4531 43.1181 34.0052 43.5658 33.4529 43.5658H11.5471C10.9946 43.5658 10.5469 43.1179 10.5469 42.5656V40.883C10.5469 40.3307 10.9948 39.8828 11.5471 39.8828Z" fill="#BF6C0D"/>
<path d="M20.2344 9.16541C21.1081 9.16541 21.8164 8.45711 21.8164 7.58337C21.8164 6.70964 21.1081 6.00134 20.2344 6.00134C19.3606 6.00134 18.6523 6.70964 18.6523 7.58337C18.6523 8.45711 19.3606 9.16541 20.2344 9.16541Z" fill="#FFD59A"/>
<path d="M20.2344 39.3707C21.1081 39.3707 21.8164 38.6624 21.8164 37.7887C21.8164 36.915 21.1081 36.2067 20.2344 36.2067C19.3606 36.2067 18.6523 36.915 18.6523 37.7887C18.6523 38.6624 19.3606 39.3707 20.2344 39.3707Z" fill="#DB9C2E"/>
<path d="M15.4688 4.11625V2.43384C15.4688 1.88119 15.9166 1.43347 16.4689 1.43347H11.5471C10.9946 1.43347 10.5469 1.88136 10.5469 2.43384V4.11625C10.5469 4.66873 10.9948 5.11644 11.5471 5.11644H16.4689C15.9166 5.11644 15.4688 4.66855 15.4688 4.11625Z" fill="#A56021"/>
<path d="M15.4688 42.5654V40.883C15.4688 40.3305 15.9166 39.8828 16.4689 39.8828H11.5471C10.9946 39.8828 10.5469 40.3307 10.5469 40.883V42.5654C10.5469 43.1181 10.9948 43.5656 11.5471 43.5656H16.4689C15.9166 43.5658 15.4688 43.1181 15.4688 42.5654Z" fill="#A56021"/>
</svg>
