<svg width="66" height="80" viewBox="0 0 66 80" fill="none" xmlns="http://www.w3.org/2000/svg">
<path fill-rule="evenodd" clip-rule="evenodd" d="M32.1073 0.197206L5.92325 7.06221C4.07341 7.55908 2.50153 7.65939 2.2145 9.40971C-4.17768 48.8399 12.2472 65.7789 32.0343 79.4131C33.1643 80.1927 32.8272 80.1972 33.957 79.4177C53.7442 65.788 70.1782 48.8491 63.7859 9.40971C63.4989 7.65924 61.927 7.55892 60.0772 7.06221L33.9161 0.206268C32.9 -0.0626381 33.1461 -0.0717006 32.1073 0.197206Z" fill="#F9F7F7"/>
<path fill-rule="evenodd" clip-rule="evenodd" d="M8.92161 14.6975C6.99896 33.0131 9.84193 49.4781 23.6607 63.518C26.4946 66.3944 29.5836 69.0245 32.8002 71.4861C33.0371 71.6684 32.9688 71.6639 33.2011 71.4861C36.4132 69.0245 39.5115 66.3898 42.3361 63.518C56.1594 49.4781 58.9979 33.0131 57.0797 14.6975C56.9796 13.7403 56.574 13.8269 55.6127 13.5761L33.0008 7.65015L10.3888 13.5761C9.42287 13.8269 9.02193 13.7401 8.92161 14.6975Z" fill="white"/>
<path fill-rule="evenodd" clip-rule="evenodd" d="M25.3779 65.2045C27.3507 66.9914 30.6857 69.8678 32.7998 71.4859C33.0367 71.6683 32.9684 71.6638 33.2007 71.4859C36.4128 69.0244 39.5111 66.3897 42.3358 63.5178C56.159 49.478 58.9975 33.013 57.0794 14.6973C56.9792 13.7402 56.5736 13.8267 55.6123 13.5759L49.5345 11.9805C51.1473 29.6989 46.819 44.4636 33.3784 58.1206C30.8864 60.6508 28.1845 62.9983 25.3779 65.2045Z" fill="white"/>
<path fill-rule="evenodd" clip-rule="evenodd" d="M49.776 54.1595C48.7737 53.5488 47.6437 52.9425 46.4409 52.2222L40.0304 56.3703C38.8412 57.0678 38.5679 57.7105 37.6749 56.571L36.5723 55.3994L33.0002 51.6114L29.4191 55.4086L28.3212 56.571C27.4282 57.7105 27.1593 57.0678 25.9702 56.3703L19.5598 52.2222C18.357 52.9424 17.227 53.5488 16.2246 54.1595C18.2384 57.3869 20.6987 60.5094 23.6602 63.518C24.7855 64.6622 25.952 65.7653 27.1502 66.8319L30.4854 59.5977L27.1502 66.8319C29.0182 68.5003 30.9455 70.073 32.941 71.5955C32.9455 71.6 32.9546 71.6046 32.9684 71.6138C32.9774 71.6183 32.9957 71.6228 33.014 71.6228C33.0276 71.6183 33.0504 71.6091 33.0732 71.5864C36.3171 69.0839 39.4654 66.4308 42.3359 63.518C45.302 60.5094 47.7576 57.3869 49.776 54.1595Z" fill="#7BACDF"/>
<path fill-rule="evenodd" clip-rule="evenodd" d="M35.5016 59.5977L36.5723 55.3994L37.1191 53.3208L33.0003 51.6114L31.0594 52.5139L28.918 53.5169L29.4192 55.4086L30.4853 59.5977H32.9911H35.5016Z" fill="#FE7600"/>
<path fill-rule="evenodd" clip-rule="evenodd" d="M29.4191 55.4086L33.0002 51.6114L30.5354 49.2319L25.7058 48.5299L19.5596 52.2222L25.97 56.3704C27.1593 57.0679 27.428 57.7105 28.321 56.571L29.4191 55.4086Z" fill="#0078C8"/>
<path fill-rule="evenodd" clip-rule="evenodd" d="M40.0302 56.3703L46.4406 52.2222L40.2944 48.5299L36.572 48.7807L33 51.6114L36.572 55.3994L37.6747 56.571C38.5677 57.7106 38.8411 57.0678 40.0302 56.3703Z" fill="#0078C8"/>
<path fill-rule="evenodd" clip-rule="evenodd" d="M40.2951 48.53C42.8876 46.3739 44.8331 43.3927 45.4709 40.5847C45.6212 39.9374 45.6987 39.2947 45.6987 38.6747V31.1761V30.2463H43.3659C38.4179 30.2463 37.3882 24.1517 31.3423 24.1517H28.4035C23.7745 24.1517 27.2963 31.1763 21.9748 31.1763H20.3027V38.6749C20.3027 39.2949 20.3802 39.9375 20.526 40.5849C21.1684 43.3928 23.1138 46.3741 25.7063 48.5302C26.9548 49.5696 28.3488 50.4174 29.8206 50.9689C30.9732 51.3974 31.9893 51.6116 33.0007 51.6116C34.0121 51.6116 35.0237 51.3974 36.1809 50.9689C37.6524 50.4171 39.0467 49.5693 40.2951 48.53Z" fill="#FFE5C1"/>
<path fill-rule="evenodd" clip-rule="evenodd" d="M45.6981 27.8028C45.6981 21.8633 39.6065 17.8245 33.9706 17.2456H31.2962C29.1275 17.4872 27.2094 18.3487 25.9884 19.935C19.8514 20.4729 20.3023 28.6461 20.3023 29.7218V31.8004V34.7679H21.9744C27.2959 34.7679 23.774 27.7434 28.4031 27.7434H31.3419C37.3878 27.7434 38.4175 33.8379 43.3654 33.8379H45.6983V31.9918V27.8028H45.6981Z" fill="#BF6C0D"/>
<path fill-rule="evenodd" clip-rule="evenodd" d="M45.6975 30.2463V27.803C45.6975 21.8634 39.6059 17.8247 33.97 17.2458H31.3047C36.7994 17.998 42.5492 21.9774 42.5492 27.7483V30.1916V31.1214V31.9328V33.7789C42.8089 33.82 43.0776 33.8381 43.3647 33.8381H45.6975V31.992V31.1761V30.2463Z" fill="#595959"/>
<path fill-rule="evenodd" clip-rule="evenodd" d="M45.6984 38.6747V34.7681V33.8383H43.3656C43.0786 33.8383 42.8098 33.82 42.5501 33.7791V38.6109C42.5501 39.2262 42.4681 39.8691 42.3223 40.5164C41.6845 43.3244 39.7345 46.3056 37.142 48.4617C37.019 48.5666 36.8959 48.6669 36.7684 48.7672C36.2992 49.1364 35.807 49.4783 35.3014 49.7883C34.5725 50.2305 33.8115 50.6087 33.0279 50.9005C32.8365 50.9734 32.6498 51.0372 32.4675 51.0964C32.0529 51.2286 31.652 51.3334 31.2646 51.4109C31.8615 51.5431 32.4311 51.6115 33.0006 51.6115C34.012 51.6115 35.0236 51.3973 36.1807 50.9689C37.6523 50.4173 39.0465 49.5695 40.295 48.5301C42.8875 46.374 44.8329 43.3928 45.4707 40.5848C45.6211 39.9373 45.6984 39.2947 45.6984 38.6747Z" fill="#FED1A3"/>
<path fill-rule="evenodd" clip-rule="evenodd" d="M42.5504 33.7789C38.2813 33.1589 37.0421 27.7436 31.3423 27.7436H28.4037C26.6951 27.7436 26.0982 28.7008 25.752 29.9134H29.119C34.8187 29.9134 36.0579 35.3242 40.3271 35.9487H42.5506V33.7789H42.5504Z" fill="#FED1A3"/>
<path fill-rule="evenodd" clip-rule="evenodd" d="M30.0937 54.693L33.0006 51.6116C32.4311 51.6116 31.8616 51.5432 31.2647 51.411C30.8045 51.3016 30.3261 51.1557 29.8205 50.9688C28.3489 50.4172 26.9547 49.5694 25.7062 48.53L22.7539 50.3033C23.1047 50.6361 23.4647 50.9597 23.8337 51.2652C25.4011 52.5735 27.1552 53.6402 29.005 54.3285C29.0506 54.3467 29.1006 54.3649 29.1462 54.3786C29.4695 54.4969 29.7839 54.6017 30.0937 54.693Z" fill="#0067B4"/>
<path fill-rule="evenodd" clip-rule="evenodd" d="M36.9956 54.3283C38.8455 53.64 40.5995 52.5733 42.1669 51.265C42.5359 50.9596 42.8958 50.636 43.2422 50.3032L40.2944 48.5299C39.0459 49.5693 37.6519 50.4171 36.1802 50.9686C35.023 51.3971 34.0114 51.6113 33 51.6113L35.9069 54.6927C36.2075 54.6016 36.5173 54.5013 36.8362 54.3872C36.8909 54.3647 36.9456 54.3464 36.9956 54.3283Z" fill="#0067B4"/>
<path fill-rule="evenodd" clip-rule="evenodd" d="M35.9065 54.693L32.9996 51.6116L31.4551 53.248L33.1045 55.4269L33.6148 56.0695C33.7696 56.2655 33.7287 56.293 33.6695 56.5391L33.1774 58.4627L32.9998 59.5977H35.501L36.5716 55.3994L35.9065 54.693Z" fill="#E6581F"/>
<path fill-rule="evenodd" clip-rule="evenodd" d="M49.7755 54.1595C48.7732 53.5488 47.6432 52.9425 46.4404 52.2222L42.4902 54.7794C44.3765 55.8597 46.0166 56.7258 47.1602 57.952C48.1035 56.7031 48.9737 55.4405 49.7755 54.1595Z" fill="#3987D0"/>
<path fill-rule="evenodd" clip-rule="evenodd" d="M49.5349 11.9807L55.6127 13.5762C56.5741 13.8269 56.9795 13.7402 57.0797 14.6976C58.975 32.7944 56.2277 49.0862 42.8281 63.0166C40.8644 69.2526 38.2628 74.563 35.2148 78.5426C54.4327 65.0543 70.0419 48.0059 63.7863 9.40991C63.4992 7.65944 61.9274 7.55913 60.0775 7.06241L41.1606 2.10272C42.1994 4.701 43.1152 7.5135 43.8944 10.5038L49.5349 11.9807Z" fill="#E2E2E2"/>
<path fill-rule="evenodd" clip-rule="evenodd" d="M27.1504 66.8319C28.9684 68.4547 30.8637 70 32.7999 71.4859C33.0368 71.6683 32.9685 71.6637 33.2009 71.4859C35.1326 70.0045 37.0235 68.4637 38.8413 66.8409L35.5016 59.5977H33.0004H32.9913H31.8796H30.4854L29.4648 61.813L27.1685 66.7953L27.1504 66.8319Z" fill="#F87064"/>
<path fill-rule="evenodd" clip-rule="evenodd" d="M33.6057 71.1761C35.3963 69.7903 37.1504 68.3499 38.8407 66.8411L38.8362 66.8366L35.501 59.5978H32.9998L36.0341 66.1847C36.2027 66.5494 36.3804 66.8047 36.0751 67.0736C34.6718 68.3135 33.2274 69.5124 31.7559 70.6657C32.1249 70.9619 32.4757 71.24 32.7991 71.4861C32.831 71.5135 32.8584 71.5317 32.8812 71.5499C32.8994 71.5636 32.9176 71.5817 32.9404 71.5955L32.9677 71.6138C32.9723 71.6138 32.9768 71.6183 32.9813 71.6183C32.9904 71.6228 32.9996 71.6228 33.0132 71.6228C33.0315 71.6183 33.0496 71.6046 33.0724 71.5864C33.077 71.5864 33.0769 71.5819 33.0815 71.5819C33.1088 71.5591 33.1452 71.5272 33.1999 71.4861C33.3369 71.3813 33.469 71.281 33.6057 71.1761Z" fill="#FE7600"/>
</svg>
