<svg width="70" height="71" viewBox="0 0 70 71" fill="none" xmlns="http://www.w3.org/2000/svg">
<path fill-rule="evenodd" clip-rule="evenodd" d="M32.5389 70.0934C50.2889 70.0934 64.7701 55.6011 64.7701 37.8317C64.7701 20.0578 50.2889 5.56543 32.5389 5.56543C14.7889 5.56543 0.307617 20.0578 0.307617 37.8317C0.307617 55.6009 14.7889 70.0934 32.5389 70.0934Z" fill="#F9F7F7"/>
<path fill-rule="evenodd" clip-rule="evenodd" d="M32.5375 59.1612C44.275 59.1612 53.8439 49.5773 53.8439 37.8317C53.8439 26.0815 44.275 16.4976 32.5375 16.4976C20.8 16.4976 11.2266 26.0815 11.2266 37.8317C11.2266 49.5773 20.8002 59.1612 32.5375 59.1612Z" fill="#7BACDF"/>
<path fill-rule="evenodd" clip-rule="evenodd" d="M32.5383 47.5573C37.8889 47.5573 42.2533 43.1881 42.2533 37.8317C42.2533 32.4707 37.8887 28.1015 32.5383 28.1015C27.1876 28.1015 22.8232 32.4707 22.8232 37.8317C22.8232 43.1881 27.1878 47.5573 32.5383 47.5573Z" fill="#F87064"/>
<path fill-rule="evenodd" clip-rule="evenodd" d="M36.3048 34.0612C36.7293 35.1535 36.9622 36.3371 36.9622 37.5802C36.9622 42.1916 33.7528 46.0535 29.4521 47.0544C30.42 47.379 31.4609 47.5571 32.5382 47.5571C37.9025 47.5571 42.2532 43.2016 42.2532 37.8315C42.2532 35.1441 41.1667 32.7127 39.409 30.9532C37.6514 29.1937 35.2226 28.1013 32.5382 28.1013C31.7804 28.1013 31.0407 28.1927 30.3286 28.3573C33.0681 29.2715 35.264 31.3783 36.3048 34.0612Z" fill="#F87064"/>
<path fill-rule="evenodd" clip-rule="evenodd" d="M43.6611 26.6939C45.6014 29.9068 46.7153 33.6773 46.7153 37.7037C46.7153 48.3982 38.8582 57.2554 28.6045 58.8001C29.8782 59.0378 31.1931 59.1612 32.5398 59.1612C44.3092 59.1612 53.8462 49.6093 53.8462 37.8317C53.8462 31.9406 51.4631 26.607 47.6054 22.7451L43.6611 26.6939Z" fill="#3987D0"/>
<path fill-rule="evenodd" clip-rule="evenodd" d="M32.539 16.4976C31.4524 16.4976 30.3841 16.5798 29.3432 16.7353C35.4151 17.8687 40.5785 21.5843 43.6601 26.6939C45.6004 29.9068 46.7143 33.6773 46.7143 37.7037C46.7143 48.3982 38.8573 57.2554 28.6035 58.8001C29.8773 59.0378 31.1921 59.1612 32.5388 59.1612C44.3082 59.1612 53.8452 49.6093 53.8452 37.8317C53.8452 31.9406 51.4621 26.607 47.6045 22.7451C43.7515 18.8879 38.4238 16.4976 32.539 16.4976Z" fill="#3987D0"/>
<path fill-rule="evenodd" clip-rule="evenodd" d="M32.5383 5.56543C50.3386 5.56543 64.7696 20.0121 64.7696 37.8317C64.7696 55.6512 50.3385 70.0934 32.5383 70.0934C31.4929 70.0934 30.4611 70.0431 29.4385 69.9472C45.7869 68.3842 58.5699 54.6047 58.5699 37.8317C58.5699 21.0587 45.7871 7.2748 29.4385 5.71637C30.4611 5.61574 31.493 5.56543 32.5383 5.56543Z" fill="#E2E2E2"/>
<path d="M32.5383 39.0391C32.2296 39.0391 31.9208 38.9213 31.6851 38.6858C31.2133 38.2146 31.213 37.4499 31.6843 36.978L52.493 16.1421C52.964 15.6705 53.7283 15.6697 54.2004 16.1413C54.6721 16.6126 54.6724 17.3772 54.2011 17.8491L33.3924 38.6851C33.1568 38.9212 32.8476 39.0391 32.5383 39.0391Z" fill="#838383"/>
<path fill-rule="evenodd" clip-rule="evenodd" d="M52.3707 12.4164L53.3478 16.9957L57.8354 18.0651C57.9084 18.0834 57.9815 18.1017 58.0545 18.12H58.059C56.4065 15.9812 54.4937 14.057 52.3662 12.3936C52.3707 12.4026 52.3707 12.4071 52.3707 12.4164Z" fill="#647B98"/>
<path fill-rule="evenodd" clip-rule="evenodd" d="M61.2906 0.903699L52.37 9.82948C51.6669 10.5332 52.1555 11.42 52.3655 12.3934C52.37 12.4025 52.37 12.4071 52.37 12.4162L53.347 16.9956L57.8347 18.065C57.9077 18.0832 57.9808 18.1015 58.0538 18.1198H58.0583C58.9486 18.362 59.7611 18.7185 60.4186 18.065L69.4261 9.04776C70.1338 8.33479 70.4716 6.59808 68.7094 6.29183L64.9247 5.40526L63.8702 1.50229C63.4866 0.0765117 61.9981 0.19073 61.2906 0.903699Z" fill="#7BACDF"/>
<path fill-rule="evenodd" clip-rule="evenodd" d="M55.6527 14.5643L52.6807 13.8559L53.3472 16.9957C55.1232 17.4162 56.8808 17.8046 58.6339 18.2845C58.6385 18.2845 58.6385 18.289 58.6385 18.289C59.3005 18.4718 59.9077 18.5723 60.419 18.0651L69.4264 9.04793C70.1341 8.33496 70.4719 6.59824 68.7097 6.29199L67.783 6.07715L59.0038 14.747C58.2916 15.4462 57.3421 14.9664 56.4197 14.747L55.6527 14.5643Z" fill="#3987D0"/>
</svg>
