<svg width="80" height="80" viewBox="0 0 80 80" fill="none" xmlns="http://www.w3.org/2000/svg">
<g clip-path="url(#clip0)">
<path fill-rule="evenodd" clip-rule="evenodd" d="M48.8123 52.3558L55.8151 59.3589H59.9296L59.6843 55.4896L52.6498 48.4547L48.2764 47.7008L48.8123 52.3558Z" fill="#CECECE"/>
<path fill-rule="evenodd" clip-rule="evenodd" d="M8.68875 8.6899C20.2784 -2.89557 39.0661 -2.89557 50.6558 8.6899C62.2455 20.2799 62.2455 39.068 50.6558 50.658C39.0661 62.248 20.2784 62.248 8.68875 50.658C-2.89625 39.068 -2.89625 20.2797 8.68875 8.6899Z" fill="#CECECE"/>
<path fill-rule="evenodd" clip-rule="evenodd" d="M13.6614 13.6667C22.5035 4.82433 36.8407 4.82433 45.6829 13.6667C54.5249 22.5045 54.5249 36.842 45.6829 45.6843C36.8408 54.5267 22.5036 54.5267 13.6614 45.6843C4.82379 36.842 4.82379 22.5045 13.6614 13.6667Z" fill="#F9F7F7"/>
<path fill-rule="evenodd" clip-rule="evenodd" d="M55.1516 60.0219L60.02 55.1535C61.0373 54.1361 62.6994 54.1361 63.7167 55.1535L79.2347 70.6717C80.252 71.6891 80.252 73.3513 79.2347 74.3685L74.3663 79.2369C73.3489 80.2542 71.6869 80.2542 70.6695 79.2369L55.1516 63.7188C54.1344 62.7014 54.1344 61.0392 55.1516 60.0219Z" fill="#7BACDF"/>
<path fill-rule="evenodd" clip-rule="evenodd" d="M56.7637 58.4097C57.781 57.3924 59.443 57.3924 60.4604 58.4097L75.9783 73.928C76.991 74.9408 76.9957 76.5984 75.9919 77.6156V77.6111L79.2344 74.3684C79.3888 74.2186 79.516 74.0505 79.6251 73.8734C80.1246 73.0469 80.1246 71.9933 79.6251 71.1667C79.516 70.9895 79.389 70.8216 79.2344 70.6717L63.7165 55.1534C62.6991 54.1361 61.0371 54.1361 60.0198 55.1534L57.5855 57.5877L56.7637 58.4097Z" fill="#3987D0"/>
<path fill-rule="evenodd" clip-rule="evenodd" d="M40.9553 10.038C42.6447 11.0098 44.2387 12.218 45.6829 13.6666C54.525 22.5044 54.525 36.8419 45.6829 45.6842C43.7437 47.6234 41.5412 49.1358 39.1933 50.2258C34.5337 54.8491 28.73 57.6148 22.6943 58.5186C32.4084 60.862 43.0715 58.2416 50.6558 50.6572C62.2454 39.0672 62.2454 20.2791 50.6558 8.68906C43.7347 1.76781 34.2432 -1.0161 25.2512 0.328121C30.3829 1.56343 35.2514 4.18843 39.2568 8.19406C39.8517 8.78906 40.4193 9.40671 40.9553 10.038Z" fill="#B5ADB6"/>
<path fill-rule="evenodd" clip-rule="evenodd" d="M30 40.5C33.5 37 38 29.4183 38 25C38 20.5817 34.4183 17 30 17C25.5817 17 22 20.5817 22 25C22 29.4183 26 36.5 30 40.5ZM30 31C32.7614 31 35 28.7614 35 26C35 23.2386 32.7614 21 30 21C27.2386 21 25 23.2386 25 26C25 28.7614 27.2386 31 30 31Z" fill="#F87064"/>
</g>
<defs>
<clipPath id="clip0">
<rect width="80" height="80" fill="white"/>
</clipPath>
</defs>
</svg>
